#N canvas 630 91 461 480 10;
#X obj 65 33 inlet;
#X obj 66 111 list split 1;
#X obj 107 137 list;
#X obj 66 242 soundfiler;
#X msg 66 219 read -resize -maxsize 4e+07 \$1.wav \$1;
#X obj 78 196 print LOADING SOUND;
#X msg 66 63 bang;
#X obj 66 158 t a a;
#X obj 103 312 symbol;
#X obj 66 341 send;
#X obj 66 267 t f b;
#X obj 142 289 symbol;
#X msg 142 268 \$1_size;
#X obj 182 375 outlet;
#X obj 66 86 audio_tables;
#X obj 113 163 list length;
#X obj 183 334 sel 0;
#X text 233 376 bangs when last file is loaded;
#X obj 278 75 table silence;
#X connect 0 0 6 0;
#X connect 1 0 7 0;
#X connect 1 1 2 0;
#X connect 2 0 1 0;
#X connect 2 0 15 0;
#X connect 3 0 10 0;
#X connect 4 0 3 0;
#X connect 6 0 14 0;
#X connect 7 0 4 0;
#X connect 7 0 5 0;
#X connect 7 1 12 0;
#X connect 8 0 9 1;
#X connect 10 0 9 0;
#X connect 10 1 8 0;
#X connect 11 0 8 1;
#X connect 12 0 11 0;
#X connect 14 0 1 0;
#X connect 15 0 16 0;
#X connect 16 0 13 0;
