#N canvas 435 72 785 506 10;
#X obj 55 93 table_scaler;
#X obj 181 92 table_scaler;
#X obj 70 206 table_scaler;
#X obj 198 204 table_scaler;
#X obj 329 136 table_scaler;
#X obj 332 228 table_scaler;
#X floatatom 487 36 5 0 0 0 - - -;
#X obj 79 364 table_scaler;
#X obj 205 363 table_scaler;
#X obj 94 477 table_scaler;
#X obj 222 475 table_scaler;
#X obj 353 407 table_scaler;
#X obj 356 499 table_scaler;
#X floatatom 511 307 5 0 0 0 - - -;
#X msg 45 33 Cloud_\$1-\$2_Mid_A;
#X msg 171 33 Cloud_\$1-\$2_Mid_B;
#X msg 319 76 Cloud_\$1-\$2_Mid_E;
#X msg 60 146 Cloud_\$1-\$2_Mid_C;
#X msg 188 144 Cloud_\$1-\$2_Mid_D;
#X msg 322 166 Cloud_\$1-\$2_Mid_F;
#X msg 492 14 \$1;
#X msg 511 282 \$1;
#X obj 492 -11 f \$3;
#X obj 511 258 f \$4;
#X msg 69 304 Cloud_\$1-\$2_Lo_A;
#X msg 195 303 Cloud_\$1-\$2_Lo_B;
#X msg 343 347 Cloud_\$1-\$2_Lo_E;
#X msg 84 417 Cloud_\$1-\$2_Lo_C;
#X msg 212 415 Cloud_\$1-\$2_Lo_D;
#X msg 346 438 Cloud_\$1-\$2_Lo_F;
#X obj 160 -56 inlet;
#X obj 160 -31 t b b;
#X obj 612 459 outlet;
#X obj 489 448 outlet;
#X obj 44 3 pack f f;
#X obj 44 -26 f \$1;
#X obj 81 -27 f \$2;
#X obj 44 -50 t b b;
#X connect 6 0 4 1;
#X connect 6 0 5 1;
#X connect 6 0 3 1;
#X connect 6 0 2 1;
#X connect 6 0 1 1;
#X connect 6 0 0 1;
#X connect 6 0 33 0;
#X connect 13 0 11 1;
#X connect 13 0 12 1;
#X connect 13 0 10 1;
#X connect 13 0 9 1;
#X connect 13 0 8 1;
#X connect 13 0 7 1;
#X connect 13 0 32 0;
#X connect 14 0 0 0;
#X connect 15 0 1 0;
#X connect 16 0 4 0;
#X connect 17 0 2 0;
#X connect 18 0 3 0;
#X connect 19 0 5 0;
#X connect 20 0 6 0;
#X connect 21 0 13 0;
#X connect 22 0 20 0;
#X connect 23 0 21 0;
#X connect 24 0 7 0;
#X connect 25 0 8 0;
#X connect 26 0 11 0;
#X connect 27 0 9 0;
#X connect 28 0 10 0;
#X connect 29 0 12 0;
#X connect 30 0 31 0;
#X connect 31 0 37 0;
#X connect 31 1 22 0;
#X connect 31 1 23 0;
#X connect 34 0 14 0;
#X connect 34 0 15 0;
#X connect 34 0 17 0;
#X connect 34 0 18 0;
#X connect 34 0 16 0;
#X connect 34 0 19 0;
#X connect 34 0 24 0;
#X connect 34 0 25 0;
#X connect 34 0 26 0;
#X connect 34 0 27 0;
#X connect 34 0 28 0;
#X connect 34 0 29 0;
#X connect 35 0 34 0;
#X connect 36 0 34 1;
#X connect 37 0 35 0;
#X connect 37 1 36 0;
