#N canvas 2 52 792 597 10;
#X obj 184 555 outlet~;
#X obj 84 19 inlet;
#X obj 71 122 f;
#X obj 103 122 + 1;
#X obj 70 148 % 10;
#X floatatom 80 173 5 0 0 0 - - -, f 5;
#X obj 85 53 unpack s f f;
#X obj 48 390 eloopxf~;
#X obj 123 388 eloopxf~;
#X obj 153 204 pack f s f f;
#X obj 152 233 route 0 1 2 3 4 5 6 7 8 9;
#X obj 18 359 unpack s f f;
#X obj 84 77 t b s;
#X obj 122 358 unpack s f f;
#X obj 244 389 eloopxf~;
#X obj 333 389 eloopxf~;
#X obj 228 360 unpack s f f;
#X obj 332 359 unpack s f f;
#X obj 438 390 eloopxf~;
#X obj 437 360 unpack s f f;
#X obj 258 487 eloopxf~;
#X obj 333 485 eloopxf~;
#X obj 228 456 unpack s f f;
#X obj 332 455 unpack s f f;
#X obj 454 486 eloopxf~;
#X obj 543 486 eloopxf~;
#X obj 438 457 unpack s f f;
#X obj 542 456 unpack s f f;
#X obj 648 487 eloopxf~;
#X obj 647 457 unpack s f f;
#X obj 336 31 inlet;
#X text 384 32 control (temp);
#X connect 1 0 6 0;
#X connect 2 0 3 0;
#X connect 2 0 4 0;
#X connect 3 0 2 1;
#X connect 4 0 5 0;
#X connect 4 0 9 0;
#X connect 6 0 12 0;
#X connect 6 1 9 2;
#X connect 6 2 9 3;
#X connect 7 0 0 0;
#X connect 8 0 0 0;
#X connect 9 0 10 0;
#X connect 10 0 11 0;
#X connect 10 1 13 0;
#X connect 10 2 16 0;
#X connect 10 3 17 0;
#X connect 10 4 19 0;
#X connect 10 5 22 0;
#X connect 10 6 23 0;
#X connect 10 7 26 0;
#X connect 10 8 27 0;
#X connect 10 9 29 0;
#X connect 11 0 7 0;
#X connect 11 1 7 1;
#X connect 11 2 7 2;
#X connect 12 0 2 0;
#X connect 12 1 9 1;
#X connect 13 0 8 0;
#X connect 13 1 8 1;
#X connect 13 2 8 2;
#X connect 14 0 0 0;
#X connect 15 0 0 0;
#X connect 16 0 14 0;
#X connect 16 1 14 1;
#X connect 16 2 14 2;
#X connect 17 0 15 0;
#X connect 17 1 15 1;
#X connect 17 2 15 2;
#X connect 18 0 0 0;
#X connect 19 0 18 0;
#X connect 19 1 18 1;
#X connect 19 2 18 2;
#X connect 20 0 0 0;
#X connect 21 0 0 0;
#X connect 22 0 20 0;
#X connect 22 1 20 1;
#X connect 22 2 20 2;
#X connect 23 0 21 0;
#X connect 23 1 21 1;
#X connect 23 2 21 2;
#X connect 24 0 0 0;
#X connect 25 0 0 0;
#X connect 26 0 24 0;
#X connect 26 1 24 1;
#X connect 26 2 24 2;
#X connect 27 0 25 0;
#X connect 27 1 25 1;
#X connect 27 2 25 2;
#X connect 28 0 0 0;
#X connect 29 0 28 0;
#X connect 29 1 28 1;
#X connect 29 2 28 2;
#X connect 30 0 7 3;
#X connect 30 0 8 3;
#X connect 30 0 14 3;
#X connect 30 0 15 3;
#X connect 30 0 18 3;
#X connect 30 0 20 3;
#X connect 30 0 21 3;
#X connect 30 0 25 3;
#X connect 30 0 24 3;
#X connect 30 0 28 3;
