#N canvas 12 263 1003 428 10;
#X obj 263 298 outlet~;
#X obj 54 65 inlet;
#X obj 54 208 cloud-supercell;
#X obj 76 121 print Lo;
#X obj 248 120 print Mid;
#X obj 445 236 *~ 0.158489;
#X text 532 238 -16dB;
#X text 312 223 -9dB;
#X obj 225 221 *~ 0.354813;
#X obj 225 61 inlet;
#X obj 446 59 inlet;
#X obj 54 91 magic_namer Cloud Lo \$1;
#X text 147 10 creation arg is suffix (like "A" or "F");
#X obj 225 90 magic_namer Cloud Mid \$1;
#X obj 446 88 magic_namer Cloud Hi \$1;
#X obj 225 193 cloud-supercell;
#X obj 446 198 cloud-supercell;
#X obj 469 118 print Hi;
#X obj 80 170 r \$0-temperature;
#X obj 259 170 r \$0-temperature;
#X obj 482 170 r \$0-temperature;
#X obj 640 22 inlet;
#X text 538 19 temperature;
#X obj 640 45 s \$0-temperature;
#X obj 224 254 *~ 1;
#X obj 54 269 *~ 1;
#X obj 762 20 inlet;
#X obj 762 146 s \$0-wind_ducking;
#X obj 870 19 inlet;
#X obj 870 70 s \$0-rain_ducking;
#X obj 870 44 jrange 0.02 0.05 1 0;
#X text 760 -5 wind;
#X text 866 -10 rain;
#X obj 313 145 r \$0-wind_ducking;
#X obj 315 116 r \$0-rain_ducking;
#X obj 100 259 r \$0-wind_ducking;
#X obj 102 230 r \$0-rain_ducking;
#X obj 444 266 *~ 1;
#X obj 547 197 r \$0-rain_ducking;
#X obj 114 346 print;
#X floatatom 747 172 5 0 0 0 - - -;
#X floatatom 853 94 5 0 0 0 - - -;
#X floatatom 695 138 5 0 0 0 - - -;
#X obj 745 81 moses 9;
#X obj 762 120 jrange 9 13 1 0;
#X connect 1 0 11 0;
#X connect 2 0 25 0;
#X connect 5 0 37 0;
#X connect 8 0 24 0;
#X connect 9 0 13 0;
#X connect 10 0 14 0;
#X connect 11 0 2 0;
#X connect 11 0 3 0;
#X connect 13 0 4 0;
#X connect 13 0 15 0;
#X connect 14 0 16 0;
#X connect 14 0 17 0;
#X connect 15 0 8 0;
#X connect 16 0 5 0;
#X connect 18 0 2 1;
#X connect 19 0 15 1;
#X connect 20 0 16 1;
#X connect 21 0 23 0;
#X connect 24 0 0 0;
#X connect 25 0 0 0;
#X connect 26 0 43 0;
#X connect 28 0 30 0;
#X connect 30 0 29 0;
#X connect 30 0 41 0;
#X connect 33 0 24 1;
#X connect 34 0 24 1;
#X connect 35 0 25 1;
#X connect 36 0 25 1;
#X connect 37 0 0 0;
#X connect 38 0 37 1;
#X connect 43 0 42 0;
#X connect 43 1 44 0;
#X connect 44 0 27 0;
#X connect 44 0 40 0;
