#N canvas 140 52 789 346 10;
#X obj 263 298 outlet~;
#X obj 54 65 inlet;
#X obj 54 208 cloud-supercell;
#X obj 76 121 print Lo;
#X obj 248 120 print Mid;
#X obj 445 236 *~ 0.158489;
#X text 532 238 -16dB;
#X text 312 223 -9dB;
#X obj 225 221 *~ 0.354813;
#X obj 225 61 inlet;
#X obj 446 59 inlet;
#X obj 54 91 magic_namer Cloud Lo \$1;
#X text 147 10 creation arg is suffix (like "A" or "F");
#X obj 225 90 magic_namer Cloud Mid \$1;
#X obj 446 88 magic_namer Cloud Hi \$1;
#X obj 225 193 cloud-supercell;
#X obj 446 198 cloud-supercell;
#X obj 469 118 print Hi;
#X obj 80 170 r \$0-temperature;
#X obj 259 170 r \$0-temperature;
#X obj 482 170 r \$0-temperature;
#X obj 640 22 inlet;
#X text 538 19 temperature;
#X obj 640 45 s \$0-temperature;
#X connect 1 0 11 0;
#X connect 2 0 0 0;
#X connect 5 0 0 0;
#X connect 8 0 0 0;
#X connect 9 0 13 0;
#X connect 10 0 14 0;
#X connect 11 0 2 0;
#X connect 11 0 3 0;
#X connect 13 0 4 0;
#X connect 13 0 15 0;
#X connect 14 0 16 0;
#X connect 14 0 17 0;
#X connect 15 0 8 0;
#X connect 16 0 5 0;
#X connect 18 0 2 1;
#X connect 19 0 15 1;
#X connect 20 0 16 1;
#X connect 21 0 23 0;
