#N canvas 2 52 792 597 10;
#X obj 184 555 outlet~;
#X obj 84 19 inlet;
#X obj 71 122 f;
#X obj 103 122 + 1;
#X obj 70 148 % 10;
#X floatatom 80 173 5 0 0 0 - - -;
#X obj 85 53 unpack s f f;
#X obj 153 204 pack f s f f;
#X obj 152 233 route 0 1 2 3 4 5 6 7 8 9;
#X obj 18 359 unpack s f f;
#X obj 84 77 t b s;
#X obj 122 358 unpack s f f;
#X obj 228 360 unpack s f f;
#X obj 332 359 unpack s f f;
#X obj 437 360 unpack s f f;
#X obj 228 456 unpack s f f;
#X obj 332 455 unpack s f f;
#X obj 438 457 unpack s f f;
#X obj 542 456 unpack s f f;
#X obj 647 457 unpack s f f;
#X obj 336 31 inlet;
#X text 384 32 control (temp);
#X obj 30 388 eloopxf~ 1000;
#X obj 123 388 eloopxf~ 1000;
#X obj 221 389 eloopxf~ 1000;
#X obj 333 389 eloopxf~ 1000;
#X obj 438 390 eloopxf~ 1000;
#X obj 235 487 eloopxf~ 1000;
#X obj 333 485 eloopxf~ 1000;
#X obj 444 481 eloopxf~ 1000;
#X obj 543 486 eloopxf~ 1000;
#X obj 648 487 eloopxf~ 1000;
#X connect 1 0 6 0;
#X connect 2 0 3 0;
#X connect 2 0 4 0;
#X connect 3 0 2 1;
#X connect 4 0 5 0;
#X connect 4 0 7 0;
#X connect 6 0 10 0;
#X connect 6 1 7 2;
#X connect 6 2 7 3;
#X connect 7 0 8 0;
#X connect 8 0 9 0;
#X connect 8 1 11 0;
#X connect 8 2 12 0;
#X connect 8 3 13 0;
#X connect 8 4 14 0;
#X connect 8 5 15 0;
#X connect 8 6 16 0;
#X connect 8 7 17 0;
#X connect 8 8 18 0;
#X connect 8 9 19 0;
#X connect 9 0 22 0;
#X connect 9 1 22 1;
#X connect 9 2 22 2;
#X connect 10 0 2 0;
#X connect 10 1 7 1;
#X connect 11 0 23 0;
#X connect 11 1 23 1;
#X connect 11 2 23 2;
#X connect 12 0 24 0;
#X connect 12 1 24 1;
#X connect 12 2 24 2;
#X connect 13 0 25 0;
#X connect 13 1 25 1;
#X connect 13 2 25 2;
#X connect 14 0 26 0;
#X connect 14 1 26 1;
#X connect 14 2 26 2;
#X connect 15 0 27 0;
#X connect 15 1 27 1;
#X connect 15 2 27 2;
#X connect 16 0 28 0;
#X connect 16 1 28 1;
#X connect 16 2 28 2;
#X connect 17 0 29 0;
#X connect 17 1 29 1;
#X connect 17 2 29 2;
#X connect 18 0 30 0;
#X connect 18 1 30 1;
#X connect 18 2 30 2;
#X connect 19 0 31 0;
#X connect 19 1 31 1;
#X connect 19 2 31 2;
#X connect 20 0 22 3;
#X connect 20 0 23 3;
#X connect 20 0 24 3;
#X connect 20 0 25 3;
#X connect 20 0 26 3;
#X connect 20 0 27 3;
#X connect 20 0 28 3;
#X connect 20 0 29 3;
#X connect 20 0 30 3;
#X connect 20 0 31 3;
#X connect 22 0 0 0;
#X connect 23 0 0 0;
#X connect 24 0 0 0;
#X connect 25 0 0 0;
#X connect 26 0 0 0;
#X connect 27 0 0 0;
#X connect 28 0 0 0;
#X connect 29 0 0 0;
#X connect 30 0 0 0;
#X connect 31 0 0 0;
