#N canvas 828 205 722 524 10;
#X obj 264 459 outlet~;
#X obj 68 234 bng 15 250 50 0 empty empty empty 17 7 0 10 -262144 -1
-1;
#X msg 91 234 stop;
#X obj 107 255 hsl 128 15 0 127 0 0 empty empty empty -2 -8 0 10 -262144
-1 -1 0 1;
#X obj 83 274 player_c~;
#X obj 264 239 bng 15 250 50 0 empty empty empty 17 7 0 10 -262144
-1 -1;
#X msg 287 239 stop;
#X obj 334 240 hsl 128 15 0 127 0 0 empty empty empty -2 -8 0 10 -262144
-1 -1 0 1;
#X obj 279 279 player_c~;
#X obj 477 239 bng 15 250 50 0 empty empty empty 17 7 0 10 -262144
-1 -1;
#X msg 500 239 stop;
#X obj 547 240 hsl 128 15 0 127 0 0 empty empty empty -2 -8 0 10 -262144
-1 -1 0 1;
#X obj 492 279 player_c~;
#X text 159 279 lo;
#X text 352 280 mid;
#X text 562 281 hi;
#X obj 492 314 *~ 0.158489;
#X text 579 316 -16dB;
#X text 368 319 -9dB;
#X obj 281 317 *~ 0.354813;
#N canvas 791 353 550 659 file 0;
#X obj 59 533 outlet;
#X obj 146 534 outlet;
#X obj 227 535 outlet;
#X obj 44 24 inlet;
#X obj 44 97 bng 15 250 50 0 empty empty empty 17 7 0 10 -262144 -1
-1;
#X obj 151 98 bng 15 250 50 0 empty empty empty 17 7 0 10 -262144 -1
-1;
#X obj 44 74 route Cloud_11-32 Cloud_32minus;
#X msg 100 300 set \$1;
#X obj 267 99 bng 15 250 50 0 empty empty empty 17 7 0 10 -262144 -1
-1;
#X obj 67 325 makefilename;
#X obj 32 293 symbol;
#X obj 104 23 inlet;
#X obj 105 47 s \$0_suf;
#X obj 71 246 r \$0_suf;
#X msg 211 382 set \$1;
#X obj 178 407 makefilename;
#X obj 143 375 symbol;
#X obj 182 328 r \$0_suf;
#X msg 336 466 set \$1;
#X obj 303 491 makefilename;
#X obj 268 459 symbol;
#X obj 307 412 r \$0_suf;
#X obj 68 220 t b s;
#X obj 179 302 t b s;
#X obj 304 386 t b s;
#X text 220 44 todo: special case sub 32deg stuff;
#X obj 206 109 symbol;
#X obj 100 275 makefilename %s_Lo_%%s;
#X obj 211 357 makefilename %s_Mid_%%s;
#X obj 335 441 makefilename %s_Hi_%%s;
#X connect 3 0 6 0;
#X connect 6 0 4 0;
#X connect 6 1 5 0;
#X connect 6 2 8 0;
#X connect 6 2 26 0;
#X connect 7 0 9 0;
#X connect 9 0 0 0;
#X connect 10 0 9 0;
#X connect 11 0 12 0;
#X connect 13 0 10 1;
#X connect 14 0 15 0;
#X connect 15 0 1 0;
#X connect 16 0 15 0;
#X connect 17 0 16 1;
#X connect 18 0 19 0;
#X connect 19 0 2 0;
#X connect 20 0 19 0;
#X connect 21 0 20 1;
#X connect 22 0 10 0;
#X connect 22 1 27 0;
#X connect 23 0 16 0;
#X connect 23 1 28 0;
#X connect 24 0 20 0;
#X connect 24 1 29 0;
#X connect 26 0 22 0;
#X connect 26 0 23 0;
#X connect 26 0 24 0;
#X connect 27 0 7 0;
#X connect 28 0 14 0;
#X connect 29 0 18 0;
#X restore 139 143 pd file choosers;
#X text 221 8 3-way (Lo \, Med \, Hi) player for Clouds;
#X obj 426 77 loadbang;
#X text 221 25 creation argument is suffix symbol (like "A" or "F")
;
#X obj 139 76 inlet;
#X obj 425 109 symbol \$1;
#X obj 77 181 print \$1 Lo;
#X obj 175 180 print \$1 Mid;
#X obj 276 180 print \$1 Hi;
#X connect 1 0 4 0;
#X connect 2 0 4 0;
#X connect 3 0 4 1;
#X connect 4 0 0 0;
#X connect 5 0 8 0;
#X connect 6 0 8 0;
#X connect 7 0 8 1;
#X connect 8 0 19 0;
#X connect 9 0 12 0;
#X connect 10 0 12 0;
#X connect 11 0 12 1;
#X connect 12 0 16 0;
#X connect 16 0 0 0;
#X connect 19 0 0 0;
#X connect 20 0 4 2;
#X connect 20 0 26 0;
#X connect 20 1 8 2;
#X connect 20 1 27 0;
#X connect 20 2 12 2;
#X connect 20 2 28 0;
#X connect 22 0 25 0;
#X connect 24 0 20 0;
#X connect 25 0 20 1;
