#N canvas 1041 381 385 375 10;
#X obj 58 158 -;
#X msg 50 129 100;
#X obj 67 44 hsl 128 15 0 30 0 0 empty empty empty -2 -8 0 10 -262144
-1 -1 0 1;
#X floatatom 97 73 5 0 0 0 - - -, f 5;
#X obj 59 203 dbtorms;
#X obj 53 101 t b f;
#X msg 83 250 3.16228;
#X msg 83 225 set \$1;
#X floatatom 64 23 5 0 0 0 - - -, f 5;
#X text 104 22 decibels down from 0;
#X floatatom 52 -7 5 0 0 0 - - -, f 5;
#X text 92 -9 decibels up from 0;
#X msg 4 129 100;
#X obj 7 101 t b f;
#X obj 12 158 +;
#X connect 0 0 4 0;
#X connect 1 0 0 0;
#X connect 2 0 3 0;
#X connect 2 0 5 0;
#X connect 4 0 7 0;
#X connect 5 0 1 0;
#X connect 5 1 0 1;
#X connect 7 0 6 0;
#X connect 8 0 2 0;
#X connect 10 0 13 0;
#X connect 12 0 14 0;
#X connect 13 0 12 0;
#X connect 13 1 14 1;
#X connect 14 0 4 0;
