#N canvas 1039 379 385 438 10;
#X obj 98 249 -;
#X msg 90 220 100;
#X obj 61 110 hsl 128 15 0 30 0 0 empty empty empty -2 -8 0 10 -262144
-1 -1 0 1;
#X floatatom 91 139 5 0 0 0 - - -, f 5;
#X obj 99 279 dbtorms;
#X obj 89 192 t b f;
#X msg 123 326 1.99526;
#X msg 123 301 set \$1;
#X floatatom 58 83 5 0 0 0 - - -, f 5;
#X text 98 88 decibels down from 0;
#X floatatom 165 71 5 0 0 0 - - -, f 5;
#X text 205 69 decibels up from 0;
#X msg 180 203 100;
#X obj 183 175 t b f;
#X obj 188 232 +;
#X obj 53 17 inlet;
#X obj 58 42 moses 0;
#X obj 99 372 outlet;
#X obj 90 165 * -1;
#X connect 0 0 4 0;
#X connect 1 0 0 0;
#X connect 2 0 3 0;
#X connect 2 0 18 0;
#X connect 4 0 7 0;
#X connect 4 0 17 0;
#X connect 5 0 1 0;
#X connect 5 1 0 1;
#X connect 7 0 6 0;
#X connect 8 0 2 0;
#X connect 10 0 13 0;
#X connect 12 0 14 0;
#X connect 13 0 12 0;
#X connect 13 1 14 1;
#X connect 14 0 4 0;
#X connect 15 0 16 0;
#X connect 16 0 8 0;
#X connect 16 1 10 0;
#X connect 18 0 5 0;
