#N canvas 75 399 699 597 10;
#X obj 49 554 outlet~;
#X obj 163 551 outlet~;
#X obj 423 548 outlet;
#X obj 473 548 outlet;
#X obj 48 256 looper~ \$1;
#X text 39 8 enveloping looper;
#X obj 57 67 inlet;
#X text 40 39 2nd creation arg is env time in ms;
#X obj 258 253 looper~ \$1;
#X obj 49 375 *~;
#X obj 415 370 vline~;
#X obj 115 286 s \$0_samplect;
#X obj 306 87 \$2;
#X msg 458 346 0 \$1;
#X obj 306 112 s \$0_1up;
#X obj 371 112 s \$0_2down;
#X obj 458 325 r \$0_1down;
#X obj 415 282 r \$0_1up;
#X obj 162 376 *~;
#X obj 474 528 r \$0_samplect;
#X obj 471 202 s \$0_2down;
#X obj 156 119 s \$0_stop;
#X obj 390 157 r \$0_stop;
#X obj 390 203 s \$0_1down;
#X obj 244 372 *~;
#X obj 545 373 vline~;
#X msg 588 349 0 \$1;
#X obj 324 370 *~;
#X obj 545 281 r \$0_2up;
#X obj 588 328 r \$0_2down;
#X obj 48 225 r \$0_1play;
#X obj 56 118 s \$0_1play;
#X obj 306 64 r \$0_1play;
#X obj 56 90 route bang start stop;
#X obj 313 275 bng 15 250 50 0 empty empty empty 17 7 0 10 -262144
-1 -1;
#X obj 91 282 bng 15 250 50 0 empty empty empty 17 7 0 10 -262144 -1
-1;
#X obj 390 180 \$2;
#X obj 73 351 r~ \$0_mix1;
#X obj 168 342 r~ \$0_mix1;
#X obj 256 345 r~ \$0_mix2;
#X obj 338 342 r~ \$0_mix2;
#X obj 544 396 s~ \$0_mix2;
#X obj 416 390 s~ \$0_mix1;
#X msg 415 303 0 \, 1 \$1;
#X msg 545 302 0 \, 1 \$1;
#X text 40 23 built upon 2 looper~ instances;
#N canvas 804 109 634 474 delays 0;
#X obj 130 18 r \$0_1play;
#X obj 159 72 r \$0_samplect;
#X obj 131 92 f;
#X obj 163 142 samplerate~;
#X obj 131 116 t f b;
#X obj 136 327 delay;
#X obj 193 358 bng 15 250 50 0 empty empty empty 17 7 0 10 -262144
-1 -1;
#X obj 135 168 /;
#X obj 136 192 * 1000;
#X obj 136 292 -;
#X obj 136 241 t f b;
#X obj 169 266 \$2;
#X obj 136 389 s \$0_2play;
#X obj 389 74 r \$0_samplect;
#X obj 361 94 f;
#X obj 393 144 samplerate~;
#X obj 361 118 t f b;
#X obj 366 329 delay;
#X obj 423 360 bng 15 250 50 0 empty empty empty 17 7 0 10 -262144
-1 -1;
#X obj 365 170 /;
#X obj 366 194 * 1000;
#X obj 366 294 -;
#X obj 366 243 t f b;
#X obj 399 268 \$2;
#X obj 360 20 r \$0_2play;
#X obj 366 391 s \$0_1play;
#X obj 39 262 r \$0_stop;
#X msg 39 288 stop;
#X obj 285 267 r \$0_stop;
#X msg 284 288 stop;
#X msg 363 48 bang;
#X msg 144 43 bang;
#X connect 0 0 31 0;
#X connect 1 0 2 1;
#X connect 2 0 4 0;
#X connect 3 0 7 1;
#X connect 4 0 7 0;
#X connect 4 1 3 0;
#X connect 5 0 6 0;
#X connect 5 0 12 0;
#X connect 7 0 8 0;
#X connect 8 0 10 0;
#X connect 9 0 5 0;
#X connect 10 0 9 0;
#X connect 10 1 11 0;
#X connect 11 0 9 1;
#X connect 13 0 14 1;
#X connect 14 0 16 0;
#X connect 15 0 19 1;
#X connect 16 0 19 0;
#X connect 16 1 15 0;
#X connect 17 0 18 0;
#X connect 17 0 25 0;
#X connect 19 0 20 0;
#X connect 20 0 22 0;
#X connect 21 0 17 0;
#X connect 22 0 21 0;
#X connect 22 1 23 0;
#X connect 23 0 21 1;
#X connect 24 0 30 0;
#X connect 26 0 27 0;
#X connect 27 0 5 0;
#X connect 28 0 29 0;
#X connect 29 0 17 0;
#X connect 30 0 14 0;
#X connect 31 0 2 0;
#X restore 589 59 pd delays;
#X obj 344 89 bng 15 250 50 0 empty empty empty 17 7 0 10 -262144 -1
-1;
#X obj 461 88 \$2;
#X obj 499 90 bng 15 250 50 0 empty empty empty 17 7 0 10 -262144 -1
-1;
#X obj 461 65 r \$0_2play;
#X obj 461 113 s \$0_1down;
#X obj 545 113 s \$0_2up;
#X obj 257 226 r \$0_2play;
#X connect 4 0 9 0;
#X connect 4 1 18 0;
#X connect 4 2 35 0;
#X connect 4 3 11 0;
#X connect 6 0 33 0;
#X connect 8 0 24 0;
#X connect 8 1 27 0;
#X connect 8 2 34 0;
#X connect 9 0 0 0;
#X connect 10 0 42 0;
#X connect 12 0 14 0;
#X connect 12 0 15 0;
#X connect 13 0 10 0;
#X connect 16 0 13 0;
#X connect 17 0 43 0;
#X connect 18 0 1 0;
#X connect 19 0 3 0;
#X connect 22 0 36 0;
#X connect 24 0 0 0;
#X connect 25 0 41 0;
#X connect 26 0 25 0;
#X connect 27 0 1 0;
#X connect 28 0 44 0;
#X connect 29 0 26 0;
#X connect 30 0 4 0;
#X connect 32 0 12 0;
#X connect 32 0 47 0;
#X connect 33 0 31 0;
#X connect 33 1 31 0;
#X connect 33 2 21 0;
#X connect 36 0 23 0;
#X connect 36 0 20 0;
#X connect 37 0 9 1;
#X connect 38 0 18 1;
#X connect 39 0 24 1;
#X connect 40 0 27 1;
#X connect 43 0 10 0;
#X connect 44 0 25 0;
#X connect 48 0 51 0;
#X connect 48 0 52 0;
#X connect 50 0 48 0;
#X connect 50 0 49 0;
#X connect 53 0 8 0;
