#N canvas 72 406 545 597 10;
#X obj 54 488 outlet~;
#X text 39 8 enveloping looper;
#X obj 53 88 inlet;
#X obj 54 417 *~;
#X obj 141 136 s \$0_stop;
#X obj 249 414 *~;
#X obj 53 232 r \$0_1play;
#X obj 305 317 bng 15 250 50 0 empty empty empty 17 7 0 10 -262144
-1 -1;
#X obj 96 324 bng 15 250 50 0 empty empty empty 17 7 0 10 -262144 -1
-1;
#X obj 78 393 r~ \$0_mix1;
#X obj 268 385 r~ \$0_mix2;
#X obj 249 233 r \$0_2play;
#X obj 261 147 s \$0_samplect;
#X obj 250 174 nbx 12 14 -1e+37 1e+37 0 0 empty empty empty 0 -8 0
10 -262144 -1 -1 6352 256;
#X obj 53 297 tabplay~ \$1;
#X obj 250 295 tabplay~ \$1;
#X obj 52 139 s \$0_play;
#N canvas 669 578 318 441 play 0;
#X obj 49 77 r \$0_play;
#X obj 124 78 r \$0_stop;
#X msg 123 101 stop;
#X floatatom 69 164 5 0 0 0 - - -, f 5;
#X obj 129 138 bng 15 250 50 0 empty empty empty 17 7 0 10 -262144
-1 -1;
#X obj 52 139 f;
#X obj 86 139 + 1;
#X obj 53 188 % 2;
#X obj 49 242 bng 15 250 50 0 empty empty empty 17 7 0 10 -262144 -1
-1;
#X obj 83 242 bng 15 250 50 0 empty empty empty 17 7 0 10 -262144 -1
-1;
#X obj 49 280 s \$0_1play;
#X obj 141 281 s \$0_2play;
#X obj 51 214 route 0 1;
#X obj 50 103 metro \$3;
#X obj 54 8 inlet;
#X connect 0 0 13 0;
#X connect 1 0 2 0;
#X connect 2 0 13 0;
#X connect 5 0 3 0;
#X connect 5 0 6 0;
#X connect 5 0 7 0;
#X connect 6 0 5 1;
#X connect 7 0 12 0;
#X connect 12 0 8 0;
#X connect 12 0 10 0;
#X connect 12 1 9 0;
#X connect 12 1 11 0;
#X connect 13 0 4 0;
#X connect 13 0 5 0;
#X connect 14 0 13 1;
#X restore 429 56 pd play;
#N canvas 1015 574 456 441 mix 0;
#X obj 62 313 vline~;
#X msg 105 289 0 \$1;
#X obj 105 268 r \$0_1down;
#X obj 62 225 r \$0_1up;
#X obj 192 316 vline~;
#X msg 235 292 0 \$1;
#X obj 192 224 r \$0_2up;
#X obj 235 271 r \$0_2down;
#X obj 192 344 s~ \$0_mix2;
#X obj 63 345 s~ \$0_mix1;
#X msg 62 246 0 \, 1 \$1;
#X msg 192 245 0 \, 1 \$1;
#X obj 55 54 r \$0_1play;
#X obj 54 148 s \$0_1up;
#X obj 64 169 s \$0_2down;
#X obj 188 54 r \$0_2play;
#X obj 187 148 s \$0_2up;
#X obj 196 169 s \$0_1down;
#X msg 56 79 bang;
#X obj 58 104 \$2;
#X msg 188 78 bang;
#X obj 190 103 \$2;
#X obj 231 79 bng 15 250 50 0 empty empty empty 17 7 0 10 -262144 -1
-1;
#X obj 97 81 bng 15 250 50 0 empty empty empty 17 7 0 10 -262144 -1
-1;
#X obj 146 14 inlet;
#X floatatom 217 125 5 0 0 0 - - -, f 5;
#X floatatom 80 124 5 0 0 0 - - -, f 5;
#X connect 0 0 9 0;
#X connect 1 0 0 0;
#X connect 2 0 1 0;
#X connect 3 0 10 0;
#X connect 4 0 8 0;
#X connect 5 0 4 0;
#X connect 6 0 11 0;
#X connect 7 0 5 0;
#X connect 10 0 0 0;
#X connect 11 0 4 0;
#X connect 12 0 18 0;
#X connect 12 0 23 0;
#X connect 15 0 20 0;
#X connect 15 0 22 0;
#X connect 18 0 19 0;
#X connect 19 0 13 0;
#X connect 19 0 14 0;
#X connect 19 0 26 0;
#X connect 20 0 21 0;
#X connect 21 0 16 0;
#X connect 21 0 17 0;
#X connect 21 0 25 0;
#X connect 24 0 19 1;
#X connect 24 0 21 1;
#X restore 359 55 pd mix;
#X obj 66 257 bng 15 250 50 0 empty empty empty 17 7 0 10 -262144 -1
-1;
#X obj 268 261 bng 15 250 50 0 empty empty empty 17 7 0 10 -262144
-1 -1;
#X obj 359 23 inlet;
#X obj 428 22 inlet;
#X text 39 41 2nd inlet is loop time control in ms;
#X text 39 57 3rd inlet is envelope time in ms;
#X text 38 25 2nd creation arg is overlap;
#X obj 250 112 r \$1_size;
#X obj 52 111 route bang start stop;
#X connect 2 0 27 0;
#X connect 3 0 0 0;
#X connect 5 0 0 0;
#X connect 6 0 14 0;
#X connect 6 0 19 0;
#X connect 9 0 3 1;
#X connect 10 0 5 1;
#X connect 11 0 15 0;
#X connect 11 0 20 0;
#X connect 14 0 3 0;
#X connect 14 1 8 0;
#X connect 15 0 5 0;
#X connect 15 1 7 0;
#X connect 21 0 18 0;
#X connect 22 0 17 0;
#X connect 26 0 12 0;
#X connect 26 0 13 0;
#X connect 27 0 16 0;
#X connect 27 1 16 0;
#X connect 27 2 4 0;
