#N canvas 208 52 599 647 10;
#X obj 157 107 inlet;
#X obj 200 107 inlet;
#X obj 243 107 inlet;
#X obj 105 161 loadbang;
#X obj 129 248 elooper~;
#X obj 138 591 outlet~;
#X text 133 7 inlet 1 - table name;
#X text 134 22 inlet 2 - lower bounds;
#X text 136 37 inlet 3 - upper bounds;
#X text 37 88 and we can abstract that if it needs to be generalized
;
#X text 140 53 inlet 4 - xf control inlet;
#X text 21 71 xf in/out is assumed to be 1 unit before lower \, 1 unit
after upper;
#X text 5 2 single table;
#X obj 286 107 inlet;
#X obj 139 562 *~ 1;
#X obj 222 275 moses;
#X obj 270 313 moses;
#X floatatom 300 187 5 0 0 0 - - -, f 5;
#X floatatom 358 198 5 0 0 0 - - -, f 5;
#X floatatom 301 139 5 0 0 0 - - -, f 5;
#X floatatom 212 307 5 0 0 0 - - -, f 5;
#X floatatom 169 536 5 0 0 0 - - -, f 5;
#X floatatom 306 341 5 0 0 0 - - -, f 5;
#X obj 262 336 -;
#X obj 303 214 t f f;
#X obj 253 368 clip 0 1;
#X obj 337 366 -;
#X obj 337 388 clip 0 1;
#X floatatom 355 505 5 0 0 0 - - -, f 5;
#X msg 179 295 0;
#X obj 353 481 -;
#X obj 346 427 t b f;
#X msg 334 453 1;
#X msg 278 548 0;
#X msg 327 547 1;
#X obj 279 571 change;
#X obj 274 526 moses 1e-06;
#X obj 279 594 select 0;
#X msg 280 614 stop;
#X msg 331 617 start;
#X obj 351 577 tgl 15 0 empty empty empty 17 7 0 10 -262144 -1 -1 0
1;
#X floatatom 349 134 5 0 0 0 - - -, f 5;
#X text 367 556 shut down unused players;
#X text 328 14 creation arg is elooper loop overlap ms;
#X obj 105 212 f \$1;
#X connect 0 0 4 2;
#X connect 1 0 17 0;
#X connect 2 0 18 0;
#X connect 3 0 44 0;
#X connect 4 0 14 0;
#X connect 13 0 15 0;
#X connect 13 0 41 0;
#X connect 14 0 5 0;
#X connect 15 0 20 0;
#X connect 15 0 29 0;
#X connect 15 1 16 0;
#X connect 16 0 23 0;
#X connect 16 1 22 0;
#X connect 16 1 26 0;
#X connect 17 0 15 1;
#X connect 17 0 24 0;
#X connect 18 0 16 1;
#X connect 18 0 26 1;
#X connect 19 0 15 0;
#X connect 21 0 14 1;
#X connect 21 0 36 0;
#X connect 23 0 25 0;
#X connect 24 1 23 1;
#X connect 25 0 21 0;
#X connect 26 0 27 0;
#X connect 27 0 31 0;
#X connect 29 0 21 0;
#X connect 30 0 28 0;
#X connect 30 0 21 0;
#X connect 31 0 32 0;
#X connect 31 1 30 1;
#X connect 32 0 30 0;
#X connect 33 0 35 0;
#X connect 33 0 40 0;
#X connect 34 0 35 0;
#X connect 34 0 40 0;
#X connect 35 0 37 0;
#X connect 36 0 33 0;
#X connect 36 1 34 0;
#X connect 37 0 38 0;
#X connect 37 1 39 0;
#X connect 38 0 4 0;
#X connect 39 0 4 0;
#X connect 44 0 4 1;
