#N canvas -4 208 804 559 10;
#X obj 24 54 hsl 600 15 0 0.3 0 0 empty empty empty -2 -8 0 10 -204800
-1 -1 0 1;
#X floatatom 38 77 5 0 0 0 - - -;
#X obj 21 33 line;
#X msg 21 6 0 \, 0.3 120000;
#X text 113 6 simulated rain build;
#X obj 31 219 hsl 600 15 -15 115 0 0 empty empty empty -2 -8 0 10 -204800
-1 -1 0 1;
#X floatatom 53 245 5 0 0 0 - - -;
#X obj 28 183 line;
#X msg 27 159 10 \, 85 120000;
#X msg 78 184 stop;
#X msg 138 174 55 \, 96 60000;
#X msg 28 266 /mtTemp1 \$1;
#X obj 21 124 s \$0-out;
#X text 190 239 temp;
#X obj 28 290 s \$0-out;
#X obj 33 365 hsl 600 15 0.1 20 0 0 empty empty empty -2 -8 0 10 -204800
-1 -1 0 1;
#X obj 160 330 line;
#X msg 210 331 stop;
#X msg 159 306 0 \, 12 120000;
#X msg 269 314 6 \, 12 60000;
#X text 164 391 wind speed;
#X obj 30 462 s \$0-out;
#X msg 30 431 /mt2MinRollAvgWindSpeed \$1;
#X obj 298 581 r \$0-out;
#X obj 298 611 outlet;
#X obj 33 528 hsl 600 15 0 1200 0 0 empty empty empty -2 -8 0 10 -204800
-1 -1 0 1;
#X obj 160 493 line;
#X msg 210 494 stop;
#X obj 30 625 s \$0-out;
#X text 164 554 solar radiation;
#X msg 159 469 0 \, 350 120000;
#X floatatom 42 398 5 0 0 0 - - -;
#X msg 30 594 /mtSolarRadiation \$1;
#X floatatom 62 570 5 0 0 0 - - -;
#X text 198 74 rain;
#X obj 246 107 line;
#X msg 246 87 \$1 3.6e+006;
#X msg 246 127 set \$1;
#X msg 246 148 1.33697e-005;
#X msg 21 99 /mtRainRate \$1;
#X text 286 107 logic for faking accumulation if needed;
#X obj 122 105 line;
#X msg 122 82 \$1 10000;
#X floatatom 122 134 5 0 0 0 - - -;
#X connect 0 0 1 0;
#X connect 0 0 39 0;
#X connect 0 0 42 0;
#X connect 2 0 0 0;
#X connect 3 0 2 0;
#X connect 5 0 6 0;
#X connect 5 0 11 0;
#X connect 7 0 5 0;
#X connect 8 0 7 0;
#X connect 9 0 7 0;
#X connect 10 0 7 0;
#X connect 11 0 14 0;
#X connect 15 0 22 0;
#X connect 15 0 31 0;
#X connect 16 0 15 0;
#X connect 17 0 16 0;
#X connect 18 0 16 0;
#X connect 19 0 16 0;
#X connect 22 0 21 0;
#X connect 23 0 24 0;
#X connect 25 0 32 0;
#X connect 25 0 33 0;
#X connect 26 0 25 0;
#X connect 27 0 26 0;
#X connect 30 0 26 0;
#X connect 32 0 28 0;
#X connect 35 0 37 0;
#X connect 36 0 35 0;
#X connect 37 0 38 0;
#X connect 39 0 12 0;
#X connect 41 0 43 0;
#X connect 42 0 41 0;
