#N canvas 547 38 908 816 10;
#X obj 246 141 sig~;
#X floatatom 246 121 5 0 0 0 - - -;
#N canvas 0 22 615 302 debug-signal~ 0;
#X obj 16 22 inlet~;
#X obj 16 150 snapshot~;
#X obj 16 176 outlet;
#X obj 106 22 inlet~;
#X obj 106 150 snapshot~;
#X obj 106 176 outlet;
#X obj 195 22 inlet~;
#X obj 195 150 snapshot~;
#X obj 195 176 outlet;
#X obj 279 22 inlet~;
#X obj 279 150 snapshot~;
#X obj 279 176 outlet;
#X obj 63 102 metro 300;
#X obj 63 52 loadbang;
#X msg 62 79 1;
#X obj 354 22 inlet~;
#X obj 354 150 snapshot~;
#X obj 354 176 outlet;
#X obj 439 20 inlet~;
#X obj 439 148 snapshot~;
#X obj 439 174 outlet;
#X connect 0 0 1 0;
#X connect 1 0 2 0;
#X connect 3 0 4 0;
#X connect 4 0 5 0;
#X connect 6 0 7 0;
#X connect 7 0 8 0;
#X connect 9 0 10 0;
#X connect 10 0 11 0;
#X connect 12 0 1 0;
#X connect 12 0 4 0;
#X connect 12 0 7 0;
#X connect 12 0 10 0;
#X connect 12 0 16 0;
#X connect 12 0 19 0;
#X connect 13 0 14 0;
#X connect 14 0 12 0;
#X connect 15 0 16 0;
#X connect 16 0 17 0;
#X connect 18 0 19 0;
#X connect 19 0 20 0;
#X restore 31 642 pd debug-signal~;
#X floatatom 24 676 4 0 0 0 - - -;
#X floatatom 59 676 4 0 0 0 - - -;
#X floatatom 95 676 4 0 0 0 - - -;
#X floatatom 131 676 4 0 0 0 - - -;
#X obj 125 308 hsl 75 12 0 1 0 0 empty empty empty -2 -8 0 10 -260818
-1 -1 0 1;
#X floatatom 165 676 4 0 0 0 - - -;
#X floatatom 201 676 4 0 0 0 - - -;
#X obj 122 361 s \$0-pan;
#X obj 424 72 r \$0-pan;
#X obj 122 82 inlet;
#X obj 274 660 outlet~;
#X obj 351 661 outlet~;
#X obj 425 660 outlet~;
#X obj 501 661 outlet~;
#X obj 579 661 outlet~;
#X obj 181 82 inlet~;
#X text 91 62 control (0-1);
#X text 183 62 audio;
#X text 224 102 for debugging;
#X obj 656 660 outlet~;
#X obj 311 242 panner2~ 5 0 5;
#X obj 410 242 panner2~ 5 1 5;
#X obj 506 242 panner2~ 5 2 5;
#X obj 602 242 panner2~ 5 3 5;
#X obj 699 242 panner2~ 5 4 5;
#X obj 793 242 panner2~ 5 5 5;
#X connect 0 0 23 0;
#X connect 0 0 24 0;
#X connect 0 0 25 0;
#X connect 0 0 26 0;
#X connect 0 0 27 0;
#X connect 0 0 28 0;
#X connect 1 0 0 0;
#X connect 2 0 3 0;
#X connect 2 1 4 0;
#X connect 2 2 5 0;
#X connect 2 3 6 0;
#X connect 2 4 8 0;
#X connect 2 5 9 0;
#X connect 7 0 10 0;
#X connect 11 0 23 1;
#X connect 11 0 24 1;
#X connect 11 0 25 1;
#X connect 11 0 26 1;
#X connect 11 0 27 1;
#X connect 11 0 28 1;
#X connect 12 0 7 0;
#X connect 23 0 2 0;
#X connect 24 0 2 1;
#X connect 25 0 2 2;
#X connect 26 0 2 3;
#X connect 27 0 2 4;
#X connect 28 0 2 5;
