#N canvas 0 22 908 816 10;
#X obj 246 141 sig~;
#X floatatom 246 121 5 0 0 0 - - -;
#N canvas 0 22 615 302 debug-signal~ 0;
#X obj 16 22 inlet~;
#X obj 16 150 snapshot~;
#X obj 16 176 outlet;
#X obj 106 22 inlet~;
#X obj 106 150 snapshot~;
#X obj 106 176 outlet;
#X obj 195 22 inlet~;
#X obj 195 150 snapshot~;
#X obj 195 176 outlet;
#X obj 279 22 inlet~;
#X obj 279 150 snapshot~;
#X obj 279 176 outlet;
#X obj 63 102 metro 300;
#X obj 63 52 loadbang;
#X msg 62 79 1;
#X obj 354 22 inlet~;
#X obj 354 150 snapshot~;
#X obj 354 176 outlet;
#X obj 439 20 inlet~;
#X obj 439 148 snapshot~;
#X obj 439 174 outlet;
#X connect 0 0 1 0;
#X connect 1 0 2 0;
#X connect 3 0 4 0;
#X connect 4 0 5 0;
#X connect 6 0 7 0;
#X connect 7 0 8 0;
#X connect 9 0 10 0;
#X connect 10 0 11 0;
#X connect 12 0 1 0;
#X connect 12 0 4 0;
#X connect 12 0 7 0;
#X connect 12 0 10 0;
#X connect 12 0 16 0;
#X connect 12 0 19 0;
#X connect 13 0 14 0;
#X connect 14 0 12 0;
#X connect 15 0 16 0;
#X connect 16 0 17 0;
#X connect 18 0 19 0;
#X connect 19 0 20 0;
#X restore 31 642 pd debug-signal~;
#X floatatom 24 676 4 0 0 0 - - -;
#X floatatom 59 676 4 0 0 0 - - -;
#X floatatom 95 676 4 0 0 0 - - -;
#X floatatom 131 676 4 0 0 0 - - -;
#X obj 268 251 panner~;
#X obj 125 308 hsl 75 12 0 1 0 0 empty empty empty -2 -8 0 10 -260818
-1 -1 0 1;
#X floatatom 165 676 4 0 0 0 - - -;
#X floatatom 201 676 4 0 0 0 - - -;
#X obj 345 292 panner~;
#X obj 422 338 panner~;
#X obj 499 265 / 3;
#X obj 422 190 / 2;
#X obj 345 107 / 1;
#X obj 122 361 s \$0-pan;
#X obj 424 72 r \$0-pan;
#X obj 345 157 clip 0 1;
#X obj 122 82 inlet;
#X obj 274 660 outlet~;
#X obj 351 661 outlet~;
#X obj 425 660 outlet~;
#X obj 501 661 outlet~;
#X obj 422 241 clip 0 1;
#X obj 499 312 clip 0 1;
#X floatatom 360 134 5 0 0 0 - - -;
#X floatatom 432 213 5 0 0 0 - - -;
#X floatatom 509 288 5 0 0 0 - - -;
#X obj 499 410 panner~;
#X obj 576 384 clip 0 1;
#X floatatom 586 360 5 0 0 0 - - -;
#X obj 579 661 outlet~;
#X obj 576 337 / 4;
#X obj 181 82 inlet~;
#X text 91 62 control (0-1);
#X text 183 62 audio;
#X text 224 102 for debugging;
#X obj 576 460 panner~;
#X obj 653 434 clip 0 1;
#X floatatom 663 410 5 0 0 0 - - -;
#X obj 656 660 outlet~;
#X obj 653 387 / 5;
#X obj 122 335 * 5;
#X connect 1 0 0 0;
#X connect 2 0 3 0;
#X connect 2 1 4 0;
#X connect 2 2 5 0;
#X connect 2 3 6 0;
#X connect 2 4 9 0;
#X connect 2 5 10 0;
#X connect 7 0 2 0;
#X connect 7 0 20 0;
#X connect 7 1 11 0;
#X connect 8 0 43 0;
#X connect 11 0 2 1;
#X connect 11 0 21 0;
#X connect 11 1 12 0;
#X connect 12 0 2 2;
#X connect 12 0 22 0;
#X connect 12 1 29 0;
#X connect 13 0 25 0;
#X connect 13 0 28 0;
#X connect 14 0 24 0;
#X connect 14 0 27 0;
#X connect 15 0 18 0;
#X connect 15 0 26 0;
#X connect 17 0 15 0;
#X connect 17 0 14 0;
#X connect 17 0 13 0;
#X connect 17 0 33 0;
#X connect 17 0 42 0;
#X connect 18 0 7 1;
#X connect 19 0 8 0;
#X connect 24 0 11 1;
#X connect 25 0 12 1;
#X connect 29 0 23 0;
#X connect 29 0 2 3;
#X connect 29 1 2 4;
#X connect 29 1 38 0;
#X connect 30 0 29 1;
#X connect 33 0 30 0;
#X connect 33 0 31 0;
#X connect 34 0 7 0;
#X connect 38 0 32 0;
#X connect 38 1 41 0;
#X connect 39 0 38 1;
#X connect 42 0 39 0;
#X connect 42 0 40 0;
#X connect 43 0 16 0;
