#N canvas 104 571 686 497 10;
#X obj 28 467 outlet~;
#X obj 282 174 soundfiler;
#X obj 282 59 loadbang;
#X obj 282 104 \$0;
#X obj 282 81 t b b;
#X obj 315 103 symbol \$1;
#X obj 282 129 pack f s;
#X obj 282 197 nbx 9 14 -1e+37 1e+37 0 0 \$0_samplect empty empty 0
-8 0 10 -262144 -1 -1 91258 256;
#X text 107 7 looping stereo wav sample player;
#X obj 27 396 tabplay~;
#X obj 27 324 \$0;
#X obj 27 302 loadbang;
#X obj 22 51 inlet;
#X obj 22 77 route bang start stop;
#X obj 54 199 f;
#X obj 82 174 r \$0_samplect;
#X obj 93 418 bng 15 250 50 0 empty empty empty 17 7 0 10 -262144 -1
-1;
#X obj 21 240 pack f f;
#X obj 21 199 0;
#X obj 87 444 spigot;
#X obj 86 467 s \$0_play;
#X obj 21 152 r \$0_play;
#X obj 22 176 t b b b;
#X obj 90 200 1;
#X obj 118 418 r \$0_onoff;
#X obj 90 222 s \$0_onoff;
#X obj 21 268 s \$0_playmsg;
#X obj 36 371 r \$0_playmsg;
#X obj 202 466 outlet~;
#X obj 201 395 tabplay~;
#X obj 201 323 \$0;
#X obj 201 301 loadbang;
#X obj 210 370 r \$0_playmsg;
#X obj 360 173 print loading;
#X obj 115 123 0;
#X obj 115 144 s \$0_onoff;
#X msg 115 101 bang;
#X obj 158 124 s \$0_playmsg;
#X msg 159 101 stop;
#X msg 201 344 set \$1_right;
#X msg 27 345 set \$1_left;
#X obj 437 24 table \$0_left;
#X obj 437 47 table \$0_right;
#X msg 282 151 read -resize -maxsize 4e+07 \$2.wav \$1_left \$1_right
;
#X obj 326 465 outlet;
#X obj 462 465 outlet;
#X obj 21 104 s \$0_play;
#X obj 326 437 r \$0_play;
#X obj 462 436 r \$0_samplect;
#X text 322 401 3rd outlet;
#X text 322 414 bangs on playback;
#X text 460 387 4th outlet;
#X text 460 401 outputs sample count;
#X text 460 416 on load;
#X text 107 39 no enveloping;
#X text 107 23 compatible with mono;
#X connect 1 0 7 0;
#X connect 2 0 4 0;
#X connect 3 0 6 0;
#X connect 4 0 3 0;
#X connect 4 1 5 0;
#X connect 5 0 6 1;
#X connect 6 0 43 0;
#X connect 9 0 0 0;
#X connect 9 1 19 0;
#X connect 9 1 16 0;
#X connect 10 0 40 0;
#X connect 11 0 10 0;
#X connect 12 0 13 0;
#X connect 13 0 46 0;
#X connect 13 1 46 0;
#X connect 13 2 36 0;
#X connect 13 2 38 0;
#X connect 14 0 17 1;
#X connect 15 0 14 1;
#X connect 17 0 26 0;
#X connect 18 0 17 0;
#X connect 19 0 20 0;
#X connect 21 0 22 0;
#X connect 22 0 18 0;
#X connect 22 1 14 0;
#X connect 22 2 23 0;
#X connect 23 0 25 0;
#X connect 24 0 19 1;
#X connect 27 0 9 0;
#X connect 29 0 28 0;
#X connect 30 0 39 0;
#X connect 31 0 30 0;
#X connect 32 0 29 0;
#X connect 34 0 35 0;
#X connect 36 0 34 0;
#X connect 38 0 37 0;
#X connect 39 0 29 0;
#X connect 40 0 9 0;
#X connect 43 0 1 0;
#X connect 43 0 33 0;
#X connect 47 0 44 0;
#X connect 48 0 45 0;
