#N canvas 827 367 473 521 10;
#X obj 28 467 outlet~;
#X obj 27 396 tabplay~;
#X obj 27 302 loadbang;
#X obj 22 51 inlet;
#X obj 54 199 f;
#X obj 93 418 bng 15 250 50 0 empty empty empty 17 7 0 10 -262144 -1
-1;
#X obj 21 240 pack f f;
#X obj 21 199 0;
#X obj 87 444 spigot;
#X obj 86 467 s \$0_play;
#X obj 21 152 r \$0_play;
#X obj 22 176 t b b b;
#X obj 90 200 1;
#X obj 118 418 r \$0_onoff;
#X obj 90 222 s \$0_onoff;
#X obj 21 268 s \$0_playmsg;
#X obj 36 371 r \$0_playmsg;
#X obj 115 123 0;
#X obj 115 144 s \$0_onoff;
#X msg 115 101 bang;
#X obj 158 124 s \$0_playmsg;
#X msg 159 101 stop;
#X obj 239 465 outlet;
#X obj 21 104 s \$0_play;
#X obj 239 437 r \$0_play;
#X text 235 414 bangs on playback;
#X text 108 21 no enveloping;
#X text 107 7 looping mono wav sample player;
#X text 107 35 playback table is expected to exist elsewhere;
#X text 106 49 creation argument is table name;
#X obj 26 323 symbol \$1;
#X msg 27 345 set \$1;
#X obj 22 77 route bang start stop size, f 44;
#X obj 250 172 nbx 12 14 -1e+37 1e+37 0 0 empty empty empty 0 -8 0
10 -262144 -1 -1 0 256;
#X text 247 188 samplect;
#X text 235 401 2nd outlet;
#X connect 1 0 0 0;
#X connect 1 1 8 0;
#X connect 1 1 5 0;
#X connect 2 0 30 0;
#X connect 3 0 32 0;
#X connect 4 0 6 1;
#X connect 6 0 15 0;
#X connect 7 0 6 0;
#X connect 8 0 9 0;
#X connect 10 0 11 0;
#X connect 11 0 7 0;
#X connect 11 1 4 0;
#X connect 11 2 12 0;
#X connect 12 0 14 0;
#X connect 13 0 8 1;
#X connect 16 0 1 0;
#X connect 17 0 18 0;
#X connect 19 0 17 0;
#X connect 21 0 20 0;
#X connect 24 0 22 0;
#X connect 30 0 31 0;
#X connect 31 0 1 0;
#X connect 32 0 23 0;
#X connect 32 1 23 0;
#X connect 32 2 19 0;
#X connect 32 2 21 0;
#X connect 32 3 4 1;
#X connect 32 3 33 0;
