#N canvas 688 498 592 411 10;
#X obj 45 41 bng 15 250 50 0 empty empty empty 17 7 0 10 -262144 -1
-1;
#X obj 151 41 bng 15 250 50 0 empty empty empty 17 7 0 10 -262144 -1
-1;
#X obj 106 368 dac~;
#X obj 261 42 bng 15 250 50 0 empty empty empty 17 7 0 10 -262144 -1
-1;
#X msg 70 41 stop;
#X msg 179 43 stop;
#X msg 295 44 stop;
#X obj 387 39 bng 15 250 50 0 empty empty empty 17 7 0 10 -262144 -1
-1;
#X msg 422 41 stop;
#X obj 390 95 bng 15 250 50 0 empty empty empty 17 7 0 10 -262144 -1
-1;
#X msg 424 97 stop;
#X obj 389 150 bng 15 250 50 0 empty empty empty 17 7 0 10 -262144
-1 -1;
#X msg 420 152 stop;
#X obj 389 214 bng 15 250 50 0 empty empty empty 17 7 0 10 -262144
-1 -1;
#X msg 423 216 stop;
#X obj 43 72 looper~ drip1;
#X obj 391 244 looper~ cloudrone;
#X obj 151 72 looper~ drip2;
#X obj 261 73 looper~ drip3;
#X obj 389 69 looper~ shortnote_1;
#X obj 392 125 looper~ shortnote_2;
#X obj 388 180 looper~ shortnote_3;
#X obj 468 280 bng 15 250 50 0 empty empty empty 17 7 0 10 -262144
-1 -1;
#X obj 481 209 nbx 9 14 -1e+37 1e+37 0 0 empty empty empty 0 -8 0 10
-262144 -1 -1 553830 256;
#X connect 0 0 15 0;
#X connect 1 0 17 0;
#X connect 3 0 18 0;
#X connect 4 0 15 0;
#X connect 5 0 17 0;
#X connect 6 0 18 0;
#X connect 7 0 19 0;
#X connect 8 0 19 0;
#X connect 9 0 20 0;
#X connect 10 0 20 0;
#X connect 11 0 21 0;
#X connect 12 0 21 0;
#X connect 13 0 16 0;
#X connect 14 0 16 0;
#X connect 15 0 2 0;
#X connect 15 0 2 1;
#X connect 16 0 2 0;
#X connect 16 0 2 1;
#X connect 16 2 22 0;
#X connect 17 0 2 0;
#X connect 17 0 2 1;
#X connect 18 0 2 0;
#X connect 18 0 2 1;
#X connect 19 0 2 0;
#X connect 19 0 2 1;
#X connect 20 0 2 0;
#X connect 20 0 2 1;
#X connect 21 0 2 0;
#X connect 21 0 2 1;
#X connect 21 3 23 0;
