#N canvas 292 158 487 547 10;
#X obj 138 113 inlet;
#X obj 140 206 list split 2;
#X obj 140 146 t l l;
#X obj 172 179 list split 1;
#X text 103 82 -1000 and 1000 are magic;
#X text 105 8 \$1 - prefix (like "Clouds");
#X text 105 26 \$2 - Hi/Mid/Lo;
#X text 105 43 \$3 - Suffix (like "A" or "F");
#X text 106 62 begin lists with -100 and end with 1000;
#X msg 150 412 \$1_\$2-\$3_\$4_\$5;
#X obj 136 379 pack s f f s s;
#X obj 99 277 t b f b b;
#X obj 275 325 symbol \$3;
#X obj 197 326 symbol \$2;
#X obj 82 334 symbol \$1;
#X obj 131 234 list split 1;
#X obj 150 494 outlet;
#X obj 185 450 pack s f f;
#X text 175 475 output filename and lower and upper bounds;
#X connect 0 0 2 0;
#X connect 1 0 15 0;
#X connect 2 0 1 0;
#X connect 2 1 3 0;
#X connect 3 1 2 0;
#X connect 9 0 17 0;
#X connect 10 0 9 0;
#X connect 11 0 14 0;
#X connect 11 1 10 1;
#X connect 11 1 17 1;
#X connect 11 2 13 0;
#X connect 11 3 12 0;
#X connect 12 0 10 4;
#X connect 13 0 10 3;
#X connect 14 0 10 0;
#X connect 15 0 11 0;
#X connect 15 1 10 2;
#X connect 15 1 17 2;
#X connect 17 0 16 0;
