#N canvas 302 168 631 723 10;
#X obj 32 106 inlet;
#X obj 140 206 list split 2;
#X obj 140 146 t l l;
#X obj 172 179 list split 1;
#X obj 139 236 list split 1;
#X msg 140 110 list -1000 11 32 38 44 50 56 62 68 74 80 1000;
#X text 138 88 -1000 and 1000 are magic;
#X obj 124 362 pack f f;
#X obj 202 441 print msg;
#X obj 124 387 route -1000;
#X obj 216 265 select 1000;
#X obj 350 381 pack f f;
#X obj 235 374 spigot;
#X msg 287 297 1;
#X msg 321 295 0;
#X obj 308 441 print end;
#X obj 142 322 spigot;
#X msg 160 296 0;
#X msg 194 297 1;
#X obj 196 520 makefilename \$1_%d-%%d;
#X text 105 8 \$1 - prefix (like "Clouds");
#X text 105 26 \$2 - Hi/Mid/Lo;
#X text 105 43 \$3 - Suffix (like "A" or "F");
#X text 106 62 begin lists with -100 and end with 1000;
#X obj 63 566 print out;
#N canvas 656 526 544 591 begin 1;
#X obj 111 26 inlet;
#X obj 94 558 outlet;
#X obj 140 210 makefilename %s_%%dminus;
#X obj 117 255 makefilename;
#X msg 140 232 set \$1;
#X obj 141 189 symbol \$1;
#X obj 114 118 t f b;
#X obj 177 415 print setting;
#X obj 183 325 symbol \$2;
#X obj 128 454 makefilename;
#X obj 149 301 t s b b;
#X obj 258 325 symbol \$3;
#X obj 142 352 pack s s s;
#X msg 154 390 set \$1_\$2_\$3;
#X connect 0 0 6 0;
#X connect 2 0 4 0;
#X connect 3 0 1 0;
#X connect 3 0 10 0;
#X connect 4 0 3 0;
#X connect 5 0 2 0;
#X connect 6 0 3 0;
#X connect 6 1 5 0;
#X connect 8 0 12 1;
#X connect 10 0 12 0;
#X connect 10 1 8 0;
#X connect 10 2 11 0;
#X connect 11 0 12 2;
#X connect 12 0 13 0;
#X connect 13 0 7 0;
#X connect 13 0 9 0;
#X restore 50 454 pd begin;
#X connect 0 0 2 0;
#X connect 1 0 4 0;
#X connect 2 0 1 0;
#X connect 2 1 3 0;
#X connect 3 1 2 0;
#X connect 4 0 12 0;
#X connect 4 0 16 0;
#X connect 4 1 10 0;
#X connect 5 0 2 0;
#X connect 7 0 9 0;
#X connect 9 0 25 0;
#X connect 9 1 8 0;
#X connect 10 0 13 0;
#X connect 10 0 17 0;
#X connect 10 1 14 0;
#X connect 10 1 7 1;
#X connect 10 1 18 0;
#X connect 12 0 15 0;
#X connect 13 0 12 1;
#X connect 14 0 12 1;
#X connect 16 0 7 0;
#X connect 17 0 16 1;
#X connect 18 0 16 1;
#X connect 25 0 24 0;
