#N canvas 166 186 782 392 10;
#X obj 35 95 udpreceive 9009;
#X obj 35 124 unpackOSC;
#X obj 35 147 routeOSC /microserver;
#X obj 309 285 outlet;
#X text 34 34 port 9009 only;
#X text 33 20 UDP OSC receiver for microserver data;
#X obj 185 59 import mrpeach;
#X obj 309 106 oscparse;
#X obj 309 129 list trim;
#X obj 309 153 route microserver;
#X obj 309 82 netreceive -u -b 9009;
#X obj 309 202 makefilename /%s;
#X obj 309 228 pack s f;
#X obj 309 176 unpack s f;
#X obj 309 257 list trim;
#X connect 0 0 1 0;
#X connect 1 0 2 0;
#X connect 7 0 8 0;
#X connect 8 0 9 0;
#X connect 9 0 13 0;
#X connect 10 0 7 0;
#X connect 11 0 12 0;
#X connect 12 0 14 0;
#X connect 13 0 11 0;
#X connect 13 1 12 1;
#X connect 14 0 3 0;
