#N canvas 46 110 377 278 10;
#X declare -lib mrpeach;
#X obj 35 95 udpreceive 9009;
#X obj 35 124 unpackOSC;
#X obj 35 147 routeOSC /microserver;
#X obj 35 179 outlet;
#X text 34 34 port 9009 only;
#X text 33 20 UDP OSC receiver for microserver data;
#X obj 185 59 import mrpeach;
#X connect 0 0 1 0;
#X connect 1 0 2 0;
#X connect 2 0 3 0;
