#N canvas 23 303 675 614 10;
#X obj 256 224 * -1;
#X obj 205 220 spigot;
#X obj 159 221 spigot;
#X floatatom 159 314 5 0 0 0 - - -;
#X obj 145 112 inlet;
#X obj 159 343 outlet;
#X obj 176 194 < \$1;
#X obj 206 194 > \$1;
#X text 307 105 first arg = threshold;
#X text 184 24 takes an incoming range \, and reverses behavior at
a given threshold;
#X obj 256 246 + \$2;
#X obj 256 272 / \$3;
#X obj 193 267 +;
#X text 310 125 second = offset;
#X text 314 150 third = range;
#X text 400 218 ex. to scale 0-3 into 0-1-(-1);
#X text 402 235 instantiate negscaler 1 1 2;
#X connect 0 0 10 0;
#X connect 1 0 0 0;
#X connect 2 0 3 0;
#X connect 2 0 12 1;
#X connect 3 0 5 0;
#X connect 4 0 6 0;
#X connect 4 0 7 0;
#X connect 4 0 1 0;
#X connect 4 0 2 0;
#X connect 6 0 2 1;
#X connect 7 0 1 1;
#X connect 10 0 11 0;
#X connect 11 0 12 0;
#X connect 12 0 3 0;
