#N canvas 68 209 792 639 10;
#X declare -lib iem_ambi -lib iemmatrix;
#X declare -lib iemgui -lib iem_ambi -lib iemlib -lib iemmatrix;
#X obj 57 203 output_zone;
#X obj 222 203 output_zone;
#X obj 385 204 output_zone;
#X text 68 236 zone 1;
#X text 234 238 zone 2;
#X text 395 242 zone 3;
#N canvas 0 22 612 304 debug-signal~ 0;
#X obj 16 22 inlet~;
#X obj 16 150 snapshot~;
#X obj 16 176 outlet;
#X obj 106 22 inlet~;
#X obj 106 150 snapshot~;
#X obj 106 176 outlet;
#X obj 195 22 inlet~;
#X obj 195 150 snapshot~;
#X obj 195 176 outlet;
#X obj 279 22 inlet~;
#X obj 279 150 snapshot~;
#X obj 279 176 outlet;
#X obj 63 102 metro 300;
#X obj 63 52 loadbang;
#X msg 62 79 1;
#X obj 359 21 inlet~;
#X obj 359 149 snapshot~;
#X obj 359 175 outlet;
#X obj 435 22 inlet~;
#X obj 435 150 snapshot~;
#X obj 435 176 outlet;
#X connect 0 0 1 0;
#X connect 1 0 2 0;
#X connect 3 0 4 0;
#X connect 4 0 5 0;
#X connect 6 0 7 0;
#X connect 7 0 8 0;
#X connect 9 0 10 0;
#X connect 10 0 11 0;
#X connect 12 0 1 0;
#X connect 12 0 4 0;
#X connect 12 0 7 0;
#X connect 12 0 10 0;
#X connect 12 0 16 0;
#X connect 12 0 19 0;
#X connect 13 0 14 0;
#X connect 14 0 12 0;
#X connect 15 0 16 0;
#X connect 16 0 17 0;
#X connect 18 0 19 0;
#X connect 19 0 20 0;
#X restore 85 110 pd debug-signal~;
#X floatatom 66 153 4 0 0 0 - - -;
#X floatatom 101 153 4 0 0 0 - - -;
#X floatatom 137 153 4 0 0 0 - - -;
#X floatatom 173 153 4 0 0 0 - - -;
#X floatatom 204 153 4 0 0 0 - - -;
#X floatatom 240 153 4 0 0 0 - - -;
#X obj 199 -163 sig~;
#X floatatom 197 -183 5 0 0 0 - - -;
#X obj 202 42 ambi-6ch-2d-decoder~;
#X obj 195 -124 b-format-encoder~;
#X obj 339 -188 hsl 128 15 0 180 0 0 empty empty empty -2 -8 0 10 -262144
-1 -1 12700 1;
#X connect 6 0 7 0;
#X connect 6 1 8 0;
#X connect 6 2 9 0;
#X connect 6 3 10 0;
#X connect 6 4 11 0;
#X connect 6 5 12 0;
#X connect 13 0 16 0;
#X connect 14 0 13 0;
#X connect 15 0 6 0;
#X connect 15 1 6 1;
#X connect 15 2 6 2;
#X connect 15 3 6 3;
#X connect 15 4 6 4;
#X connect 15 5 6 5;
#X connect 16 0 15 0;
#X connect 16 1 15 1;
#X connect 16 2 15 2;
#X connect 17 0 16 1;
