#N canvas 82 64 702 758 10;
#X obj 109 118 vu 15 120 empty empty -1 -8 0 10 -66577 -1 1 0;
#X obj 99 77 - 100;
#X obj 197 469 t b;
#X obj 197 416 f;
#X obj 197 494 f;
#X msg 311 493 0;
#X obj 197 446 moses 1;
#X obj 311 465 t b f;
#X obj 277 426 moses 1;
#X obj 64 -121 dbtorms;
#X obj 114 -48 inlet~;
#X msg 103 341 \; pd dsp 1;
#X obj 64 -48 line~;
#X obj 99 24 *~;
#X obj 64 -91 pack 0 50;
#X text 156 -72 audio in;
#X text -18 443 test if less than 1 -->;
#X text -52 470 if true convert to bang -->;
#X text 135 -122 <-- convert from dB to linear units;
#X obj 140 268 bng 15 250 50 0 empty empty mute -38 7 0 10 -258113
-1 -1;
#X text 153 -92 <-- make a ramp to avoid clicks or zipper noise;
#X text 217 357 MUTE logic:;
#X obj -14 199 r \$0-master-lvl;
#X obj 197 520 s \$0-master-lvl;
#X obj 275 335 s \$0-master-out;
#X obj 64 -143 r \$0-master-out;
#X obj 277 397 r \$0-master-out;
#X text -90 496 previous nonzero master-lvl -->;
#X text -18 400 recall previous;
#X text -18 418 value of master-lvl -->;
#X text -69 350 automatically start DSP -->;
#X obj 114 -19 hip~ 3;
#X obj 119 252 nbx 3 14 -99 0 0 0 empty empty dB -15 8 0 10 -257985
-1 -1 0 256;
#X obj 388 131 inlet;
#X obj 13 147 outlet~;
#X obj 388 153 / 127;
#X obj 388 176 * 100;
#X obj 44 106 *~ 1;
#X obj 295 312 + 100;
#X obj 389 202 - 100;
#X obj 137 397 dac~ \$1;
#X obj 287 129 r audio_on;
#X msg 287 154 0;
#X obj 99 55 env~ 8192;
#X connect 1 0 0 0;
#X connect 2 0 4 0;
#X connect 3 0 6 0;
#X connect 4 0 23 0;
#X connect 5 0 23 0;
#X connect 6 0 2 0;
#X connect 6 1 7 0;
#X connect 7 0 5 0;
#X connect 8 1 4 1;
#X connect 9 0 14 0;
#X connect 10 0 31 0;
#X connect 12 0 13 0;
#X connect 13 0 37 0;
#X connect 13 0 43 0;
#X connect 14 0 12 0;
#X connect 19 0 3 0;
#X connect 22 0 32 0;
#X connect 25 0 9 0;
#X connect 26 0 3 1;
#X connect 26 0 8 0;
#X connect 31 0 13 1;
#X connect 32 0 11 0;
#X connect 32 0 38 0;
#X connect 33 0 35 0;
#X connect 35 0 36 0;
#X connect 36 0 39 0;
#X connect 37 0 34 0;
#X connect 37 0 40 0;
#X connect 38 0 24 0;
#X connect 39 0 32 0;
#X connect 41 0 42 0;
#X connect 42 0 32 0;
#X connect 43 0 1 0;
#X coords 0 -1 1 1 58 185 1 100 100;
