#N canvas 32 83 1648 712 10;
#X obj 43 246 outputmono~;
#X obj 121 195 loadbang;
#X floatatom 121 449 5 0 0 0 - - -;
#X text 158 451 monitor for setting preset;
#X obj 423 251 outputmono~;
#X obj 501 200 loadbang;
#X floatatom 501 454 5 0 0 0 - - -;
#X text 538 456 monitor for setting preset;
#X obj 763 255 outputmono~;
#X obj 841 204 loadbang;
#X floatatom 841 458 5 0 0 0 - - -;
#X text 878 460 monitor for setting preset;
#X obj 1143 260 outputmono~;
#X obj 1221 209 loadbang;
#X msg 1221 236 76;
#X floatatom 1221 463 5 0 0 0 - - -;
#X text 1258 465 monitor for setting preset;
#X obj 1486 265 outputmono~;
#X obj 1564 214 loadbang;
#X msg 1564 241 76;
#X floatatom 1564 468 5 0 0 0 - - -;
#X text 1601 470 monitor for setting preset;
#X obj 1866 270 outputmono~;
#X obj 1944 219 loadbang;
#X msg 1944 246 76;
#X floatatom 1944 473 5 0 0 0 - - -;
#X text 1981 475 monitor for setting preset;
#X obj 43 100 inlet~;
#X obj 422 99 inlet~;
#X obj 763 98 inlet~;
#X obj 1143 97 inlet~;
#X obj 1486 98 inlet~;
#X obj 1866 100 inlet~;
#X msg 121 222 80;
#X msg 501 227 80;
#X msg 841 231 80;
#X text 150 222 channel volume;
#X text 530 227 channel volume;
#X text 870 231 channel volume;
#X text 1250 236 channel volume;
#X text 1593 241 channel volume;
#X text 1973 246 channel volume;
#X text 73 485 Ch1;
#X text 458 488 Ch2;
#X text 791 493 Ch3;
#X text 1174 494 Ch4;
#X text 1524 497 Ch5;
#X text 1906 506 Ch5;
#X connect 0 1 2 0;
#X connect 1 0 33 0;
#X connect 4 1 6 0;
#X connect 5 0 34 0;
#X connect 8 1 10 0;
#X connect 9 0 35 0;
#X connect 12 1 15 0;
#X connect 13 0 14 0;
#X connect 14 0 12 1;
#X connect 17 1 20 0;
#X connect 18 0 19 0;
#X connect 19 0 17 1;
#X connect 22 1 25 0;
#X connect 23 0 24 0;
#X connect 24 0 22 1;
#X connect 27 0 0 0;
#X connect 28 0 4 0;
#X connect 29 0 8 0;
#X connect 30 0 12 0;
#X connect 31 0 17 0;
#X connect 32 0 22 0;
#X connect 33 0 0 1;
#X connect 34 0 4 1;
#X connect 35 0 8 1;
