#N canvas 61 29 635 532 10;
#X obj 164 29 inlet;
#X obj 163 358 line~;
#X obj 148 419 outlet~;
#X obj 37 43 inlet~;
#X obj 148 391 *~;
#X obj 163 337 pack 0 200;
#X obj 252 21 hsl 128 15 0 1 0 0 empty empty empty -2 -8 0 10 -262144
-1 -1 0 1;
#X text 283 107 speaker position;
#X text 277 63 number of speakers -1;
#X obj 249 189 clip -1 1;
#X obj 249 423 outlet;
#X text 138 448 signal out;
#X text 254 454 control out (for monitoring/debugging);
#X floatatom 335 356 5 0 0 0 - - -;
#X obj 249 225 expr sin(3.14159 * $f1 / 2 + 1.57079632679);
#X obj 249 63 * \$1;
#X obj 249 106 - \$2;
#X obj 249 154 / \$3;
#X text 280 147 sets span/range of panning behavior (num of speakers
-1 for full span);
#X connect 0 0 15 0;
#X connect 1 0 4 1;
#X connect 3 0 4 0;
#X connect 4 0 2 0;
#X connect 5 0 1 0;
#X connect 6 0 15 0;
#X connect 9 0 14 0;
#X connect 14 0 13 0;
#X connect 14 0 10 0;
#X connect 14 0 5 0;
#X connect 15 0 16 0;
#X connect 16 0 17 0;
#X connect 17 0 9 0;
