#N canvas 239 470 796 507 10;
#X obj 409 -55 table_loader;
#X obj 409 -8 / 44.1;
#X obj 258 -99 hsl 128 15 0 127 0 0 empty empty empty -2 -8 0 10 -262144
-1 -1 7000 1;
#X obj 409 -32 f;
#X obj 302 -28 t b f;
#X obj 290 -145 table \$1;
#X msg 409 -78 read -resize \$1;
#X obj 202 85 outlet~;
#X obj 146 -187 inlet;
#X obj 409 -150 loadbang;
#X obj 255 -188 inlet;
#X obj 409 -104 symbol \$1;
#X obj 483 -146 bng 15 250 50 0 empty empty empty 17 7 0 10 -262144
-1 -1;
#X obj 254 -72 jrange 0 128 0 2000;
#X obj 409 21 -;
#X text 266 -118 overlap 0 to 2 sec;
#X obj 202 50 elooper~ \$1;
#X connect 0 0 3 0;
#X connect 1 0 14 0;
#X connect 2 0 13 0;
#X connect 3 0 1 0;
#X connect 4 0 3 0;
#X connect 4 1 14 1;
#X connect 6 0 0 0;
#X connect 8 0 16 0;
#X connect 9 0 11 0;
#X connect 10 0 2 0;
#X connect 11 0 6 0;
#X connect 12 0 11 0;
#X connect 13 0 4 0;
#X connect 13 0 16 1;
#X connect 14 0 16 2;
#X connect 16 0 7 0;
