#N canvas 265 370 399 470 10;
#X obj 47 43 inlet;
#X text 88 43 table name;
#X obj 79 420 outlet~;
#X obj 80 359 tabplay~;
#X obj 163 154 expr size("$s1");
#X obj 163 246 / 44.1;
#X floatatom 174 271 5 0 0 0 - - -, f 5;
#X msg 47 94 symbol \$1;
#X obj 162 419 outlet;
#X obj 203 202 samplerate~;
#X obj 163 178 t f b;
#X obj 163 357 delay;
#X obj 163 395 bng 15 250 50 0 empty empty empty 17 7 0 10 -262144
-1 -1;
#X obj 163 292 t b f;
#X text 29 20 plays a table once and bangs outlet when done;
#X msg 79 299 set \$1;
#X obj 47 120 t s s;
#X obj 47 68 symbol;
#X obj 202 225 / 1000;
#X connect 0 0 17 0;
#X connect 3 0 2 0;
#X connect 4 0 10 0;
#X connect 5 0 6 0;
#X connect 5 0 13 0;
#X connect 7 0 16 0;
#X connect 9 0 18 0;
#X connect 10 0 5 0;
#X connect 10 1 9 0;
#X connect 11 0 12 0;
#X connect 12 0 8 0;
#X connect 13 0 11 0;
#X connect 13 0 3 0;
#X connect 13 1 11 1;
#X connect 15 0 3 0;
#X connect 16 0 4 0;
#X connect 16 1 15 0;
#X connect 17 0 7 0;
#X connect 18 0 5 1;
