#N canvas 225 58 399 540 10;
#X obj 53 43 inlet;
#X text 94 43 table name;
#X obj 81 515 outlet~;
#X obj 80 359 tabplay~;
#X obj 163 154 expr size("$s1");
#X obj 163 246 / 44.1;
#X floatatom 174 271 5 0 0 0 - - -;
#X msg 53 94 symbol \$1;
#X obj 162 419 outlet;
#X obj 203 202 samplerate~;
#X obj 163 178 t f b;
#X obj 163 357 delay;
#X obj 163 395 bng 15 250 50 0 empty empty empty 17 7 0 10 -262144
-1 -1;
#X text 29 20 plays a table once and bangs outlet when done;
#X msg 80 299 set \$1;
#X obj 53 120 t s s;
#X obj 53 68 symbol;
#X obj 202 225 / 1000;
#X obj 125 395 bng 15 250 50 0 empty empty empty 17 7 0 10 -262144
-1 -1;
#X text 195 52 creation arg is ramp time;
#X obj 243 314 t f f b;
#X obj 262 372 -;
#X obj 262 398 delay;
#X obj 262 474 vline~;
#X msg 262 446 0 \$1;
#X msg 228 446 1 \$1;
#X obj 80 492 *~;
#X obj 163 292 t b b f;
#X msg 286 345 50;
#X msg 262 422 50;
#X msg 228 422 50;
#X connect 0 0 16 0;
#X connect 3 0 26 0;
#X connect 3 1 18 0;
#X connect 4 0 10 0;
#X connect 5 0 6 0;
#X connect 5 0 27 0;
#X connect 7 0 15 0;
#X connect 9 0 17 0;
#X connect 10 0 5 0;
#X connect 10 1 9 0;
#X connect 11 0 12 0;
#X connect 12 0 8 0;
#X connect 14 0 3 0;
#X connect 15 0 4 0;
#X connect 15 1 14 0;
#X connect 16 0 7 0;
#X connect 17 0 5 1;
#X connect 20 0 11 1;
#X connect 20 1 21 0;
#X connect 20 2 28 0;
#X connect 21 0 22 0;
#X connect 22 0 29 0;
#X connect 23 0 26 1;
#X connect 24 0 23 0;
#X connect 25 0 23 0;
#X connect 26 0 2 0;
#X connect 27 0 11 0;
#X connect 27 0 3 0;
#X connect 27 1 30 0;
#X connect 27 2 20 0;
#X connect 28 0 21 1;
#X connect 29 0 24 0;
#X connect 30 0 25 0;
