#N canvas 290 275 796 507 10;
#X obj 228 172 hsl 128 15 0 127 0 0 empty empty empty -2 -8 0 10 -262144
-1 -1 0 1;
#X obj 171 436 outlet~;
#X obj 116 84 inlet;
#X obj 225 83 inlet;
#X obj 224 199 jrange 0 128 0 2000;
#X text 236 153 overlap 0 to 2 sec;
#X obj 171 401 elooper~;
#X obj 439 235 inlet;
#X connect 0 0 4 0;
#X connect 2 0 6 0;
#X connect 3 0 0 0;
#X connect 4 0 6 1;
#X connect 6 0 1 0;
#X connect 7 0 6 2;
