#N canvas 182 0 774 669 10;
#X obj 310 -12 inlet;
#X obj 269 605 outlet;
#X obj 38 34 line;
#X floatatom 358 290 5 0 0 0 - - -;
#X msg 38 2 0;
#X obj 225 259 f;
#X floatatom 225 282 5 0 0 0 - - -;
#X obj 343 130 + 1;
#X obj 311 129 f;
#X obj 225 214 bng 15 250 50 0 empty empty empty 17 7 0 10 -262144
-1 -1;
#X obj 358 222 bng 15 250 50 0 empty empty empty 17 7 0 10 -262144
-1 -1;
#X obj 358 266 f;
#X obj 315 337 -;
#X msg 315 510 set \$1;
#X msg 315 531 0;
#X floatatom 323 367 5 0 0 0 - - -;
#X floatatom 324 427 5 0 0 0 - - -;
#X text 367 427 inches of rain per minute;
#X text 361 367 inches of rain per second;
#X obj 315 456 * 60;
#X text 351 456 inches of rain per hour;
#X text 154 0 1 hour ramp for testing;
#X obj 240 234 r \$0-rain_accum;
#X obj 373 243 r \$0-rain_accum;
#X obj 38 67 s \$0-rain_accum;
#X obj 310 19 s \$0-rain_accum;
#X obj 312 69 bng 15 250 50 0 empty empty empty 17 7 0 10 -262144 -1
-1;
#X obj 312 48 loadbang;
#X msg 76 -1 4 3.6e+006;
#X obj 312 103 metro 5000;
#X text 388 103 5 second average;
#X obj 315 400 * 12;
#X floatatom 423 22 5 0 0 0 - - -;
#X obj 311 153 mod 2;
#X obj 310 177 sel 0 1;
#X connect 0 0 25 0;
#X connect 0 0 32 0;
#X connect 2 0 24 0;
#X connect 4 0 2 0;
#X connect 5 0 6 0;
#X connect 5 0 12 1;
#X connect 7 0 8 1;
#X connect 8 0 7 0;
#X connect 8 0 33 0;
#X connect 9 0 5 0;
#X connect 10 0 11 0;
#X connect 11 0 3 0;
#X connect 11 0 12 0;
#X connect 12 0 15 0;
#X connect 12 0 31 0;
#X connect 13 0 14 0;
#X connect 19 0 13 0;
#X connect 19 0 1 0;
#X connect 22 0 5 1;
#X connect 23 0 11 1;
#X connect 26 0 29 0;
#X connect 27 0 26 0;
#X connect 28 0 2 0;
#X connect 29 0 8 0;
#X connect 31 0 16 0;
#X connect 31 0 19 0;
#X connect 33 0 34 0;
#X connect 34 0 9 0;
#X connect 34 1 10 0;
