#N canvas 82 124 1012 543 10;
#X obj -39 258 cnv 15 100 60 empty empty empty 20 12 0 14 -233017 -66577
0;
#X obj 109 118 vsl 20 120 0 2 0 0 empty empty empty 0 -9 0 10 -204800
-1 -1 5950 1;
#X obj 114 20 loadbang;
#X obj -44 -23 inlet load;
#X obj 109 252 nbx 5 30 -1e+37 1e+37 0 0 empty empty empty 0 -8 0 10
-204800 -1 -1 0 256;
#X obj 320 274 env~;
#X text 166 -62 audio in;
#X obj 140 118 vu 20 120 empty empty -1 -8 0 10 -66577 -1 1 0;
#X floatatom 2 243 5 0 0 0 - - -;
#X text -47 224 for setting new preset;
#X text 146 54 preset gain;
#X obj 205 230 rmstodb;
#X obj 205 252 - 100;
#X text 350 275 calculates RMS;
#X obj 320 296 - 100;
#X obj -45 1 t b b;
#X obj 136 437 throw~ c7;
#X obj 201 438 throw~ c8;
#X obj 427 0 inlet microserver;
#X obj 427 108 s rainfall;
#X floatatom 378 63 5 0 0 0 - - -;
#X obj 427 32 route /mtRainRate;
#X obj 427 78 line;
#X floatatom 487 90 5 0 0 0 - - -;
#X msg 113 52 1;
#X obj 188 364 rain_players_stereo;
#X msg 427 56 \$1 1000;
#X connect 1 0 8 0;
#X connect 1 0 11 0;
#X connect 1 0 25 1;
#X connect 2 0 24 0;
#X connect 3 0 15 0;
#X connect 5 0 14 0;
#X connect 11 0 12 0;
#X connect 12 0 4 0;
#X connect 14 0 7 0;
#X connect 15 0 25 0;
#X connect 15 1 24 0;
#X connect 18 0 21 0;
#X connect 21 0 20 0;
#X connect 21 0 26 0;
#X connect 22 0 19 0;
#X connect 22 0 23 0;
#X connect 24 0 1 0;
#X connect 25 0 5 0;
#X connect 25 0 16 0;
#X connect 25 1 17 0;
#X connect 26 0 22 0;
#X coords 0 -1 1 1 94 190 1 100 100;
