#N canvas 499 322 1642 722 10;
#X obj 655 104 hsl 128 15 0 127 0 0 empty empty empty -2 -8 0 10 -262144
-1 -1 6400 1;
#X obj 308 103 hsl 128 15 0 127 0 0 empty empty empty -2 -8 0 10 -262144
-1 -1 6400 1;
#X obj 218 459 outlet~;
#X obj 219 142 player_c~;
#X obj 550 137 player_c~;
#X obj 271 16 inlet;
#X obj 368 -24 loadbang;
#X obj 366 27 64;
#X obj -8 -201 inlet;
#X obj 1421 123 hsl 128 15 0 127 0 0 empty empty empty -2 -8 0 10 -262144
-1 -1 6400 1;
#X obj 1074 122 hsl 128 15 0 127 0 0 empty empty empty -2 -8 0 10 -262144
-1 -1 6400 1;
#X obj 1317 189 *~ 0.3;
#X obj 985 161 player_c~;
#X obj 1316 156 player_c~;
#X obj 1034 29 inlet;
#X obj 1134 -5 loadbang;
#X obj 1132 46 64;
#X obj 2197 143 hsl 128 15 0 127 0 0 empty empty empty -2 -8 0 10 -262144
-1 -1 6400 1;
#X obj 1850 142 hsl 128 15 0 127 0 0 empty empty empty -2 -8 0 10 -262144
-1 -1 6400 1;
#X obj 1760 208 *~ 0.3;
#X obj 2093 209 *~ 0.3;
#X obj 1761 181 player_c~;
#X obj 2092 176 player_c~;
#X obj 1811 90 inlet;
#X obj 1910 15 loadbang;
#X obj 1908 66 64;
#X obj -8 -178 s \$0-start;
#X obj 201 106 r \$0-start;
#X obj 477 114 r \$0-start;
#X obj 941 84 r \$0-start;
#X obj 1630 121 r \$0-start;
#X obj 600 20 inlet;
#X obj 1378 39 inlet;
#X obj 2138 104 inlet;
#X obj 219 169 *~ 0.8;
#X obj 550 169 *~ 0.8;
#X obj 984 188 *~ 0.8;
#X obj 135 -48 hsl 128 15 0 127 0 0 empty empty empty -2 -8 0 10 -262144
-1 -1 0 1;
#X obj 132 -199 r rainfall;
#X floatatom 132 -171 5 0 0 0 - - -;
#X obj 218 430 *~ 1;
#X obj 637 -148 tgl 15 0 empty empty empty 17 7 0 10 -262144 -1 -1
1 1;
#X obj 550 453 outlet~;
#X obj 550 424 *~ 1;
#X obj 984 457 outlet~;
#X obj 984 428 *~ 1;
#X obj 1317 464 outlet~;
#X obj 1317 435 *~ 1;
#X obj 1760 460 outlet~;
#X obj 1760 431 *~ 1;
#X obj 2096 467 outlet~;
#X obj 2096 438 *~ 1;
#X text 661 -149 mute;
#X msg 637 -172 1;
#X floatatom 131 32 5 0 0 0 - - -;
#X obj 2240 -254 inlet;
#X obj 2240 -227 route mute;
#X obj 637 -125 s \$0-mute;
#X obj 239 403 r \$0-mute;
#X obj 570 395 r \$0-mute;
#X obj 1005 401 r \$0-mute;
#X obj 1338 408 r \$0-mute;
#X obj 1781 404 r \$0-mute;
#X obj 2117 411 r \$0-mute;
#X obj 133 2 s \$0-vol;
#X obj 284 141 r \$0-vol;
#X obj 612 136 r \$0-vol;
#X obj 1048 160 r \$0-vol;
#X obj 1379 156 r \$0-vol;
#X obj 1824 180 r \$0-vol;
#X obj 2156 175 r \$0-vol;
#X obj 2240 -197 s \$0-mute;
#X text 775 -199 args: moses1 \, moses2 \, jrange1 \, 2 \, 3 \, 4 \,
5 \, 6 \, 7 \, and 8;
#X obj 805 -36 hsl 128 15 0 127 0 0 empty empty empty -2 -8 0 10 -262144
-1 -1 0 1;
#X obj 859 -110 moses 0.02;
#X text 929 -165 rule1: 0.001 - 0.02 fades from nothing to -18db;
#X text 928 -149 rule2: 0.25 - 0.3 fades from -18db to -10db;
#X obj 802 -66 jrange 0.001 0.02 0 90;
#X obj 944 -66 jrange 0.25 0.3 90 120;
#X obj 802 -134 moses 0.02;
#X text 832 -163 FOR EXAMPLE:;
#X text 958 -108 ARGS would be;
#X text 1046 -108 0.02 0.02 0.001 0.02 0 90 0.25 0.3 90 120;
#X obj 132 -146 moses \$1;
#X obj 189 -122 moses \$2;
#X obj 132 -78 jrange \$3 \$4 \$5 \$6;
#X obj 274 -78 jrange \$7 \$8 \$9 \$10;
#X obj 132 -26 jrange 0 256 0 2;
#X connect 0 0 4 1;
#X connect 1 0 3 1;
#X connect 3 0 34 0;
#X connect 4 0 35 0;
#X connect 5 0 3 2;
#X connect 6 0 7 0;
#X connect 7 0 1 0;
#X connect 7 0 0 0;
#X connect 8 0 26 0;
#X connect 9 0 13 1;
#X connect 10 0 12 1;
#X connect 11 0 47 0;
#X connect 12 0 36 0;
#X connect 13 0 11 0;
#X connect 14 0 12 2;
#X connect 15 0 16 0;
#X connect 16 0 10 0;
#X connect 16 0 9 0;
#X connect 17 0 22 1;
#X connect 18 0 21 1;
#X connect 19 0 49 0;
#X connect 20 0 51 0;
#X connect 21 0 19 0;
#X connect 22 0 20 0;
#X connect 23 0 21 2;
#X connect 24 0 25 0;
#X connect 25 0 18 0;
#X connect 25 0 17 0;
#X connect 27 0 3 0;
#X connect 28 0 4 0;
#X connect 29 0 12 0;
#X connect 29 0 13 0;
#X connect 30 0 21 0;
#X connect 30 0 22 0;
#X connect 31 0 4 2;
#X connect 32 0 13 2;
#X connect 33 0 22 2;
#X connect 34 0 40 0;
#X connect 35 0 43 0;
#X connect 36 0 45 0;
#X connect 37 0 87 0;
#X connect 38 0 39 0;
#X connect 39 0 83 0;
#X connect 40 0 2 0;
#X connect 41 0 57 0;
#X connect 43 0 42 0;
#X connect 45 0 44 0;
#X connect 47 0 46 0;
#X connect 49 0 48 0;
#X connect 51 0 50 0;
#X connect 53 0 41 0;
#X connect 55 0 56 0;
#X connect 56 0 71 0;
#X connect 58 0 40 1;
#X connect 59 0 43 1;
#X connect 60 0 45 1;
#X connect 61 0 47 1;
#X connect 62 0 49 1;
#X connect 63 0 51 1;
#X connect 65 0 34 1;
#X connect 66 0 35 1;
#X connect 67 0 36 1;
#X connect 68 0 11 1;
#X connect 69 0 19 1;
#X connect 70 0 20 1;
#X connect 74 1 78 0;
#X connect 77 0 73 0;
#X connect 78 0 73 0;
#X connect 79 0 77 0;
#X connect 79 1 74 0;
#X connect 83 0 85 0;
#X connect 83 1 84 0;
#X connect 84 1 86 0;
#X connect 85 0 37 0;
#X connect 86 0 37 0;
#X connect 87 0 54 0;
#X connect 87 0 64 0;
