#N canvas 0 22 666 300 10;
#X obj 64 175 throw~ rain1;
#X obj 148 175 throw~ rain2;
#X obj 231 175 throw~ rain3;
#X obj 315 175 throw~ rain4;
#X obj 398 175 throw~ rain5;
#X obj 482 175 throw~ rain6;
#X msg 112 11 Rain_pluck1_A;
#X obj 326 -67 bng 15 250 50 0 empty empty empty 17 7 0 10 -262144
-1 -1;
#X msg 205 11 Rain_pluck2_B;
#X msg 296 11 Rain_pluck3_C;
#X msg 388 11 Rain_pluck4_D;
#X msg 478 11 Rain_pluck5_E;
#X msg 571 11 Rain_pluck6_F;
#X obj 326 -40 t b b;
#X msg 496 -53 mute 0;
#X msg 501 -33 mute 1;
#X text 146 203 rule1: 0.001 - 0.02 fades from nothing to -18db;
#X text 145 224 rule2: 0.25 - 0.3 fades from -18db to -10db;
#X obj 183 -136 inlet load;
#X obj 547 -150 inlet mute;
#X obj 547 -125 sel 0 1;
#X obj 215 129 *~ 1;
#X obj 247 129 *~ 1;
#X obj 279 129 *~ 1;
#X obj 313 129 *~ 1;
#X obj 346 129 *~ 1;
#X obj 378 129 *~ 1;
#X obj 702 24 r \$0-vol;
#X obj 758 24 r \$0-vol;
#X obj 815 24 r \$0-vol;
#X obj 871 24 r \$0-vol;
#X obj 927 24 r \$0-vol;
#X obj 982 24 r \$0-vol;
#X obj 704 -145 inlet volume;
#X obj 704 -123 s \$0-vol;
#X obj 134 59 rain_six_outs 0.02 0.02 0.012 0.02 0 0.127 0.25 0.3 0.127
0.316;
#X connect 6 0 35 1;
#X connect 7 0 13 0;
#X connect 8 0 35 2;
#X connect 9 0 35 3;
#X connect 10 0 35 4;
#X connect 11 0 35 5;
#X connect 12 0 35 6;
#X connect 13 0 35 0;
#X connect 13 1 12 0;
#X connect 13 1 11 0;
#X connect 13 1 10 0;
#X connect 13 1 9 0;
#X connect 13 1 8 0;
#X connect 13 1 6 0;
#X connect 14 0 35 7;
#X connect 15 0 35 7;
#X connect 18 0 7 0;
#X connect 19 0 20 0;
#X connect 20 0 14 0;
#X connect 20 1 15 0;
#X connect 21 0 0 0;
#X connect 22 0 1 0;
#X connect 23 0 2 0;
#X connect 24 0 3 0;
#X connect 25 0 4 0;
#X connect 26 0 5 0;
#X connect 27 0 21 1;
#X connect 28 0 22 1;
#X connect 29 0 23 1;
#X connect 30 0 24 1;
#X connect 31 0 25 1;
#X connect 32 0 26 1;
#X connect 33 0 34 0;
#X connect 35 0 21 0;
#X connect 35 1 22 0;
#X connect 35 2 23 0;
#X connect 35 3 24 0;
#X connect 35 4 25 0;
#X connect 35 5 26 0;
