#N canvas 810 216 450 300 10;
#X obj -1994 263 throw~ rain1;
#X obj -1910 263 throw~ rain2;
#X obj -1827 263 throw~ rain3;
#X obj -1743 263 throw~ rain4;
#X obj -1660 263 throw~ rain5;
#X obj -1576 263 throw~ rain6;
#X obj -1799 -56 bng 15 250 50 0 empty empty empty 17 7 0 10 -262144
-1 -1;
#X obj -1799 -29 t b b;
#X msg -1538 59 mute 0;
#X msg -1533 79 mute 1;
#X msg -2034 8 Rain_strums_A;
#X msg -1908 8 Rain_strums_B;
#X msg -1781 8 Rain_strums_C;
#X msg -1655 8 Rain_strums_D;
#X msg -1529 8 Rain_strums_E;
#X msg -1405 8 Rain_strums_F;
#X text -1825 291 rule1: 0.02 0.05 fades from nothing to -6db;
#X text -1826 312 rule2: 0.25 - 0.3 fades from -6db to +2db;
#X obj -1934 62 rain_six_outs 0.05 0.05 0.02 0.05 0 0.501 0.25 0.3
0.501 1.258;
#X obj -1808 -111 inlet load;
#X obj -1444 -125 inlet mute;
#X obj -1444 -100 sel 0 1;
#X obj -1872 207 *~ 1;
#X obj -1840 207 *~ 1;
#X obj -1808 207 *~ 1;
#X obj -1774 207 *~ 1;
#X obj -1741 207 *~ 1;
#X obj -1709 207 *~ 1;
#X obj -1429 76 r \$0-vol;
#X obj -1373 76 r \$0-vol;
#X obj -1316 76 r \$0-vol;
#X obj -1260 76 r \$0-vol;
#X obj -1204 76 r \$0-vol;
#X obj -1149 76 r \$0-vol;
#X obj -1362 -124 inlet volume;
#X obj -1362 -102 s \$0-vol;
#X connect 6 0 7 0;
#X connect 7 0 18 0;
#X connect 7 1 15 0;
#X connect 7 1 14 0;
#X connect 7 1 13 0;
#X connect 7 1 12 0;
#X connect 7 1 11 0;
#X connect 7 1 10 0;
#X connect 8 0 18 7;
#X connect 9 0 18 7;
#X connect 10 0 18 1;
#X connect 11 0 18 2;
#X connect 12 0 18 3;
#X connect 13 0 18 4;
#X connect 14 0 18 5;
#X connect 15 0 18 6;
#X connect 18 0 22 0;
#X connect 18 1 23 0;
#X connect 18 2 24 0;
#X connect 18 3 25 0;
#X connect 18 4 26 0;
#X connect 18 5 27 0;
#X connect 19 0 6 0;
#X connect 20 0 21 0;
#X connect 21 0 8 0;
#X connect 21 1 9 0;
#X connect 22 0 0 0;
#X connect 23 0 1 0;
#X connect 24 0 2 0;
#X connect 25 0 3 0;
#X connect 26 0 4 0;
#X connect 27 0 5 0;
#X connect 28 0 22 1;
#X connect 29 0 23 1;
#X connect 30 0 24 1;
#X connect 31 0 25 1;
#X connect 32 0 26 1;
#X connect 33 0 27 1;
#X connect 34 0 35 0;
