#N canvas 167 203 1513 745 10;
#X obj 655 104 hsl 128 15 0 127 0 0 empty empty empty -2 -8 0 10 -262144
-1 -1 6400 1;
#X obj 308 103 hsl 128 15 0 127 0 0 empty empty empty -2 -8 0 10 -262144
-1 -1 6400 1;
#X obj 218 459 outlet~;
#X obj 554 454 outlet~;
#X obj 219 169 *~ 0.3;
#X obj 551 170 *~ 0.3;
#X obj 219 142 player_c~;
#X obj 550 137 player_c~;
#X obj 498 101 inlet;
#X obj 805 103 inlet;
#X obj 354 41 loadbang;
#X obj 354 66 64;
#X obj 8 -164 inlet;
#X obj 8 -141 s \$0-start;
#X obj 220 102 r \$0-start;
#X obj 96 -13 hsl 128 15 0 127 0 0 empty empty empty -2 -8 0 10 -262144
-1 -1 0 1;
#X obj 93 9 jrange 0 127 0 1;
#X obj 92 -166 r rainfall;
#X floatatom 92 -139 5 0 0 0 - - -;
#X text 183 -172 rule1: 0.001 - 0.02 fades from nothing to -22db;
#X text 183 -156 rule2: 0.25 - 0.3 fades from -22db to -10db;
#X floatatom 108 -34 5 0 0 0 - - -;
#X floatatom 244 -28 5 0 0 0 - - -;
#X obj 218 431 *~ 1;
#X obj 554 429 *~ 1;
#X obj 584 -145 tgl 15 0 empty empty empty 17 7 0 10 -262144 -1 -1
1 1;
#X text 605 -146 mute subpatch;
#X obj 584 -189 loadbang;
#X msg 584 -167 1;
#X text 785 -189 args: moses1 \, moses2 \, jrange1 \, 2 \, 3 \, 4 \,
5 \, 6 \, 7 \, and 8;
#X obj 815 -26 hsl 128 15 0 127 0 0 empty empty empty -2 -8 0 10 -262144
-1 -1 0 1;
#X text 939 -155 rule1: 0.001 - 0.02 fades from nothing to -18db;
#X text 938 -139 rule2: 0.25 - 0.3 fades from -18db to -10db;
#X obj 812 -124 moses 0.02;
#X text 842 -153 FOR EXAMPLE:;
#X text 968 -98 ARGS would be;
#X obj 584 -124 s \$0-mute;
#X obj 239 409 r \$0-mute;
#X obj 575 406 r \$0-mute;
#X obj 93 37 s \$0-vol;
#X obj 292 140 r \$0-vol;
#X obj 621 136 r \$0-vol;
#X text 1056 -98 0.02 0.25 0.001 0.02 0 75 0.25 0.3 75 120;
#X obj 869 -100 moses 0.025;
#X obj 812 -56 jrange 0.001 0.02 0 75;
#X obj 954 -56 jrange 0.25 0.3 75 120;
#X obj 93 -119 moses \$1;
#X obj 150 -94 moses \$2;
#X obj 93 -58 jrange \$3 \$4 \$5 \$6;
#X obj 241 -58 jrange \$7 \$8 \$9 \$10;
#X obj 1279 -181 inlet;
#X obj 1279 -158 route mute;
#X obj 1279 -134 s \$0-mute;
#X connect 0 0 7 1;
#X connect 1 0 6 1;
#X connect 4 0 23 0;
#X connect 5 0 24 0;
#X connect 6 0 4 0;
#X connect 7 0 5 0;
#X connect 8 0 6 2;
#X connect 9 0 7 2;
#X connect 10 0 11 0;
#X connect 11 0 1 0;
#X connect 11 0 0 0;
#X connect 12 0 13 0;
#X connect 14 0 6 0;
#X connect 14 0 7 0;
#X connect 15 0 16 0;
#X connect 16 0 39 0;
#X connect 17 0 18 0;
#X connect 18 0 46 0;
#X connect 23 0 2 0;
#X connect 24 0 3 0;
#X connect 25 0 36 0;
#X connect 27 0 28 0;
#X connect 28 0 25 0;
#X connect 33 0 44 0;
#X connect 33 1 43 0;
#X connect 37 0 23 1;
#X connect 38 0 24 1;
#X connect 40 0 4 1;
#X connect 41 0 5 1;
#X connect 43 1 45 0;
#X connect 44 0 30 0;
#X connect 45 0 30 0;
#X connect 46 0 48 0;
#X connect 46 1 47 0;
#X connect 47 1 49 0;
#X connect 48 0 15 0;
#X connect 48 0 21 0;
#X connect 49 0 22 0;
#X connect 49 0 15 0;
#X connect 50 0 51 0;
#X connect 51 0 52 0;
