#N canvas 18 261 1012 312 10;
#X obj 70 494 outlet~;
#X obj 135 494 outlet~;
#X obj 196 494 outlet~;
#X obj 261 494 outlet~;
#X obj 324 494 outlet~;
#X obj 389 494 outlet~;
#X obj 18 328 catch~ rain1;
#X obj 101 328 catch~ rain2;
#X obj 184 328 catch~ rain3;
#X obj 265 327 catch~ rain4;
#X obj 348 327 catch~ rain5;
#X obj 431 327 catch~ rain6;
#X obj 79 -59 bng 15 250 50 0 empty empty empty 17 7 0 10 -262144 -1
-1;
#X obj 149 450 *~ 1;
#X obj 181 450 *~ 1;
#X obj 213 450 *~ 1;
#X obj 247 450 *~ 1;
#X obj 280 450 *~ 1;
#X obj 312 450 *~ 1;
#X obj 416 381 r \$0-vol;
#X obj 472 381 r \$0-vol;
#X obj 529 381 r \$0-vol;
#X obj 585 381 r \$0-vol;
#X obj 641 381 r \$0-vol;
#X obj 696 381 r \$0-vol;
#X obj 586 -210 inlet volume;
#X obj 586 -188 s \$0-vol;
#X obj 187 -33 rain_notes_wrapper;
#X obj 350 15 rain_strums_wrapper;
#X obj -73 149 rain_climber_wrapper;
#X obj -39 86 rain_pluck_wrapper;
#X obj 378 96 rain_medium_strums_wrapper;
#X obj 582 -144 db_calc;
#X obj 381 49 rain_high_strums_wrapper;
#X obj 90 205 rain_jingle_wrapper;
#X msg 18 58 0;
#X msg 48 58 1;
#X msg 279 -69 0;
#X msg 309 -69 1;
#X msg 249 38 0;
#X msg 279 38 1;
#X msg 503 14 0;
#X msg 533 14 1;
#X msg 545 53 0;
#X msg 575 53 1;
#X msg 153 179 0;
#X msg 183 179 1;
#X msg 435 -20 0;
#X msg 465 -20 1;
#X msg 1 121 0;
#X msg 31 121 1;
#X msg -130 78 0;
#X msg -100 78 1;
#X obj -202 104 rain_drone_wrapper;
#X msg 256 101 0;
#X msg 286 101 1;
#X obj 133 72 rain_lightcrunch_wrapper;
#X obj 140 135 rain_lowcrunch_wrapper;
#X msg 565 95 0;
#X msg 595 95 1;
#X obj 398 138 rain_bigger_strums_wrapper;
#X msg 444 180 0;
#X msg 474 180 1;
#X obj 277 223 rain_blur_wrapper;
#X obj -173 -214 inlet load;
#X obj 26 -228 inlet microserver;
#X obj 26 -200 route /mtRainRate \$1;
#X obj 26 -172 s rainfall;
#X connect 6 0 13 0;
#X connect 7 0 14 0;
#X connect 8 0 15 0;
#X connect 9 0 16 0;
#X connect 10 0 17 0;
#X connect 11 0 18 0;
#X connect 12 0 27 0;
#X connect 12 0 28 0;
#X connect 12 0 29 0;
#X connect 12 0 30 0;
#X connect 12 0 31 0;
#X connect 12 0 33 0;
#X connect 12 0 34 0;
#X connect 12 0 53 0;
#X connect 12 0 56 0;
#X connect 12 0 57 0;
#X connect 12 0 60 0;
#X connect 12 0 63 0;
#X connect 13 0 0 0;
#X connect 14 0 1 0;
#X connect 15 0 2 0;
#X connect 16 0 3 0;
#X connect 17 0 4 0;
#X connect 18 0 5 0;
#X connect 19 0 13 1;
#X connect 20 0 14 1;
#X connect 21 0 15 1;
#X connect 22 0 16 1;
#X connect 23 0 17 1;
#X connect 24 0 18 1;
#X connect 25 0 26 0;
#X connect 35 0 30 2;
#X connect 36 0 30 2;
#X connect 37 0 27 2;
#X connect 38 0 27 2;
#X connect 39 0 56 2;
#X connect 40 0 56 2;
#X connect 41 0 33 2;
#X connect 42 0 33 2;
#X connect 43 0 31 2;
#X connect 44 0 31 2;
#X connect 45 0 34 2;
#X connect 46 0 34 2;
#X connect 47 0 28 2;
#X connect 48 0 28 2;
#X connect 49 0 29 2;
#X connect 50 0 29 2;
#X connect 51 0 53 2;
#X connect 52 0 53 2;
#X connect 54 0 57 2;
#X connect 55 0 57 2;
#X connect 58 0 60 2;
#X connect 59 0 60 2;
#X connect 61 0 63 2;
#X connect 62 0 63 2;
#X connect 64 0 12 0;
#X connect 65 0 66 0;
#X connect 66 0 67 0;
