#N canvas 0 22 1676 635 10;
#X obj 304 373 outlet~;
#N canvas 108 200 1092 745 climber 0;
#X obj 645 94 hsl 128 15 0 127 0 0 empty empty empty -2 -8 0 10 -262144
-1 -1 6400 1;
#X obj 298 93 hsl 128 15 0 127 0 0 empty empty empty -2 -8 0 10 -262144
-1 -1 6400 1;
#X obj 208 449 outlet~;
#X obj 544 444 outlet~;
#X obj 209 159 *~ 0.3;
#X obj 541 160 *~ 0.3;
#X obj 209 132 player_c~;
#X obj 540 127 player_c~;
#X obj 488 91 inlet;
#X obj 795 93 inlet;
#X obj 344 31 loadbang;
#X obj 344 56 64;
#X obj -2 -174 inlet;
#X obj -2 -151 s \$0-start;
#X obj 210 92 r \$0-start;
#X obj 86 -23 hsl 128 15 0 127 0 0 empty empty empty -2 -8 0 10 -262144
-1 -1 0 1;
#X obj 83 -1 jrange 0 127 0 1;
#X obj 82 -176 r rainfall;
#X floatatom 82 -149 5 0 0 0 - - -;
#X text 173 -182 rule1: 0.001 - 0.02 fades from nothing to -22db;
#X text 173 -166 rule2: 0.25 - 0.3 fades from -22db to -10db;
#X floatatom 98 -44 5 0 0 0 - - -;
#X floatatom 234 -38 5 0 0 0 - - -;
#X obj 231 -68 jrange 0.25 0.3 75 120;
#X obj 83 -68 jrange 0.001 0.02 0 75;
#X obj 83 -129 moses 0.02;
#X obj 140 -104 moses 0.25;
#X obj 208 421 *~ 1;
#X obj 544 419 *~ 1;
#X obj 574 -155 tgl 15 0 empty empty empty 17 7 0 10 -262144 -1 -1
1 1;
#X text 595 -156 mute subpatch;
#X obj 83 27 s climber_vol;
#X obj 282 130 r climber_vol;
#X obj 611 126 r climber_vol;
#X obj 574 -134 s mute-climber;
#X obj 229 399 r mute-climber;
#X obj 565 396 r mute-climber;
#X obj 574 -199 loadbang;
#X msg 574 -177 1;
#X connect 0 0 7 1;
#X connect 1 0 6 1;
#X connect 4 0 27 0;
#X connect 5 0 28 0;
#X connect 6 0 4 0;
#X connect 7 0 5 0;
#X connect 8 0 6 2;
#X connect 9 0 7 2;
#X connect 10 0 11 0;
#X connect 11 0 1 0;
#X connect 11 0 0 0;
#X connect 12 0 13 0;
#X connect 14 0 6 0;
#X connect 14 0 7 0;
#X connect 15 0 16 0;
#X connect 16 0 31 0;
#X connect 17 0 18 0;
#X connect 18 0 25 0;
#X connect 23 0 22 0;
#X connect 23 0 15 0;
#X connect 24 0 15 0;
#X connect 24 0 21 0;
#X connect 25 0 24 0;
#X connect 25 1 26 0;
#X connect 26 1 23 0;
#X connect 27 0 2 0;
#X connect 28 0 3 0;
#X connect 29 0 34 0;
#X connect 32 0 4 1;
#X connect 33 0 5 1;
#X connect 35 0 27 1;
#X connect 36 0 28 1;
#X connect 37 0 38 0;
#X connect 38 0 29 0;
#X restore 918 -51 pd climber;
#N canvas 332 94 1023 763 jingle 0;
#X obj 645 94 hsl 128 15 0 127 0 0 empty empty empty -2 -8 0 10 -262144
-1 -1 6400 1;
#X obj 298 93 hsl 128 15 0 127 0 0 empty empty empty -2 -8 0 10 -262144
-1 -1 6400 1;
#X obj 208 449 outlet~;
#X obj 544 444 outlet~;
#X obj 208 159 *~ 0.3;
#X obj 541 160 *~ 0.3;
#X obj 209 132 player_c~;
#X obj 540 127 player_c~;
#X obj 488 91 inlet;
#X obj 795 93 inlet;
#X obj 358 -34 loadbang;
#X obj 356 17 64;
#X obj 78 72 inlet;
#X connect 0 0 7 1;
#X connect 1 0 6 1;
#X connect 4 0 2 0;
#X connect 5 0 3 0;
#X connect 6 0 4 0;
#X connect 7 0 5 0;
#X connect 8 0 6 2;
#X connect 9 0 7 2;
#X connect 10 0 11 0;
#X connect 11 0 1 0;
#X connect 11 0 0 0;
#X connect 12 0 6 0;
#X connect 12 0 7 0;
#X restore 699 461 pd jingle;
#N canvas 332 94 1023 763 strums 0;
#X obj 645 94 hsl 128 15 0 127 0 0 empty empty empty -2 -8 0 10 -262144
-1 -1 6400 1;
#X obj 298 93 hsl 128 15 0 127 0 0 empty empty empty -2 -8 0 10 -262144
-1 -1 6400 1;
#X obj 208 449 outlet~;
#X obj 544 444 outlet~;
#X obj 208 159 *~ 0.3;
#X obj 541 160 *~ 0.3;
#X obj 209 132 player_c~;
#X obj 540 127 player_c~;
#X obj 488 91 inlet;
#X obj 795 93 inlet;
#X obj 358 -34 loadbang;
#X obj 356 17 64;
#X obj 78 72 inlet;
#X connect 0 0 7 1;
#X connect 1 0 6 1;
#X connect 4 0 2 0;
#X connect 5 0 3 0;
#X connect 6 0 4 0;
#X connect 7 0 5 0;
#X connect 8 0 6 2;
#X connect 9 0 7 2;
#X connect 10 0 11 0;
#X connect 11 0 1 0;
#X connect 11 0 0 0;
#X connect 12 0 6 0;
#X connect 12 0 7 0;
#X restore 765 460 pd strums;
#N canvas 332 94 1023 763 bigger_strums 0;
#X obj 645 94 hsl 128 15 0 127 0 0 empty empty empty -2 -8 0 10 -262144
-1 -1 6400 1;
#X obj 298 93 hsl 128 15 0 127 0 0 empty empty empty -2 -8 0 10 -262144
-1 -1 6400 1;
#X obj 208 449 outlet~;
#X obj 544 444 outlet~;
#X obj 208 159 *~ 0.3;
#X obj 541 160 *~ 0.3;
#X obj 209 132 player_c~;
#X obj 540 127 player_c~;
#X obj 488 91 inlet;
#X obj 795 93 inlet;
#X obj 358 -34 loadbang;
#X obj 356 17 64;
#X obj 78 72 inlet;
#X connect 0 0 7 1;
#X connect 1 0 6 1;
#X connect 4 0 2 0;
#X connect 5 0 3 0;
#X connect 6 0 4 0;
#X connect 7 0 5 0;
#X connect 8 0 6 2;
#X connect 9 0 7 2;
#X connect 10 0 11 0;
#X connect 11 0 1 0;
#X connect 11 0 0 0;
#X connect 12 0 6 0;
#X connect 12 0 7 0;
#X restore 830 460 pd bigger_strums;
#N canvas 332 94 1023 763 medium_strums 0;
#X obj 645 94 hsl 128 15 0 127 0 0 empty empty empty -2 -8 0 10 -262144
-1 -1 6400 1;
#X obj 298 93 hsl 128 15 0 127 0 0 empty empty empty -2 -8 0 10 -262144
-1 -1 6400 1;
#X obj 208 449 outlet~;
#X obj 544 444 outlet~;
#X obj 208 159 *~ 0.3;
#X obj 541 160 *~ 0.3;
#X obj 209 132 player_c~;
#X obj 540 127 player_c~;
#X obj 488 91 inlet;
#X obj 795 93 inlet;
#X obj 358 -34 loadbang;
#X obj 356 17 64;
#X obj 78 72 inlet;
#X connect 0 0 7 1;
#X connect 1 0 6 1;
#X connect 4 0 2 0;
#X connect 5 0 3 0;
#X connect 6 0 4 0;
#X connect 7 0 5 0;
#X connect 8 0 6 2;
#X connect 9 0 7 2;
#X connect 10 0 11 0;
#X connect 11 0 1 0;
#X connect 11 0 0 0;
#X connect 12 0 6 0;
#X connect 12 0 7 0;
#X restore 938 460 pd medium_strums;
#N canvas 332 94 1023 763 high_strums 0;
#X obj 645 94 hsl 128 15 0 127 0 0 empty empty empty -2 -8 0 10 -262144
-1 -1 6400 1;
#X obj 298 93 hsl 128 15 0 127 0 0 empty empty empty -2 -8 0 10 -262144
-1 -1 6400 1;
#X obj 208 449 outlet~;
#X obj 544 444 outlet~;
#X obj 208 159 *~ 0.3;
#X obj 541 160 *~ 0.3;
#X obj 209 132 player_c~;
#X obj 540 127 player_c~;
#X obj 488 91 inlet;
#X obj 795 93 inlet;
#X obj 358 -34 loadbang;
#X obj 356 17 64;
#X obj 78 72 inlet;
#X connect 0 0 7 1;
#X connect 1 0 6 1;
#X connect 4 0 2 0;
#X connect 5 0 3 0;
#X connect 6 0 4 0;
#X connect 7 0 5 0;
#X connect 8 0 6 2;
#X connect 9 0 7 2;
#X connect 10 0 11 0;
#X connect 11 0 1 0;
#X connect 11 0 0 0;
#X connect 12 0 6 0;
#X connect 12 0 7 0;
#X restore 1045 460 pd high_strums;
#N canvas 332 94 1023 763 low_crunch 0;
#X obj 645 94 hsl 128 15 0 127 0 0 empty empty empty -2 -8 0 10 -262144
-1 -1 6400 1;
#X obj 298 93 hsl 128 15 0 127 0 0 empty empty empty -2 -8 0 10 -262144
-1 -1 6400 1;
#X obj 208 449 outlet~;
#X obj 544 444 outlet~;
#X obj 208 159 *~ 0.3;
#X obj 541 160 *~ 0.3;
#X obj 209 132 player_c~;
#X obj 540 127 player_c~;
#X obj 488 91 inlet;
#X obj 795 93 inlet;
#X obj 358 -34 loadbang;
#X obj 356 17 64;
#X obj 78 72 inlet;
#X connect 0 0 7 1;
#X connect 1 0 6 1;
#X connect 4 0 2 0;
#X connect 5 0 3 0;
#X connect 6 0 4 0;
#X connect 7 0 5 0;
#X connect 8 0 6 2;
#X connect 9 0 7 2;
#X connect 10 0 11 0;
#X connect 11 0 1 0;
#X connect 11 0 0 0;
#X connect 12 0 6 0;
#X connect 12 0 7 0;
#X restore 602 461 pd low_crunch;
#N canvas 332 94 1023 763 drone 0;
#X obj 645 94 hsl 128 15 0 127 0 0 empty empty empty -2 -8 0 10 -262144
-1 -1 6400 1;
#X obj 298 93 hsl 128 15 0 127 0 0 empty empty empty -2 -8 0 10 -262144
-1 -1 6400 1;
#X obj 208 449 outlet~;
#X obj 544 444 outlet~;
#X obj 208 159 *~ 0.3;
#X obj 541 160 *~ 0.3;
#X obj 209 132 player_c~;
#X obj 540 127 player_c~;
#X obj 488 91 inlet;
#X obj 795 93 inlet;
#X obj 358 -34 loadbang;
#X obj 356 17 64;
#X obj 78 72 inlet;
#X connect 0 0 7 1;
#X connect 1 0 6 1;
#X connect 4 0 2 0;
#X connect 5 0 3 0;
#X connect 6 0 4 0;
#X connect 7 0 5 0;
#X connect 8 0 6 2;
#X connect 9 0 7 2;
#X connect 10 0 11 0;
#X connect 11 0 1 0;
#X connect 11 0 0 0;
#X connect 12 0 6 0;
#X connect 12 0 7 0;
#X restore 1232 461 pd drone;
#N canvas 332 94 1023 763 blur 0;
#X obj 645 94 hsl 128 15 0 127 0 0 empty empty empty -2 -8 0 10 -262144
-1 -1 6400 1;
#X obj 298 93 hsl 128 15 0 127 0 0 empty empty empty -2 -8 0 10 -262144
-1 -1 6400 1;
#X obj 208 449 outlet~;
#X obj 544 444 outlet~;
#X obj 208 159 *~ 0.3;
#X obj 541 160 *~ 0.3;
#X obj 209 132 player_c~;
#X obj 540 127 player_c~;
#X obj 488 91 inlet;
#X obj 795 93 inlet;
#X obj 358 -34 loadbang;
#X obj 356 17 64;
#X obj 78 72 inlet;
#X connect 0 0 7 1;
#X connect 1 0 6 1;
#X connect 4 0 2 0;
#X connect 5 0 3 0;
#X connect 6 0 4 0;
#X connect 7 0 5 0;
#X connect 8 0 6 2;
#X connect 9 0 7 2;
#X connect 10 0 11 0;
#X connect 11 0 1 0;
#X connect 11 0 0 0;
#X connect 12 0 6 0;
#X connect 12 0 7 0;
#X restore 1295 461 pd blur;
#N canvas 332 94 1023 763 notes 0;
#X obj 645 94 hsl 128 15 0 127 0 0 empty empty empty -2 -8 0 10 -262144
-1 -1 6400 1;
#X obj 298 93 hsl 128 15 0 127 0 0 empty empty empty -2 -8 0 10 -262144
-1 -1 6400 1;
#X obj 208 449 outlet~;
#X obj 544 444 outlet~;
#X obj 208 159 *~ 0.3;
#X obj 541 160 *~ 0.3;
#X obj 209 132 player_c~;
#X obj 540 127 player_c~;
#X obj 488 91 inlet;
#X obj 795 93 inlet;
#X obj 358 -34 loadbang;
#X obj 356 17 64;
#X obj 78 72 inlet;
#X connect 0 0 7 1;
#X connect 1 0 6 1;
#X connect 4 0 2 0;
#X connect 5 0 3 0;
#X connect 6 0 4 0;
#X connect 7 0 5 0;
#X connect 8 0 6 2;
#X connect 9 0 7 2;
#X connect 10 0 11 0;
#X connect 11 0 1 0;
#X connect 11 0 0 0;
#X connect 12 0 6 0;
#X connect 12 0 7 0;
#X restore 1358 458 pd notes;
#N canvas 90 67 1348 769 plucks---------------------- 1;
#X obj 645 94 hsl 128 15 0 127 0 0 empty empty empty -2 -8 0 10 -262144
-1 -1 6400 1;
#X obj 298 93 hsl 128 15 0 127 0 0 empty empty empty -2 -8 0 10 -262144
-1 -1 6400 1;
#X obj 208 449 outlet~;
#X obj 209 132 player_c~;
#X obj 540 127 player_c~;
#X obj 261 6 inlet;
#X obj 358 -34 loadbang;
#X obj 356 17 64;
#X obj -18 -211 inlet;
#X obj 1411 113 hsl 128 15 0 127 0 0 empty empty empty -2 -8 0 10 -262144
-1 -1 6400 1;
#X obj 1064 112 hsl 128 15 0 127 0 0 empty empty empty -2 -8 0 10 -262144
-1 -1 6400 1;
#X obj 1307 179 *~ 0.3;
#X obj 975 151 player_c~;
#X obj 1306 146 player_c~;
#X obj 1024 19 inlet;
#X obj 1124 -15 loadbang;
#X obj 1122 36 64;
#X obj 2187 133 hsl 128 15 0 127 0 0 empty empty empty -2 -8 0 10 -262144
-1 -1 6400 1;
#X obj 1840 132 hsl 128 15 0 127 0 0 empty empty empty -2 -8 0 10 -262144
-1 -1 6400 1;
#X obj 1750 198 *~ 0.3;
#X obj 2083 199 *~ 0.3;
#X obj 1751 171 player_c~;
#X obj 2082 166 player_c~;
#X obj 1801 80 inlet;
#X obj 1900 5 loadbang;
#X obj 1898 56 64;
#X obj -18 -188 s \$0-start;
#X obj 191 96 r \$0-start;
#X obj 467 104 r \$0-start;
#X obj 931 74 r \$0-start;
#X obj 1620 111 r \$0-start;
#X obj 590 10 inlet;
#X obj 1368 29 inlet;
#X obj 2128 94 inlet;
#X obj 209 159 *~ 0.8;
#X obj 540 159 *~ 0.8;
#X obj 974 178 *~ 0.8;
#X obj 125 -58 hsl 128 15 0 127 0 0 empty empty empty -2 -8 0 10 -262144
-1 -1 0 1;
#X obj 122 -36 jrange 0 127 0 1;
#X obj 122 -209 r rainfall;
#X floatatom 122 -181 5 0 0 0 - - -;
#X obj 208 420 *~ 1;
#X obj 627 -158 tgl 15 0 empty empty empty 17 7 0 10 -262144 -1 -1
1 1;
#X obj 627 -135 s mute-plucks;
#X obj 229 393 r mute-plucks;
#X obj 540 443 outlet~;
#X obj 540 414 *~ 1;
#X obj 561 387 r mute-plucks;
#X obj 122 -8 s plucks_vol;
#X obj 274 131 r plucks_vol;
#X obj 602 126 r plucks_vol;
#X obj 1037 150 r plucks_vol;
#X obj 1369 146 r plucks_vol;
#X obj 1814 170 r plucks_vol;
#X obj 974 447 outlet~;
#X obj 974 418 *~ 1;
#X obj 995 391 r mute-plucks;
#X obj 1307 454 outlet~;
#X obj 1307 425 *~ 1;
#X obj 1328 398 r mute-plucks;
#X obj 1750 450 outlet~;
#X obj 1750 421 *~ 1;
#X obj 1771 394 r mute-plucks;
#X obj 2086 457 outlet~;
#X obj 2086 428 *~ 1;
#X obj 2107 401 r mute-plucks;
#X text 651 -159 mute;
#X obj 122 -156 moses 0.02;
#X obj 179 -132 moses 0.02;
#X text 277 -141 rule1: 0.001 - 0.02 fades from nothing to -18db;
#X text 276 -125 rule2: 0.25 - 0.3 fades from -18db to -10db;
#X obj 122 -88 jrange 0.001 0.02 0 90;
#X obj 264 -88 jrange 0.25 0.3 90 120;
#X obj 627 -204 loadbang;
#X msg 627 -182 1;
#X floatatom 121 22 5 0 0 0 - - -;
#X obj 2146 165 r plucks_vol;
#X obj 2230 -264 inlet;
#X obj 2230 -237 route mute;
#X obj 2230 -207 s mute-plucks;
#X connect 0 0 4 1;
#X connect 1 0 3 1;
#X connect 3 0 34 0;
#X connect 4 0 35 0;
#X connect 5 0 3 2;
#X connect 6 0 7 0;
#X connect 7 0 1 0;
#X connect 7 0 0 0;
#X connect 8 0 26 0;
#X connect 9 0 13 1;
#X connect 10 0 12 1;
#X connect 11 0 58 0;
#X connect 12 0 36 0;
#X connect 13 0 11 0;
#X connect 14 0 12 2;
#X connect 15 0 16 0;
#X connect 16 0 10 0;
#X connect 16 0 9 0;
#X connect 17 0 22 1;
#X connect 18 0 21 1;
#X connect 19 0 61 0;
#X connect 20 0 64 0;
#X connect 21 0 19 0;
#X connect 22 0 20 0;
#X connect 23 0 21 2;
#X connect 24 0 25 0;
#X connect 25 0 18 0;
#X connect 25 0 17 0;
#X connect 27 0 3 0;
#X connect 28 0 4 0;
#X connect 29 0 12 0;
#X connect 29 0 13 0;
#X connect 30 0 21 0;
#X connect 30 0 22 0;
#X connect 31 0 4 2;
#X connect 32 0 13 2;
#X connect 33 0 22 2;
#X connect 34 0 41 0;
#X connect 35 0 46 0;
#X connect 36 0 55 0;
#X connect 37 0 38 0;
#X connect 38 0 48 0;
#X connect 38 0 75 0;
#X connect 39 0 40 0;
#X connect 40 0 67 0;
#X connect 41 0 2 0;
#X connect 42 0 43 0;
#X connect 44 0 41 1;
#X connect 46 0 45 0;
#X connect 47 0 46 1;
#X connect 49 0 34 1;
#X connect 50 0 35 1;
#X connect 51 0 36 1;
#X connect 52 0 11 1;
#X connect 53 0 19 1;
#X connect 55 0 54 0;
#X connect 56 0 55 1;
#X connect 58 0 57 0;
#X connect 59 0 58 1;
#X connect 61 0 60 0;
#X connect 62 0 61 1;
#X connect 64 0 63 0;
#X connect 65 0 64 1;
#X connect 67 0 71 0;
#X connect 67 1 68 0;
#X connect 68 1 72 0;
#X connect 71 0 37 0;
#X connect 72 0 37 0;
#X connect 73 0 74 0;
#X connect 74 0 42 0;
#X connect 76 0 20 1;
#X connect 77 0 78 0;
#X connect 78 0 79 0;
#X restore 212 66 pd plucks----------------------;
#X obj 369 373 outlet~;
#X obj 430 373 outlet~;
#X obj 495 373 outlet~;
#X obj 558 373 outlet~;
#X obj 623 373 outlet~;
#X obj 295 316 catch~ rain1;
#X obj 378 316 catch~ rain2;
#X obj 461 316 catch~ rain3;
#X obj 542 315 catch~ rain4;
#X obj 625 315 catch~ rain5;
#X obj 708 315 catch~ rain6;
#X obj 63 121 throw~ rain1;
#X obj 147 121 throw~ rain2;
#X obj 230 121 throw~ rain3;
#X obj 314 121 throw~ rain4;
#X obj 397 121 throw~ rain5;
#X obj 481 121 throw~ rain6;
#X msg 112 11 Rain_pluck1_A;
#X obj 347 -53 bng 15 250 50 0 empty empty empty 17 7 0 10 -262144
-1 -1;
#X msg 205 11 Rain_pluck2_B;
#X msg 296 11 Rain_pluck3_C;
#X msg 388 11 Rain_pluck4_D;
#X msg 478 11 Rain_pluck5_E;
#X msg 571 11 Rain_pluck6_F;
#X obj 347 -26 t b b;
#X msg 946 -80 Rain_climber_ACE;
#X msg 1063 -80 Rain_climber_BDF;
#X obj 919 -146 bng 15 250 50 0 empty empty empty 17 7 0 10 -262144
-1 -1;
#X obj 919 -119 t b b;
#X obj 771 -4 throw~ rain1;
#X obj 855 -4 throw~ rain2;
#X obj 938 -4 throw~ rain3;
#X obj 1022 -4 throw~ rain4;
#X obj 1105 -4 throw~ rain5;
#X obj 1189 -4 throw~ rain6;
#X obj 35 -103 hsl 500 15 0.001 0.3 0 0 empty empty empty -2 -8 0 10
-204800 -1 -1 0 1;
#X floatatom 57 -78 5 0 0 0 - - -;
#X obj 40 -47 s rainfall;
#X obj 675 209 throw~ rain1;
#X obj 759 209 throw~ rain2;
#X obj 842 209 throw~ rain3;
#X obj 926 209 throw~ rain4;
#X obj 1009 209 throw~ rain5;
#X obj 1093 209 throw~ rain6;
#X obj 959 35 bng 15 250 50 0 empty empty empty 17 7 0 10 -262144 -1
-1;
#X obj 959 62 t b b;
#N canvas 367 164 1348 769 lightcrunch---------------------- 0;
#X obj 645 94 hsl 128 15 0 127 0 0 empty empty empty -2 -8 0 10 -262144
-1 -1 6400 1;
#X obj 298 93 hsl 128 15 0 127 0 0 empty empty empty -2 -8 0 10 -262144
-1 -1 6400 1;
#X obj 208 449 outlet~;
#X obj 209 132 player_c~;
#X obj 540 127 player_c~;
#X obj 261 6 inlet;
#X obj 358 -34 loadbang;
#X obj 356 17 64;
#X obj -18 -211 inlet;
#X obj 1411 113 hsl 128 15 0 127 0 0 empty empty empty -2 -8 0 10 -262144
-1 -1 6400 1;
#X obj 1064 112 hsl 128 15 0 127 0 0 empty empty empty -2 -8 0 10 -262144
-1 -1 6400 1;
#X obj 1307 179 *~ 0.3;
#X obj 975 151 player_c~;
#X obj 1306 146 player_c~;
#X obj 1024 19 inlet;
#X obj 1124 -15 loadbang;
#X obj 1122 36 64;
#X obj 2187 133 hsl 128 15 0 127 0 0 empty empty empty -2 -8 0 10 -262144
-1 -1 6400 1;
#X obj 1840 132 hsl 128 15 0 127 0 0 empty empty empty -2 -8 0 10 -262144
-1 -1 6400 1;
#X obj 1750 198 *~ 0.3;
#X obj 2083 199 *~ 0.3;
#X obj 1751 171 player_c~;
#X obj 2082 166 player_c~;
#X obj 1801 80 inlet;
#X obj 1900 5 loadbang;
#X obj 1898 56 64;
#X obj -18 -188 s \$0-start;
#X obj 191 96 r \$0-start;
#X obj 467 104 r \$0-start;
#X obj 931 74 r \$0-start;
#X obj 1620 111 r \$0-start;
#X obj 590 10 inlet;
#X obj 1368 29 inlet;
#X obj 2128 94 inlet;
#X obj 209 159 *~ 0.8;
#X obj 540 159 *~ 0.8;
#X obj 974 178 *~ 0.8;
#X obj 125 -58 hsl 128 15 0 127 0 0 empty empty empty -2 -8 0 10 -262144
-1 -1 0 1;
#X obj 122 -36 jrange 0 127 0 1;
#X obj 122 -209 r rainfall;
#X floatatom 122 -181 5 0 0 0 - - -;
#X obj 208 420 *~ 1;
#X obj 627 -158 tgl 15 0 empty empty empty 17 7 0 10 -262144 -1 -1
1 1;
#X obj 540 443 outlet~;
#X obj 540 414 *~ 1;
#X obj 974 447 outlet~;
#X obj 974 418 *~ 1;
#X obj 1307 454 outlet~;
#X obj 1307 425 *~ 1;
#X obj 1750 450 outlet~;
#X obj 1750 421 *~ 1;
#X obj 2086 457 outlet~;
#X obj 2086 428 *~ 1;
#X text 651 -159 mute;
#X obj 122 -156 moses 0.02;
#X obj 179 -132 moses 0.02;
#X text 277 -141 rule1: 0.001 - 0.02 fades from nothing to -18db;
#X text 276 -125 rule2: 0.25 - 0.3 fades from -18db to -10db;
#X obj 122 -88 jrange 0.001 0.02 0 90;
#X obj 264 -88 jrange 0.25 0.3 90 120;
#X obj 627 -204 loadbang;
#X msg 627 -182 1;
#X floatatom 121 22 5 0 0 0 - - -;
#X obj 627 -135 s mute-lightcrunch;
#X obj 229 394 r mute-lightcrunch;
#X obj 561 387 r mute-lightcrunch;
#X obj 995 391 r mute-lightcrunch;
#X obj 1328 398 r mute-lightcrunch;
#X obj 1771 394 r mute-lightcrunch;
#X obj 2107 401 r mute-lightcrunch;
#X obj 122 -8 s lightcrunch_vol;
#X obj 274 131 r lightcrunch_vol;
#X obj 602 126 r lightcrunch_vol;
#X obj 1037 150 r lightcrunch_vol;
#X obj 1369 146 r lightcrunch_vol;
#X obj 1814 170 r lightcrunch_vol;
#X obj 2146 165 r lightcrunch_vol;
#X connect 0 0 4 1;
#X connect 1 0 3 1;
#X connect 3 0 34 0;
#X connect 4 0 35 0;
#X connect 5 0 3 2;
#X connect 6 0 7 0;
#X connect 7 0 1 0;
#X connect 7 0 0 0;
#X connect 8 0 26 0;
#X connect 9 0 13 1;
#X connect 10 0 12 1;
#X connect 11 0 48 0;
#X connect 12 0 36 0;
#X connect 13 0 11 0;
#X connect 14 0 12 2;
#X connect 15 0 16 0;
#X connect 16 0 10 0;
#X connect 16 0 9 0;
#X connect 17 0 22 1;
#X connect 18 0 21 1;
#X connect 19 0 50 0;
#X connect 20 0 52 0;
#X connect 21 0 19 0;
#X connect 22 0 20 0;
#X connect 23 0 21 2;
#X connect 24 0 25 0;
#X connect 25 0 18 0;
#X connect 25 0 17 0;
#X connect 27 0 3 0;
#X connect 28 0 4 0;
#X connect 29 0 12 0;
#X connect 29 0 13 0;
#X connect 30 0 21 0;
#X connect 30 0 22 0;
#X connect 31 0 4 2;
#X connect 32 0 13 2;
#X connect 33 0 22 2;
#X connect 34 0 41 0;
#X connect 35 0 44 0;
#X connect 36 0 46 0;
#X connect 37 0 38 0;
#X connect 38 0 62 0;
#X connect 38 0 70 0;
#X connect 39 0 40 0;
#X connect 40 0 54 0;
#X connect 41 0 2 0;
#X connect 42 0 63 0;
#X connect 44 0 43 0;
#X connect 46 0 45 0;
#X connect 48 0 47 0;
#X connect 50 0 49 0;
#X connect 52 0 51 0;
#X connect 54 0 58 0;
#X connect 54 1 55 0;
#X connect 55 1 59 0;
#X connect 58 0 37 0;
#X connect 59 0 37 0;
#X connect 60 0 61 0;
#X connect 61 0 42 0;
#X connect 64 0 41 1;
#X connect 65 0 44 1;
#X connect 66 0 46 1;
#X connect 67 0 48 1;
#X connect 68 0 50 1;
#X connect 69 0 52 1;
#X connect 71 0 34 1;
#X connect 72 0 35 1;
#X connect 73 0 36 1;
#X connect 74 0 11 1;
#X connect 75 0 19 1;
#X connect 76 0 20 1;
#X restore 824 154 pd lightcrunch----------------------;
#X msg 1103 99 Rain_lightcrunch_D;
#X msg 724 99 Rain_lightcrunch_A;
#X msg 850 99 Rain_lightcrunch_B;
#X msg 977 99 Rain_lightcrunch_C;
#X msg 1229 99 Rain_lightcrunch_E;
#X msg 1353 99 Rain_lightcrunch_F;
#X msg 496 -53 mute 0;
#X msg 501 -33 mute 1;
#X msg 1044 34 mute 0;
#X msg 1049 54 mute 1;
#X connect 1 0 41 0;
#X connect 1 0 43 0;
#X connect 1 0 45 0;
#X connect 1 1 42 0;
#X connect 1 1 44 0;
#X connect 1 1 46 0;
#X connect 11 0 23 0;
#X connect 11 1 24 0;
#X connect 11 2 25 0;
#X connect 11 3 26 0;
#X connect 11 4 27 0;
#X connect 11 5 28 0;
#X connect 17 0 0 0;
#X connect 18 0 12 0;
#X connect 19 0 13 0;
#X connect 20 0 14 0;
#X connect 21 0 15 0;
#X connect 22 0 16 0;
#X connect 29 0 11 1;
#X connect 30 0 36 0;
#X connect 31 0 11 2;
#X connect 32 0 11 3;
#X connect 33 0 11 4;
#X connect 34 0 11 5;
#X connect 35 0 11 6;
#X connect 36 1 35 0;
#X connect 36 1 34 0;
#X connect 36 1 33 0;
#X connect 36 1 32 0;
#X connect 36 1 31 0;
#X connect 36 1 29 0;
#X connect 37 0 1 1;
#X connect 38 0 1 2;
#X connect 39 0 40 0;
#X connect 40 0 1 0;
#X connect 40 1 38 0;
#X connect 40 1 37 0;
#X connect 47 0 48 0;
#X connect 47 0 49 0;
#X connect 56 0 57 0;
#X connect 57 1 64 0;
#X connect 57 1 63 0;
#X connect 57 1 59 0;
#X connect 57 1 62 0;
#X connect 57 1 61 0;
#X connect 57 1 60 0;
#X connect 58 0 50 0;
#X connect 58 1 51 0;
#X connect 58 2 52 0;
#X connect 58 3 53 0;
#X connect 58 4 54 0;
#X connect 58 5 55 0;
#X connect 59 0 58 4;
#X connect 60 0 58 1;
#X connect 61 0 58 2;
#X connect 62 0 58 3;
#X connect 63 0 58 5;
#X connect 64 0 58 6;
#X connect 65 0 11 7;
#X connect 66 0 11 7;
