#N canvas 89 67 1225 508 10;
#X obj 74 602 outlet~;
#X obj 139 602 outlet~;
#X obj 200 602 outlet~;
#X obj 265 602 outlet~;
#X obj 328 602 outlet~;
#X obj 393 602 outlet~;
#X obj 65 545 catch~ rain1;
#X obj 148 545 catch~ rain2;
#X obj 231 545 catch~ rain3;
#X obj 312 544 catch~ rain4;
#X obj 395 544 catch~ rain5;
#X obj 478 544 catch~ rain6;
#X obj 63 121 throw~ rain1;
#X obj 147 121 throw~ rain2;
#X obj 230 121 throw~ rain3;
#X obj 314 121 throw~ rain4;
#X obj 397 121 throw~ rain5;
#X obj 481 121 throw~ rain6;
#X msg 112 11 Rain_pluck1_A;
#X obj 326 -67 bng 15 250 50 0 empty empty empty 17 7 0 10 -262144
-1 -1;
#X msg 205 11 Rain_pluck2_B;
#X msg 296 11 Rain_pluck3_C;
#X msg 388 11 Rain_pluck4_D;
#X msg 478 11 Rain_pluck5_E;
#X msg 571 11 Rain_pluck6_F;
#X obj 326 -40 t b b;
#X msg 946 -80 Rain_climber_ACE;
#X msg 1063 -80 Rain_climber_BDF;
#X obj 919 -146 bng 15 250 50 0 empty empty empty 17 7 0 10 -262144
-1 -1;
#X obj 919 -119 t b b;
#X obj 771 -4 throw~ rain1;
#X obj 855 -4 throw~ rain2;
#X obj 938 -4 throw~ rain3;
#X obj 1022 -4 throw~ rain4;
#X obj 1105 -4 throw~ rain5;
#X obj 1189 -4 throw~ rain6;
#X obj 43 -101 hsl 500 15 0.001 0.3 0 0 empty empty empty -2 -8 0 10
-204800 -1 -1 49900 1;
#X floatatom 57 -78 5 0 0 0 - - -;
#X obj 40 -47 s rainfall;
#X obj 675 209 throw~ rain1;
#X obj 759 209 throw~ rain2;
#X obj 842 209 throw~ rain3;
#X obj 926 209 throw~ rain4;
#X obj 1009 209 throw~ rain5;
#X obj 1093 209 throw~ rain6;
#X obj 959 35 bng 15 250 50 0 empty empty empty 17 7 0 10 -262144 -1
-1;
#X obj 959 62 t b b;
#X msg 1103 99 Rain_lightcrunch_D;
#X msg 724 99 Rain_lightcrunch_A;
#X msg 850 99 Rain_lightcrunch_B;
#X msg 977 99 Rain_lightcrunch_C;
#X msg 1229 99 Rain_lightcrunch_E;
#X msg 1353 99 Rain_lightcrunch_F;
#X msg 496 -53 mute 0;
#X msg 501 -33 mute 1;
#X msg 1220 150 mute 0;
#X msg 1225 170 mute 1;
#X text 132 159 rule1: 0.001 - 0.02 fades from nothing to -18db;
#X text 131 180 rule2: 0.25 - 0.3 fades from -18db to -10db;
#X text 1258 -53 rule1: 0.001 - 0.02 fades from nothing to -22db;
#X text 1258 -37 rule2: 0.25 - 0.3 fades from -22db to -10db;
#X msg 1257 -109 mute 0;
#X msg 1262 -89 mute 1;
#X text 844 237 rule1: 0.001 - 0.02 fades from nothing to -18db;
#X text 843 258 rule2: 0.25 - 0.3 fades from -18db to -10db;
#X obj -21 403 throw~ rain1;
#X obj 63 403 throw~ rain2;
#X obj 146 403 throw~ rain3;
#X obj 230 403 throw~ rain4;
#X obj 313 403 throw~ rain5;
#X obj 397 403 throw~ rain6;
#X obj 263 229 bng 15 250 50 0 empty empty empty 17 7 0 10 -262144
-1 -1;
#X obj 263 256 t b b;
#X msg 524 344 mute 0;
#X msg 529 364 mute 1;
#X msg 28 293 Rain_strums_A;
#X msg 154 293 Rain_strums_B;
#X msg 281 293 Rain_strums_C;
#X msg 407 293 Rain_strums_D;
#X msg 533 293 Rain_strums_E;
#X msg 657 293 Rain_strums_F;
#X text 148 431 rule1: 0.02 0.05 fades from nothing to -6db;
#X text 147 452 rule2: 0.25 - 0.3 fades from -6db to +2db;
#X obj 134 59 rain_six_outs 0.02 0.02 0.001 0.02 0 90 0.25 0.3 90 120
;
#X obj 824 154 rain_six_outs 0.02 0.02 0.001 0.02 0 90 0.25 0.3 90
120;
#X obj 128 348 rain_six_outs 0.05 0.05 0.02 0.05 0 120 0.25 0.3 90
150;
#X obj 920 -51 rain_two_outs 0.02 0.25 0.001 0.02 0 75 0.25 0.3 75
120;
#X obj 878 456 rain_notes;
#X obj 868 315 bng 15 250 50 0 empty empty empty 17 7 0 10 -262144
-1 -1;
#X obj 737 510 throw~ rain1;
#X obj 821 510 throw~ rain2;
#X obj 904 510 throw~ rain3;
#X obj 988 510 throw~ rain4;
#X obj 1071 510 throw~ rain5;
#X obj 1155 510 throw~ rain6;
#X msg 656 369 Rain_note1_A;
#X msg 782 369 Rain_note2_B;
#X msg 909 369 Rain_note3_C;
#X msg 1035 369 Rain_note4_D;
#X msg 1161 369 Rain_note5_E;
#X msg 1285 369 Rain_note6_F;
#X obj 40 -146 loadbang;
#X msg 40 -124 0;
#X connect 6 0 0 0;
#X connect 7 0 1 0;
#X connect 8 0 2 0;
#X connect 9 0 3 0;
#X connect 10 0 4 0;
#X connect 11 0 5 0;
#X connect 18 0 83 1;
#X connect 19 0 25 0;
#X connect 20 0 83 2;
#X connect 21 0 83 3;
#X connect 22 0 83 4;
#X connect 23 0 83 5;
#X connect 24 0 83 6;
#X connect 25 0 83 0;
#X connect 25 1 24 0;
#X connect 25 1 23 0;
#X connect 25 1 22 0;
#X connect 25 1 21 0;
#X connect 25 1 20 0;
#X connect 25 1 18 0;
#X connect 26 0 86 1;
#X connect 27 0 86 2;
#X connect 28 0 29 0;
#X connect 29 0 86 0;
#X connect 29 1 27 0;
#X connect 29 1 26 0;
#X connect 36 0 37 0;
#X connect 36 0 38 0;
#X connect 45 0 46 0;
#X connect 46 0 84 0;
#X connect 46 1 52 0;
#X connect 46 1 51 0;
#X connect 46 1 47 0;
#X connect 46 1 50 0;
#X connect 46 1 49 0;
#X connect 46 1 48 0;
#X connect 47 0 84 4;
#X connect 48 0 84 1;
#X connect 49 0 84 2;
#X connect 50 0 84 3;
#X connect 51 0 84 5;
#X connect 52 0 84 6;
#X connect 53 0 83 7;
#X connect 54 0 83 7;
#X connect 55 0 84 7;
#X connect 56 0 84 7;
#X connect 61 0 86 3;
#X connect 62 0 86 3;
#X connect 71 0 72 0;
#X connect 72 0 85 0;
#X connect 72 1 80 0;
#X connect 72 1 79 0;
#X connect 72 1 78 0;
#X connect 72 1 77 0;
#X connect 72 1 76 0;
#X connect 72 1 75 0;
#X connect 73 0 85 7;
#X connect 74 0 85 7;
#X connect 75 0 85 1;
#X connect 76 0 85 2;
#X connect 77 0 85 3;
#X connect 78 0 85 4;
#X connect 79 0 85 5;
#X connect 80 0 85 6;
#X connect 83 0 12 0;
#X connect 83 1 13 0;
#X connect 83 2 14 0;
#X connect 83 3 15 0;
#X connect 83 4 16 0;
#X connect 83 5 17 0;
#X connect 84 0 39 0;
#X connect 84 1 40 0;
#X connect 84 2 41 0;
#X connect 84 3 42 0;
#X connect 84 4 43 0;
#X connect 84 5 44 0;
#X connect 85 0 65 0;
#X connect 85 1 66 0;
#X connect 85 2 67 0;
#X connect 85 3 68 0;
#X connect 85 4 69 0;
#X connect 85 5 70 0;
#X connect 86 0 30 0;
#X connect 86 0 32 0;
#X connect 86 0 34 0;
#X connect 86 1 31 0;
#X connect 86 1 33 0;
#X connect 86 1 35 0;
#X connect 87 0 89 0;
#X connect 87 1 90 0;
#X connect 87 2 91 0;
#X connect 87 3 92 0;
#X connect 87 4 93 0;
#X connect 87 5 94 0;
#X connect 88 0 96 0;
#X connect 88 0 97 0;
#X connect 88 0 98 0;
#X connect 88 0 99 0;
#X connect 88 0 100 0;
#X connect 88 0 95 0;
#X connect 95 0 87 0;
#X connect 96 0 87 1;
#X connect 97 0 87 2;
#X connect 98 0 87 3;
#X connect 99 0 87 4;
#X connect 100 0 87 5;
#X connect 101 0 102 0;
#X connect 101 0 19 0;
#X connect 101 0 71 0;
#X connect 101 0 28 0;
#X connect 101 0 45 0;
#X connect 101 0 88 0;
#X connect 102 0 36 0;
