#N canvas 77 218 1082 588 10;
#X obj -208 395 throw~ rain1;
#X obj -124 395 throw~ rain2;
#X obj -41 395 throw~ rain3;
#X obj 43 395 throw~ rain4;
#X obj 126 395 throw~ rain5;
#X obj 210 395 throw~ rain6;
#X obj -27 26 bng 15 250 50 0 empty empty empty 17 7 0 10 -262144 -1
-1;
#X obj -27 53 t b b;
#X msg 234 141 mute 0;
#X msg 287 141 mute 1;
#X obj -62 -79 inlet load;
#X obj 241 -84 inlet mute;
#X obj 241 -59 sel 0 1;
#X obj -79 317 *~ 1;
#X obj -47 317 *~ 1;
#X obj -15 317 *~ 1;
#X obj 19 317 *~ 1;
#X obj 52 317 *~ 1;
#X obj 84 317 *~ 1;
#X obj 214 198 r \$0-vol;
#X obj 270 198 r \$0-vol;
#X obj 327 198 r \$0-vol;
#X obj 383 198 r \$0-vol;
#X obj 439 198 r \$0-vol;
#X obj 494 198 r \$0-vol;
#X obj 397 -84 inlet volume;
#X obj 397 -62 s \$0-vol;
#X msg -262 90 Rain_lowCrunch_A;
#X msg -136 90 Rain_lowCrunch_B;
#X msg -9 90 Rain_lowCrunch_C;
#X msg 117 90 Rain_lowCrunch_D;
#X msg 243 90 Rain_lowCrunch_E;
#X msg 367 90 Rain_lowCrunch_F;
#X text 384 130 rule1: 0.05 - 0.2 fades from nothing to -11db;
#X text 383 151 rule2: 0.25 - 0.3 fades from -11db to +6db;
#X obj -158 172 rain_six_outs 0.2 0.2 0.05 0.2 0 0.282 0.25 0.3 0.282
2;
#X connect 6 0 7 0;
#X connect 7 0 35 0;
#X connect 7 1 32 0;
#X connect 7 1 31 0;
#X connect 7 1 30 0;
#X connect 7 1 29 0;
#X connect 7 1 28 0;
#X connect 7 1 27 0;
#X connect 8 0 35 7;
#X connect 9 0 35 7;
#X connect 10 0 6 0;
#X connect 11 0 12 0;
#X connect 12 0 8 0;
#X connect 12 1 9 0;
#X connect 13 0 0 0;
#X connect 14 0 1 0;
#X connect 15 0 2 0;
#X connect 16 0 3 0;
#X connect 17 0 4 0;
#X connect 18 0 5 0;
#X connect 19 0 13 1;
#X connect 20 0 14 1;
#X connect 21 0 15 1;
#X connect 22 0 16 1;
#X connect 23 0 17 1;
#X connect 24 0 18 1;
#X connect 25 0 26 0;
#X connect 27 0 35 1;
#X connect 28 0 35 2;
#X connect 29 0 35 3;
#X connect 30 0 35 4;
#X connect 31 0 35 5;
#X connect 32 0 35 6;
#X connect 35 0 13 0;
#X connect 35 1 14 0;
#X connect 35 2 15 0;
#X connect 35 3 16 0;
#X connect 35 4 17 0;
#X connect 35 5 18 0;
