#N canvas 0 22 1123 516 10;
#X msg 237 -9 Rain_climber_ACE;
#X msg 354 -9 Rain_climber_BDF;
#X obj 210 -75 bng 15 250 50 0 empty empty empty 17 7 0 10 -262144
-1 -1;
#X obj 210 -48 t b b;
#X obj 160 206 throw~ rain1;
#X obj 244 206 throw~ rain2;
#X obj 327 206 throw~ rain3;
#X obj 411 206 throw~ rain4;
#X obj 494 206 throw~ rain5;
#X obj 578 206 throw~ rain6;
#X text 549 18 rule1: 0.001 - 0.02 fades from nothing to -22db;
#X text 549 34 rule2: 0.25 - 0.3 fades from -22db to -10db;
#X msg 548 -38 mute 0;
#X msg 553 -18 mute 1;
#X obj 192 21 rain_two_outs 0.02 0.25 0.001 0.02 0 0.079 0.25 0.3 0.079
0.316;
#X obj 208 -137 inlet load;
#X obj 442 -132 inlet mute;
#X obj 442 -107 sel 0 1;
#X obj 180 169 *~ 1;
#X obj 255 166 *~ 1;
#X obj 332 166 *~ 1;
#X obj 422 164 *~ 1;
#X obj 493 167 *~ 1;
#X obj 575 168 *~ 1;
#X obj 601 74 r \$0-vol;
#X obj 687 76 r \$0-vol;
#X obj 770 76 r \$0-vol;
#X obj 848 76 r \$0-vol;
#X obj 929 76 r \$0-vol;
#X obj 1029 79 r \$0-vol;
#X obj 627 -133 inlet volume;
#X obj 627 -111 s \$0-vol;
#X connect 0 0 14 1;
#X connect 1 0 14 2;
#X connect 2 0 3 0;
#X connect 3 0 14 0;
#X connect 3 1 1 0;
#X connect 3 1 0 0;
#X connect 12 0 14 3;
#X connect 13 0 14 3;
#X connect 14 0 22 0;
#X connect 14 0 20 0;
#X connect 14 0 18 0;
#X connect 14 1 23 0;
#X connect 14 1 21 0;
#X connect 14 1 19 0;
#X connect 15 0 2 0;
#X connect 16 0 17 0;
#X connect 17 0 12 0;
#X connect 17 1 13 0;
#X connect 18 0 4 0;
#X connect 19 0 5 0;
#X connect 20 0 6 0;
#X connect 21 0 7 0;
#X connect 22 0 8 0;
#X connect 23 0 9 0;
#X connect 24 0 18 1;
#X connect 25 0 19 1;
#X connect 26 0 20 1;
#X connect 27 0 21 1;
#X connect 28 0 22 1;
#X connect 29 0 23 1;
#X connect 30 0 31 0;
