#N canvas 48 88 1395 781 10;
#X obj 70 494 outlet~;
#X obj 135 494 outlet~;
#X obj 18 328 catch~ rain1;
#X obj 101 328 catch~ rain2;
#X obj 79 -59 bng 15 250 50 0 empty empty empty 17 7 0 10 -262144 -1
-1;
#X obj 149 450 *~ 1;
#X obj 181 450 *~ 1;
#X obj 416 381 r \$0-vol;
#X obj 472 381 r \$0-vol;
#X obj 586 -210 inlet volume;
#X obj 586 -188 s \$0-vol;
#X obj 350 15 rain_strums_wrapper;
#X obj -73 149 rain_climber_wrapper;
#X obj -39 86 rain_pluck_wrapper;
#X obj 378 96 rain_medium_strums_wrapper;
#X obj 582 -144 db_calc;
#X obj 381 49 rain_high_strums_wrapper;
#X obj 90 205 rain_jingle_wrapper;
#X msg 18 58 0;
#X msg 48 58 1;
#X msg 279 -69 0;
#X msg 309 -69 1;
#X msg 249 38 0;
#X msg 279 38 1;
#X msg 503 14 0;
#X msg 533 14 1;
#X msg 545 53 0;
#X msg 575 53 1;
#X msg 153 179 0;
#X msg 183 179 1;
#X msg 435 -20 0;
#X msg 465 -20 1;
#X msg 1 121 0;
#X msg 31 121 1;
#X msg -130 78 0;
#X msg -100 78 1;
#X msg 256 101 0;
#X msg 286 101 1;
#X obj 133 72 rain_lightcrunch_wrapper;
#X obj 140 135 rain_lowcrunch_wrapper;
#X msg 565 95 0;
#X msg 595 95 1;
#X obj 398 138 rain_bigger_strums_wrapper;
#X msg 444 180 0;
#X msg 474 180 1;
#X obj 277 223 rain_blur_wrapper;
#X obj -173 -214 inlet load;
#X obj 187 -33 rain_notes_stereo_wrapper;
#X obj -202 104 rain_drone_wrapper_demo;
#X connect 2 0 5 0;
#X connect 3 0 6 0;
#X connect 4 0 11 0;
#X connect 4 0 12 0;
#X connect 4 0 13 0;
#X connect 4 0 14 0;
#X connect 4 0 16 0;
#X connect 4 0 17 0;
#X connect 4 0 38 0;
#X connect 4 0 39 0;
#X connect 4 0 42 0;
#X connect 4 0 45 0;
#X connect 4 0 47 0;
#X connect 4 0 48 0;
#X connect 5 0 0 0;
#X connect 6 0 1 0;
#X connect 7 0 5 1;
#X connect 8 0 6 1;
#X connect 9 0 10 0;
#X connect 18 0 13 2;
#X connect 19 0 13 2;
#X connect 20 0 47 2;
#X connect 21 0 47 2;
#X connect 22 0 38 2;
#X connect 23 0 38 2;
#X connect 24 0 16 2;
#X connect 25 0 16 2;
#X connect 26 0 14 2;
#X connect 27 0 14 2;
#X connect 28 0 17 2;
#X connect 29 0 17 2;
#X connect 30 0 11 2;
#X connect 31 0 11 2;
#X connect 32 0 12 2;
#X connect 33 0 12 2;
#X connect 34 0 48 2;
#X connect 35 0 48 2;
#X connect 36 0 39 2;
#X connect 37 0 39 2;
#X connect 40 0 42 2;
#X connect 41 0 42 2;
#X connect 43 0 45 2;
#X connect 44 0 45 2;
#X connect 46 0 4 0;
