#N canvas 327 468 1656 589 10;
#X obj 665 114 hsl 128 15 0 127 0 0 empty empty empty -2 -8 0 10 -262144
-1 -1 0 1;
#X obj 318 113 hsl 128 15 0 127 0 0 empty empty empty -2 -8 0 10 -262144
-1 -1 0 1;
#X obj 228 469 outlet~;
#X obj 229 152 player_c~;
#X obj 281 26 inlet;
#X obj 378 -14 loadbang;
#X obj 1431 133 hsl 128 15 0 127 0 0 empty empty empty -2 -8 0 10 -262144
-1 -1 0 1;
#X obj 1084 132 hsl 128 15 0 127 0 0 empty empty empty -2 -8 0 10 -262144
-1 -1 0 1;
#X obj 1327 199 *~ 0.3;
#X obj 1044 39 inlet;
#X obj 1144 5 loadbang;
#X obj 2207 153 hsl 128 15 0 127 0 0 empty empty empty -2 -8 0 10 -262144
-1 -1 0 1;
#X obj 1860 152 hsl 128 15 0 127 0 0 empty empty empty -2 -8 0 10 -262144
-1 -1 0 1;
#X obj 1770 218 *~ 0.3;
#X obj 2103 219 *~ 0.3;
#X obj 1821 100 inlet;
#X obj 1920 25 loadbang;
#X obj 610 30 inlet;
#X obj 1388 49 inlet;
#X obj 2148 114 inlet;
#X obj 994 198 *~ 0.8;
#X obj 14 -562 r rainfall;
#X floatatom 14 -534 5 0 0 0 - - -;
#X obj 228 440 *~ 1;
#X obj 647 -138 tgl 15 0 empty empty empty 17 7 0 10 -262144 -1 -1
1 1;
#X obj 560 463 outlet~;
#X obj 560 434 *~ 1;
#X obj 994 467 outlet~;
#X obj 994 438 *~ 1;
#X obj 1327 474 outlet~;
#X obj 1327 445 *~ 1;
#X obj 1770 470 outlet~;
#X obj 1770 441 *~ 1;
#X obj 2106 477 outlet~;
#X obj 2106 448 *~ 1;
#X text 671 -139 mute;
#X msg 647 -162 1;
#X obj 2250 -244 inlet;
#X obj 2250 -217 route mute;
#X obj 647 -115 s \$0-mute;
#X obj 249 413 r \$0-mute;
#X obj 580 405 r \$0-mute;
#X obj 1015 411 r \$0-mute;
#X obj 1348 418 r \$0-mute;
#X obj 1791 414 r \$0-mute;
#X obj 2127 421 r \$0-mute;
#X obj 294 151 r \$0-vol;
#X obj 622 146 r \$0-vol;
#X obj 1058 170 r \$0-vol;
#X obj 1389 166 r \$0-vol;
#X obj 1834 190 r \$0-vol;
#X obj 2166 185 r \$0-vol;
#X obj 2250 -187 s \$0-mute;
#X text 785 -189 args: moses1 \, moses2 \, jrange1 \, 2 \, 3 \, 4 \,
5 \, 6 \, 7 \, and 8;
#X obj 815 -26 hsl 128 15 0 127 0 0 empty empty empty -2 -8 0 10 -262144
-1 -1 0 1;
#X obj 869 -100 moses 0.02;
#X text 939 -155 rule1: 0.001 - 0.02 fades from nothing to -18db;
#X text 938 -139 rule2: 0.25 - 0.3 fades from -18db to -10db;
#X obj 812 -56 jrange 0.001 0.02 0 90;
#X obj 954 -56 jrange 0.25 0.3 90 120;
#X obj 812 -124 moses 0.02;
#X text 842 -153 FOR EXAMPLE:;
#X text 968 -98 ARGS would be;
#X text 1056 -98 0.02 0.02 0.001 0.02 0 90 0.25 0.3 90 120;
#X obj 376 37 0;
#X obj 1142 56 0;
#X obj 1919 76 0;
#X obj 560 147 player_c~;
#X obj 995 171 player_c~;
#X obj 1326 166 player_c~;
#X obj 1771 191 player_c~;
#X obj 2102 186 player_c~;
#X msg 214 106 oneshot;
#X msg 557 113 oneshot;
#X msg 986 142 oneshot;
#X msg 1323 144 oneshot;
#X msg 1774 162 oneshot;
#X obj 560 179 *~ 0.8;
#X obj 229 179 *~ 0.8;
#X obj 466 -143 hsl 128 15 0 127 0 0 empty empty empty -2 -8 0 10 -262144
-1 -1 12700 1;
#X obj 463 -94 s \$0-vol;
#X obj 463 -119 / 127;
#X obj 462 -185 loadbang;
#X msg 462 -163 127;
#X obj 211 73 r \$0-n1;
#X obj 555 86 r \$0-n2;
#X obj 985 118 r \$0-n3;
#X obj 1323 118 r \$0-n4;
#X msg 2100 163 oneshot;
#X obj 1774 139 r \$0-n5;
#X obj 2100 140 r \$0-n6;
#X obj 210 -314 bng 15 250 50 0 empty empty empty 17 7 0 10 -262144
-1 -1;
#X obj 392 -481 bng 15 250 50 0 empty empty empty 17 7 0 10 -262144
-1 -1;
#X obj 316 -314 bng 15 250 50 0 empty empty empty 17 7 0 10 -262144
-1 -1;
#X obj 422 -314 bng 15 250 50 0 empty empty empty 17 7 0 10 -262144
-1 -1;
#X obj 528 -314 bng 15 250 50 0 empty empty empty 17 7 0 10 -262144
-1 -1;
#X obj 635 -315 bng 15 250 50 0 empty empty empty 17 7 0 10 -262144
-1 -1;
#X obj 741 -315 bng 15 250 50 0 empty empty empty 17 7 0 10 -262144
-1 -1;
#X obj 206 -285 s \$0-n1;
#X obj 318 -283 s \$0-n2;
#X obj 423 -282 s \$0-n3;
#X obj 529 -289 s \$0-n4;
#X obj 631 -285 s \$0-n5;
#X obj 738 -281 s \$0-n6;
#X obj 243 -415 r \$0-rate;
#X obj 14 -247 s \$0-rate;
#X floatatom 85 -246 5 0 0 0 - - -;
#X text 214 -550 0.001 - 0.1 Notes - start at peak db (-20) and speed
up to max;
#X obj 14 -509 moses 0.1;
#X obj 628 -193 > 0.001;
#X text 647 -216 mutes below 0.001;
#X obj 628 -233 r rainfall;
#X obj 71 -485 moses 0.1;
#X obj 233 -441 s \$0-vol;
#X obj 231 -465 jrange 0.1 0.2 1 0;
#X obj 392 -504 loadbang;
#X obj 392 -460 delay 2000;
#X obj 406 -436 delay 2000;
#X obj 428 -412 delay 2000;
#X obj 469 -462 delay 2000;
#X obj 483 -438 delay 2000;
#X obj 505 -414 delay 2000;
#X obj 206 -353 random_bangs 4000;
#X obj 316 -353 random_bangs 4000;
#X obj 422 -353 random_bangs 4000;
#X obj 528 -353 random_bangs 4000;
#X obj 634 -354 random_bangs 4000;
#X obj 742 -354 random_bangs 4000;
#X obj 14 -441 jrange 0.001 0.1 5000 800;
#X connect 0 0 67 1;
#X connect 1 0 3 1;
#X connect 3 0 78 0;
#X connect 4 0 3 2;
#X connect 5 0 64 0;
#X connect 6 0 69 1;
#X connect 7 0 68 1;
#X connect 8 0 30 0;
#X connect 9 0 68 2;
#X connect 10 0 65 0;
#X connect 11 0 71 1;
#X connect 12 0 70 1;
#X connect 13 0 32 0;
#X connect 14 0 34 0;
#X connect 15 0 70 2;
#X connect 16 0 66 0;
#X connect 17 0 67 2;
#X connect 18 0 69 2;
#X connect 19 0 71 2;
#X connect 20 0 28 0;
#X connect 21 0 22 0;
#X connect 22 0 108 0;
#X connect 23 0 2 0;
#X connect 24 0 39 0;
#X connect 26 0 25 0;
#X connect 28 0 27 0;
#X connect 30 0 29 0;
#X connect 32 0 31 0;
#X connect 34 0 33 0;
#X connect 36 0 24 0;
#X connect 37 0 38 0;
#X connect 38 0 52 0;
#X connect 40 0 23 1;
#X connect 41 0 26 1;
#X connect 42 0 28 1;
#X connect 43 0 30 1;
#X connect 44 0 32 1;
#X connect 45 0 34 1;
#X connect 46 0 78 1;
#X connect 47 0 77 1;
#X connect 48 0 20 1;
#X connect 49 0 8 1;
#X connect 50 0 13 1;
#X connect 51 0 14 1;
#X connect 55 1 59 0;
#X connect 58 0 54 0;
#X connect 59 0 54 0;
#X connect 60 0 58 0;
#X connect 60 1 55 0;
#X connect 64 0 1 0;
#X connect 64 0 0 0;
#X connect 65 0 7 0;
#X connect 65 0 6 0;
#X connect 66 0 12 0;
#X connect 66 0 11 0;
#X connect 67 0 77 0;
#X connect 68 0 20 0;
#X connect 69 0 8 0;
#X connect 70 0 13 0;
#X connect 71 0 14 0;
#X connect 72 0 3 0;
#X connect 73 0 67 0;
#X connect 74 0 68 0;
#X connect 75 0 69 0;
#X connect 76 0 70 0;
#X connect 77 0 26 0;
#X connect 78 0 23 0;
#X connect 79 0 81 0;
#X connect 81 0 80 0;
#X connect 82 0 83 0;
#X connect 83 0 79 0;
#X connect 84 0 72 0;
#X connect 85 0 73 0;
#X connect 86 0 74 0;
#X connect 87 0 75 0;
#X connect 88 0 71 0;
#X connect 89 0 76 0;
#X connect 90 0 88 0;
#X connect 91 0 98 0;
#X connect 92 0 116 0;
#X connect 93 0 99 0;
#X connect 94 0 100 0;
#X connect 95 0 101 0;
#X connect 96 0 102 0;
#X connect 97 0 103 0;
#X connect 104 0 122 0;
#X connect 104 0 123 0;
#X connect 104 0 124 0;
#X connect 104 0 125 0;
#X connect 104 0 126 0;
#X connect 104 0 127 0;
#X connect 108 0 128 0;
#X connect 108 1 112 0;
#X connect 109 0 24 0;
#X connect 111 0 109 0;
#X connect 112 1 114 0;
#X connect 114 0 113 0;
#X connect 115 0 92 0;
#X connect 116 0 117 0;
#X connect 116 0 122 1;
#X connect 117 0 118 0;
#X connect 117 0 123 1;
#X connect 118 0 119 0;
#X connect 118 0 124 1;
#X connect 119 0 120 0;
#X connect 119 0 125 1;
#X connect 120 0 121 0;
#X connect 120 0 126 1;
#X connect 121 0 127 1;
#X connect 122 0 91 0;
#X connect 123 0 93 0;
#X connect 124 0 94 0;
#X connect 125 0 95 0;
#X connect 126 0 96 0;
#X connect 127 0 97 0;
#X connect 128 0 105 0;
#X connect 128 0 106 0;
