#N canvas 451 24 637 546 10;
#X obj -401 255 rain_notes;
#X obj -390 121 bng 15 250 50 0 empty empty empty 17 7 0 10 -262144
-1 -1;
#X obj -499 426 throw~ rain1;
#X obj -324 426 throw~ rain2;
#X msg -640 202 Rain_note1_A;
#X msg -546 203 Rain_note2_B;
#X msg -419 203 Rain_note3_C;
#X msg -293 203 Rain_note4_D;
#X msg -167 203 Rain_note5_E;
#X msg -43 203 Rain_note6_F;
#X obj -389 -28 inlet load;
#X obj -234 -30 inlet mute;
#X obj -234 -5 sel 0 1;
#X msg -234 19 mute 0;
#X msg -215 42 mute 1;
#X obj -460 350 *~ 1;
#X obj -428 350 *~ 1;
#X obj -396 350 *~ 1;
#X obj -362 350 *~ 1;
#X obj -329 350 *~ 1;
#X obj -297 350 *~ 1;
#X obj -78 -30 inlet volume;
#X obj -78 -8 s \$0-vol;
#X obj -273 287 r \$0-vol;
#X obj -217 287 r \$0-vol;
#X obj -160 287 r \$0-vol;
#X obj -104 287 r \$0-vol;
#X obj -48 287 r \$0-vol;
#X obj 7 287 r \$0-vol;
#X connect 0 0 15 0;
#X connect 0 1 16 0;
#X connect 0 2 17 0;
#X connect 0 3 18 0;
#X connect 0 4 19 0;
#X connect 0 5 20 0;
#X connect 1 0 5 0;
#X connect 1 0 6 0;
#X connect 1 0 7 0;
#X connect 1 0 8 0;
#X connect 1 0 9 0;
#X connect 1 0 4 0;
#X connect 4 0 0 0;
#X connect 5 0 0 1;
#X connect 6 0 0 2;
#X connect 7 0 0 3;
#X connect 8 0 0 4;
#X connect 9 0 0 5;
#X connect 10 0 1 0;
#X connect 11 0 12 0;
#X connect 12 0 13 0;
#X connect 12 1 14 0;
#X connect 13 0 0 6;
#X connect 14 0 0 6;
#X connect 15 0 2 0;
#X connect 16 0 3 0;
#X connect 17 0 2 0;
#X connect 18 0 3 0;
#X connect 19 0 2 0;
#X connect 20 0 3 0;
#X connect 21 0 22 0;
#X connect 23 0 15 1;
#X connect 24 0 16 1;
#X connect 25 0 17 1;
#X connect 26 0 18 1;
#X connect 27 0 19 1;
#X connect 28 0 20 1;
