#N canvas 3 23 1128 745 10;
#X obj 103 343 rain_players;
#X obj -39 258 cnv 15 100 60 empty empty empty 20 12 0 14 -233017 -66577
0;
#X obj -55 408 outlet~;
#X obj 10 408 outlet~;
#X obj 71 408 outlet~;
#X obj 136 408 outlet~;
#X obj 199 408 outlet~;
#X obj 264 408 outlet~;
#X obj 109 118 vsl 20 120 0 2 0 0 empty empty empty 0 -9 0 10 -204800
-1 -1 5950 1;
#X msg 113 52 1;
#X obj 114 20 loadbang;
#X obj -44 -23 inlet load;
#X obj 287 46 inlet rainfall;
#X obj 109 252 nbx 5 30 -1e+37 1e+37 0 0 empty empty empty 0 -8 0 10
-4032 -1 -1 0 256;
#X obj 320 274 env~;
#X text 166 -62 audio in;
#X obj 140 118 vu 20 120 empty empty -1 -8 0 10 -66577 -1 1 0;
#X floatatom 2 243 5 0 0 0 - - -, f 5;
#X text -47 224 for setting new preset;
#X text 146 54 preset gain;
#X obj 205 230 rmstodb;
#X obj 205 252 - 100;
#X text 350 275 calculates RMS;
#X obj 320 296 - 100;
#X obj -45 1 t b b;
#X connect 0 0 2 0;
#X connect 0 0 14 0;
#X connect 0 1 3 0;
#X connect 0 2 4 0;
#X connect 0 3 5 0;
#X connect 0 4 6 0;
#X connect 0 5 7 0;
#X connect 8 0 0 2;
#X connect 8 0 17 0;
#X connect 8 0 20 0;
#X connect 9 0 8 0;
#X connect 10 0 9 0;
#X connect 11 0 24 0;
#X connect 12 0 0 1;
#X connect 14 0 23 0;
#X connect 20 0 21 0;
#X connect 21 0 13 0;
#X connect 23 0 16 0;
#X connect 24 0 0 0;
#X connect 24 1 9 0;
#X coords 0 -1 1 1 90 190 1 100 100;
