#N canvas 18 257 1012 543 10;
#X obj 188 364 rain_players;
#X obj -39 258 cnv 15 100 60 empty empty empty 20 12 0 14 -233017 -66577
0;
#X obj 109 118 vsl 20 120 0 2 0 0 empty empty empty 0 -9 0 10 -204800
-1 -1 2148 1;
#X obj 114 20 loadbang;
#X obj -44 -23 inlet load;
#X obj 109 252 nbx 5 30 -1e+037 1e+037 0 0 empty empty empty 0 -8 0
10 -204800 -1 -1 -8.84966 256;
#X obj 320 274 env~;
#X text 166 -62 audio in;
#X obj 140 118 vu 20 120 empty empty -1 -8 0 10 -66577 -1 1 0;
#X floatatom 2 243 5 0 0 0 - - -;
#X text -47 224 for setting new preset;
#X text 146 54 preset gain;
#X obj 205 230 rmstodb;
#X obj 205 252 - 100;
#X text 350 275 calculates RMS;
#X obj 320 296 - 100;
#X obj -45 1 t b b;
#X obj -26 465 throw~ c1;
#X obj 37 465 throw~ c2;
#X obj 101 465 throw~ c3;
#X obj 95 513 throw~ c4;
#X obj 160 515 throw~ c5;
#X obj 227 514 throw~ c6;
#X obj 286 468 throw~ c7;
#X obj 355 464 throw~ c8;
#X obj 427 469 throw~ c9;
#X obj 341 501 throw~ c10;
#X obj 590 445 throw~ c11;
#X obj 656 446 throw~ c12;
#X obj 721 446 throw~ c13;
#X obj 601 482 throw~ c14;
#X obj 684 484 throw~ c15;
#X msg 113 52 0.361;
#X obj 427 0 inlet microserver;
#X obj 427 108 s rainfall;
#X obj 427 32 route /mtRainToday;
#X floatatom 378 48 5 0 0 0 - - -;
#X obj 427 62 rain_averager;
#X connect 0 0 6 0;
#X connect 0 0 17 0;
#X connect 0 0 23 0;
#X connect 0 0 27 0;
#X connect 0 1 18 0;
#X connect 0 1 24 0;
#X connect 0 1 28 0;
#X connect 0 2 19 0;
#X connect 0 2 25 0;
#X connect 0 2 29 0;
#X connect 0 3 20 0;
#X connect 0 3 26 0;
#X connect 0 3 30 0;
#X connect 0 4 21 0;
#X connect 0 4 31 0;
#X connect 0 5 22 0;
#X connect 2 0 0 1;
#X connect 2 0 9 0;
#X connect 2 0 12 0;
#X connect 3 0 32 0;
#X connect 4 0 16 0;
#X connect 6 0 15 0;
#X connect 12 0 13 0;
#X connect 13 0 5 0;
#X connect 15 0 8 0;
#X connect 16 0 0 0;
#X connect 16 1 32 0;
#X connect 32 0 2 0;
#X connect 33 0 35 0;
#X connect 35 0 36 0;
#X connect 35 0 37 0;
#X connect 37 0 34 0;
#X coords 0 -1 1 1 94 190 1 100 100;
