#N canvas 0 22 825 402 10;
#X obj 103 343 rain_players;
#X obj -39 258 cnv 15 100 60 empty empty empty 20 12 0 14 -233017 -66577
0;
#X obj -55 408 outlet~;
#X obj 10 408 outlet~;
#X obj 71 408 outlet~;
#X obj 136 408 outlet~;
#X obj 199 408 outlet~;
#X obj 264 408 outlet~;
#X obj 113 128 vsl 20 128 0 127 0 0 empty empty empty 0 -9 0 10 -204800
-1 -1 0 1;
#X msg 113 52 1;
#X obj 114 20 loadbang;
#X obj -40 44 inlet load;
#X obj 287 46 inlet rainfall;
#X obj 103 267 nbx 3 30 -1e+37 1e+37 0 0 empty empty empty 0 -8 0 10
-4032 -1 -1 0 256;
#X connect 0 0 2 0;
#X connect 0 1 3 0;
#X connect 0 2 4 0;
#X connect 0 3 5 0;
#X connect 0 4 6 0;
#X connect 0 5 7 0;
#X connect 8 0 13 0;
#X connect 9 0 8 0;
#X connect 10 0 9 0;
#X connect 11 0 0 0;
#X connect 12 0 0 1;
#X connect 13 0 0 2;
#X coords 0 -1 1 1 50 200 1 100 100;
