#N canvas 11 28 1676 588 10;
#X obj 304 373 outlet~;
#N canvas 332 94 1023 763 climber 0;
#X obj 645 94 hsl 128 15 0 127 0 0 empty empty empty -2 -8 0 10 -262144
-1 -1 6400 1;
#X obj 298 93 hsl 128 15 0 127 0 0 empty empty empty -2 -8 0 10 -262144
-1 -1 6400 1;
#X obj 208 449 outlet~;
#X obj 544 444 outlet~;
#X obj 208 159 *~ 0.3;
#X obj 541 160 *~ 0.3;
#X obj 209 132 player_c~;
#X obj 540 127 player_c~;
#X obj 488 91 inlet;
#X obj 795 93 inlet;
#X obj 358 -34 loadbang;
#X obj 356 17 64;
#X obj 78 72 inlet;
#X connect 0 0 7 1;
#X connect 1 0 6 1;
#X connect 4 0 2 0;
#X connect 5 0 3 0;
#X connect 6 0 4 0;
#X connect 7 0 5 0;
#X connect 8 0 6 2;
#X connect 9 0 7 2;
#X connect 10 0 11 0;
#X connect 11 0 1 0;
#X connect 11 0 0 0;
#X connect 12 0 6 0;
#X connect 12 0 7 0;
#X restore 699 129 pd climber;
#N canvas 332 94 1023 763 light_crunch 0;
#X obj 645 94 hsl 128 15 0 127 0 0 empty empty empty -2 -8 0 10 -262144
-1 -1 6400 1;
#X obj 298 93 hsl 128 15 0 127 0 0 empty empty empty -2 -8 0 10 -262144
-1 -1 6400 1;
#X obj 208 449 outlet~;
#X obj 544 444 outlet~;
#X obj 208 159 *~ 0.3;
#X obj 541 160 *~ 0.3;
#X obj 209 132 player_c~;
#X obj 540 127 player_c~;
#X obj 488 91 inlet;
#X obj 795 93 inlet;
#X obj 358 -34 loadbang;
#X obj 356 17 64;
#X obj 78 72 inlet;
#X connect 0 0 7 1;
#X connect 1 0 6 1;
#X connect 4 0 2 0;
#X connect 5 0 3 0;
#X connect 6 0 4 0;
#X connect 7 0 5 0;
#X connect 8 0 6 2;
#X connect 9 0 7 2;
#X connect 10 0 11 0;
#X connect 11 0 1 0;
#X connect 11 0 0 0;
#X connect 12 0 6 0;
#X connect 12 0 7 0;
#X restore 774 129 pd light_crunch;
#N canvas 332 94 1023 763 jingle 0;
#X obj 645 94 hsl 128 15 0 127 0 0 empty empty empty -2 -8 0 10 -262144
-1 -1 6400 1;
#X obj 298 93 hsl 128 15 0 127 0 0 empty empty empty -2 -8 0 10 -262144
-1 -1 6400 1;
#X obj 208 449 outlet~;
#X obj 544 444 outlet~;
#X obj 208 159 *~ 0.3;
#X obj 541 160 *~ 0.3;
#X obj 209 132 player_c~;
#X obj 540 127 player_c~;
#X obj 488 91 inlet;
#X obj 795 93 inlet;
#X obj 358 -34 loadbang;
#X obj 356 17 64;
#X obj 78 72 inlet;
#X connect 0 0 7 1;
#X connect 1 0 6 1;
#X connect 4 0 2 0;
#X connect 5 0 3 0;
#X connect 6 0 4 0;
#X connect 7 0 5 0;
#X connect 8 0 6 2;
#X connect 9 0 7 2;
#X connect 10 0 11 0;
#X connect 11 0 1 0;
#X connect 11 0 0 0;
#X connect 12 0 6 0;
#X connect 12 0 7 0;
#X restore 878 129 pd jingle;
#N canvas 332 94 1023 763 strums 0;
#X obj 645 94 hsl 128 15 0 127 0 0 empty empty empty -2 -8 0 10 -262144
-1 -1 6400 1;
#X obj 298 93 hsl 128 15 0 127 0 0 empty empty empty -2 -8 0 10 -262144
-1 -1 6400 1;
#X obj 208 449 outlet~;
#X obj 544 444 outlet~;
#X obj 208 159 *~ 0.3;
#X obj 541 160 *~ 0.3;
#X obj 209 132 player_c~;
#X obj 540 127 player_c~;
#X obj 488 91 inlet;
#X obj 795 93 inlet;
#X obj 358 -34 loadbang;
#X obj 356 17 64;
#X obj 78 72 inlet;
#X connect 0 0 7 1;
#X connect 1 0 6 1;
#X connect 4 0 2 0;
#X connect 5 0 3 0;
#X connect 6 0 4 0;
#X connect 7 0 5 0;
#X connect 8 0 6 2;
#X connect 9 0 7 2;
#X connect 10 0 11 0;
#X connect 11 0 1 0;
#X connect 11 0 0 0;
#X connect 12 0 6 0;
#X connect 12 0 7 0;
#X restore 944 128 pd strums;
#N canvas 332 94 1023 763 bigger_strums 0;
#X obj 645 94 hsl 128 15 0 127 0 0 empty empty empty -2 -8 0 10 -262144
-1 -1 6400 1;
#X obj 298 93 hsl 128 15 0 127 0 0 empty empty empty -2 -8 0 10 -262144
-1 -1 6400 1;
#X obj 208 449 outlet~;
#X obj 544 444 outlet~;
#X obj 208 159 *~ 0.3;
#X obj 541 160 *~ 0.3;
#X obj 209 132 player_c~;
#X obj 540 127 player_c~;
#X obj 488 91 inlet;
#X obj 795 93 inlet;
#X obj 358 -34 loadbang;
#X obj 356 17 64;
#X obj 78 72 inlet;
#X connect 0 0 7 1;
#X connect 1 0 6 1;
#X connect 4 0 2 0;
#X connect 5 0 3 0;
#X connect 6 0 4 0;
#X connect 7 0 5 0;
#X connect 8 0 6 2;
#X connect 9 0 7 2;
#X connect 10 0 11 0;
#X connect 11 0 1 0;
#X connect 11 0 0 0;
#X connect 12 0 6 0;
#X connect 12 0 7 0;
#X restore 1009 128 pd bigger_strums;
#N canvas 332 94 1023 763 medium_strums 0;
#X obj 645 94 hsl 128 15 0 127 0 0 empty empty empty -2 -8 0 10 -262144
-1 -1 6400 1;
#X obj 298 93 hsl 128 15 0 127 0 0 empty empty empty -2 -8 0 10 -262144
-1 -1 6400 1;
#X obj 208 449 outlet~;
#X obj 544 444 outlet~;
#X obj 208 159 *~ 0.3;
#X obj 541 160 *~ 0.3;
#X obj 209 132 player_c~;
#X obj 540 127 player_c~;
#X obj 488 91 inlet;
#X obj 795 93 inlet;
#X obj 358 -34 loadbang;
#X obj 356 17 64;
#X obj 78 72 inlet;
#X connect 0 0 7 1;
#X connect 1 0 6 1;
#X connect 4 0 2 0;
#X connect 5 0 3 0;
#X connect 6 0 4 0;
#X connect 7 0 5 0;
#X connect 8 0 6 2;
#X connect 9 0 7 2;
#X connect 10 0 11 0;
#X connect 11 0 1 0;
#X connect 11 0 0 0;
#X connect 12 0 6 0;
#X connect 12 0 7 0;
#X restore 1117 128 pd medium_strums;
#N canvas 332 94 1023 763 high_strums 0;
#X obj 645 94 hsl 128 15 0 127 0 0 empty empty empty -2 -8 0 10 -262144
-1 -1 6400 1;
#X obj 298 93 hsl 128 15 0 127 0 0 empty empty empty -2 -8 0 10 -262144
-1 -1 6400 1;
#X obj 208 449 outlet~;
#X obj 544 444 outlet~;
#X obj 208 159 *~ 0.3;
#X obj 541 160 *~ 0.3;
#X obj 209 132 player_c~;
#X obj 540 127 player_c~;
#X obj 488 91 inlet;
#X obj 795 93 inlet;
#X obj 358 -34 loadbang;
#X obj 356 17 64;
#X obj 78 72 inlet;
#X connect 0 0 7 1;
#X connect 1 0 6 1;
#X connect 4 0 2 0;
#X connect 5 0 3 0;
#X connect 6 0 4 0;
#X connect 7 0 5 0;
#X connect 8 0 6 2;
#X connect 9 0 7 2;
#X connect 10 0 11 0;
#X connect 11 0 1 0;
#X connect 11 0 0 0;
#X connect 12 0 6 0;
#X connect 12 0 7 0;
#X restore 1224 128 pd high_strums;
#N canvas 332 94 1023 763 low_crunch 0;
#X obj 645 94 hsl 128 15 0 127 0 0 empty empty empty -2 -8 0 10 -262144
-1 -1 6400 1;
#X obj 298 93 hsl 128 15 0 127 0 0 empty empty empty -2 -8 0 10 -262144
-1 -1 6400 1;
#X obj 208 449 outlet~;
#X obj 544 444 outlet~;
#X obj 208 159 *~ 0.3;
#X obj 541 160 *~ 0.3;
#X obj 209 132 player_c~;
#X obj 540 127 player_c~;
#X obj 488 91 inlet;
#X obj 795 93 inlet;
#X obj 358 -34 loadbang;
#X obj 356 17 64;
#X obj 78 72 inlet;
#X connect 0 0 7 1;
#X connect 1 0 6 1;
#X connect 4 0 2 0;
#X connect 5 0 3 0;
#X connect 6 0 4 0;
#X connect 7 0 5 0;
#X connect 8 0 6 2;
#X connect 9 0 7 2;
#X connect 10 0 11 0;
#X connect 11 0 1 0;
#X connect 11 0 0 0;
#X connect 12 0 6 0;
#X connect 12 0 7 0;
#X restore 1320 129 pd low_crunch;
#N canvas 332 94 1023 763 drone 0;
#X obj 645 94 hsl 128 15 0 127 0 0 empty empty empty -2 -8 0 10 -262144
-1 -1 6400 1;
#X obj 298 93 hsl 128 15 0 127 0 0 empty empty empty -2 -8 0 10 -262144
-1 -1 6400 1;
#X obj 208 449 outlet~;
#X obj 544 444 outlet~;
#X obj 208 159 *~ 0.3;
#X obj 541 160 *~ 0.3;
#X obj 209 132 player_c~;
#X obj 540 127 player_c~;
#X obj 488 91 inlet;
#X obj 795 93 inlet;
#X obj 358 -34 loadbang;
#X obj 356 17 64;
#X obj 78 72 inlet;
#X connect 0 0 7 1;
#X connect 1 0 6 1;
#X connect 4 0 2 0;
#X connect 5 0 3 0;
#X connect 6 0 4 0;
#X connect 7 0 5 0;
#X connect 8 0 6 2;
#X connect 9 0 7 2;
#X connect 10 0 11 0;
#X connect 11 0 1 0;
#X connect 11 0 0 0;
#X connect 12 0 6 0;
#X connect 12 0 7 0;
#X restore 1411 129 pd drone;
#N canvas 332 94 1023 763 blur 0;
#X obj 645 94 hsl 128 15 0 127 0 0 empty empty empty -2 -8 0 10 -262144
-1 -1 6400 1;
#X obj 298 93 hsl 128 15 0 127 0 0 empty empty empty -2 -8 0 10 -262144
-1 -1 6400 1;
#X obj 208 449 outlet~;
#X obj 544 444 outlet~;
#X obj 208 159 *~ 0.3;
#X obj 541 160 *~ 0.3;
#X obj 209 132 player_c~;
#X obj 540 127 player_c~;
#X obj 488 91 inlet;
#X obj 795 93 inlet;
#X obj 358 -34 loadbang;
#X obj 356 17 64;
#X obj 78 72 inlet;
#X connect 0 0 7 1;
#X connect 1 0 6 1;
#X connect 4 0 2 0;
#X connect 5 0 3 0;
#X connect 6 0 4 0;
#X connect 7 0 5 0;
#X connect 8 0 6 2;
#X connect 9 0 7 2;
#X connect 10 0 11 0;
#X connect 11 0 1 0;
#X connect 11 0 0 0;
#X connect 12 0 6 0;
#X connect 12 0 7 0;
#X restore 1474 129 pd blur;
#N canvas 332 94 1023 763 notes 0;
#X obj 645 94 hsl 128 15 0 127 0 0 empty empty empty -2 -8 0 10 -262144
-1 -1 6400 1;
#X obj 298 93 hsl 128 15 0 127 0 0 empty empty empty -2 -8 0 10 -262144
-1 -1 6400 1;
#X obj 208 449 outlet~;
#X obj 544 444 outlet~;
#X obj 208 159 *~ 0.3;
#X obj 541 160 *~ 0.3;
#X obj 209 132 player_c~;
#X obj 540 127 player_c~;
#X obj 488 91 inlet;
#X obj 795 93 inlet;
#X obj 358 -34 loadbang;
#X obj 356 17 64;
#X obj 78 72 inlet;
#X connect 0 0 7 1;
#X connect 1 0 6 1;
#X connect 4 0 2 0;
#X connect 5 0 3 0;
#X connect 6 0 4 0;
#X connect 7 0 5 0;
#X connect 8 0 6 2;
#X connect 9 0 7 2;
#X connect 10 0 11 0;
#X connect 11 0 1 0;
#X connect 11 0 0 0;
#X connect 12 0 6 0;
#X connect 12 0 7 0;
#X restore 906 -68 pd notes;
#N canvas 50 48 1348 769 plucks---------------------- 1;
#X obj 645 94 hsl 128 15 0 127 0 0 empty empty empty -2 -8 0 10 -262144
-1 -1 12700 1;
#X obj 298 93 hsl 128 15 0 127 0 0 empty empty empty -2 -8 0 10 -262144
-1 -1 7700 1;
#X obj 208 449 outlet~;
#X obj 544 444 outlet~;
#X obj 209 132 player_c~;
#X obj 540 127 player_c~;
#X obj 261 6 inlet;
#X obj 358 -34 loadbang;
#X obj 356 17 64;
#X obj 74 -2 inlet;
#X obj 1411 113 hsl 128 15 0 127 0 0 empty empty empty -2 -8 0 10 -262144
-1 -1 0 1;
#X obj 1064 112 hsl 128 15 0 127 0 0 empty empty empty -2 -8 0 10 -262144
-1 -1 9500 1;
#X obj 974 468 outlet~;
#X obj 1310 463 outlet~;
#X obj 1307 179 *~ 0.3;
#X obj 975 151 player_c~;
#X obj 1306 146 player_c~;
#X obj 1024 19 inlet;
#X obj 1124 -15 loadbang;
#X obj 1122 36 64;
#X obj 2187 133 hsl 128 15 0 127 0 0 empty empty empty -2 -8 0 10 -262144
-1 -1 0 1;
#X obj 1840 132 hsl 128 15 0 127 0 0 empty empty empty -2 -8 0 10 -262144
-1 -1 0 1;
#X obj 1750 488 outlet~;
#X obj 2086 483 outlet~;
#X obj 1750 198 *~ 0.3;
#X obj 2083 199 *~ 0.3;
#X obj 1751 171 player_c~;
#X obj 2082 166 player_c~;
#X obj 1801 80 inlet;
#X obj 1900 5 loadbang;
#X obj 1898 56 64;
#X obj 78 21 s \$0-start;
#X obj 191 96 r \$0-start;
#X obj 467 104 r \$0-start;
#X obj 931 74 r \$0-start;
#X obj 1620 111 r \$0-start;
#X obj 590 10 inlet;
#X obj 1368 29 inlet;
#X obj 95 302 dbtorms;
#X obj 2128 94 inlet;
#X obj 208 159 *~ 0.8;
#X obj 541 159 *~ 0.8;
#X obj 974 178 *~ 0.8;
#X obj 764 -20 hsl 128 15 0 127 0 0 empty empty empty -2 -8 0 10 -262144
-1 -1 0 1;
#X obj 761 2 jrange 0 127 0 1;
#X obj 762 30 s \$0-pluck_vol;
#X connect 0 0 5 1;
#X connect 1 0 4 1;
#X connect 4 0 40 0;
#X connect 5 0 41 0;
#X connect 6 0 4 2;
#X connect 7 0 8 0;
#X connect 8 0 1 0;
#X connect 8 0 0 0;
#X connect 9 0 31 0;
#X connect 10 0 16 1;
#X connect 11 0 15 1;
#X connect 14 0 13 0;
#X connect 15 0 42 0;
#X connect 16 0 14 0;
#X connect 17 0 15 2;
#X connect 18 0 19 0;
#X connect 19 0 11 0;
#X connect 19 0 10 0;
#X connect 20 0 27 1;
#X connect 21 0 26 1;
#X connect 24 0 22 0;
#X connect 25 0 23 0;
#X connect 26 0 24 0;
#X connect 27 0 25 0;
#X connect 28 0 26 2;
#X connect 29 0 30 0;
#X connect 30 0 21 0;
#X connect 30 0 20 0;
#X connect 32 0 4 0;
#X connect 33 0 5 0;
#X connect 34 0 15 0;
#X connect 34 0 16 0;
#X connect 35 0 26 0;
#X connect 35 0 27 0;
#X connect 36 0 5 2;
#X connect 37 0 16 2;
#X connect 39 0 27 2;
#X connect 40 0 2 0;
#X connect 41 0 3 0;
#X connect 42 0 12 0;
#X connect 43 0 44 0;
#X connect 44 0 45 0;
#X restore 275 -35 pd plucks----------------------;
#X obj 369 373 outlet~;
#X obj 430 373 outlet~;
#X obj 495 373 outlet~;
#X obj 558 373 outlet~;
#X obj 623 373 outlet~;
#X obj 295 316 catch~ rain1;
#X obj 378 316 catch~ rain2;
#X obj 461 316 catch~ rain3;
#X obj 542 315 catch~ rain4;
#X obj 625 315 catch~ rain5;
#X obj 708 315 catch~ rain6;
#X obj 126 20 throw~ rain1;
#X obj 210 20 throw~ rain2;
#X obj 293 20 throw~ rain3;
#X obj 377 20 throw~ rain4;
#X obj 460 20 throw~ rain5;
#X obj 544 20 throw~ rain6;
#X msg 274 -86 Rain_pluck1_A;
#X obj 112 -89 bng 15 250 50 0 empty empty empty 17 7 0 10 -262144
-1 -1;
#X msg 367 -86 Rain_pluck2_B;
#X msg 458 -86 Rain_pluck3_C;
#X msg 550 -86 Rain_pluck4_D;
#X msg 640 -86 Rain_pluck5_E;
#X msg 733 -86 Rain_pluck6_F;
#X connect 12 0 24 0;
#X connect 12 1 25 0;
#X connect 12 2 26 0;
#X connect 12 3 27 0;
#X connect 12 4 28 0;
#X connect 12 5 29 0;
#X connect 18 0 0 0;
#X connect 19 0 13 0;
#X connect 20 0 14 0;
#X connect 21 0 15 0;
#X connect 22 0 16 0;
#X connect 23 0 17 0;
#X connect 30 0 12 1;
#X connect 31 0 12 0;
#X connect 32 0 12 2;
#X connect 33 0 12 3;
#X connect 34 0 12 4;
#X connect 35 0 12 5;
#X connect 36 0 12 6;
