#N canvas 20 149 1123 516 10;
#X obj 210 -75 bng 15 250 50 0 empty empty empty 17 7 0 10 -262144
-1 -1;
#X obj 210 -48 t b b;
#X obj 160 206 throw~ rain1;
#X obj 244 206 throw~ rain2;
#X obj 327 206 throw~ rain3;
#X obj 411 206 throw~ rain4;
#X obj 494 206 throw~ rain5;
#X obj 578 206 throw~ rain6;
#X msg 548 -38 mute 0;
#X msg 553 -18 mute 1;
#X obj 208 -137 inlet load;
#X obj 442 -132 inlet mute;
#X obj 442 -107 sel 0 1;
#X obj 180 169 *~ 1;
#X obj 255 166 *~ 1;
#X obj 332 166 *~ 1;
#X obj 422 164 *~ 1;
#X obj 493 167 *~ 1;
#X obj 575 168 *~ 1;
#X obj 601 74 r \$0-vol;
#X obj 687 76 r \$0-vol;
#X obj 770 76 r \$0-vol;
#X obj 848 76 r \$0-vol;
#X obj 929 76 r \$0-vol;
#X obj 1029 79 r \$0-vol;
#X obj 627 -133 inlet volume;
#X obj 627 -111 s \$0-vol;
#X text 557 15 rule1: 0.25 - 0.3 fades from nothing to -7db;
#X msg 237 -11 Rain_blur_ACE;
#X msg 354 -9 Rain_blur_ACE;
#X obj 193 21 rain_two_outs 0.3 0.3 0.25 0.3 0 0.447 0.3 0.447 0.447
;
#X connect 0 0 1 0;
#X connect 1 0 30 0;
#X connect 1 1 29 0;
#X connect 1 1 28 0;
#X connect 8 0 30 3;
#X connect 9 0 30 3;
#X connect 10 0 0 0;
#X connect 11 0 12 0;
#X connect 12 0 8 0;
#X connect 12 1 9 0;
#X connect 13 0 2 0;
#X connect 14 0 3 0;
#X connect 15 0 4 0;
#X connect 16 0 5 0;
#X connect 17 0 6 0;
#X connect 18 0 7 0;
#X connect 19 0 13 1;
#X connect 20 0 14 1;
#X connect 21 0 15 1;
#X connect 22 0 16 1;
#X connect 23 0 17 1;
#X connect 24 0 18 1;
#X connect 25 0 26 0;
#X connect 28 0 30 1;
#X connect 29 0 30 2;
#X connect 30 0 17 0;
#X connect 30 0 15 0;
#X connect 30 0 13 0;
#X connect 30 1 18 0;
#X connect 30 1 16 0;
#X connect 30 1 14 0;
