#N canvas 150 185 679 399 10;
#X obj 232 -25 inlet;
#X obj 349 10 bng 15 250 50 0 empty empty empty 17 7 0 10 -262144 -1
-1;
#X obj 293 82 delay 1;
#X obj 293 50 t b b;
#X obj 290 131 t b b;
#X obj 322 311 outlet;
#X obj 349 -16 inlet;
#X text 390 -17 bang to start;
#X obj 353 194 bng 15 250 50 0 empty empty empty 17 7 0 10 -262144
-1 -1;
#X obj 174 5 random 4000;
#X obj 174 50 + 14000;
#X floatatom 171 114 5 0 0 0 - - -;
#X text 109 -31 base;
#X obj 66 -29 inlet;
#X text 273 -27 range;
#X text 107 -14 3000 14000;
#X text 258 -9 (4000 440);
#X obj 390 218 delay;
#X obj 68 21 s \$0-base;
#X obj 417 91 r \$0-base;
#X obj 384 138 random;
#X obj 390 182 t b f;
#X obj 398 252 bng 15 250 50 0 empty empty empty 17 7 0 10 -262144
-1 -1;
#X obj 378 36 random 2;
#X obj 378 65 sel 1;
#X obj 417 112 * 0.3;
#X floatatom 45 61 5 0 0 0 - - -;
#X obj 389 310 outlet;
#X connect 0 0 9 1;
#X connect 1 0 3 0;
#X connect 1 0 23 0;
#X connect 2 0 4 0;
#X connect 3 0 2 0;
#X connect 3 1 9 0;
#X connect 4 0 1 0;
#X connect 4 1 5 0;
#X connect 4 1 8 0;
#X connect 6 0 1 0;
#X connect 9 0 10 0;
#X connect 10 0 2 1;
#X connect 10 0 11 0;
#X connect 13 0 10 1;
#X connect 13 0 18 0;
#X connect 13 0 26 0;
#X connect 17 0 22 0;
#X connect 17 0 27 0;
#X connect 19 0 25 0;
#X connect 20 0 21 0;
#X connect 21 0 17 0;
#X connect 21 1 17 1;
#X connect 23 0 24 0;
#X connect 24 0 20 0;
#X connect 25 0 20 1;
