#N canvas 24 128 688 454 10;
#X obj 192 89 random_walk;
#X obj 50 -25 inlet;
#X floatatom 191 258 5 0 0 0 - - -;
#X obj 349 10 bng 15 250 50 0 empty empty empty 17 7 0 10 -262144 -1
-1;
#X obj 293 82 delay 1;
#X obj 293 50 t b b;
#X obj 293 112 t b b;
#X obj 322 311 outlet;
#X obj 349 -16 inlet;
#X text 390 -17 bang to start;
#X text 96 -26 timebase;
#X obj 353 194 bng 15 250 50 0 empty empty empty 17 7 0 10 -262144
-1 -1;
#X obj 193 140 * \$1;
#X connect 0 0 12 0;
#X connect 1 0 12 1;
#X connect 3 0 5 0;
#X connect 4 0 6 0;
#X connect 5 0 4 0;
#X connect 5 1 0 0;
#X connect 6 0 3 0;
#X connect 6 1 7 0;
#X connect 6 1 11 0;
#X connect 8 0 3 0;
#X connect 12 0 4 1;
#X connect 12 0 2 0;
