#N canvas 67 208 493 387 10;
#X obj 192 89 random_walk;
#X obj 188 7 inlet;
#X floatatom 191 258 5 0 0 0 - - -;
#X obj 349 207 vline~;
#X obj 399 243 *~;
#X obj 349 10 bng 15 250 50 0 empty empty empty 17 7 0 10 -262144 -1
-1;
#X obj 293 82 delay 1;
#X obj 293 50 t b b;
#X obj 293 112 t b b;
#X obj 53 8 hsl 128 15 0 127 0 0 empty empty empty -2 -8 0 10 -262144
-1 -1 0 1;
#X msg 349 180 0.5 1 \, 0 10 10;
#X obj 192 140 * \$1;
#X obj 322 311 outlet;
#X obj 349 -16 inlet;
#X text 390 -17 bang to start;
#X obj 290 -16 loadbang;
#X text 152 -16 timebase;
#X obj 399 212 osc~ \$2;
#X obj 399 332 outlet~;
#X connect 0 0 11 0;
#X connect 1 0 11 1;
#X connect 3 0 4 1;
#X connect 4 0 18 0;
#X connect 5 0 7 0;
#X connect 6 0 8 0;
#X connect 7 0 6 0;
#X connect 7 1 0 0;
#X connect 8 0 5 0;
#X connect 8 1 10 0;
#X connect 8 1 12 0;
#X connect 9 0 11 1;
#X connect 10 0 3 0;
#X connect 11 0 6 1;
#X connect 11 0 2 0;
#X connect 13 0 5 0;
#X connect 15 0 5 0;
#X connect 17 0 4 0;
