#N canvas 1069 401 562 597 10;
#X obj 216 428 delay;
#X obj 67 43 inlet;
#X obj 67 75 route bang start stop;
#X obj 216 487 spigot;
#X floatatom 329 387 5 0 0 0 - - -, f 5;
#X obj 416 35 inlet;
#X obj 263 456 r \$0_onoff;
#X msg 139 200 1;
#X obj 148 229 s \$0_onoff;
#X msg 171 200 0;
#X obj 358 236 f;
#X obj 263 40 inlet;
#X text 305 39 time;
#X text 460 34 chaos %;
#X obj 263 70 s \$0_time;
#X obj 249 395 +;
#X obj 358 259 / 100;
#X obj 287 301 *;
#X obj 271 214 r \$0_time;
#X obj 252 248 f;
#X obj 249 276 t f f;
#X obj 216 537 outlet;
#X obj 308 334 t b f;
#X obj 307 361 random;
#X obj 73 143 t b b b b;
#X floatatom 268 427 5 0 0 0 - - -, f 5;
#X obj 458 218 loadbang;
#X obj 459 239 \$1;
#X obj 459 262 s \$0_time;
#X obj 462 107 loadbang;
#X obj 463 128 \$2;
#X obj 379 93 max 0;
#X text 84 4 a metro \, but with a positive chaos factor;
#X obj 290 536 outlet;
#X connect 0 0 3 0;
#X connect 1 0 2 0;
#X connect 2 0 24 0;
#X connect 2 1 24 0;
#X connect 2 2 9 0;
#X connect 3 0 21 0;
#X connect 3 0 24 0;
#X connect 5 0 31 0;
#X connect 6 0 3 1;
#X connect 7 0 8 0;
#X connect 9 0 8 0;
#X connect 10 0 16 0;
#X connect 11 0 14 0;
#X connect 15 0 0 1;
#X connect 15 0 25 0;
#X connect 15 0 33 0;
#X connect 16 0 17 1;
#X connect 17 0 22 0;
#X connect 18 0 19 1;
#X connect 19 0 20 0;
#X connect 20 0 15 0;
#X connect 20 1 17 0;
#X connect 22 0 23 0;
#X connect 22 1 23 1;
#X connect 23 0 4 0;
#X connect 23 0 15 1;
#X connect 24 0 0 0;
#X connect 24 1 19 0;
#X connect 24 2 10 0;
#X connect 24 3 7 0;
#X connect 26 0 27 0;
#X connect 27 0 28 0;
#X connect 29 0 30 0;
#X connect 30 0 10 1;
#X connect 31 0 10 1;
