#N canvas 354 296 807 545 10;
#N canvas 0 22 450 300 (subpatch) 0;
#X array \$0-table 387238 float 2;
#X coords 0 1 387238 -1 200 140 1 0 0;
#X restore 206 105 graph;
#X obj 238 401 outlet~;
#X obj 212 270 r \$0-trig;
#X obj 341 376 s \$0-trig;
#X obj 343 343 spigot;
#X obj 59 209 soundfiler;
#X obj 390 63 s \$0-trig;
#X obj 381 267 loadbang;
#X msg 381 291 1;
#X msg 238 294 set \$0-table;
#X obj 238 321 tabplay~ \$0-table;
#X obj 60 -9 inlet;
#X obj 86 90 f \$0;
#X obj 59 64 t a b;
#X msg 80 122 \$1-table \;;
#X obj 59 153 list;
#X obj 59 182 list trim;
#X msg 118 19 read -resize /Users/jmej/Music/Logic/togetherness/bounces/slept1.aif
;
#X obj 553 -3 inlet;
#X text 597 -3 0 or 1 turns looping off or on;
#X text 102 -8 this inlet needs a msg that looks like this:;
#X obj 238 369 *~ 0.6;
#X text 457 290 dafault behavior is looping;
#X obj 390 -7 inlet;
#X text 430 -9 bang to start;
#X connect 2 0 10 0;
#X connect 4 0 3 0;
#X connect 7 0 8 0;
#X connect 8 0 4 1;
#X connect 9 0 10 0;
#X connect 10 0 21 0;
#X connect 10 1 4 0;
#X connect 11 0 13 0;
#X connect 12 0 14 0;
#X connect 13 0 15 0;
#X connect 13 1 12 0;
#X connect 14 0 15 1;
#X connect 15 0 16 0;
#X connect 16 0 5 0;
#X connect 17 0 13 0;
#X connect 18 0 4 1;
#X connect 21 0 1 0;
#X connect 23 0 6 0;
