#N canvas 248 89 549 574 10;
#X obj 39 150 expr size("$s1") \;;
#X floatatom 38 194 5 0 0 0 - - -, f 5;
#X obj 88 192 print size;
#X obj 39 110 symbol;
#X obj 70 260 until;
#X obj 68 230 t f b;
#X obj 116 291 f;
#X msg 132 260 0;
#X obj 153 292 + 1;
#X obj 116 375 tabread;
#X floatatom 169 414 5 0 0 0 - - -, f 5;
#X msg 242 257 set \$1;
#X obj 242 170 symbol;
#X msg 242 193 symbol \$1;
#X obj 407 395 db_calc;
#X obj 115 318 t f f;
#X obj 241 503 tabwrite;
#X obj 256 293 print scaling;
#X floatatom 407 368 5 0 0 0 - - -, f 5;
#X floatatom 407 427 5 0 0 0 - - -, f 5;
#X obj 135 448 * 1;
#X obj 184 20 inlet;
#X obj 407 26 inlet;
#X text 225 22 table name;
#X text 425 47 db adjustment;
#X obj 59 67 t a a;
#X connect 0 0 1 0;
#X connect 0 0 2 0;
#X connect 0 0 5 0;
#X connect 3 0 0 0;
#X connect 4 0 6 0;
#X connect 5 0 4 0;
#X connect 5 1 7 0;
#X connect 6 0 8 0;
#X connect 6 0 15 0;
#X connect 7 0 6 1;
#X connect 8 0 6 1;
#X connect 9 0 10 0;
#X connect 9 0 20 0;
#X connect 11 0 9 0;
#X connect 11 0 16 0;
#X connect 11 0 17 0;
#X connect 12 0 13 0;
#X connect 13 0 11 0;
#X connect 14 0 19 0;
#X connect 14 0 20 1;
#X connect 15 0 9 0;
#X connect 15 1 16 1;
#X connect 18 0 14 0;
#X connect 20 0 16 0;
#X connect 21 0 25 0;
#X connect 22 0 18 0;
#X connect 25 0 3 0;
#X connect 25 1 12 0;
