#N canvas 148 365 698 407 10;
#X obj 62 263 soundfiler;
#X obj 63 45 inlet;
#X obj 62 207 list;
#X obj 62 236 list trim;
#X text 105 46 this inlet needs a msg that looks like this:;
#X msg 122 73 read -resize 06_10/Wind_60-65_01.wav;
#X obj 216 245 print;
#X obj 89 143 list split 2;
#X obj 123 170 list trim;
#X obj 62 118 t a a;
#X obj 61 295 outlet;
#X obj 282 180 print hellyes;
#X obj 281 155 expr size("$s1");
#X msg 281 125 symbol Rain_Click_1;
#X connect 0 0 10 0;
#X connect 1 0 9 0;
#X connect 2 0 3 0;
#X connect 3 0 0 0;
#X connect 7 1 8 0;
#X connect 8 0 2 1;
#X connect 9 0 2 0;
#X connect 9 1 7 0;
#X connect 12 0 11 0;
#X connect 13 0 12 0;
