#N canvas 174 66 724 614 10;
#X obj 246 42 hsl 128 15 50 1000 0 0 empty empty empty -2 -8 0 10 -262144
-1 -1 4679 1;
#X obj 243 -6 loadbang;
#X obj 164 92 random_bangs 25 880;
#X obj 399 446 linear_panner_6ch~;
#X obj 417 354 noise~;
#X obj 243 353 dac~ 1 2 3 4 5 6;
#X obj 418 504 dac~ 1 2 3 4 5 6;
#X obj 418 379 svf~ 797 0.5;
#X obj 222 424 hsl 128 15 0 1 0 0 empty empty empty -2 -8 0 10 -262144
-1 -1 6350 1;
#X obj 500 311 hsl 128 15 0 127 0 0 empty empty empty -2 -8 0 10 -262144
-1 -1 8100 1;
#X obj 497 332 mtof;
#X obj 418 407 *~ 0.05;
#X obj 74 329 osc~ 0.1;
#X obj 87 389 snapshot~;
#X obj 144 352 metro 50;
#X obj 154 326 tgl 15 0 empty empty empty 17 7 0 10 -262144 -1 -1 1
1;
#X floatatom 87 471 5 0 0 0 - - -;
#X obj 87 413 + 1;
#X obj 87 436 / 2;
#X obj 520 56 loadbang;
#X msg 520 86 \; pd dsp 1;
#X obj 497 265 loadbang;
#X floatatom 561 343 5 0 0 0 - - -;
#X msg 497 289 81;
#X obj 151 278 loadbang;
#X msg 151 301 1;
#X obj 170 146 random_bangs 25 890;
#X obj 172 192 random_bangs 25 950;
#X obj 318 93 random_bangs 25 1450;
#X obj 326 193 random_bangs 25 1299;
#X obj 324 147 random_bangs 25 1700;
#X floatatom 418 62 5 0 0 0 - - -;
#X msg 243 17 400;
#X connect 0 0 2 0;
#X connect 0 0 26 0;
#X connect 0 0 27 0;
#X connect 0 0 28 0;
#X connect 0 0 29 0;
#X connect 0 0 30 0;
#X connect 0 0 31 0;
#X connect 1 0 32 0;
#X connect 2 1 5 0;
#X connect 3 0 6 0;
#X connect 3 1 6 1;
#X connect 3 2 6 2;
#X connect 3 3 6 3;
#X connect 3 4 6 4;
#X connect 3 5 6 5;
#X connect 4 0 7 0;
#X connect 7 0 11 0;
#X connect 8 0 3 0;
#X connect 9 0 10 0;
#X connect 9 0 22 0;
#X connect 10 0 7 1;
#X connect 11 0 3 1;
#X connect 12 0 13 0;
#X connect 13 0 17 0;
#X connect 14 0 13 0;
#X connect 15 0 14 0;
#X connect 17 0 18 0;
#X connect 18 0 16 0;
#X connect 18 0 8 0;
#X connect 21 0 23 0;
#X connect 23 0 9 0;
#X connect 24 0 25 0;
#X connect 25 0 15 0;
#X connect 26 1 5 1;
#X connect 27 1 5 2;
#X connect 28 1 5 3;
#X connect 29 1 5 5;
#X connect 30 1 5 4;
#X connect 32 0 0 0;
