#N canvas 1082 749 536 346 10;
#X obj 22 21 cnv 15 190 65 empty empty empty 20 12 0 14 -233017 -66577
0;
#X obj 316 163 elooper~ \$1;
#X obj 25 23 tgl 15 0 empty empty empty 17 7 0 10 -262144 -1 -1 0 1
;
#X obj 59 43 hsl 100 10 0 5000 0 0 empty empty empty -2 -8 0 10 -117111
-1 -1 0 1;
#X obj 316 188 outlet~;
#X obj 196 23 bng 15 250 50 0 empty empty empty 17 7 0 10 -163372 -1
-1;
#X obj 59 57 hsl 100 10 0 1000 0 0 empty empty empty -2 -8 0 10 -138171
-1 -1 0 1;
#X obj 165 43 nbx 5 10 -1e+37 1e+37 0 0 empty empty empty 0 -8 0 8
-262144 -1 -1 0 256;
#X obj 316 72 select 1 0;
#X msg 316 98 bang;
#X msg 358 98 stop;
#X text 40 22 on/off;
#X text 21 68 rand;
#X obj 165 57 nbx 5 10 0 1000 0 0 empty empty empty 0 -8 0 8 -262144
-1 -1 0 256;
#X obj 165 71 nbx 5 10 0 200 0 0 empty empty empty 0 -8 0 8 -262144
-1 -1 0 256;
#X text 22 40 time;
#X text 21 54 _env;
#X obj 59 71 hsl 100 10 0 200 0 0 empty empty empty -2 -8 0 10 -159040
-1 -1 0 1;
#X obj 50 93 change;
#X obj 50 113 change;
#X obj 50 134 change;
#X connect 1 0 4 0;
#X connect 1 1 5 0;
#X connect 2 0 8 0;
#X connect 3 0 18 0;
#X connect 6 0 19 0;
#X connect 7 0 3 0;
#X connect 7 0 1 2;
#X connect 8 0 9 0;
#X connect 8 1 10 0;
#X connect 9 0 1 0;
#X connect 10 0 1 0;
#X connect 13 0 6 0;
#X connect 13 0 1 1;
#X connect 14 0 17 0;
#X connect 14 0 1 3;
#X connect 17 0 20 0;
#X connect 18 0 7 0;
#X connect 19 0 13 0;
#X connect 20 0 14 0;
#X coords 0 -1 1 1 193 68 1 20 20;
