#N canvas 191 63 703 547 10;
#X obj 103 187 panner~;
#X obj 108 151 hsl 75 12 0 127 0 0 empty empty LFO_speed -2 -8 0 10
-204800 -1 -1 4700 1;
#X obj 21 307 throw~ c3;
#X obj 140 327 throw~ c4;
#X obj 244 261 *~;
#X floatatom 277 268 5 0 0 0 - - -, f 5;
#X obj 278 211 * 0.2;
#X obj 278 240 + 0.6;
#X obj 20 343 throw~ c5;
#X obj 138 287 throw~ c2;
#X obj 141 363 throw~ c6;
#X obj 23 277 throw~ c1;
#X obj 439 23 cnv 15 100 60 empty empty empty 20 12 0 14 -233017 -66577
0;
#X obj 194 37 inlet~ audio;
#X obj 371 35 inlet speed;
#X obj 278 155 jrange 0 127 0 2;
#X obj 278 181 lfo_tri 1.5;
#X obj 21 380 throw~ c7;
#X obj 17 406 throw~ c9;
#X obj 142 399 throw~ c8;
#X obj 28 438 throw~ c11;
#X obj 139 435 throw~ c10;
#X obj 141 462 throw~ c12;
#X obj 24 467 throw~ c13;
#X obj 20 504 throw~ c15;
#X obj 140 495 throw~ c14;
#X obj 243 70 *~ 1;
#X floatatom 55 176 5 0 0 0 - - -, f 5;
#X msg 105 70 80.66;
#X obj 100 48 loadbang;
#X obj 60 241 *~ 1;
#X obj 192 255 *~ 1;
#X obj 555 41 inlet gain;
#X obj -16 526 outlet~ monitoring;
#X connect 0 0 30 0;
#X connect 0 1 31 0;
#X connect 1 0 15 0;
#X connect 1 0 27 0;
#X connect 4 0 0 0;
#X connect 6 0 7 0;
#X connect 7 0 4 1;
#X connect 7 0 5 0;
#X connect 13 0 26 0;
#X connect 14 0 1 0;
#X connect 15 0 16 0;
#X connect 16 0 0 1;
#X connect 16 0 6 0;
#X connect 26 0 4 0;
#X connect 28 0 1 0;
#X connect 29 0 28 0;
#X connect 30 0 11 0;
#X connect 30 0 2 0;
#X connect 30 0 8 0;
#X connect 30 0 17 0;
#X connect 30 0 18 0;
#X connect 30 0 20 0;
#X connect 30 0 23 0;
#X connect 30 0 24 0;
#X connect 30 0 33 0;
#X connect 31 0 9 0;
#X connect 31 0 3 0;
#X connect 31 0 10 0;
#X connect 31 0 19 0;
#X connect 31 0 21 0;
#X connect 31 0 22 0;
#X connect 31 0 25 0;
#X connect 32 0 31 1;
#X connect 32 0 30 1;
#X coords 0 -1 1 1 90 150 1 100 100;
