#N canvas 307 75 1133 696 10;
#X obj 424 364 hsl 128 15 0 1 0 0 empty empty empty -2 -8 0 10 -262144
-1 -1 9932 1;
#X obj 446 306 hsl 128 15 0 1 0 0 empty empty empty -2 -8 0 10 -262144
-1 -1 9932 1;
#X obj 293 213 *~;
#X obj 308 179 vline~;
#X obj 348 302 snapshot~;
#X obj 412 258 metro 20;
#X obj 429 239 tgl 15 0 empty empty empty 17 7 0 10 -262144 -1 -1 1
1;
#X obj 371 234 vline~;
#X msg 311 103 1 8000 \, 0 6000 8000;
#X msg 374 180 0 0 \, 1 11000 3000;
#X obj 516 220 loadbang;
#X msg 516 249 1;
#X obj 260 -140 inlet~ audio;
#X obj 738 -141 inlet windspeed;
#X text 409 142 amplitude sweep;
#X text 482 206 pan;
#X text 885 -92 sweep time in ms;
#X text 882 86 delay time in ms;
#X obj 812 130 random 5000;
#X obj 798 178 +;
#X obj 734 109 t f b;
#X msg 830 212 set \$1;
#X msg 830 234 16924;
#X text 892 234 delay time with 0-5 secs added;
#X obj 722 162 bng 15 250 50 0 empty empty empty 17 7 0 10 -262144
-1 -1;
#X obj 711 139 loadbang;
#X obj 708 197 delay 15000;
#X obj 594 130 pack f f;
#X obj 738 -91 jrange 2 12 12000 4000;
#X obj 734 87 jrange 2 12 20000 10000;
#X msg 321 143 1 \$2 \, 0 \$1 \$2;
#X obj 609 250 pack f f;
#X msg 392 204 0 0 \, 1 \$1 \$2;
#X obj 708 222 s \$0-sweep-trig;
#X obj 556 -142 r \$0-sweep-trig;
#X obj 404 483 throw~ c7;
#X obj 467 483 throw~ c8;
#X obj 594 95 f;
#X obj 613 72 / 0.75;
#X obj 610 200 * 1.3;
#X obj 654 201 * 0.4;
#X obj 595 224 f;
#X obj 797 153 +;
#X obj 738 -115 t f f;
#X obj 613 42 r sweep_time;
#X obj 614 155 r sweep_time;
#X obj 631 176 r sweep_time;
#X obj 639 102 r sweep_time;
#X obj 797 109 r sweep_time;
#X obj 741 -20 random;
#X msg 722 56 4885;
#X msg 722 32 set \$1;
#X obj 722 9 +;
#X obj 722 -66 t f b f;
#X obj 774 32 s sweep_time;
#X msg 656 -25 4000;
#X msg 656 -49 set \$1;
#X obj 761 -44 * 0.5;
#X obj 98 485 outlet~ monitoring;
#X obj 404 442 panner~;
#X connect 0 0 59 1;
#X connect 1 0 0 0;
#X connect 2 0 59 0;
#X connect 3 0 2 1;
#X connect 4 0 1 0;
#X connect 5 0 4 0;
#X connect 6 0 5 0;
#X connect 7 0 4 0;
#X connect 8 0 3 0;
#X connect 9 0 7 0;
#X connect 10 0 11 0;
#X connect 11 0 6 0;
#X connect 12 0 2 0;
#X connect 13 0 43 0;
#X connect 18 0 42 1;
#X connect 19 0 21 0;
#X connect 19 0 26 1;
#X connect 20 0 19 0;
#X connect 20 1 18 0;
#X connect 21 0 22 0;
#X connect 24 0 26 0;
#X connect 25 0 24 0;
#X connect 26 0 24 0;
#X connect 26 0 33 0;
#X connect 27 0 30 0;
#X connect 28 0 53 0;
#X connect 29 0 20 0;
#X connect 30 0 3 0;
#X connect 31 0 32 0;
#X connect 32 0 7 0;
#X connect 34 0 37 0;
#X connect 34 0 41 0;
#X connect 37 0 27 0;
#X connect 38 0 37 1;
#X connect 39 0 41 1;
#X connect 40 0 31 1;
#X connect 41 0 31 0;
#X connect 42 0 19 1;
#X connect 43 0 28 0;
#X connect 43 1 29 0;
#X connect 44 0 38 0;
#X connect 45 0 39 0;
#X connect 46 0 40 0;
#X connect 47 0 27 1;
#X connect 48 0 42 0;
#X connect 49 0 52 1;
#X connect 51 0 50 0;
#X connect 52 0 51 0;
#X connect 52 0 54 0;
#X connect 53 0 52 0;
#X connect 53 0 56 0;
#X connect 53 1 49 0;
#X connect 53 2 57 0;
#X connect 56 0 55 0;
#X connect 57 0 49 1;
#X connect 59 0 35 0;
#X connect 59 1 36 0;
