#N canvas 87 37 1091 586 10;
#X obj -81 178 eloopxf~ 1000;
#X obj -83 88 r \$0_windbang;
#X msg -81 126 Wind_Breeze_1;
#X msg -69 152 1;
#X obj 1 154 r \$0-windspeed;
#X obj 139 15 inlet bang;
#X obj 139 45 s \$0_windbang;
#X obj 534 14 inlet wind_speed;
#X obj 534 40 s \$0-windspeed;
#X msg -35 153 100;
#X obj -81 292 *~ 0;
#X obj 24 201 r \$0-windspeed;
#X text 150 256 vol position 1;
#X text 170 305 vol position 2;
#X floatatom 25 372 5 0 0 0 - - -;
#X obj 24 223 moses 5;
#X obj 321 178 eloopxf~ 1000;
#X obj 319 88 r \$0_windbang;
#X obj 403 154 r \$0-windspeed;
#X msg 367 153 100;
#X obj 321 292 *~ 0;
#X obj 426 201 r \$0-windspeed;
#X text 552 256 vol position 1;
#X text 572 305 vol position 2;
#X floatatom 427 372 5 0 0 0 - - -;
#X obj 426 223 moses 5;
#X obj 690 219 eloopxf~ 1000;
#X obj 688 129 r \$0_windbang;
#X obj 772 195 r \$0-windspeed;
#X msg 736 194 100;
#X obj 690 333 *~ 0;
#X obj 1092 219 eloopxf~ 1000;
#X obj 1090 129 r \$0_windbang;
#X obj 1174 195 r \$0-windspeed;
#X msg 1138 194 100;
#X obj 1092 333 *~ 0;
#X msg 321 126 Wind_Breeze_2;
#X msg 690 167 Wind_Breeze_3;
#X msg 1092 167 Wind_Breeze_4;
#X msg 333 152 2;
#X obj 1181 227 r \$0-windspeed;
#X floatatom 1181 333 5 0 0 0 - - -;
#X msg 1104 193 11;
#X msg 702 193 8;
#X obj -81 350 outlet~;
#X obj 321 350 outlet~;
#X obj 690 391 outlet~;
#X obj 1092 391 outlet~;
#X obj 780 232 r \$0-windspeed;
#X text 906 287 vol position 1;
#X text 937 325 vol position 2;
#X obj 780 254 moses 9;
#X floatatom 819 347 5 0 0 0 - - -;
#X obj 24 255 jrange 2 6 0 0.5;
#X obj 426 255 jrange 3 6 0 0.5;
#X obj 780 286 jrange 8 10 0 0.5;
#X obj 52 304 jrange 6 18 0.5 1;
#X obj 454 304 jrange 6 18 0.5 1;
#X obj 819 324 jrange 10 18 0.5 1;
#X obj 1181 281 jrange 13 18 0 1;
#X connect 0 0 10 0;
#X connect 1 0 2 0;
#X connect 1 0 3 0;
#X connect 1 0 9 0;
#X connect 2 0 0 0;
#X connect 3 0 0 1;
#X connect 4 0 0 3;
#X connect 5 0 6 0;
#X connect 7 0 8 0;
#X connect 9 0 0 2;
#X connect 10 0 44 0;
#X connect 11 0 15 0;
#X connect 15 0 53 0;
#X connect 15 1 56 0;
#X connect 16 0 20 0;
#X connect 17 0 36 0;
#X connect 17 0 39 0;
#X connect 17 0 19 0;
#X connect 18 0 16 3;
#X connect 19 0 16 2;
#X connect 20 0 45 0;
#X connect 21 0 25 0;
#X connect 25 0 54 0;
#X connect 25 1 57 0;
#X connect 26 0 30 0;
#X connect 27 0 37 0;
#X connect 27 0 43 0;
#X connect 27 0 29 0;
#X connect 28 0 26 3;
#X connect 29 0 26 2;
#X connect 30 0 46 0;
#X connect 31 0 35 0;
#X connect 32 0 38 0;
#X connect 32 0 42 0;
#X connect 32 0 34 0;
#X connect 33 0 31 3;
#X connect 34 0 31 2;
#X connect 35 0 47 0;
#X connect 36 0 16 0;
#X connect 37 0 26 0;
#X connect 38 0 31 0;
#X connect 39 0 16 1;
#X connect 40 0 59 0;
#X connect 42 0 31 1;
#X connect 43 0 26 1;
#X connect 48 0 51 0;
#X connect 51 0 55 0;
#X connect 51 1 58 0;
#X connect 53 0 10 1;
#X connect 53 0 14 0;
#X connect 54 0 20 1;
#X connect 54 0 24 0;
#X connect 55 0 30 1;
#X connect 56 0 10 1;
#X connect 56 0 14 0;
#X connect 57 0 20 1;
#X connect 57 0 24 0;
#X connect 58 0 52 0;
#X connect 58 0 30 1;
#X connect 59 0 41 0;
#X connect 59 0 35 1;
