#N canvas 33 22 821 586 10;
#X obj 232 444 linear_panner_6ch~;
#X obj 245 510 throw~ c3;
#X obj 308 510 throw~ c4;
#X obj 263 535 throw~ c5;
#X obj 326 535 throw~ c6;
#X obj 388 380 hsl 128 15 0 1 0 0 empty empty empty -2 -8 0 10 -262144
-1 -1 12700 1;
#X obj 607 345 hsl 128 15 0 1 0 0 empty empty empty -2 -8 0 10 -262144
-1 -1 0 1;
#X obj 446 306 hsl 128 15 0 1 0 0 empty empty empty -2 -8 0 10 -262144
-1 -1 12700 1;
#X obj 293 213 *~;
#X obj 308 179 vline~;
#X obj 348 302 snapshot~;
#X obj 412 258 metro 20;
#X obj 429 239 tgl 15 0 empty empty empty 17 7 0 10 -262144 -1 -1 1
1;
#X obj 371 234 vline~;
#X msg 311 103 1 8000 \, 0 6000 8000;
#X msg 374 180 0 0 \, 1 11000 3000;
#X obj 404 442 linear_panner_5ch~;
#X obj 573 445 linear_panner_4ch~;
#X obj 417 508 throw~ c9;
#X obj 480 508 throw~ c10;
#X obj 435 533 throw~ c11;
#X obj 573 486 throw~ c12;
#X obj 650 482 throw~ c13;
#X obj 586 511 throw~ c14;
#X obj 663 507 throw~ c15;
#X obj 516 220 loadbang;
#X msg 516 249 1;
#X obj 260 -140 inlet~ audio;
#X obj 738 -141 inlet windspeed;
#X text 409 142 amplitude sweep;
#X text 482 206 pan;
#X text 885 -92 sweep time in ms;
#X text 882 86 delay time in ms;
#X obj 812 130 random 5000;
#X obj 798 178 +;
#X obj 734 109 t f b;
#X msg 830 212 set \$1;
#X msg 830 234 28328.7;
#X text 892 234 delay time with 0-5 secs added;
#X obj 722 162 bng 15 250 50 0 empty empty empty 17 7 0 10 -262144
-1 -1;
#X obj 711 139 loadbang;
#X obj 708 197 delay 15000;
#X obj 594 130 pack f f;
#X obj 738 -91 jrange 2 12 12000 4000;
#X obj 734 87 jrange 2 12 20000 10000;
#X msg 321 143 1 \$2 \, 0 \$1 \$2;
#X obj 609 250 pack f f;
#X msg 392 204 0 0 \, 1 \$1 \$2;
#X obj 708 222 s \$0-sweep-trig;
#X obj 556 -142 r \$0-sweep-trig;
#X text 748 344 sweep spread;
#X obj 232 485 throw~ c1;
#X obj 295 485 throw~ c2;
#X obj 404 483 throw~ c7;
#X obj 467 483 throw~ c8;
#X obj 594 95 f;
#X obj 613 72 / 0.75;
#X obj 610 200 * 1.3;
#X obj 654 201 * 0.4;
#X obj 595 224 f;
#X obj 797 153 +;
#X obj 738 -115 t f f;
#X obj 613 42 r sweep_time;
#X obj 614 155 r sweep_time;
#X obj 631 176 r sweep_time;
#X obj 639 102 r sweep_time;
#X obj 797 109 r sweep_time;
#X obj 741 -20 random;
#X msg 722 56 8438.85;
#X msg 722 32 set \$1;
#X obj 722 9 +;
#X obj 722 -66 t f b f;
#X obj 774 32 s sweep_time;
#X msg 656 -25 7991.85;
#X msg 656 -49 set \$1;
#X obj 761 -44 * 0.5;
#X obj 98 485 outlet~ monitoring;
#X connect 0 0 51 0;
#X connect 0 0 76 0;
#X connect 0 1 52 0;
#X connect 0 2 1 0;
#X connect 0 3 2 0;
#X connect 0 4 3 0;
#X connect 0 5 4 0;
#X connect 5 0 0 1;
#X connect 5 0 16 1;
#X connect 5 0 17 1;
#X connect 6 0 0 2;
#X connect 6 0 16 2;
#X connect 6 0 17 2;
#X connect 7 0 5 0;
#X connect 8 0 0 0;
#X connect 8 0 16 0;
#X connect 8 0 17 0;
#X connect 9 0 8 1;
#X connect 10 0 7 0;
#X connect 11 0 10 0;
#X connect 12 0 11 0;
#X connect 13 0 10 0;
#X connect 14 0 9 0;
#X connect 15 0 13 0;
#X connect 16 0 53 0;
#X connect 16 1 54 0;
#X connect 16 2 18 0;
#X connect 16 3 19 0;
#X connect 16 4 20 0;
#X connect 17 0 21 0;
#X connect 17 1 22 0;
#X connect 17 2 23 0;
#X connect 17 3 24 0;
#X connect 25 0 26 0;
#X connect 26 0 12 0;
#X connect 27 0 8 0;
#X connect 28 0 61 0;
#X connect 33 0 60 1;
#X connect 34 0 36 0;
#X connect 34 0 41 1;
#X connect 35 0 34 0;
#X connect 35 1 33 0;
#X connect 36 0 37 0;
#X connect 39 0 41 0;
#X connect 40 0 39 0;
#X connect 41 0 39 0;
#X connect 41 0 48 0;
#X connect 42 0 45 0;
#X connect 43 0 71 0;
#X connect 44 0 35 0;
#X connect 45 0 9 0;
#X connect 46 0 47 0;
#X connect 47 0 13 0;
#X connect 49 0 55 0;
#X connect 49 0 59 0;
#X connect 55 0 42 0;
#X connect 56 0 55 1;
#X connect 57 0 59 1;
#X connect 58 0 46 1;
#X connect 59 0 46 0;
#X connect 60 0 34 1;
#X connect 61 0 43 0;
#X connect 61 1 44 0;
#X connect 62 0 56 0;
#X connect 63 0 57 0;
#X connect 64 0 58 0;
#X connect 65 0 42 1;
#X connect 66 0 60 0;
#X connect 67 0 70 1;
#X connect 69 0 68 0;
#X connect 70 0 69 0;
#X connect 70 0 72 0;
#X connect 71 0 70 0;
#X connect 71 0 74 0;
#X connect 71 1 67 0;
#X connect 71 2 75 0;
#X connect 74 0 73 0;
#X connect 75 0 67 1;
