#N canvas 940 52 703 547 10;
#X obj 103 218 panner~;
#X obj 107 193 hsl 75 12 0 127 0 0 empty empty LFO_speed -2 -8 0 10
-232576 -1 -1 4900 1;
#X obj 13 285 throw~ c3;
#X obj 149 315 throw~ c4;
#X obj 244 261 *~;
#X floatatom 277 268 5 0 0 0 - - -;
#X obj 278 211 * 0.2;
#X obj 278 240 + 0.6;
#X obj 20 343 throw~ c5;
#X obj 128 348 throw~ c2;
#X obj 135 378 throw~ c6;
#X obj 243 70 *~ 7;
#X obj 9 311 throw~ c1;
#X obj 107 156 hsl 75 12 0 127 0 0 empty empty Gain -2 -8 0 10 -232576
-1 -1 0 1;
#X obj 287 113 jrange 0 127 0 10;
#X obj 439 23 cnv 15 100 60 empty empty empty 20 12 0 14 -233017 -66577
0;
#X obj 299 35 inlet gain;
#X obj 194 37 inlet~ audio;
#X obj 371 35 inlet speed;
#X obj 278 155 jrange 0 127 0 2;
#X obj 278 181 lfo_tri 1.5;
#X connect 0 0 2 0;
#X connect 0 0 8 0;
#X connect 0 0 12 0;
#X connect 0 1 3 0;
#X connect 0 1 9 0;
#X connect 0 1 10 0;
#X connect 1 0 19 0;
#X connect 4 0 0 0;
#X connect 6 0 7 0;
#X connect 7 0 4 1;
#X connect 7 0 5 0;
#X connect 11 0 4 0;
#X connect 13 0 14 0;
#X connect 14 0 11 1;
#X connect 16 0 13 0;
#X connect 17 0 11 0;
#X connect 18 0 1 0;
#X connect 19 0 20 0;
#X connect 20 0 0 1;
#X connect 20 0 6 0;
#X coords 0 -1 1 1 90 150 1 100 100;
