#N canvas 100 80 793 603 10;
#X obj 61 -18 eloopxf~ 1000;
#X obj 143 -42 r \$0-shimtemp;
#X obj 59 -108 r \$0_windbang;
#X obj 250 -18 eloopxf~ 1000;
#X obj 332 -42 r \$0-shimtemp;
#X obj 248 -108 r \$0_windbang;
#X obj 452 -22 eloopxf~ 1000;
#X obj 534 -46 r \$0-shimtemp;
#X obj 450 -112 r \$0_windbang;
#X obj 61 187 eloopxf~ 1000;
#X obj 143 163 r \$0-shimtemp;
#X obj 59 97 r \$0_windbang;
#X obj 250 187 eloopxf~ 1000;
#X obj 332 163 r \$0-shimtemp;
#X msg 250 135 Wind_43-45_Ear;
#X obj 248 97 r \$0_windbang;
#X msg 261 161 43;
#X msg 296 162 45;
#X obj 452 183 eloopxf~ 1000;
#X obj 534 159 r \$0-shimtemp;
#X obj 450 93 r \$0_windbang;
#X obj 60 398 eloopxf~ 1000;
#X obj 142 374 r \$0-shimtemp;
#X obj 58 308 r \$0_windbang;
#X obj 249 398 eloopxf~ 1000;
#X obj 331 374 r \$0-shimtemp;
#X obj 247 308 r \$0_windbang;
#X obj 451 394 eloopxf~ 1000;
#X obj 533 370 r \$0-shimtemp;
#X obj 449 304 r \$0_windbang;
#X obj 60 603 eloopxf~ 1000;
#X obj 142 579 r \$0-shimtemp;
#X obj 58 513 r \$0_windbang;
#X obj 249 603 eloopxf~ 1000;
#X obj 331 579 r \$0-shimtemp;
#X obj 247 513 r \$0_windbang;
#X obj 451 599 eloopxf~ 1000;
#X obj 533 575 r \$0-shimtemp;
#X obj 449 509 r \$0_windbang;
#X obj 61 56 throw~ \$0-output;
#X obj 753 850 catch~ \$0-output;
#X obj 250 56 throw~ \$0-output;
#X obj 452 52 throw~ \$0-output;
#X obj 452 257 throw~ \$0-output;
#X obj 250 261 throw~ \$0-output;
#X obj 61 261 throw~ \$0-output;
#X obj 60 472 throw~ \$0-output;
#X obj 249 472 throw~ \$0-output;
#X obj 451 468 throw~ \$0-output;
#X obj 60 677 throw~ \$0-output;
#X obj 249 677 throw~ \$0-output;
#X obj 451 673 throw~ \$0-output;
#X obj 753 961 outlet~;
#X msg 72 -44 0;
#X msg 107 -43 31;
#X msg 250 -70 Wind_31-33_Ear;
#X msg 61 135 Wind_39-43_Ear;
#X msg 452 131 Wind_45-49_Ear;
#X msg 60 346 Wind_49-51_Ear;
#X msg 249 346 Wind_51-55_Ear;
#X msg 451 342 Wind_55-57_Ear;
#X msg 60 551 Wind_61-63_Ear;
#X msg 249 551 Wind_63-67_Ear;
#X msg 451 547 Wind_67-69_Ear;
#X obj 59 824 eloopxf~ 1000;
#X obj 141 800 r \$0-shimtemp;
#X obj 57 734 r \$0_windbang;
#X obj 248 824 eloopxf~ 1000;
#X obj 330 800 r \$0-shimtemp;
#X obj 246 734 r \$0_windbang;
#X obj 450 820 eloopxf~ 1000;
#X obj 532 796 r \$0-shimtemp;
#X obj 448 730 r \$0_windbang;
#X obj 59 898 throw~ \$0-output;
#X obj 248 898 throw~ \$0-output;
#X obj 450 894 throw~ \$0-output;
#X msg 59 772 Wind_73-75_Ear;
#X msg 248 772 Wind_75-79_Ear;
#X msg 450 768 Wind_79-81_Ear;
#X obj 244 1024 eloopxf~ 1000;
#X obj 326 1000 r \$0-shimtemp;
#X obj 242 934 r \$0_windbang;
#X obj 244 1098 throw~ \$0-output;
#X msg 71 577 61;
#X msg 106 578 63;
#X msg 260 577 63;
#X msg 295 578 67;
#X msg 462 573 67;
#X msg 497 574 69;
#X msg 462 368 55;
#X msg 497 369 57;
#X msg 260 372 51;
#X msg 295 373 55;
#X msg 106 373 51;
#X msg 71 372 49;
#X msg 498 158 49;
#X msg 463 157 45;
#X msg 108 162 43;
#X msg 72 161 39;
#X msg 296 -43 33;
#X msg 263 -43 31;
#X obj 327 -196 inlet;
#X text 348 -171 temp;
#X obj 327 -153 s \$0-shimtemp;
#X obj 128 -195 inlet;
#X text 174 -198 bang to set players;
#X obj 129 -169 s \$0_windbang;
#X msg 244 972 Wind_81plus_Ear;
#X msg 61 -70 Wind_31minus_Ear;
#X obj 652 -23 eloopxf~ 1000;
#X obj 734 -47 r \$0-shimtemp;
#X obj 650 -113 r \$0_windbang;
#X obj 652 51 throw~ \$0-output;
#X msg 652 -75 Wind_37-39_Ear;
#X msg 698 -48 39;
#X msg 664 -49 37;
#X msg 453 -76 Wind_33-37_Ear;
#X msg 464 -48 33;
#X msg 498 -47 37;
#X obj 634 391 eloopxf~ 1000;
#X obj 716 367 r \$0-shimtemp;
#X obj 632 301 r \$0_windbang;
#X obj 634 465 throw~ \$0-output;
#X msg 645 365 57;
#X msg 680 366 61;
#X msg 634 339 Wind_57-61_Ear;
#X obj 636 597 eloopxf~ 1000;
#X obj 718 573 r \$0-shimtemp;
#X obj 634 507 r \$0_windbang;
#X obj 636 671 throw~ \$0-output;
#X msg 636 545 Wind_69-73_Ear;
#X msg 647 571 69;
#X msg 682 572 73;
#X msg 70 798 73;
#X msg 105 799 75;
#X msg 259 798 75;
#X msg 294 799 79;
#X msg 461 794 79;
#X msg 496 795 81;
#X msg 255 998 81;
#X msg 290 998 150;
#X obj 472 -187 inlet;
#X obj 472 -159 s \$0-windspeed;
#X obj 753 903 *~ 0;
#X obj 858 812 r \$0-windspeed;
#X text 984 867 vol position 1;
#X text 1015 912 vol position 2;
#X text 1055 942 vol position 3;
#X floatatom 821 989 5 0 0 0 - - -;
#X obj 858 866 jrange 2 3 0 0.3;
#X obj 858 834 moses 3;
#X obj 897 912 jrange 3 8 0.3 0.8;
#X obj 897 890 moses 8;
#X obj 936 941 jrange 8 12 0.8 1;
#X connect 0 0 39 0;
#X connect 1 0 0 3;
#X connect 2 0 108 0;
#X connect 2 0 53 0;
#X connect 2 0 54 0;
#X connect 3 0 41 0;
#X connect 4 0 3 3;
#X connect 5 0 55 0;
#X connect 5 0 100 0;
#X connect 5 0 99 0;
#X connect 6 0 42 0;
#X connect 7 0 6 3;
#X connect 8 0 116 0;
#X connect 8 0 117 0;
#X connect 8 0 118 0;
#X connect 9 0 45 0;
#X connect 10 0 9 3;
#X connect 11 0 56 0;
#X connect 11 0 98 0;
#X connect 11 0 97 0;
#X connect 12 0 44 0;
#X connect 13 0 12 3;
#X connect 14 0 12 0;
#X connect 15 0 14 0;
#X connect 15 0 16 0;
#X connect 15 0 17 0;
#X connect 16 0 12 1;
#X connect 17 0 12 2;
#X connect 18 0 43 0;
#X connect 19 0 18 3;
#X connect 20 0 57 0;
#X connect 20 0 96 0;
#X connect 20 0 95 0;
#X connect 21 0 46 0;
#X connect 22 0 21 3;
#X connect 23 0 58 0;
#X connect 23 0 94 0;
#X connect 23 0 93 0;
#X connect 24 0 47 0;
#X connect 25 0 24 3;
#X connect 26 0 59 0;
#X connect 26 0 91 0;
#X connect 26 0 92 0;
#X connect 27 0 48 0;
#X connect 28 0 27 3;
#X connect 29 0 60 0;
#X connect 29 0 89 0;
#X connect 29 0 90 0;
#X connect 30 0 49 0;
#X connect 31 0 30 3;
#X connect 32 0 61 0;
#X connect 32 0 83 0;
#X connect 32 0 84 0;
#X connect 33 0 50 0;
#X connect 34 0 33 3;
#X connect 35 0 62 0;
#X connect 35 0 85 0;
#X connect 35 0 86 0;
#X connect 36 0 51 0;
#X connect 37 0 36 3;
#X connect 38 0 63 0;
#X connect 38 0 87 0;
#X connect 38 0 88 0;
#X connect 40 0 143 0;
#X connect 53 0 0 1;
#X connect 54 0 0 2;
#X connect 55 0 3 0;
#X connect 56 0 9 0;
#X connect 57 0 18 0;
#X connect 58 0 21 0;
#X connect 59 0 24 0;
#X connect 60 0 27 0;
#X connect 61 0 30 0;
#X connect 62 0 33 0;
#X connect 63 0 36 0;
#X connect 64 0 73 0;
#X connect 65 0 64 3;
#X connect 66 0 76 0;
#X connect 66 0 133 0;
#X connect 66 0 134 0;
#X connect 67 0 74 0;
#X connect 68 0 67 3;
#X connect 69 0 77 0;
#X connect 69 0 135 0;
#X connect 69 0 136 0;
#X connect 70 0 75 0;
#X connect 71 0 70 3;
#X connect 72 0 78 0;
#X connect 72 0 137 0;
#X connect 72 0 138 0;
#X connect 76 0 64 0;
#X connect 77 0 67 0;
#X connect 78 0 70 0;
#X connect 79 0 82 0;
#X connect 80 0 79 3;
#X connect 81 0 107 0;
#X connect 81 0 139 0;
#X connect 81 0 140 0;
#X connect 83 0 30 1;
#X connect 84 0 30 2;
#X connect 85 0 33 1;
#X connect 86 0 33 2;
#X connect 87 0 36 1;
#X connect 88 0 36 2;
#X connect 89 0 27 1;
#X connect 90 0 27 2;
#X connect 91 0 24 1;
#X connect 92 0 24 2;
#X connect 93 0 21 2;
#X connect 94 0 21 1;
#X connect 95 0 18 2;
#X connect 96 0 18 1;
#X connect 97 0 9 2;
#X connect 98 0 9 1;
#X connect 99 0 3 2;
#X connect 100 0 3 1;
#X connect 101 0 103 0;
#X connect 104 0 106 0;
#X connect 107 0 79 0;
#X connect 108 0 0 0;
#X connect 109 0 112 0;
#X connect 110 0 109 3;
#X connect 111 0 113 0;
#X connect 111 0 115 0;
#X connect 111 0 114 0;
#X connect 113 0 109 0;
#X connect 114 0 109 2;
#X connect 115 0 109 1;
#X connect 116 0 6 0;
#X connect 117 0 6 1;
#X connect 118 0 6 2;
#X connect 119 0 122 0;
#X connect 120 0 119 3;
#X connect 121 0 125 0;
#X connect 121 0 123 0;
#X connect 121 0 124 0;
#X connect 123 0 119 1;
#X connect 124 0 119 2;
#X connect 125 0 119 0;
#X connect 126 0 129 0;
#X connect 127 0 126 3;
#X connect 128 0 130 0;
#X connect 128 0 131 0;
#X connect 128 0 132 0;
#X connect 130 0 126 0;
#X connect 131 0 126 1;
#X connect 132 0 126 2;
#X connect 133 0 64 1;
#X connect 134 0 64 2;
#X connect 135 0 67 1;
#X connect 136 0 67 2;
#X connect 137 0 70 1;
#X connect 138 0 70 2;
#X connect 139 0 79 1;
#X connect 140 0 79 2;
#X connect 141 0 142 0;
#X connect 143 0 52 0;
#X connect 144 0 150 0;
#X connect 149 0 143 1;
#X connect 149 0 148 0;
#X connect 150 0 149 0;
#X connect 150 1 152 0;
#X connect 151 0 143 1;
#X connect 151 0 148 0;
#X connect 152 0 151 0;
#X connect 152 1 153 0;
#X connect 153 0 143 1;
#X connect 153 0 148 0;
