#N canvas 239 336 1029 827 10;
#X obj 61 -18 eloopxf~ 1000;
#X obj 143 -42 r \$0-shimtemp;
#X obj 59 -108 r \$0_windbang;
#X obj 250 -18 eloopxf~ 1000;
#X obj 332 -42 r \$0-shimtemp;
#X obj 248 -108 r \$0_windbang;
#X obj 452 -22 eloopxf~ 1000;
#X obj 534 -46 r \$0-shimtemp;
#X obj 450 -112 r \$0_windbang;
#X obj 61 187 eloopxf~ 1000;
#X obj 143 163 r \$0-shimtemp;
#X obj 59 97 r \$0_windbang;
#X obj 250 187 eloopxf~ 1000;
#X obj 332 163 r \$0-shimtemp;
#X msg 250 135 Wind_43-45_Ear;
#X obj 248 97 r \$0_windbang;
#X msg 261 161 43;
#X msg 296 162 45;
#X obj 452 183 eloopxf~ 1000;
#X obj 534 159 r \$0-shimtemp;
#X obj 450 93 r \$0_windbang;
#X obj 60 398 eloopxf~ 1000;
#X obj 142 374 r \$0-shimtemp;
#X obj 58 308 r \$0_windbang;
#X obj 249 398 eloopxf~ 1000;
#X obj 331 374 r \$0-shimtemp;
#X obj 247 308 r \$0_windbang;
#X obj 451 394 eloopxf~ 1000;
#X obj 533 370 r \$0-shimtemp;
#X obj 449 304 r \$0_windbang;
#X obj 60 603 eloopxf~ 1000;
#X obj 142 579 r \$0-shimtemp;
#X obj 58 513 r \$0_windbang;
#X obj 249 603 eloopxf~ 1000;
#X obj 331 579 r \$0-shimtemp;
#X obj 247 513 r \$0_windbang;
#X obj 451 599 eloopxf~ 1000;
#X obj 533 575 r \$0-shimtemp;
#X obj 449 509 r \$0_windbang;
#X obj 61 56 throw~ \$0-output;
#X obj 753 937 catch~ \$0-output;
#X obj 250 56 throw~ \$0-output;
#X obj 452 52 throw~ \$0-output;
#X obj 452 257 throw~ \$0-output;
#X obj 250 261 throw~ \$0-output;
#X obj 61 261 throw~ \$0-output;
#X obj 60 472 throw~ \$0-output;
#X obj 249 472 throw~ \$0-output;
#X obj 451 468 throw~ \$0-output;
#X obj 60 677 throw~ \$0-output;
#X obj 249 677 throw~ \$0-output;
#X obj 451 673 throw~ \$0-output;
#X obj 753 961 outlet~;
#X msg 61 -70 Wind_0-31_Ear;
#X msg 72 -44 0;
#X msg 107 -43 31;
#X msg 250 -70 Wind_31-33_Ear;
#X msg 452 -74 Wind_37-39_Ear;
#X msg 61 135 Wind_39-43_Ear;
#X msg 452 131 Wind_45-49_Ear;
#X msg 60 346 Wind_49-51_Ear;
#X msg 249 346 Wind_51-55_Ear;
#X msg 451 342 Wind_55-57_Ear;
#X msg 60 551 Wind_61-63_Ear;
#X msg 249 551 Wind_63-67_Ear;
#X msg 451 547 Wind_67-69_Ear;
#X obj 59 824 eloopxf~ 1000;
#X obj 141 800 r \$0-shimtemp;
#X obj 57 734 r \$0_windbang;
#X msg 70 798 43;
#X msg 105 799 45;
#X obj 248 824 eloopxf~ 1000;
#X obj 330 800 r \$0-shimtemp;
#X obj 246 734 r \$0_windbang;
#X msg 259 798 43;
#X msg 294 799 45;
#X obj 450 820 eloopxf~ 1000;
#X obj 532 796 r \$0-shimtemp;
#X obj 448 730 r \$0_windbang;
#X msg 461 794 43;
#X msg 496 795 45;
#X obj 59 898 throw~ \$0-output;
#X obj 248 898 throw~ \$0-output;
#X obj 450 894 throw~ \$0-output;
#X msg 59 772 Wind_73-75_Ear;
#X msg 248 772 Wind_75-79_Ear;
#X msg 450 768 Wind_79-81_Ear;
#X obj 244 1024 eloopxf~ 1000;
#X obj 326 1000 r \$0-shimtemp;
#X obj 242 934 r \$0_windbang;
#X msg 255 998 43;
#X msg 290 999 45;
#X obj 244 1098 throw~ \$0-output;
#X msg 244 972 Wind_81-150_Ear;
#X msg 71 577 61;
#X msg 106 578 63;
#X msg 260 577 63;
#X msg 295 578 67;
#X msg 462 573 67;
#X msg 497 574 69;
#X msg 462 368 55;
#X msg 497 369 57;
#X msg 260 372 51;
#X msg 295 373 55;
#X msg 106 373 51;
#X msg 71 372 49;
#X msg 498 158 49;
#X msg 463 157 45;
#X msg 108 162 43;
#X msg 72 161 39;
#X msg 498 -47 39;
#X msg 464 -48 37;
#X msg 296 -43 33;
#X msg 263 -43 31;
#X obj 327 -196 inlet;
#X text 348 -171 temp;
#X obj 327 -153 s \$0-shimtemp;
#X obj 128 -195 inlet;
#X text 174 -198 bang to set players;
#X obj 129 -169 s \$0_shimmerbang_ACE;
#X connect 0 0 39 0;
#X connect 1 0 0 3;
#X connect 2 0 53 0;
#X connect 2 0 54 0;
#X connect 2 0 55 0;
#X connect 3 0 41 0;
#X connect 4 0 3 3;
#X connect 5 0 56 0;
#X connect 5 0 113 0;
#X connect 5 0 112 0;
#X connect 6 0 42 0;
#X connect 7 0 6 3;
#X connect 8 0 57 0;
#X connect 8 0 111 0;
#X connect 8 0 110 0;
#X connect 9 0 45 0;
#X connect 10 0 9 3;
#X connect 11 0 58 0;
#X connect 11 0 109 0;
#X connect 11 0 108 0;
#X connect 12 0 44 0;
#X connect 13 0 12 3;
#X connect 14 0 12 0;
#X connect 15 0 14 0;
#X connect 15 0 16 0;
#X connect 15 0 17 0;
#X connect 16 0 12 1;
#X connect 17 0 12 2;
#X connect 18 0 43 0;
#X connect 19 0 18 3;
#X connect 20 0 59 0;
#X connect 20 0 107 0;
#X connect 20 0 106 0;
#X connect 21 0 46 0;
#X connect 22 0 21 3;
#X connect 23 0 60 0;
#X connect 23 0 105 0;
#X connect 23 0 104 0;
#X connect 24 0 47 0;
#X connect 25 0 24 3;
#X connect 26 0 61 0;
#X connect 26 0 102 0;
#X connect 26 0 103 0;
#X connect 27 0 48 0;
#X connect 28 0 27 3;
#X connect 29 0 62 0;
#X connect 29 0 100 0;
#X connect 29 0 101 0;
#X connect 30 0 49 0;
#X connect 31 0 30 3;
#X connect 32 0 63 0;
#X connect 32 0 94 0;
#X connect 32 0 95 0;
#X connect 33 0 50 0;
#X connect 34 0 33 3;
#X connect 35 0 64 0;
#X connect 35 0 96 0;
#X connect 35 0 97 0;
#X connect 36 0 51 0;
#X connect 37 0 36 3;
#X connect 38 0 65 0;
#X connect 38 0 98 0;
#X connect 38 0 99 0;
#X connect 40 0 52 0;
#X connect 53 0 0 0;
#X connect 54 0 0 1;
#X connect 55 0 0 2;
#X connect 56 0 3 0;
#X connect 57 0 6 0;
#X connect 58 0 9 0;
#X connect 59 0 18 0;
#X connect 60 0 21 0;
#X connect 61 0 24 0;
#X connect 62 0 27 0;
#X connect 63 0 30 0;
#X connect 64 0 33 0;
#X connect 65 0 36 0;
#X connect 66 0 81 0;
#X connect 67 0 66 3;
#X connect 68 0 84 0;
#X connect 68 0 69 0;
#X connect 68 0 70 0;
#X connect 69 0 66 1;
#X connect 70 0 66 2;
#X connect 71 0 82 0;
#X connect 72 0 71 3;
#X connect 73 0 85 0;
#X connect 73 0 74 0;
#X connect 73 0 75 0;
#X connect 74 0 71 1;
#X connect 75 0 71 2;
#X connect 76 0 83 0;
#X connect 77 0 76 3;
#X connect 78 0 86 0;
#X connect 78 0 79 0;
#X connect 78 0 80 0;
#X connect 79 0 76 1;
#X connect 80 0 76 2;
#X connect 84 0 66 0;
#X connect 85 0 71 0;
#X connect 86 0 76 0;
#X connect 87 0 92 0;
#X connect 88 0 87 3;
#X connect 89 0 93 0;
#X connect 89 0 90 0;
#X connect 89 0 91 0;
#X connect 90 0 87 1;
#X connect 91 0 87 2;
#X connect 93 0 87 0;
#X connect 94 0 30 1;
#X connect 95 0 30 2;
#X connect 96 0 33 1;
#X connect 97 0 33 2;
#X connect 98 0 36 1;
#X connect 99 0 36 2;
#X connect 100 0 27 1;
#X connect 101 0 27 2;
#X connect 102 0 24 1;
#X connect 103 0 24 2;
#X connect 104 0 21 2;
#X connect 105 0 21 1;
#X connect 106 0 18 2;
#X connect 107 0 18 1;
#X connect 108 0 9 2;
#X connect 109 0 9 1;
#X connect 110 0 6 2;
#X connect 111 0 6 1;
#X connect 112 0 3 2;
#X connect 113 0 3 1;
#X connect 114 0 116 0;
#X connect 117 0 119 0;
