#N canvas 342 274 1338 676 10;
#X obj 232 444 linear_panner_6ch~;
#X obj 295 485 throw~ c2;
#X obj 245 510 throw~ c3;
#X obj 308 510 throw~ c4;
#X obj 263 535 throw~ c5;
#X obj 326 535 throw~ c6;
#X obj 388 380 hsl 128 15 0 1 0 0 empty empty empty -2 -8 0 10 -262144
-1 -1 7943 1;
#X obj 607 345 hsl 128 15 0 1 0 0 empty empty empty -2 -8 0 10 -262144
-1 -1 0 1;
#X obj 446 306 hsl 128 15 0 1 0 0 empty empty empty -2 -8 0 10 -262144
-1 -1 7943 1;
#X obj 293 213 *~;
#X obj 308 179 vline~;
#X obj 348 302 snapshot~;
#X obj 412 258 metro 20;
#X obj 429 239 tgl 15 0 empty empty empty 17 7 0 10 -262144 -1 -1 1
1;
#X obj 371 234 vline~;
#X msg 311 103 1 8000 \, 0 6000 8000;
#X msg 374 180 0 0 \, 1 11000 3000;
#X obj 232 485 throw~ c1;
#X obj 404 442 linear_panner_5ch~;
#X obj 573 445 linear_panner_4ch~;
#X obj 404 483 throw~ c7;
#X obj 467 483 throw~ c8;
#X obj 417 508 throw~ c9;
#X obj 480 508 throw~ c10;
#X obj 435 533 throw~ c11;
#X obj 573 486 throw~ c12;
#X obj 650 482 throw~ c13;
#X obj 586 511 throw~ c14;
#X obj 663 507 throw~ c15;
#X obj 516 220 loadbang;
#X msg 516 249 1;
#X obj 253 17 inlet~ audio;
#X obj 716 9 inlet windspeed;
#X text 409 142 amplitude sweep;
#X text 482 206 pan;
#X text 841 51 sweep time in ms;
#X text 882 86 delay time in ms;
#X msg 676 99 12000;
#X msg 676 75 set \$1;
#X obj 813 127 random 5000;
#X obj 798 155 +;
#X obj 734 109 t f b;
#X msg 798 176 set \$1;
#X msg 798 198 21336;
#X text 860 198 delay time with 0-5 secs added;
#X obj 722 162 bng 15 250 50 0 empty empty empty 17 7 0 10 -262144
-1 -1;
#X obj 711 139 loadbang;
#X obj 708 197 delay 15000;
#X obj 614 122 pack f f;
#X obj 696 51 jrange 2 12 12000 4000;
#X obj 734 87 jrange 2 12 20000 10000;
#X obj 614 98 / 2.5;
#X msg 316 142 1 \$2 \, 0 \$1 \$2;
#X obj 521 66 pack f f;
#X obj 522 31 * 1.5;
#X obj 565 32 / 2;
#X msg 392 204 0 0 \, 1 \$1 \$2;
#X obj 593 150 list;
#X obj 504 92 list;
#X obj 708 222 s \$0-sweep-trig;
#X obj 580 3 r \$0-sweep-trig;
#X text 748 344 sweep spread;
#X connect 0 0 17 0;
#X connect 0 1 1 0;
#X connect 0 2 2 0;
#X connect 0 3 3 0;
#X connect 0 4 4 0;
#X connect 0 5 5 0;
#X connect 6 0 0 1;
#X connect 6 0 18 1;
#X connect 6 0 19 1;
#X connect 7 0 0 2;
#X connect 7 0 18 2;
#X connect 7 0 19 2;
#X connect 8 0 6 0;
#X connect 9 0 0 0;
#X connect 9 0 18 0;
#X connect 9 0 19 0;
#X connect 10 0 9 1;
#X connect 11 0 8 0;
#X connect 12 0 11 0;
#X connect 13 0 12 0;
#X connect 14 0 11 0;
#X connect 15 0 10 0;
#X connect 16 0 14 0;
#X connect 18 0 20 0;
#X connect 18 1 21 0;
#X connect 18 2 22 0;
#X connect 18 3 23 0;
#X connect 18 4 24 0;
#X connect 19 0 25 0;
#X connect 19 1 26 0;
#X connect 19 2 27 0;
#X connect 19 3 28 0;
#X connect 29 0 30 0;
#X connect 30 0 13 0;
#X connect 31 0 9 0;
#X connect 32 0 49 0;
#X connect 32 0 50 0;
#X connect 38 0 37 0;
#X connect 39 0 40 1;
#X connect 40 0 42 0;
#X connect 40 0 47 1;
#X connect 41 0 40 0;
#X connect 41 1 39 0;
#X connect 42 0 43 0;
#X connect 45 0 47 0;
#X connect 45 0 57 0;
#X connect 46 0 45 0;
#X connect 47 0 45 0;
#X connect 47 0 59 0;
#X connect 48 0 57 1;
#X connect 49 0 38 0;
#X connect 49 0 48 1;
#X connect 49 0 51 0;
#X connect 49 0 54 0;
#X connect 49 0 55 0;
#X connect 50 0 41 0;
#X connect 51 0 48 0;
#X connect 52 0 10 0;
#X connect 53 0 58 1;
#X connect 54 0 53 0;
#X connect 55 0 53 1;
#X connect 56 0 14 0;
#X connect 57 0 52 0;
#X connect 58 0 56 0;
#X connect 60 0 57 0;
#X connect 60 0 58 0;
