#N canvas 104 104 669 508 10;
#X obj 108 118 vsl 20 120 0 2 0 0 empty empty empty 0 -9 0 10 -204800
-1 -1 3754 1;
#X obj 124 30 loadbang;
#X obj -34 -13 inlet load;
#X obj 108 252 nbx 5 30 -1e+37 1e+37 0 0 empty empty empty 0 -8 0 10
-204800 -1 -1 -4.00046 256;
#X obj 330 284 env~;
#X obj 139 118 vu 20 120 empty empty -1 -8 0 10 -66577 -1 1 0;
#X floatatom 12 253 5 0 0 0 - - -, f 5;
#X text -54 234 for setting new preset;
#X text 166 64 preset gain;
#X obj 198 240 rmstodb;
#X obj 198 262 - 100;
#X text 360 285 calculates RMS;
#X obj 330 306 - 100;
#X obj -35 11 t b b;
#X msg 123 62 0.631;
#X obj 113 353 wind_work;
#X obj -30 304 cnv 15 100 60 empty empty empty 20 12 0 14 -233017 -66577
0;
#X obj 303 25 inlet microserver;
#X connect 0 0 6 0;
#X connect 0 0 9 0;
#X connect 0 0 15 1;
#X connect 1 0 14 0;
#X connect 2 0 13 0;
#X connect 4 0 12 0;
#X connect 9 0 10 0;
#X connect 10 0 3 0;
#X connect 12 0 5 0;
#X connect 13 0 15 0;
#X connect 13 1 14 0;
#X connect 14 0 0 0;
#X connect 15 0 4 0;
#X connect 17 0 15 2;
#X coords 0 -1 1 1 90 190 1 100 100;
