#N canvas 378 182 450 300 10;
#X obj 206 108 hsl 128 15 0 2 0 0 empty empty empty -2 -8 0 10 -262144
-1 -1 12700 1;
#X obj 110 78 noise~;
#X obj 101 267 dac~ 1 2 3 4 5 6 7 8 9 10 11 12 13 14 15;
#X obj 169 156 *~ 1;
#X connect 0 0 3 1;
#X connect 1 0 3 0;
#X connect 3 0 2 0;
#X connect 3 0 2 1;
#X connect 3 0 2 2;
#X connect 3 0 2 3;
#X connect 3 0 2 4;
#X connect 3 0 2 5;
#X connect 3 0 2 6;
#X connect 3 0 2 7;
#X connect 3 0 2 8;
#X connect 3 0 2 9;
#X connect 3 0 2 10;
#X connect 3 0 2 11;
#X connect 3 0 2 12;
#X connect 3 0 2 13;
#X connect 3 0 2 14;
