#N canvas 371 1 560 668 10;
#X obj 347 249 soundfiler;
#N canvas 0 0 450 300 (subpatch) 0;
#X array array1 943616 float 2;
#X coords 0 1 943616 -1 200 140 1;
#X restore 100 20 graph;
#X obj 87 236 tabplay~ array1;
#X msg 246 195 read -resize sounds/Wind_60-65_01.wav array1;
#X obj 88 211 bng 15 250 50 0 empty empty empty 17 7 0 10 -262144 -1
-1;
#X obj 134 282 hsl 128 15 0 127 0 0 empty empty empty -2 -8 0 10 -262144
-1 -1 12700 1;
#X obj 280 383 f;
#X obj 311 382 + 1;
#X obj 278 416 % 6;
#X obj 280 318 bng 25 250 50 0 empty empty empty 17 7 0 10 -4034 -1
-1;
#X obj 113 582 spigot~;
#X obj 278 438 hradio 15 1 0 6 empty empty empty 0 -8 0 10 -262144
-1 -1 3;
#X obj 153 558 tgl 15 0 empty empty empty 17 7 0 10 -262144 -1 -1 1
1;
#X floatatom 281 462 5 0 0 0 - - -;
#X obj 152 484 select 0;
#X obj 159 509 bng 15 250 50 0 empty empty empty 17 7 0 10 -262144
-1 -1;
#X obj 193 507 bng 15 250 50 0 empty empty empty 17 7 0 10 -262144
-1 -1;
#X obj 178 587 spigot~;
#X obj 219 562 tgl 15 0 empty empty empty 17 7 0 10 -262144 -1 -1 1
1;
#X obj 225 513 bng 15 250 50 0 empty empty empty 17 7 0 10 -262144
-1 -1;
#X obj 259 511 bng 15 250 50 0 empty empty empty 17 7 0 10 -262144
-1 -1;
#X obj 243 589 spigot~;
#X obj 283 565 tgl 15 0 empty empty empty 17 7 0 10 -262144 -1 -1 1
1;
#X obj 289 516 bng 15 250 50 0 empty empty empty 17 7 0 10 -262144
-1 -1;
#X obj 323 514 bng 15 250 50 0 empty empty empty 17 7 0 10 -262144
-1 -1;
#X obj 311 588 spigot~;
#X obj 351 564 tgl 15 0 empty empty empty 17 7 0 10 -262144 -1 -1 0
1;
#X obj 357 515 bng 15 250 50 0 empty empty empty 17 7 0 10 -262144
-1 -1;
#X obj 391 513 bng 15 250 50 0 empty empty empty 17 7 0 10 -262144
-1 -1;
#X obj 376 591 spigot~;
#X obj 416 567 tgl 15 0 empty empty empty 17 7 0 10 -262144 -1 -1 1
1;
#X obj 422 518 bng 15 250 50 0 empty empty empty 17 7 0 10 -262144
-1 -1;
#X obj 456 516 bng 15 250 50 0 empty empty empty 17 7 0 10 -262144
-1 -1;
#X obj 444 590 spigot~;
#X obj 484 566 tgl 15 0 empty empty empty 17 7 0 10 -262144 -1 -1 1
1;
#X obj 490 517 bng 15 250 50 0 empty empty empty 17 7 0 10 -262144
-1 -1;
#X obj 524 515 bng 15 250 50 0 empty empty empty 17 7 0 10 -262144
-1 -1;
#X obj 218 488 select 1;
#X obj 282 491 select 2;
#X obj 349 490 select 3;
#X obj 415 493 select 4;
#X obj 483 492 select 5;
#X obj 95 541 *~ 1;
#X obj 148 531 0;
#X obj 178 532 1;
#X obj 214 535 0;
#X obj 244 536 1;
#X obj 278 538 0;
#X obj 308 539 1;
#X obj 346 537 0;
#X obj 376 538 1;
#X obj 411 540 0;
#X obj 441 541 1;
#X obj 479 539 0;
#X obj 509 540 1;
#X obj 281 351 metro 500;
#X obj 386 299 hsl 128 15 0 127 0 0 empty empty empty -2 -8 0 10 -262144
-1 -1 3300 1;
#X obj 383 322 jrange 0 127 500 4000;
#X obj 383 346 t b f;
#X obj 131 303 / 127;
#X obj 210 240 delay 10;
#X obj 35 237 noise~;
#X obj 116 643 dac~ 7 8 3 4 5 6;
#X obj 355 100 loadbang;
#X obj 355 124 t b b;
#X connect 2 0 42 0;
#X connect 2 1 60 0;
#X connect 3 0 0 0;
#X connect 4 0 2 0;
#X connect 5 0 59 0;
#X connect 6 0 7 0;
#X connect 6 0 8 0;
#X connect 7 0 6 1;
#X connect 8 0 11 0;
#X connect 9 0 55 0;
#X connect 10 0 62 0;
#X connect 11 0 13 0;
#X connect 11 0 14 0;
#X connect 11 0 37 0;
#X connect 11 0 38 0;
#X connect 11 0 39 0;
#X connect 11 0 40 0;
#X connect 11 0 41 0;
#X connect 12 0 10 1;
#X connect 14 0 15 0;
#X connect 14 1 16 0;
#X connect 15 0 43 0;
#X connect 16 0 44 0;
#X connect 17 0 62 1;
#X connect 18 0 17 1;
#X connect 19 0 45 0;
#X connect 20 0 46 0;
#X connect 21 0 62 2;
#X connect 22 0 21 1;
#X connect 23 0 47 0;
#X connect 24 0 48 0;
#X connect 25 0 62 3;
#X connect 26 0 25 1;
#X connect 27 0 49 0;
#X connect 28 0 50 0;
#X connect 29 0 62 4;
#X connect 30 0 29 1;
#X connect 31 0 51 0;
#X connect 32 0 52 0;
#X connect 33 0 62 5;
#X connect 34 0 33 1;
#X connect 35 0 53 0;
#X connect 36 0 54 0;
#X connect 37 0 19 0;
#X connect 37 1 20 0;
#X connect 38 0 23 0;
#X connect 38 1 24 0;
#X connect 39 0 27 0;
#X connect 39 1 28 0;
#X connect 40 0 31 0;
#X connect 40 1 32 0;
#X connect 41 0 35 0;
#X connect 41 1 36 0;
#X connect 42 0 10 0;
#X connect 42 0 17 0;
#X connect 42 0 21 0;
#X connect 42 0 25 0;
#X connect 42 0 29 0;
#X connect 42 0 33 0;
#X connect 43 0 12 0;
#X connect 44 0 12 0;
#X connect 45 0 18 0;
#X connect 46 0 18 0;
#X connect 47 0 22 0;
#X connect 48 0 22 0;
#X connect 49 0 26 0;
#X connect 50 0 26 0;
#X connect 51 0 30 0;
#X connect 52 0 30 0;
#X connect 53 0 34 0;
#X connect 54 0 34 0;
#X connect 55 0 6 0;
#X connect 56 0 57 0;
#X connect 57 0 58 0;
#X connect 58 0 9 0;
#X connect 58 1 55 1;
#X connect 59 0 42 1;
#X connect 60 0 4 0;
#X connect 63 0 64 0;
#X connect 64 0 4 0;
#X connect 64 1 3 0;
