#N canvas 124 0 847 647 10;
#X obj 105 231 hsl 128 15 0 127 0 0 empty empty volume -2 -8 0 10 -260097
-1 -1 2100 1;
#X obj 266 285 f;
#X obj 297 284 + 1;
#X obj 264 318 % 6;
#X obj 266 220 bng 25 250 50 0 empty empty empty 17 7 0 10 -4034 -1
-1;
#X obj 99 484 spigot~;
#X obj 264 340 hradio 15 1 0 6 empty empty empty 0 -8 0 10 -262144
-1 -1 4;
#X obj 139 460 tgl 15 0 empty empty empty 17 7 0 10 -262144 -1 -1 1
1;
#X floatatom 267 364 5 0 0 0 - - -;
#X obj 138 386 select 0;
#X obj 145 411 bng 15 250 50 0 empty empty empty 17 7 0 10 -262144
-1 -1;
#X obj 179 409 bng 15 250 50 0 empty empty empty 17 7 0 10 -262144
-1 -1;
#X obj 164 489 spigot~;
#X obj 205 464 tgl 15 0 empty empty empty 17 7 0 10 -262144 -1 -1 1
1;
#X obj 211 415 bng 15 250 50 0 empty empty empty 17 7 0 10 -262144
-1 -1;
#X obj 245 413 bng 15 250 50 0 empty empty empty 17 7 0 10 -262144
-1 -1;
#X obj 229 491 spigot~;
#X obj 269 467 tgl 15 0 empty empty empty 17 7 0 10 -262144 -1 -1 1
1;
#X obj 275 418 bng 15 250 50 0 empty empty empty 17 7 0 10 -262144
-1 -1;
#X obj 309 416 bng 15 250 50 0 empty empty empty 17 7 0 10 -262144
-1 -1;
#X obj 297 490 spigot~;
#X obj 337 466 tgl 15 0 empty empty empty 17 7 0 10 -262144 -1 -1 1
1;
#X obj 343 417 bng 15 250 50 0 empty empty empty 17 7 0 10 -262144
-1 -1;
#X obj 377 415 bng 15 250 50 0 empty empty empty 17 7 0 10 -262144
-1 -1;
#X obj 362 493 spigot~;
#X obj 402 469 tgl 15 0 empty empty empty 17 7 0 10 -262144 -1 -1 0
1;
#X obj 408 420 bng 15 250 50 0 empty empty empty 17 7 0 10 -262144
-1 -1;
#X obj 442 418 bng 15 250 50 0 empty empty empty 17 7 0 10 -262144
-1 -1;
#X obj 430 492 spigot~;
#X obj 470 468 tgl 15 0 empty empty empty 17 7 0 10 -262144 -1 -1 1
1;
#X obj 476 419 bng 15 250 50 0 empty empty empty 17 7 0 10 -262144
-1 -1;
#X obj 510 417 bng 15 250 50 0 empty empty empty 17 7 0 10 -262144
-1 -1;
#X obj 204 390 select 1;
#X obj 268 393 select 2;
#X obj 335 392 select 3;
#X obj 401 395 select 4;
#X obj 469 394 select 5;
#X obj 81 443 *~ 1;
#X obj 134 433 0;
#X obj 164 434 1;
#X obj 200 437 0;
#X obj 230 438 1;
#X obj 264 440 0;
#X obj 294 441 1;
#X obj 332 439 0;
#X obj 362 440 1;
#X obj 397 442 0;
#X obj 427 443 1;
#X obj 465 441 0;
#X obj 495 442 1;
#X obj 267 253 metro 500;
#X obj 369 248 t b f;
#X obj 102 252 / 127;
#X obj 21 139 noise~;
#X obj 31 39 loadbang;
#X msg 103 66 \; pd dsp 1;
#X msg 103 195 30;
#X obj 31 66 s \$0-start;
#X obj 103 171 r \$0-start;
#X obj 369 175 hradio 15 1 0 3 empty empty empty 0 -8 0 10 -262144
-1 -1 0;
#X msg 441 223 500;
#X obj 369 198 sel 0 1 2;
#X text 366 149 speed;
#X msg 406 223 1000;
#X msg 369 222 2000;
#X msg 341 150 0;
#X obj 341 126 r \$0-start;
#X obj 61 665 dac~ 1 2 3 4 5 6;
#X obj 276 662 dac~ 7 8 9 10;
#X obj 477 663 dac~ 11 12 13 14 15;
#X obj 45 636 *~;
#X obj 71 636 *~;
#X obj 96 636 *~;
#X obj 122 636 *~;
#X obj 148 636 *~;
#X obj 174 635 *~;
#X obj 275 636 *~;
#X obj 301 636 *~;
#X obj 327 636 *~;
#X obj 352 635 *~;
#X obj 476 639 *~;
#X obj 503 639 *~;
#X obj 531 639 *~;
#X obj 559 639 *~;
#X obj 587 639 *~;
#X obj 95 510 throw~ s1;
#X obj 163 512 throw~ s2;
#X obj 227 513 throw~ s3;
#X obj 296 515 throw~ s4;
#X obj 361 516 throw~ s5;
#X obj 429 517 throw~ s6;
#X obj 46 572 catch~ s1;
#X obj 114 572 catch~ s2;
#X obj 174 573 catch~ s3;
#X obj 75 594 catch~ s4;
#X obj 136 594 catch~ s5;
#X obj 198 594 catch~ s6;
#X obj 553 191 tgl 30 0 empty empty empty 17 7 0 10 -260097 -1 -1 1
1;
#X obj 593 191 tgl 30 0 empty empty empty 17 7 0 10 -260097 -1 -1 1
1;
#X obj 630 192 tgl 30 0 empty empty empty 17 7 0 10 -260097 -1 -1 0
1;
#X obj 553 226 s \$0-z1;
#X obj 593 249 s \$0-z2;
#X obj 630 227 s \$0-z3;
#X text 546 165 zone 1;
#X text 590 165 zone 2;
#X text 631 164 zone 3;
#X obj -12 591 r \$0-z1;
#X obj 274 579 catch~ s1;
#X obj 300 607 catch~ s2;
#X obj 336 580 catch~ s3;
#X obj 362 608 catch~ s4;
#X obj 399 581 r \$0-z2;
#X obj 475 577 catch~ s1;
#X obj 501 605 catch~ s2;
#X obj 538 578 catch~ s3;
#X obj 564 607 catch~ s4;
#X obj 602 578 catch~ s5;
#X obj 637 605 r \$0-z3;
#X obj 553 121 r \$0-start;
#X connect 0 0 52 0;
#X connect 1 0 2 0;
#X connect 1 0 3 0;
#X connect 2 0 1 1;
#X connect 3 0 6 0;
#X connect 4 0 50 0;
#X connect 5 0 85 0;
#X connect 6 0 8 0;
#X connect 6 0 9 0;
#X connect 6 0 32 0;
#X connect 6 0 33 0;
#X connect 6 0 34 0;
#X connect 6 0 35 0;
#X connect 6 0 36 0;
#X connect 7 0 5 1;
#X connect 9 0 10 0;
#X connect 9 1 11 0;
#X connect 10 0 38 0;
#X connect 11 0 39 0;
#X connect 12 0 86 0;
#X connect 13 0 12 1;
#X connect 14 0 40 0;
#X connect 15 0 41 0;
#X connect 16 0 87 0;
#X connect 17 0 16 1;
#X connect 18 0 42 0;
#X connect 19 0 43 0;
#X connect 20 0 88 0;
#X connect 21 0 20 1;
#X connect 22 0 44 0;
#X connect 23 0 45 0;
#X connect 24 0 89 0;
#X connect 25 0 24 1;
#X connect 26 0 46 0;
#X connect 27 0 47 0;
#X connect 28 0 90 0;
#X connect 29 0 28 1;
#X connect 30 0 48 0;
#X connect 31 0 49 0;
#X connect 32 0 14 0;
#X connect 32 1 15 0;
#X connect 33 0 18 0;
#X connect 33 1 19 0;
#X connect 34 0 22 0;
#X connect 34 1 23 0;
#X connect 35 0 26 0;
#X connect 35 1 27 0;
#X connect 36 0 30 0;
#X connect 36 1 31 0;
#X connect 37 0 5 0;
#X connect 37 0 12 0;
#X connect 37 0 16 0;
#X connect 37 0 20 0;
#X connect 37 0 24 0;
#X connect 37 0 28 0;
#X connect 38 0 7 0;
#X connect 39 0 7 0;
#X connect 40 0 13 0;
#X connect 41 0 13 0;
#X connect 42 0 17 0;
#X connect 43 0 17 0;
#X connect 44 0 21 0;
#X connect 45 0 21 0;
#X connect 46 0 25 0;
#X connect 47 0 25 0;
#X connect 48 0 29 0;
#X connect 49 0 29 0;
#X connect 50 0 1 0;
#X connect 51 0 4 0;
#X connect 51 1 50 1;
#X connect 52 0 37 1;
#X connect 53 0 37 0;
#X connect 54 0 57 0;
#X connect 54 0 55 0;
#X connect 56 0 0 0;
#X connect 58 0 56 0;
#X connect 59 0 61 0;
#X connect 60 0 51 0;
#X connect 61 0 64 0;
#X connect 61 1 63 0;
#X connect 61 2 60 0;
#X connect 63 0 51 0;
#X connect 64 0 51 0;
#X connect 65 0 59 0;
#X connect 66 0 65 0;
#X connect 70 0 67 0;
#X connect 71 0 67 1;
#X connect 72 0 67 2;
#X connect 73 0 67 3;
#X connect 74 0 67 4;
#X connect 75 0 67 5;
#X connect 76 0 68 0;
#X connect 77 0 68 1;
#X connect 78 0 68 2;
#X connect 79 0 68 3;
#X connect 80 0 69 0;
#X connect 81 0 69 1;
#X connect 82 0 69 2;
#X connect 83 0 69 3;
#X connect 84 0 69 4;
#X connect 91 0 70 0;
#X connect 92 0 72 0;
#X connect 93 0 74 0;
#X connect 94 0 71 0;
#X connect 95 0 73 0;
#X connect 96 0 75 0;
#X connect 97 0 100 0;
#X connect 98 0 101 0;
#X connect 99 0 102 0;
#X connect 106 0 70 1;
#X connect 106 0 71 1;
#X connect 106 0 72 1;
#X connect 106 0 73 1;
#X connect 106 0 74 1;
#X connect 106 0 75 1;
#X connect 107 0 76 0;
#X connect 108 0 77 0;
#X connect 109 0 78 0;
#X connect 110 0 79 0;
#X connect 111 0 79 1;
#X connect 111 0 78 1;
#X connect 111 0 77 1;
#X connect 111 0 76 1;
#X connect 112 0 80 0;
#X connect 113 0 81 0;
#X connect 114 0 82 0;
#X connect 115 0 83 0;
#X connect 116 0 84 0;
#X connect 117 0 84 1;
#X connect 117 0 83 1;
#X connect 117 0 82 1;
#X connect 117 0 81 1;
#X connect 117 0 80 1;
#X connect 118 0 97 0;
