#N canvas 10 205 976 477 10;
#X obj 38 338 outlet~;
#X obj 151 340 outlet~;
#X obj 263 340 outlet~;
#X obj 373 341 outlet~;
#X obj 480 342 outlet~;
#X obj 587 345 outlet~;
#X obj 150 30 inlet;
#X msg 151 53 bang;
#X obj 564 28 inlet;
#X text 569 9 temperature;
#X floatatom 601 61 5 0 0 0 - - -;
#X obj 150 288 cloudranger~ B;
#X obj 564 82 s \$0-t;
#X obj 95 263 r \$0-t;
#X obj 205 260 r \$0-t;
#X obj 316 259 r \$0-t;
#X obj 427 260 r \$0-t;
#X obj 533 261 r \$0-t;
#X obj 642 260 r \$0-t;
#X obj 479 287 cloudranger~ E;
#X obj 372 287 cloudranger~ D;
#X obj 263 287 cloudranger~ C;
#X obj 39 288 cloudranger~ A;
#X obj 587 286 cloudranger~ F;
#X obj 772 30 inlet;
#X text 770 5 wind;
#X obj 827 31 inlet;
#X text 825 3 rain;
#X obj 688 260 r \$0-w;
#X obj 766 75 s \$0-w;
#X obj 836 76 s \$0-r;
#X obj 736 261 r \$0-r;
#X obj 532 229 r \$0-w;
#X obj 580 230 r \$0-r;
#X obj 427 227 r \$0-w;
#X obj 475 228 r \$0-r;
#X obj 303 231 r \$0-w;
#X obj 351 232 r \$0-r;
#X obj 190 233 r \$0-w;
#X obj 238 234 r \$0-r;
#X obj 83 235 r \$0-w;
#X obj 131 236 r \$0-r;
#X msg 270 114 list -100 32 38 44 50 56 62 68 74 80 999;
#X msg 232 73 list 11 32 38 44 50 56 62 68 74 80 86;
#X msg 242 94 list 20 32 38 44 50 56 62 68 74 80 92;
#X connect 6 0 7 0;
#X connect 7 0 43 0;
#X connect 7 0 44 0;
#X connect 7 0 42 0;
#X connect 8 0 10 0;
#X connect 8 0 12 0;
#X connect 11 0 1 0;
#X connect 13 0 22 3;
#X connect 14 0 11 3;
#X connect 15 0 21 3;
#X connect 16 0 20 3;
#X connect 17 0 19 3;
#X connect 18 0 23 3;
#X connect 19 0 4 0;
#X connect 20 0 3 0;
#X connect 21 0 2 0;
#X connect 22 0 0 0;
#X connect 23 0 5 0;
#X connect 24 0 29 0;
#X connect 26 0 30 0;
#X connect 28 0 23 4;
#X connect 31 0 23 5;
#X connect 32 0 19 4;
#X connect 33 0 19 5;
#X connect 34 0 20 4;
#X connect 35 0 20 5;
#X connect 36 0 21 4;
#X connect 37 0 21 5;
#X connect 38 0 11 4;
#X connect 39 0 11 5;
#X connect 40 0 22 4;
#X connect 41 0 22 5;
#X connect 42 0 11 2;
#X connect 42 0 19 2;
#X connect 42 0 20 2;
#X connect 42 0 21 2;
#X connect 42 0 22 2;
#X connect 42 0 23 2;
#X connect 43 0 11 0;
#X connect 43 0 19 0;
#X connect 43 0 20 0;
#X connect 43 0 21 0;
#X connect 43 0 22 0;
#X connect 43 0 23 0;
#X connect 44 0 11 1;
#X connect 44 0 19 1;
#X connect 44 0 20 1;
#X connect 44 0 21 1;
#X connect 44 0 22 1;
#X connect 44 0 23 1;
