#N canvas 72 65 1012 461 10;
#X obj 177 0 bng 15 250 50 0 empty empty empty 17 7 0 10 -262144 -1
-1;
#X msg 200 0 stop;
#X obj 526 8 bng 15 250 50 0 empty empty empty 17 7 0 10 -262144 -1
-1;
#X msg 547 8 stop;
#X obj 629 2 hsl 128 15 0 127 0 0 empty empty empty -2 -8 0 10 -262144
-1 -1 0 1;
#X obj 282 1 hsl 128 15 0 127 0 0 empty empty empty -2 -8 0 10 -262144
-1 -1 0 1;
#X obj 883 4 bng 15 250 50 0 empty empty empty 17 7 0 10 -262144 -1
-1;
#X msg 904 4 stop;
#X obj 986 -2 hsl 128 15 0 127 0 0 empty empty empty -2 -8 0 10 -262144
-1 -1 0 1;
#X obj 192 357 outlet~;
#X obj 528 352 outlet~;
#X obj 192 67 *~ 0.3;
#X obj 882 59 *~ 0.3;
#X obj 884 361 outlet~;
#X obj 525 68 *~ 0.3;
#X obj 1175 -2 bng 15 250 50 0 empty empty empty 17 7 0 10 -262144
-1 -1;
#X msg 1196 -2 stop;
#X obj 1278 -8 hsl 128 15 0 127 0 0 empty empty empty -2 -8 0 10 -262144
-1 -1 0 1;
#X obj 1174 53 *~ 0.3;
#X obj 1176 355 outlet~;
#X obj 1452 -6 bng 15 250 50 0 empty empty empty 17 7 0 10 -262144
-1 -1;
#X msg 1475 -6 stop;
#X obj 1801 2 bng 15 250 50 0 empty empty empty 17 7 0 10 -262144 -1
-1;
#X msg 1822 2 stop;
#X obj 1904 -4 hsl 128 15 0 127 0 0 empty empty empty -2 -8 0 10 -262144
-1 -1 0 1;
#X obj 1557 -5 hsl 128 15 0 127 0 0 empty empty empty -2 -8 0 10 -262144
-1 -1 0 1;
#X obj 1467 351 outlet~;
#X obj 1803 346 outlet~;
#X obj 1467 61 *~ 0.3;
#X obj 1800 62 *~ 0.3;
#X obj 2147 -7 bng 15 250 50 0 empty empty empty 17 7 0 10 -262144
-1 -1;
#X msg 2170 -7 stop;
#X obj 2496 1 bng 15 250 50 0 empty empty empty 17 7 0 10 -262144 -1
-1;
#X msg 2517 1 stop;
#X obj 2599 -5 hsl 128 15 0 127 0 0 empty empty empty -2 -8 0 10 -262144
-1 -1 0 1;
#X obj 2252 -6 hsl 128 15 0 127 0 0 empty empty empty -2 -8 0 10 -262144
-1 -1 0 1;
#X obj 2162 350 outlet~;
#X obj 2498 345 outlet~;
#X obj 2162 60 *~ 0.3;
#X obj 2495 61 *~ 0.3;
#X obj 192 40 player_c~ sounds/Clouds_57-65_01_L.wav;
#X obj 525 36 player_c~ sounds/Clouds_57-65_01_R.wav;
#X obj 883 32 player_c~ sounds/Clouds_60-65_01_L.wav;
#X obj 1174 26 player_c~ sounds/Clouds_60-65_01_R.wav;
#X obj 1467 34 player_c~ sounds/Clouds_65-70_01_L.wav;
#X obj 1800 30 player_c~ sounds/Clouds_65-70_01_R.wav;
#X obj 2162 33 player_c~ sounds/Clouds_65-70_02_L.wav;
#X obj 2495 29 player_c~ sounds/Clouds_65-70_02_R.wav;
#X connect 0 0 40 0;
#X connect 1 0 40 0;
#X connect 2 0 41 0;
#X connect 3 0 41 0;
#X connect 4 0 41 1;
#X connect 5 0 40 1;
#X connect 6 0 42 0;
#X connect 7 0 42 0;
#X connect 8 0 42 1;
#X connect 11 0 9 0;
#X connect 12 0 13 0;
#X connect 14 0 10 0;
#X connect 15 0 43 0;
#X connect 16 0 43 0;
#X connect 17 0 43 1;
#X connect 18 0 19 0;
#X connect 20 0 44 0;
#X connect 21 0 44 0;
#X connect 22 0 45 0;
#X connect 23 0 45 0;
#X connect 24 0 45 1;
#X connect 25 0 44 1;
#X connect 28 0 26 0;
#X connect 29 0 27 0;
#X connect 30 0 46 0;
#X connect 31 0 46 0;
#X connect 32 0 47 0;
#X connect 33 0 47 0;
#X connect 34 0 47 1;
#X connect 35 0 46 1;
#X connect 38 0 36 0;
#X connect 39 0 37 0;
#X connect 40 0 11 0;
#X connect 41 0 14 0;
#X connect 42 0 12 0;
#X connect 43 0 18 0;
#X connect 44 0 28 0;
#X connect 45 0 29 0;
#X connect 46 0 38 0;
#X connect 47 0 39 0;
