#N canvas 80 52 736 669 10;
#X obj 109 339 *~ 1;
#X obj 315 257 hsl 128 15 0 127 0 0 empty empty empty -2 -8 0 10 -262144
-1 -1 0 1;
#X obj 312 277 jrange 0 127 0 1;
#X obj 389 77 audio_tables_loader;
#X obj 391 52 bng 15 250 50 0 empty empty empty 17 7 0 10 -262144 -1
-1;
#X obj 14 14 hsl 500 15 0 90 0 0 empty empty empty -2 -8 0 10 -204800
-1 -1 0 1;
#X floatatom 36 39 5 0 0 0 - - -, f 5;
#X text 80 37 temp;
#N canvas 174 84 728 518 tempswizzler 0;
#X obj 37 23 inlet;
#X obj 32 488 outlet;
#X restore 104 113 pd tempswizzler;
#X obj 19 70 s temperature;
#X obj 106 191 clouds~ ------;
#X obj 140 340 *~ 1;
#X obj 172 339 *~ 1;
#X obj 204 339 *~ 1;
#X obj 235 338 *~ 1;
#X obj 267 338 *~ 1;
#X obj 113 425 output~ 7 8;
#X obj 205 423 output~ 3 4;
#X obj 297 424 output~ 5 6;
#X obj 162 71 line;
#X msg 160 47 10 \, 85 120000;
#X connect 0 0 16 0;
#X connect 1 0 2 0;
#X connect 2 0 0 1;
#X connect 2 0 11 1;
#X connect 2 0 12 1;
#X connect 2 0 13 1;
#X connect 2 0 14 1;
#X connect 2 0 15 1;
#X connect 4 0 3 0;
#X connect 5 0 6 0;
#X connect 5 0 9 0;
#X connect 10 0 0 0;
#X connect 10 1 11 0;
#X connect 10 2 12 0;
#X connect 10 3 13 0;
#X connect 10 4 14 0;
#X connect 10 5 15 0;
#X connect 11 0 16 1;
#X connect 12 0 17 0;
#X connect 13 0 17 1;
#X connect 14 0 18 0;
#X connect 15 0 18 1;
#X connect 19 0 5 0;
#X connect 20 0 19 0;
