#N canvas 569 135 567 428 10;
#X obj 106 191 clouds~, f 22;
#X obj 129 378 dac~;
#X obj 132 337 *~ 1;
#X obj 173 319 tgl 15 0 empty empty empty 17 7 0 10 -262144 -1 -1 1
1;
#X obj 206 319 hsl 128 15 0 127 0 0 empty empty empty -2 -8 0 10 -262144
-1 -1 0 1;
#X obj 203 339 jrange 0 127 0 1;
#X obj 389 77 audio_tables_loader;
#X obj 391 52 bng 15 250 50 0 empty empty empty 17 7 0 10 -262144 -1
-1;
#X obj 14 14 hsl 500 15 0 90 0 0 empty empty empty -2 -8 0 10 -204800
-1 -1 23400 1;
#X floatatom 36 39 5 0 0 0 - - -, f 5;
#X text 80 37 temp;
#N canvas 461 467 728 518 tempswizzler 0;
#X obj 37 23 inlet;
#X obj 32 488 outlet;
#X restore 104 113 pd tempswizzler;
#X obj 19 70 s temperature;
#X connect 0 0 2 0;
#X connect 0 1 2 0;
#X connect 0 2 2 0;
#X connect 0 3 2 0;
#X connect 0 4 2 0;
#X connect 0 5 2 0;
#X connect 2 0 1 0;
#X connect 2 0 1 1;
#X connect 3 0 2 1;
#X connect 4 0 5 0;
#X connect 5 0 2 1;
#X connect 7 0 6 0;
#X connect 8 0 9 0;
#X connect 8 0 12 0;
