#N canvas 801 168 793 513 10;
#X obj 52 394 outlet~;
#X obj 168 396 outlet~;
#X obj 280 396 outlet~;
#X obj 390 397 outlet~;
#X obj 497 398 outlet~;
#X obj 604 401 outlet~;
#X obj 105 30 r temperature;
#X floatatom 116 56 5 0 0 0 - - -, f 5;
#X msg 268 70 list 11 32 38 44 50 56 62 68 74 80 999;
#X obj 53 240 cloudranger~ A;
#X msg 278 91 list 20 32 38 44 50 56 62 68 74 80 999;
#X msg 306 111 list 0 32 38 44 50 56 62 68 74 80 999;
#X obj 167 238 cloudranger~ B;
#X obj 280 237 cloudranger~ C;
#X obj 389 237 cloudranger~ D;
#X obj 496 240 cloudranger~ E;
#X obj 604 239 cloudranger~ F;
#X connect 6 0 7 0;
#X connect 8 0 9 0;
#X connect 8 0 12 0;
#X connect 8 0 13 0;
#X connect 8 0 14 0;
#X connect 8 0 15 0;
#X connect 8 0 16 0;
#X connect 9 0 0 0;
#X connect 10 0 9 1;
#X connect 10 0 12 1;
#X connect 10 0 13 1;
#X connect 10 0 14 1;
#X connect 10 0 15 1;
#X connect 10 0 16 1;
#X connect 11 0 9 2;
#X connect 11 0 12 2;
#X connect 11 0 13 2;
#X connect 11 0 14 2;
#X connect 11 0 15 2;
#X connect 11 0 16 2;
#X connect 12 0 1 0;
#X connect 13 0 2 0;
#X connect 14 0 3 0;
#X connect 15 0 4 0;
#X connect 16 0 5 0;
