#N canvas 827 198 793 513 10;
#X obj 63 413 outlet~;
#X obj 180 417 outlet~;
#X obj 294 416 outlet~;
#X msg 341 43 Cloud_11-32;
#X msg 341 23 Cloud_32minus;
#X msg 340 64 Cloud_32-38;
#X obj 62 275 cumulo3~ A;
#X msg 341 86 Cloud_38-44;
#X msg 340 109 Cloud_44-50;
#X obj 261 185 s ctemp;
#X msg 341 132 Cloud_50-56;
#X msg 340 154 Cloud_56-62;
#X msg 341 176 Cloud_62-68;
#X obj 62 253 r ctemp;
#X obj 179 254 r ctemp;
#X obj 179 276 cumulo3~ B;
#X obj 294 250 r ctemp;
#X obj 294 272 cumulo3~ C;
#X obj 409 416 outlet~;
#X obj 409 250 r ctemp;
#X obj 515 421 outlet~;
#X obj 515 255 r ctemp;
#X obj 409 272 cumulo3~ D;
#X obj 515 277 cumulo3~ E;
#X obj 623 421 outlet~;
#X obj 623 255 r ctemp;
#X obj 623 277 cumulo3~ F;
#X text 433 50 for testing;
#N canvas 1111 193 656 601 cloudranger 1;
#X obj 37 565 outlet~;
#N canvas 58 164 878 326 loopers 0;
#X obj 87 191 elooper~;
#X obj 154 191 elooper~;
#X obj 222 191 elooper~;
#X obj 287 191 elooper~;
#X obj 353 191 elooper~;
#X obj 417 191 elooper~;
#X obj 484 191 elooper~;
#X obj 552 191 elooper~;
#X obj 617 191 elooper~;
#X obj 683 191 elooper~;
#X restore 48 413 pd loopers Lo;
#X obj 57 150 magic_namer Clouds Lo A;
#X msg 58 74 list -1000 11 32 38 44 50 56 62 68 74 80 1000;
#X connect 3 0 2 0;
#X restore 56 197 pd cloudranger A;
#X connect 3 0 9 0;
#X connect 4 0 9 0;
#X connect 5 0 9 0;
#X connect 6 0 0 0;
#X connect 7 0 9 0;
#X connect 8 0 9 0;
#X connect 10 0 9 0;
#X connect 11 0 9 0;
#X connect 12 0 9 0;
#X connect 13 0 6 0;
#X connect 14 0 15 0;
#X connect 15 0 1 0;
#X connect 16 0 17 0;
#X connect 17 0 2 0;
#X connect 19 0 22 0;
#X connect 21 0 23 0;
#X connect 22 0 18 0;
#X connect 23 0 20 0;
#X connect 25 0 26 0;
#X connect 26 0 24 0;
