#N canvas 817 188 793 513 10;
#X obj 63 413 outlet~;
#X obj 180 417 outlet~;
#X obj 294 416 outlet~;
#X obj 409 416 outlet~;
#X obj 515 421 outlet~;
#X obj 623 421 outlet~;
#N canvas 1140 344 656 601 cloudranger 0;
#X obj 258 524 outlet~;
#X msg 48 79 list 11 32 38 44 50 56 62 68 74 80 999;
#X obj 48 106 magic_namer Cloud Lo A;
#X obj 202 23 inlet;
#X obj 78 286 r temperature;
#X obj 71 136 print Lo;
#X obj 256 304 r temperature;
#X obj 265 175 print Mid;
#X obj 433 358 *~ 0.158489;
#X text 520 360 -16dB;
#X text 309 357 -9dB;
#X obj 222 355 *~ 0.354813;
#X msg 242 118 list 20 32 38 44 50 56 62 68 74 80 999;
#X obj 242 145 magic_namer Cloud Mid A;
#X obj 468 297 r temperature;
#X obj 387 249 print Hi;
#X obj 364 219 magic_namer Cloud Hi A;
#X msg 364 192 list 0 32 38 44 50 56 62 68 74 80 999;
#X obj 51 309 cloud-supercell;
#X obj 222 327 cloud-supercell;
#X obj 434 320 cloud-supercell;
#X connect 1 0 2 0;
#X connect 2 0 5 0;
#X connect 2 0 18 0;
#X connect 4 0 18 1;
#X connect 6 0 19 1;
#X connect 8 0 0 0;
#X connect 11 0 0 0;
#X connect 12 0 13 0;
#X connect 13 0 7 0;
#X connect 13 0 19 0;
#X connect 14 0 20 1;
#X connect 16 0 15 0;
#X connect 16 0 20 0;
#X connect 17 0 16 0;
#X connect 18 0 0 0;
#X connect 19 0 11 0;
#X connect 20 0 8 0;
#X restore 95 208 pd cloudranger A;
#X obj 105 30 r temperature;
#X floatatom 116 56 5 0 0 0 - - -, f 5;
#X msg 59 90 list 11 32 38 44 50 56 62 68 74 80 999;
#X obj 62 167 cloudranger~ A;
#X msg 69 111 list 20 32 38 44 50 56 62 68 74 80 999;
#X msg 97 131 list 0 32 38 44 50 56 62 68 74 80 999;
#X obj 179 254 r ctemp;
#X obj 179 276 cumulo3~ B;
#X obj 294 250 r ctemp;
#X obj 294 272 cumulo3~ C;
#X obj 409 250 r ctemp;
#X obj 515 255 r ctemp;
#X obj 409 272 cumulo3~ D;
#X obj 515 277 cumulo3~ E;
#X obj 623 255 r ctemp;
#X obj 623 277 cumulo3~ F;
#X connect 7 0 8 0;
#X connect 9 0 10 0;
#X connect 10 0 0 0;
#X connect 11 0 10 1;
#X connect 12 0 10 2;
#X connect 13 0 14 0;
#X connect 14 0 1 0;
#X connect 15 0 16 0;
#X connect 16 0 2 0;
#X connect 17 0 19 0;
#X connect 18 0 20 0;
#X connect 19 0 3 0;
#X connect 20 0 4 0;
#X connect 21 0 22 0;
#X connect 22 0 5 0;
