#N canvas 799 166 742 378 10;
#X obj 38 338 outlet~;
#X obj 151 340 outlet~;
#X obj 263 340 outlet~;
#X obj 373 341 outlet~;
#X obj 480 342 outlet~;
#X obj 587 345 outlet~;
#X msg 232 73 list 11 32 38 44 50 56 62 68 74 80 999;
#X msg 242 94 list 20 32 38 44 50 56 62 68 74 80 999;
#X msg 270 114 list 0 32 38 44 50 56 62 68 74 80 999;
#X obj 150 30 inlet;
#X msg 151 53 bang;
#X obj 564 28 inlet;
#X text 569 9 temperature;
#X floatatom 601 61 5 0 0 0 - - -, f 5;
#X obj 479 287 cloudranger~ E;
#X obj 372 287 cloudranger~ D;
#X obj 150 288 cloudranger~ B;
#X obj 263 287 cloudranger~ C;
#X obj 39 288 cloudranger~ A;
#X obj 587 286 cloudranger~ F;
#X obj 564 82 s \$0-t;
#X obj 95 263 r \$0-t;
#X obj 205 260 r \$0-t;
#X obj 316 259 r \$0-t;
#X obj 427 260 r \$0-t;
#X obj 533 261 r \$0-t;
#X obj 642 260 r \$0-t;
#X connect 6 0 14 0;
#X connect 6 0 15 0;
#X connect 6 0 16 0;
#X connect 6 0 17 0;
#X connect 6 0 18 0;
#X connect 6 0 19 0;
#X connect 7 0 14 1;
#X connect 7 0 15 1;
#X connect 7 0 16 1;
#X connect 7 0 17 1;
#X connect 7 0 18 1;
#X connect 7 0 19 1;
#X connect 8 0 14 2;
#X connect 8 0 15 2;
#X connect 8 0 16 2;
#X connect 8 0 17 2;
#X connect 8 0 18 2;
#X connect 8 0 19 2;
#X connect 9 0 10 0;
#X connect 10 0 6 0;
#X connect 10 0 7 0;
#X connect 10 0 8 0;
#X connect 11 0 13 0;
#X connect 11 0 20 0;
#X connect 14 0 4 0;
#X connect 15 0 3 0;
#X connect 16 0 1 0;
#X connect 17 0 2 0;
#X connect 18 0 0 0;
#X connect 19 0 5 0;
#X connect 21 0 18 3;
#X connect 22 0 16 3;
#X connect 23 0 17 3;
#X connect 24 0 15 3;
#X connect 25 0 14 3;
#X connect 26 0 19 3;
