#N canvas 122 282 1180 756 10;
#X obj 109 461 catch~ c2;
#X obj 178 461 catch~ c3;
#X obj 247 461 catch~ c4;
#X obj 316 462 catch~ c5;
#X obj 385 462 catch~ c6;
#X obj 40 461 catch~ c1;
#X obj 80 438 r cc1;
#X obj 148 440 r cc2;
#X obj 217 439 r cc3;
#X obj 286 439 r cc4;
#X obj 354 440 r cc5;
#X obj 423 439 r cc6;
#X obj 84 60 audio_tables_loader;
#X obj 84 34 bng 15 250 50 0 empty empty empty 17 7 0 10 -262144 -1
-1;
#X obj 72 209 rain;
#X obj 72 134 bng 15 250 50 0 empty empty empty 17 7 0 10 -262144 -1
-1;
#X obj 41 490 *~ 0.8;
#X obj 109 490 *~ 0.8;
#X obj 178 490 *~ 0.8;
#X obj 247 489 *~ 0.8;
#X obj 316 488 *~ 0.8;
#X obj 385 488 *~ 0.8;
#X obj 176 209 wind;
#X obj 409 42 fake_weather;
#X obj 456 488 *~ 0.8;
#X obj 532 490 *~ 0.8;
#X obj 607 492 *~ 0.8;
#X obj 676 492 *~ 0.8;
#X obj 747 487 *~ 0.8;
#X obj 826 492 *~ 0.8;
#X obj 903 489 *~ 0.8;
#X obj 979 488 *~ 0.8;
#X obj 1054 486 *~ 0.8;
#X obj 455 462 catch~ c7;
#X obj 495 440 r cc7;
#X obj 571 440 r cc8;
#X obj 532 463 catch~ c8;
#X obj 646 442 r cc9;
#X obj 606 464 catch~ c9;
#X obj 715 443 r cc10;
#X obj 677 465 catch~ c10;
#X obj 747 465 catch~ c11;
#X obj 827 463 catch~ c12;
#X obj 903 460 catch~ c13;
#X obj 979 460 catch~ c14;
#X obj 1054 460 catch~ c15;
#X obj 785 442 r cc11;
#X obj 865 435 r cc12;
#X obj 942 428 r cc13;
#X obj 1018 428 r cc14;
#X obj 1093 426 r cc15;
#N canvas 481 333 450 300 switch 0;
#X obj 119 -51 spigot;
#X obj 173 -48 spigot;
#X obj 104 -101 inlet;
#X obj 190 -101 inlet;
#X obj 101 17 outlet;
#X obj 176 24 outlet;
#X obj 253 -96 tgl 15 0 empty empty empty 17 7 0 10 -262144 -1 -1 1
1;
#X obj 236 -68 sel 0 1;
#X msg 234 -37 1;
#X msg 265 -37 0;
#X obj 249 -120 inlet;
#X connect 0 0 4 0;
#X connect 1 0 5 0;
#X connect 2 0 1 0;
#X connect 3 0 0 0;
#X connect 6 0 0 1;
#X connect 6 0 7 0;
#X connect 7 0 8 0;
#X connect 7 1 9 0;
#X connect 8 0 1 1;
#X connect 9 0 1 1;
#X connect 10 0 6 0;
#X restore 351 75 pd switch;
#X obj 322 41 microserver;
#X obj 426 70 hradio 15 1 0 2 empty empty empty 0 -8 0 10 -262144 -1
-1 1;
#X obj 277 222 vsun~;
#X obj 511 41 bng 15 250 50 0 empty empty empty 17 7 0 10 -262144 -1
-1;
#X obj 511 66 s audio_on;
#X text 298 202 sun;
#X obj 41 527 output~ 1;
#X obj 179 527 output~ 3;
#X obj 248 527 output~ 4;
#X obj 110 527 output~ 2;
#X obj 317 527 output~ 5;
#X obj 386 527 output~ 6;
#X obj 455 527 output~ 7;
#X obj 533 527 output~ 8;
#X obj 608 527 output~ 7;
#X obj 677 527 output~ 8;
#X obj 746 527 output~ 11;
#X obj 827 527 output~ 12;
#X obj 903 527 output~ 13;
#X obj 979 527 output~ 14;
#X obj 1055 527 output~ 15;
#X obj 820 219 vclouds~;
#X connect 0 0 17 0;
#X connect 1 0 18 0;
#X connect 2 0 19 0;
#X connect 3 0 20 0;
#X connect 4 0 21 0;
#X connect 5 0 16 0;
#X connect 6 0 16 1;
#X connect 7 0 17 1;
#X connect 8 0 18 1;
#X connect 9 0 19 1;
#X connect 10 0 20 1;
#X connect 11 0 21 1;
#X connect 13 0 12 0;
#X connect 15 0 14 0;
#X connect 15 0 22 0;
#X connect 15 0 54 0;
#X connect 15 0 73 0;
#X connect 16 0 58 0;
#X connect 17 0 61 0;
#X connect 18 0 59 0;
#X connect 19 0 60 0;
#X connect 20 0 62 0;
#X connect 21 0 63 0;
#X connect 23 0 51 1;
#X connect 24 0 64 0;
#X connect 25 0 65 0;
#X connect 26 0 66 0;
#X connect 27 0 67 0;
#X connect 28 0 68 0;
#X connect 29 0 69 0;
#X connect 30 0 70 0;
#X connect 31 0 71 0;
#X connect 32 0 72 0;
#X connect 33 0 24 0;
#X connect 34 0 24 1;
#X connect 35 0 25 1;
#X connect 36 0 25 0;
#X connect 37 0 26 1;
#X connect 38 0 26 0;
#X connect 39 0 27 1;
#X connect 40 0 27 0;
#X connect 41 0 28 0;
#X connect 42 0 29 0;
#X connect 43 0 30 0;
#X connect 44 0 31 0;
#X connect 45 0 32 0;
#X connect 46 0 28 1;
#X connect 47 0 29 1;
#X connect 48 0 30 1;
#X connect 49 0 31 1;
#X connect 50 0 32 1;
#X connect 51 0 14 1;
#X connect 51 0 22 1;
#X connect 51 0 54 1;
#X connect 51 0 73 1;
#X connect 51 1 22 1;
#X connect 51 1 14 1;
#X connect 51 1 54 1;
#X connect 51 1 73 1;
#X connect 52 0 51 0;
#X connect 53 0 51 2;
#X connect 55 0 56 0;
