#N canvas 0 185 971 606 10;
#X declare -lib mrpeach;
#X declare -lib mrpeach;
#X obj 109 461 catch~ c2;
#X obj 178 461 catch~ c3;
#X obj 247 461 catch~ c4;
#X obj 316 462 catch~ c5;
#X obj 385 462 catch~ c6;
#X obj 40 461 catch~ c1;
#X obj 80 438 r cc1;
#X obj 148 440 r cc2;
#X obj 217 439 r cc3;
#X obj 286 439 r cc4;
#X obj 354 440 r cc5;
#X obj 423 439 r cc6;
#X obj 48 58 audio_tables_loader;
#X obj 48 32 bng 15 250 50 0 empty empty empty 17 7 0 10 -262144 -1
-1;
#X obj 72 209 rain;
#X obj 72 134 bng 15 250 50 0 empty empty empty 17 7 0 10 -262144 -1
-1;
#X obj 176 209 wind;
#X obj 409 42 fake_weather;
#X obj 455 462 catch~ c7;
#X obj 495 440 r cc7;
#X obj 571 440 r cc8;
#X obj 532 463 catch~ c8;
#X obj 646 442 r cc9;
#X obj 606 464 catch~ c9;
#X obj 715 443 r cc10;
#X obj 677 465 catch~ c10;
#X obj 747 465 catch~ c11;
#X obj 827 463 catch~ c12;
#X obj 903 462 catch~ c13;
#X obj 979 462 catch~ c14;
#X obj 1054 462 catch~ c15;
#X obj 785 442 r cc11;
#X obj 865 435 r cc12;
#X obj 942 437 r cc13;
#X obj 1018 437 r cc14;
#X obj 1093 435 r cc15;
#N canvas 479 331 319 300 switch 0;
#X obj 51 183 spigot;
#X obj 123 186 spigot;
#X obj 48 40 inlet;
#X obj 112 40 inlet;
#X obj 51 207 outlet;
#X obj 123 208 outlet;
#X obj 178 76 tgl 15 0 empty empty empty 17 7 0 10 -262144 -1 -1 0
1;
#X obj 178 100 sel 0 1;
#X msg 178 131 1;
#X msg 211 132 0;
#X obj 178 40 inlet;
#X connect 0 0 4 0;
#X connect 1 0 5 0;
#X connect 2 0 1 0;
#X connect 3 0 0 0;
#X connect 6 0 0 1;
#X connect 6 0 7 0;
#X connect 7 0 8 0;
#X connect 7 1 9 0;
#X connect 8 0 1 1;
#X connect 9 0 1 1;
#X connect 10 0 6 0;
#X restore 351 75 pd switch;
#X obj 351 -2 microserver;
#X obj 424 70 hradio 15 1 0 2 empty empty empty 0 -8 0 10 -262144 -1
-1 0;
#X obj 277 222 vsun~;
#X obj 216 33 bng 15 250 50 0 empty empty empty 17 7 0 10 -262144 -1
-1;
#X obj 216 58 s audio_on;
#X text 298 202 sun;
#X obj 820 221 vclouds~;
#X obj 820 176 bng 15 250 50 0 empty empty empty 17 7 0 10 -262144
-1 -1;
#X obj 302 184 bng 15 250 50 0 empty empty empty 17 7 0 10 -262144
-1 -1;
#X obj 39 590 output~ 1;
#X text 837 175 clouds;
#X text 66 117 all;
#X obj 87 185 bng 15 250 50 0 empty empty empty 17 7 0 10 -262144 -1
-1;
#X obj 180 172 bng 15 250 50 0 empty empty empty 17 7 0 10 -262144
-1 -1;
#N canvas 4 4 522 317 weather_monitor 0;
#X obj 359 15 inlet;
#X obj 287 72 route /mtTemp1;
#X obj 386 71 route /mtSolarRadiation;
#X obj 201 103 cnv 15 200 87 empty empty empty 20 12 0 14 -240766 -66577
0;
#X obj 236 113 hsl 120 15 0 10 0 0 empty empty empty -2 -8 0 10 -204800
-1 -1 0 1;
#X obj 235 133 hsl 120 15 0 115 0 0 empty empty empty -2 -8 0 10 -204800
-1 -1 5764 1;
#X text 202 132 temp;
#X obj 234 152 hsl 120 15 0 1500 0 0 empty empty empty -2 -8 0 10 -204800
-1 -1 16 1;
#X obj 534 73 route /mt2MinRollAvgWindSpeed;
#X obj 234 171 hsl 120 15 0 20 0 0 empty empty empty -2 -8 0 10 -204800
-1 -1 1726 1;
#X text 201 114 rain;
#X text 201 171 wind;
#X text 201 151 solr;
#X floatatom 363 115 5 0 0 0 - - -;
#X floatatom 363 134 5 0 0 0 - - -;
#X floatatom 363 152 5 0 0 0 - - -;
#X floatatom 363 171 5 0 0 0 - - -;
#X obj 152 33 route /mtRainToday;
#X floatatom 73 102 5 0 0 0 - - -;
#X obj 152 59 rain_averager;
#X floatatom 20 49 5 0 0 0 - - -;
#X obj 20 16 route /mtRainRate;
#X floatatom 130 102 5 0 0 0 - - -;
#X connect 0 0 1 0;
#X connect 0 0 2 0;
#X connect 0 0 8 0;
#X connect 0 0 17 0;
#X connect 0 0 21 0;
#X connect 1 0 5 0;
#X connect 2 0 7 0;
#X connect 4 0 13 0;
#X connect 5 0 14 0;
#X connect 7 0 15 0;
#X connect 8 0 9 0;
#X connect 9 0 16 0;
#X connect 17 0 18 0;
#X connect 17 0 19 0;
#X connect 19 0 22 0;
#X connect 21 0 20 0;
#X connect 21 0 4 0;
#X coords 0 -1 1 1 202 92 1 200 100;
#X restore 602 42 pd weather_monitor;
#X obj 466 64 loadbang;
#X obj 465 84 0;
#X obj 49 82 t b b;
#X obj 70 28 loadbang;
#N canvas 68 199 325 320 zonevol 0;
#X obj 21 59 udpreceive 9009;
#X obj 21 88 unpackOSC;
#X obj 171 23 import mrpeach;
#X obj 21 111 routeOSC /zone1 /zone2 /zone3;
#X floatatom 29 139 5 0 0 0 - - -;
#X floatatom 86 137 5 0 0 0 - - -;
#X floatatom 138 139 5 0 0 0 - - -;
#X obj 21 260 s z1_vol;
#X obj 78 260 s z2_vol;
#X obj 135 259 s z3_vol;
#X obj 21 171 jrange 0 100 0 1;
#X obj 78 195 jrange 0 100 0 1;
#X obj 135 221 jrange 0 100 0 1;
#X connect 0 0 1 0;
#X connect 1 0 3 0;
#X connect 3 0 4 0;
#X connect 3 0 10 0;
#X connect 3 1 5 0;
#X connect 3 1 11 0;
#X connect 3 2 6 0;
#X connect 3 2 12 0;
#X connect 10 0 7 0;
#X connect 11 0 8 0;
#X connect 12 0 9 0;
#X restore 437 0 pd zonevol;
#X obj 40 537 zonevol z1_vol;
#X obj 109 517 zonevol z1_vol;
#X obj 177 541 zonevol z1_vol;
#X obj 245 519 zonevol z1_vol;
#X obj 316 545 zonevol z1_vol;
#X obj 384 520 zonevol z1_vol;
#X obj 676 525 zonevol z2_vol;
#X obj 608 550 zonevol z2_vol;
#X obj 532 524 zonevol z2_vol;
#X obj 456 546 zonevol z2_vol;
#X obj 745 556 zonevol z3_vol;
#X obj 826 532 zonevol z3_vol;
#X obj 903 552 zonevol z3_vol;
#X obj 979 526 zonevol z3_vol;
#X obj 1052 552 zonevol z3_vol;
#X obj 41 490 *~ 1;
#X obj 109 490 *~ 1;
#X obj 178 490 *~ 1;
#X obj 247 489 *~ 1;
#X obj 316 488 *~ 1;
#X obj 385 488 *~ 1;
#X obj 456 488 *~ 1;
#X obj 532 490 *~ 1;
#X obj 607 492 *~ 1;
#X obj 676 492 *~ 1;
#X obj 747 487 *~ 1;
#X obj 826 492 *~ 1;
#X obj 903 491 *~ 1;
#X obj 979 490 *~ 1;
#X obj 1054 488 *~ 1;
#X obj 384 590 output~ 6;
#X obj 177 590 output~ 3;
#X obj 246 590 output~ 4;
#X obj 108 590 output~ 2;
#X obj 315 590 output~ 5;
#X obj 455 590 output~ 7;
#X obj 533 590 output~ 8;
#X obj 746 590 output~ 11;
#X obj 827 590 output~ 12;
#X obj 903 590 output~ 13;
#X obj 979 590 output~ 14;
#X obj 1055 590 output~ 15;
#X obj 608 590 output~ 9;
#X obj 677 590 output~ 10;
#N canvas 185 123 450 300 table_quieters 1;
#N canvas 10 30 682 552 cloud_50-56_quieters 1;
#X obj 45 83 table_scaler;
#X obj 171 82 table_scaler;
#X obj 60 196 table_scaler;
#X obj 188 194 table_scaler;
#X obj 319 126 table_scaler;
#X obj 322 218 table_scaler;
#X obj 21 -7 bng 15 250 50 0 empty empty empty 17 7 0 10 -262144 -1
-1;
#X floatatom 477 26 5 0 0 0 - - -;
#X obj 69 354 table_scaler;
#X msg 59 294 Cloud_50-56_Lo_A;
#X obj 195 353 table_scaler;
#X obj 84 467 table_scaler;
#X obj 212 465 table_scaler;
#X obj 343 397 table_scaler;
#X msg 185 293 Cloud_50-56_Lo_B;
#X msg 74 407 Cloud_50-56_Lo_C;
#X msg 202 405 Cloud_50-56_Lo_D;
#X msg 333 337 Cloud_50-56_Lo_E;
#X obj 346 489 table_scaler;
#X msg 336 428 Cloud_50-56_Lo_F;
#X obj 45 264 bng 15 250 50 0 empty empty empty 17 7 0 10 -262144 -1
-1;
#X floatatom 501 297 5 0 0 0 - - -;
#X msg 35 23 Cloud_50-56_Mid_A;
#X msg 161 23 Cloud_50-56_Mid_B;
#X msg 309 66 Cloud_50-56_Mid_E;
#X msg 50 136 Cloud_50-56_Mid_C;
#X msg 178 134 Cloud_50-56_Mid_D;
#X msg 312 157 Cloud_50-56_Mid_F;
#X connect 6 0 22 0;
#X connect 6 0 23 0;
#X connect 6 0 25 0;
#X connect 6 0 26 0;
#X connect 6 0 24 0;
#X connect 6 0 27 0;
#X connect 7 0 4 1;
#X connect 7 0 5 1;
#X connect 7 0 3 1;
#X connect 7 0 2 1;
#X connect 7 0 1 1;
#X connect 7 0 0 1;
#X connect 9 0 8 0;
#X connect 14 0 10 0;
#X connect 15 0 11 0;
#X connect 16 0 12 0;
#X connect 17 0 13 0;
#X connect 19 0 18 0;
#X connect 20 0 9 0;
#X connect 20 0 14 0;
#X connect 20 0 15 0;
#X connect 20 0 16 0;
#X connect 20 0 17 0;
#X connect 20 0 19 0;
#X connect 21 0 13 1;
#X connect 21 0 18 1;
#X connect 21 0 12 1;
#X connect 21 0 11 1;
#X connect 21 0 10 1;
#X connect 21 0 8 1;
#X connect 22 0 0 0;
#X connect 23 0 1 0;
#X connect 24 0 4 0;
#X connect 25 0 2 0;
#X connect 26 0 3 0;
#X connect 27 0 5 0;
#X restore 165 121 pd cloud_50-56_quieters;
#X restore 158 122 pd table_quieters;
#X connect 0 0 73 0;
#X connect 1 0 74 0;
#X connect 2 0 75 0;
#X connect 3 0 76 0;
#X connect 4 0 77 0;
#X connect 5 0 72 0;
#X connect 6 0 72 1;
#X connect 7 0 73 1;
#X connect 8 0 74 1;
#X connect 9 0 75 1;
#X connect 10 0 76 1;
#X connect 11 0 77 1;
#X connect 12 0 54 0;
#X connect 13 0 12 0;
#X connect 15 0 14 0;
#X connect 15 0 16 0;
#X connect 15 0 39 0;
#X connect 15 0 43 0;
#X connect 17 0 36 1;
#X connect 18 0 78 0;
#X connect 19 0 78 1;
#X connect 20 0 79 1;
#X connect 21 0 79 0;
#X connect 22 0 80 1;
#X connect 23 0 80 0;
#X connect 24 0 81 1;
#X connect 25 0 81 0;
#X connect 26 0 82 0;
#X connect 27 0 83 0;
#X connect 28 0 84 0;
#X connect 29 0 85 0;
#X connect 30 0 86 0;
#X connect 31 0 82 1;
#X connect 32 0 83 1;
#X connect 33 0 84 1;
#X connect 34 0 85 1;
#X connect 35 0 86 1;
#X connect 36 0 16 1;
#X connect 36 0 39 1;
#X connect 36 0 43 1;
#X connect 36 0 14 1;
#X connect 36 1 16 1;
#X connect 36 1 39 1;
#X connect 36 1 43 1;
#X connect 36 1 14 1;
#X connect 37 0 36 0;
#X connect 37 0 51 0;
#X connect 38 0 36 2;
#X connect 40 0 41 0;
#X connect 44 0 43 0;
#X connect 45 0 39 0;
#X connect 49 0 14 0;
#X connect 50 0 16 0;
#X connect 52 0 53 0;
#X connect 53 0 38 0;
#X connect 54 0 40 0;
#X connect 54 1 15 0;
#X connect 55 0 12 0;
#X connect 57 0 46 0;
#X connect 58 0 90 0;
#X connect 59 0 88 0;
#X connect 60 0 89 0;
#X connect 61 0 91 0;
#X connect 62 0 87 0;
#X connect 63 0 100 0;
#X connect 64 0 99 0;
#X connect 65 0 93 0;
#X connect 66 0 92 0;
#X connect 67 0 94 0;
#X connect 68 0 95 0;
#X connect 69 0 96 0;
#X connect 70 0 97 0;
#X connect 71 0 98 0;
#X connect 72 0 57 0;
#X connect 73 0 58 0;
#X connect 74 0 59 0;
#X connect 75 0 60 0;
#X connect 76 0 61 0;
#X connect 77 0 62 0;
#X connect 78 0 66 0;
#X connect 79 0 65 0;
#X connect 80 0 64 0;
#X connect 81 0 63 0;
#X connect 82 0 67 0;
#X connect 83 0 68 0;
#X connect 84 0 69 0;
#X connect 85 0 70 0;
#X connect 86 0 71 0;
