#N canvas 494 47 1068 717 10;
#X declare -lib mrpeach;
#X declare -lib mrpeach;
#X obj 48 58 audio_tables_loader;
#X obj 48 32 bng 15 250 50 0 empty empty empty 17 7 0 10 -262144 -1
-1;
#X obj 72 134 bng 15 250 50 0 empty empty empty 17 7 0 10 -262144 -1
-1;
#X obj 409 42 fake_weather;
#X obj 455 462 catch~ c7;
#X obj 495 440 r cc7;
#X obj 571 440 r cc8;
#X obj 532 463 catch~ c8;
#N canvas 479 331 319 300 switch 0;
#X obj 51 183 spigot;
#X obj 123 186 spigot;
#X obj 48 40 inlet;
#X obj 112 40 inlet;
#X obj 51 207 outlet;
#X obj 123 208 outlet;
#X obj 178 76 tgl 15 0 empty empty empty 17 7 0 10 -262144 -1 -1 1
1;
#X obj 178 100 sel 0 1;
#X msg 178 131 1;
#X msg 211 132 0;
#X obj 178 40 inlet;
#X connect 0 0 4 0;
#X connect 1 0 5 0;
#X connect 2 0 1 0;
#X connect 3 0 0 0;
#X connect 6 0 0 1;
#X connect 6 0 7 0;
#X connect 7 0 8 0;
#X connect 7 1 9 0;
#X connect 8 0 1 1;
#X connect 9 0 1 1;
#X connect 10 0 6 0;
#X restore 351 75 pd switch;
#X obj 351 -2 microserver;
#X obj 424 71 hradio 15 1 0 2 empty empty empty 0 -8 0 10 -262144 -1
-1 1;
#X obj 277 222 vsun~;
#X obj 216 33 bng 15 250 50 0 empty empty empty 17 7 0 10 -262144 -1
-1;
#X obj 216 58 s audio_on;
#X text 298 202 sun;
#X obj 820 221 vclouds~;
#X obj 820 176 bng 15 250 50 0 empty empty empty 17 7 0 10 -262144
-1 -1;
#X obj 302 184 bng 15 250 50 0 empty empty empty 17 7 0 10 -262144
-1 -1;
#X text 837 175 clouds;
#X text 66 117 all;
#X obj 87 185 bng 15 250 50 0 empty empty empty 17 7 0 10 -262144 -1
-1;
#X obj 180 172 bng 15 250 50 0 empty empty empty 17 7 0 10 -262144
-1 -1;
#N canvas 4 22 522 317 weather_monitor 0;
#X obj 359 15 inlet;
#X obj 287 72 route /mtTemp1;
#X obj 386 71 route /mtSolarRadiation;
#X obj 201 103 cnv 15 200 87 empty empty empty 20 12 0 14 -240766 -66577
0;
#X obj 236 113 hsl 120 15 0 10 0 0 empty empty empty -2 -8 0 10 -204800
-1 -1 0 1;
#X obj 235 133 hsl 120 15 0 115 0 0 empty empty empty -2 -8 0 10 -204800
-1 -1 0 1;
#X text 202 132 temp;
#X obj 234 152 hsl 120 15 0 1500 0 0 empty empty empty -2 -8 0 10 -204800
-1 -1 0 1;
#X obj 534 73 route /mt2MinRollAvgWindSpeed;
#X obj 234 171 hsl 120 15 0 20 0 0 empty empty empty -2 -8 0 10 -204800
-1 -1 0 1;
#X text 201 114 rain;
#X text 201 171 wind;
#X text 201 151 solr;
#X floatatom 363 115 5 0 0 0 - - -;
#X floatatom 363 134 5 0 0 0 - - -;
#X floatatom 363 152 5 0 0 0 - - -;
#X floatatom 363 171 5 0 0 0 - - -;
#X obj 152 33 route /mtRainToday;
#X floatatom 73 102 5 0 0 0 - - -;
#X obj 152 59 rain_averager;
#X floatatom 20 49 5 0 0 0 - - -;
#X obj 20 16 route /mtRainRate;
#X floatatom 130 102 5 0 0 0 - - -;
#X connect 0 0 1 0;
#X connect 0 0 2 0;
#X connect 0 0 8 0;
#X connect 0 0 17 0;
#X connect 0 0 21 0;
#X connect 1 0 5 0;
#X connect 2 0 7 0;
#X connect 4 0 13 0;
#X connect 5 0 14 0;
#X connect 7 0 15 0;
#X connect 8 0 9 0;
#X connect 9 0 16 0;
#X connect 17 0 18 0;
#X connect 17 0 19 0;
#X connect 19 0 22 0;
#X connect 21 0 20 0;
#X connect 21 0 4 0;
#X coords 0 -1 1 1 202 92 1 200 100;
#X restore 602 42 pd weather_monitor;
#X obj 466 64 loadbang;
#X obj 48 78 t b b;
#X obj 70 28 loadbang;
#N canvas 675 73 325 320 zonevol 0;
#X obj 21 88 unpackOSC;
#X obj 171 23 import mrpeach;
#X obj 21 111 routeOSC /zone1 /zone2 /zone3;
#X floatatom 29 139 5 0 0 0 - - -;
#X floatatom 86 137 5 0 0 0 - - -;
#X floatatom 138 139 5 0 0 0 - - -;
#X obj 21 260 s z1_vol;
#X obj 78 260 s z2_vol;
#X obj 135 259 s z3_vol;
#X obj 21 171 jrange 0 100 0 1;
#X obj 78 195 jrange 0 100 0 1;
#X obj 135 221 jrange 0 100 0 1;
#X obj 104 87 print;
#X obj 21 59 udpreceive 8008;
#X connect 0 0 2 0;
#X connect 0 0 12 0;
#X connect 2 0 3 0;
#X connect 2 0 9 0;
#X connect 2 1 4 0;
#X connect 2 1 10 0;
#X connect 2 2 5 0;
#X connect 2 2 11 0;
#X connect 9 0 6 0;
#X connect 10 0 7 0;
#X connect 11 0 8 0;
#X connect 13 0 0 0;
#X restore 437 0 pd zonevol;
#X obj 532 524 zonevol z2_vol;
#X obj 435 524 zonevol z2_vol;
#X obj 456 488 *~ 1;
#X obj 532 490 *~ 1;
#N canvas 40 22 1101 613 table_quieters 0;
#X obj 170 84 bng 15 250 50 0 empty empty empty 17 7 0 10 -262144 -1
-1;
#X obj 375 188 +;
#X obj 330 188 f;
#X obj 333 159 t f b;
#X floatatom 409 207 5 0 0 0 - - -;
#X msg 428 151 0;
#X obj 204 191 +;
#X obj 159 191 f;
#X obj 162 162 t f b;
#X floatatom 238 210 5 0 0 0 - - -;
#X msg 257 154 0;
#X obj 542 89 bng 15 250 50 0 empty empty empty 17 7 0 10 -262144 -1
-1;
#X obj 747 193 +;
#X obj 702 193 f;
#X obj 705 164 t f b;
#X floatatom 781 212 5 0 0 0 - - -;
#X msg 800 156 0;
#X obj 576 196 +;
#X obj 531 196 f;
#X obj 534 167 t f b;
#X floatatom 610 215 5 0 0 0 - - -;
#X msg 629 159 0;
#X obj 167 287 bng 15 250 50 0 empty empty empty 17 7 0 10 -262144
-1 -1;
#X obj 372 391 +;
#X obj 327 391 f;
#X obj 330 362 t f b;
#X floatatom 406 410 5 0 0 0 - - -;
#X msg 425 354 0;
#X obj 201 394 +;
#X obj 156 394 f;
#X obj 159 365 t f b;
#X floatatom 235 413 5 0 0 0 - - -;
#X msg 254 357 0;
#X obj 539 292 bng 15 250 50 0 empty empty empty 17 7 0 10 -262144
-1 -1;
#X obj 744 396 +;
#X obj 699 396 f;
#X obj 702 367 t f b;
#X obj 573 399 +;
#X obj 528 399 f;
#X obj 531 370 t f b;
#X floatatom 607 418 5 0 0 0 - - -;
#X msg 626 362 0;
#X obj 152 453 bng 15 250 50 0 empty empty empty 17 7 0 10 -262144
-1 -1;
#X obj 357 557 +;
#X obj 312 557 f;
#X obj 315 528 t f b;
#X floatatom 391 576 5 0 0 0 - - -;
#X msg 410 520 0;
#X obj 186 560 +;
#X obj 141 560 f;
#X obj 144 531 t f b;
#X floatatom 220 579 5 0 0 0 - - -;
#X msg 239 523 0;
#X obj 524 458 bng 15 250 50 0 empty empty empty 17 7 0 10 -262144
-1 -1;
#X obj 729 562 +;
#X obj 684 562 f;
#X obj 687 533 t f b;
#X floatatom 763 581 5 0 0 0 - - -;
#X msg 782 525 0;
#X obj 558 565 +;
#X obj 513 565 f;
#X obj 516 536 t f b;
#X floatatom 592 584 5 0 0 0 - - -;
#X msg 611 528 0;
#X obj 165 123 cloud-table-scalers 50 56 0 -5;
#X obj 538 127 cloud-table-scalers 56 62 -5 0;
#X obj 162 325 cloud-table-scalers 62 68 0 -5;
#X floatatom 746 420 5 0 0 0 - - -;
#X obj 534 331 cloud-table-scalers 68 74 -2 -5;
#X obj 147 492 cloud-table-scalers 74 80 0 -4;
#X obj 519 496 cloud-table-scalers 80 86 -2 -5;
#X obj 126 15 r tables_loaded;
#X connect 0 0 64 0;
#X connect 1 0 4 0;
#X connect 1 0 2 1;
#X connect 2 0 1 1;
#X connect 3 0 1 0;
#X connect 3 1 2 0;
#X connect 5 0 2 1;
#X connect 5 0 3 0;
#X connect 6 0 9 0;
#X connect 6 0 7 1;
#X connect 7 0 6 1;
#X connect 8 0 6 0;
#X connect 8 1 7 0;
#X connect 10 0 7 1;
#X connect 10 0 8 0;
#X connect 11 0 65 0;
#X connect 12 0 15 0;
#X connect 12 0 13 1;
#X connect 13 0 12 1;
#X connect 14 0 12 0;
#X connect 14 1 13 0;
#X connect 16 0 13 1;
#X connect 16 0 14 0;
#X connect 17 0 20 0;
#X connect 17 0 18 1;
#X connect 18 0 17 1;
#X connect 19 0 17 0;
#X connect 19 1 18 0;
#X connect 21 0 18 1;
#X connect 21 0 19 0;
#X connect 22 0 66 0;
#X connect 23 0 26 0;
#X connect 23 0 24 1;
#X connect 24 0 23 1;
#X connect 25 0 23 0;
#X connect 25 1 24 0;
#X connect 27 0 24 1;
#X connect 27 0 25 0;
#X connect 28 0 31 0;
#X connect 28 0 29 1;
#X connect 29 0 28 1;
#X connect 30 0 28 0;
#X connect 30 1 29 0;
#X connect 32 0 29 1;
#X connect 32 0 30 0;
#X connect 33 0 68 0;
#X connect 34 0 35 1;
#X connect 34 0 67 0;
#X connect 35 0 34 1;
#X connect 36 0 34 0;
#X connect 36 1 35 0;
#X connect 37 0 40 0;
#X connect 37 0 38 1;
#X connect 38 0 37 1;
#X connect 39 0 37 0;
#X connect 39 1 38 0;
#X connect 41 0 38 1;
#X connect 41 0 39 0;
#X connect 42 0 69 0;
#X connect 43 0 46 0;
#X connect 43 0 44 1;
#X connect 44 0 43 1;
#X connect 45 0 43 0;
#X connect 45 1 44 0;
#X connect 47 0 44 1;
#X connect 47 0 45 0;
#X connect 48 0 51 0;
#X connect 48 0 49 1;
#X connect 49 0 48 1;
#X connect 50 0 48 0;
#X connect 50 1 49 0;
#X connect 52 0 49 1;
#X connect 52 0 50 0;
#X connect 53 0 70 0;
#X connect 54 0 57 0;
#X connect 54 0 55 1;
#X connect 55 0 54 1;
#X connect 56 0 54 0;
#X connect 56 1 55 0;
#X connect 58 0 55 1;
#X connect 58 0 56 0;
#X connect 59 0 62 0;
#X connect 59 0 60 1;
#X connect 60 0 59 1;
#X connect 61 0 59 0;
#X connect 61 1 60 0;
#X connect 63 0 60 1;
#X connect 63 0 61 0;
#X connect 64 0 8 0;
#X connect 64 1 3 0;
#X connect 65 0 19 0;
#X connect 65 1 14 0;
#X connect 66 0 30 0;
#X connect 66 1 25 0;
#X connect 68 0 39 0;
#X connect 68 1 36 0;
#X connect 69 0 50 0;
#X connect 69 1 45 0;
#X connect 70 0 61 0;
#X connect 70 1 56 0;
#X connect 71 0 0 0;
#X connect 71 0 11 0;
#X connect 71 0 22 0;
#X connect 71 0 33 0;
#X connect 71 0 42 0;
#X connect 71 0 53 0;
#X restore 158 122 pd table_quieters;
#X obj 48 99 s tables_loaded;
#X obj 176 208 wind_stereo;
#X obj 72 209 rain_stereo;
#X obj 465 84 1;
#X obj 399 580 output_demo~ 1;
#X obj 550 576 output_demo~ 2;
#X msg 136 440 open ~/Desktop/weather_film/test1.wav;
#X obj 169 616 writesf~ 2;
#X msg 186 514 start;
#X msg 202 540 stop;
#X connect 0 0 24 0;
#X connect 1 0 0 0;
#X connect 2 0 11 0;
#X connect 2 0 15 0;
#X connect 2 0 33 0;
#X connect 2 0 34 0;
#X connect 3 0 8 1;
#X connect 4 0 29 0;
#X connect 5 0 29 1;
#X connect 6 0 30 1;
#X connect 7 0 30 0;
#X connect 8 0 11 1;
#X connect 8 0 15 1;
#X connect 8 0 33 1;
#X connect 8 0 34 1;
#X connect 8 1 11 1;
#X connect 8 1 15 1;
#X connect 8 1 33 1;
#X connect 8 1 34 1;
#X connect 9 0 8 0;
#X connect 9 0 22 0;
#X connect 10 0 8 2;
#X connect 12 0 13 0;
#X connect 16 0 15 0;
#X connect 17 0 11 0;
#X connect 20 0 34 0;
#X connect 21 0 33 0;
#X connect 23 0 35 0;
#X connect 24 0 12 0;
#X connect 24 0 32 0;
#X connect 24 1 2 0;
#X connect 24 1 3 0;
#X connect 25 0 0 0;
#X connect 27 0 37 0;
#X connect 27 0 39 1;
#X connect 28 0 36 0;
#X connect 28 0 39 0;
#X connect 29 0 28 0;
#X connect 30 0 27 0;
#X connect 35 0 10 0;
#X connect 38 0 39 0;
#X connect 40 0 39 0;
#X connect 41 0 39 0;
