#N canvas 19 32 865 559 10;
#X declare -lib mrpeach;
#X obj 158 407 catch~ c2;
#X obj 224 407 catch~ c3;
#X obj 299 407 catch~ c4;
#X obj 367 407 catch~ c5;
#X obj 437 407 catch~ c6;
#X obj 55 407 catch~ c1;
#X obj 121 378 r cc1;
#X obj 191 379 r cc2;
#X obj 257 378 r cc3;
#X obj 332 378 r cc4;
#X obj 400 376 r cc5;
#X obj 470 376 r cc6;
#X obj 219 512 output~ 3 4;
#X obj 324 514 output~ 5 6;
#X obj 110 511 output~ 7 8;
#X obj -89 -167 audio_tables_loader;
#X obj -89 -193 bng 15 250 50 0 empty empty empty 17 7 0 10 -262144
-1 -1;
#X obj -34 13 rain;
#X obj -40 -44 bng 15 250 50 0 empty empty empty 17 7 0 10 -262144
-1 -1;
#X obj 88 437 *~ 0.8;
#X obj 158 436 *~ 0.8;
#X obj 224 436 *~ 0.8;
#X obj 299 435 *~ 0.8;
#X obj 367 433 *~ 0.8;
#X obj 437 433 *~ 0.8;
#X obj 140 15 wind;
#X obj 160 -171 r microserver;
#X obj 249 -171 fake_weather;
#X obj 82 785 *~ 0.8;
#X obj 152 784 *~ 0.8;
#X obj 219 784 *~ 0.8;
#X obj 293 783 *~ 0.8;
#X obj 66 1142 *~ 0.8;
#X obj 133 1141 *~ 0.8;
#X obj 202 1141 *~ 0.8;
#X obj 277 1140 *~ 0.8;
#X obj 345 1138 *~ 0.8;
#X obj 104 859 output~ 9 10;
#X obj 213 860 output~ 11 12;
#X obj 88 1216 output~ 13 14;
#X obj 197 1217 output~ 15 16;
#X obj 302 1219 output~ 17;
#X obj 49 755 catch~ c7;
#X obj 115 726 r cc7;
#X obj 185 727 r cc8;
#X obj 152 755 catch~ c8;
#X obj 251 726 r cc9;
#X obj 218 755 catch~ c9;
#X obj 326 726 r cc10;
#X obj 294 755 catch~ c10;
#X obj 33 1112 catch~ c11;
#X obj 134 1112 catch~ c12;
#X obj 202 1112 catch~ c13;
#X obj 277 1112 catch~ c14;
#X obj 345 1112 catch~ c15;
#X obj 99 1083 r cc11;
#X obj 166 1084 r cc12;
#X obj 235 1083 r cc13;
#X obj 310 1083 r cc14;
#X obj 378 1081 r cc15;
#N canvas 481 333 450 300 switch 0;
#X obj 119 -51 spigot;
#X obj 173 -48 spigot;
#X obj 104 -101 inlet;
#X obj 190 -101 inlet;
#X obj 101 17 outlet;
#X obj 176 24 outlet;
#X obj 253 -96 tgl 15 0 empty empty empty 17 7 0 10 -262144 -1 -1 0
1;
#X obj 236 -68 sel 0 1;
#X msg 234 -37 1;
#X msg 265 -37 0;
#X obj 249 -120 inlet;
#X connect 0 0 4 0;
#X connect 1 0 5 0;
#X connect 2 0 1 0;
#X connect 3 0 0 0;
#X connect 6 0 0 1;
#X connect 6 0 7 0;
#X connect 7 0 8 0;
#X connect 7 1 9 0;
#X connect 8 0 1 1;
#X connect 9 0 1 1;
#X connect 10 0 6 0;
#X restore 244 -139 pd switch;
#X obj 388 -176 microserver;
#X obj 388 -154 s microserver;
#X obj 317 -145 hradio 15 1 0 2 empty empty empty 0 -8 0 10 -262144
-1 -1 0;
#X obj 250 18 vsun~;
#X connect 0 0 20 0;
#X connect 1 0 21 0;
#X connect 2 0 22 0;
#X connect 3 0 23 0;
#X connect 4 0 24 0;
#X connect 5 0 19 0;
#X connect 6 0 19 1;
#X connect 7 0 20 1;
#X connect 8 0 21 1;
#X connect 9 0 22 1;
#X connect 10 0 23 1;
#X connect 11 0 24 1;
#X connect 16 0 15 0;
#X connect 18 0 17 0;
#X connect 18 0 25 0;
#X connect 18 0 64 0;
#X connect 19 0 14 0;
#X connect 20 0 14 1;
#X connect 21 0 12 0;
#X connect 22 0 12 1;
#X connect 23 0 13 0;
#X connect 24 0 13 1;
#X connect 26 0 60 0;
#X connect 27 0 60 1;
#X connect 28 0 37 0;
#X connect 29 0 37 1;
#X connect 30 0 38 0;
#X connect 31 0 38 1;
#X connect 32 0 39 0;
#X connect 33 0 39 1;
#X connect 34 0 40 0;
#X connect 35 0 40 1;
#X connect 36 0 41 0;
#X connect 42 0 28 0;
#X connect 43 0 28 1;
#X connect 44 0 29 1;
#X connect 45 0 29 0;
#X connect 46 0 30 1;
#X connect 47 0 30 0;
#X connect 48 0 31 1;
#X connect 49 0 31 0;
#X connect 50 0 32 0;
#X connect 51 0 33 0;
#X connect 52 0 34 0;
#X connect 53 0 35 0;
#X connect 54 0 36 0;
#X connect 55 0 32 1;
#X connect 56 0 33 1;
#X connect 57 0 34 1;
#X connect 58 0 35 1;
#X connect 59 0 36 1;
#X connect 60 0 17 1;
#X connect 60 0 25 1;
#X connect 60 0 64 1;
#X connect 60 1 25 1;
#X connect 60 1 17 1;
#X connect 60 1 64 1;
#X connect 61 0 62 0;
#X connect 63 0 60 2;
