#N canvas 82 21 945 628 10;
#X declare -lib mrpeach;
#X obj 109 461 catch~ c2;
#X obj 178 461 catch~ c3;
#X obj 247 461 catch~ c4;
#X obj 316 462 catch~ c5;
#X obj 385 462 catch~ c6;
#X obj 40 461 catch~ c1;
#X obj 80 438 r cc1;
#X obj 148 440 r cc2;
#X obj 217 439 r cc3;
#X obj 286 439 r cc4;
#X obj 354 440 r cc5;
#X obj 423 439 r cc6;
#X obj 48 58 audio_tables_loader;
#X obj 48 32 bng 15 250 50 0 empty empty empty 17 7 0 10 -262144 -1
-1;
#X obj 72 209 rain;
#X obj 72 134 bng 15 250 50 0 empty empty empty 17 7 0 10 -262144 -1
-1;
#X obj 41 490 *~ 0.8;
#X obj 109 490 *~ 0.8;
#X obj 178 490 *~ 0.8;
#X obj 247 489 *~ 0.8;
#X obj 316 488 *~ 0.8;
#X obj 385 488 *~ 0.8;
#X obj 176 209 wind;
#X obj 409 42 fake_weather;
#X obj 456 488 *~ 0.8;
#X obj 532 490 *~ 0.8;
#X obj 607 492 *~ 0.8;
#X obj 676 492 *~ 0.8;
#X obj 747 487 *~ 0.8;
#X obj 826 492 *~ 0.8;
#X obj 903 491 *~ 0.8;
#X obj 979 490 *~ 0.8;
#X obj 1054 488 *~ 0.8;
#X obj 455 462 catch~ c7;
#X obj 495 440 r cc7;
#X obj 571 440 r cc8;
#X obj 532 463 catch~ c8;
#X obj 646 442 r cc9;
#X obj 606 464 catch~ c9;
#X obj 715 443 r cc10;
#X obj 677 465 catch~ c10;
#X obj 747 465 catch~ c11;
#X obj 827 463 catch~ c12;
#X obj 903 462 catch~ c13;
#X obj 979 462 catch~ c14;
#X obj 1054 462 catch~ c15;
#X obj 785 442 r cc11;
#X obj 865 435 r cc12;
#X obj 942 437 r cc13;
#X obj 1018 437 r cc14;
#X obj 1093 435 r cc15;
#N canvas 480 332 319 300 switch 0;
#X obj 51 183 spigot;
#X obj 123 186 spigot;
#X obj 48 40 inlet;
#X obj 112 40 inlet;
#X obj 51 207 outlet;
#X obj 123 208 outlet;
#X obj 178 76 tgl 15 0 empty empty empty 17 7 0 10 -262144 -1 -1 1
1;
#X obj 178 100 sel 0 1;
#X msg 178 131 1;
#X msg 211 132 0;
#X obj 178 40 inlet;
#X connect 0 0 4 0;
#X connect 1 0 5 0;
#X connect 2 0 1 0;
#X connect 3 0 0 0;
#X connect 6 0 0 1;
#X connect 6 0 7 0;
#X connect 7 0 8 0;
#X connect 7 1 9 0;
#X connect 8 0 1 1;
#X connect 9 0 1 1;
#X connect 10 0 6 0;
#X restore 351 75 pd switch;
#X obj 351 12 microserver;
#X obj 424 70 hradio 15 1 0 2 empty empty empty 0 -8 0 10 -262144 -1
-1 1;
#X obj 277 222 vsun~;
#X obj 216 33 bng 15 250 50 0 empty empty empty 17 7 0 10 -262144 -1
-1;
#X obj 216 58 s audio_on;
#X text 298 202 sun;
#X obj 820 221 vclouds~;
#X obj 820 176 bng 15 250 50 0 empty empty empty 17 7 0 10 -262144
-1 -1;
#X obj 302 184 bng 15 250 50 0 empty empty empty 17 7 0 10 -262144
-1 -1;
#X obj 386 527 output~ 6;
#X obj 41 527 output~ 1;
#X obj 179 527 output~ 3;
#X obj 248 527 output~ 4;
#X obj 110 527 output~ 2;
#X obj 317 527 output~ 5;
#X obj 455 527 output~ 7;
#X obj 533 527 output~ 8;
#X obj 608 527 output~ 7;
#X obj 677 527 output~ 8;
#X obj 746 527 output~ 11;
#X obj 827 527 output~ 12;
#X obj 903 527 output~ 13;
#X obj 979 527 output~ 14;
#X obj 1055 527 output~ 15;
#X text 837 175 clouds;
#X text 66 117 all;
#X obj 87 185 bng 15 250 50 0 empty empty empty 17 7 0 10 -262144 -1
-1;
#X obj 180 172 bng 15 250 50 0 empty empty empty 17 7 0 10 -262144
-1 -1;
#N canvas 45 60 737 245 weather_monitor 0;
#X obj 359 15 inlet;
#X obj 173 71 route /mtRainRate;
#X obj 287 72 route /mtTemp1;
#X obj 386 71 route /mtSolarRadiation;
#X obj 201 103 cnv 15 200 87 empty empty empty 20 12 0 14 -240766 -66577
0;
#X obj 234 115 hsl 120 15 0 0.3 0 0 empty empty empty -2 -8 0 10 -204800
-1 -1 0 1;
#X obj 235 133 hsl 120 15 0 115 0 0 empty empty empty -2 -8 0 10 -204800
-1 -1 0 1;
#X text 202 132 temp;
#X obj 234 152 hsl 120 15 0 1500 0 0 empty empty empty -2 -8 0 10 -204800
-1 -1 0 1;
#X obj 534 73 route /mt2MinRollAvgWindSpeed;
#X obj 234 171 hsl 120 15 0 20 0 0 empty empty empty -2 -8 0 10 -204800
-1 -1 0 1;
#X text 201 114 rain;
#X text 201 171 wind;
#X text 201 151 solr;
#X floatatom 363 115 5 0 0 0 - - -;
#X floatatom 363 134 5 0 0 0 - - -;
#X floatatom 363 152 5 0 0 0 - - -;
#X floatatom 363 171 5 0 0 0 - - -;
#X connect 0 0 1 0;
#X connect 0 0 2 0;
#X connect 0 0 3 0;
#X connect 0 0 9 0;
#X connect 1 0 5 0;
#X connect 2 0 6 0;
#X connect 3 0 8 0;
#X connect 5 0 14 0;
#X connect 6 0 15 0;
#X connect 8 0 16 0;
#X connect 9 0 10 0;
#X connect 10 0 17 0;
#X coords 0 -1 1 1 202 92 1 200 100;
#X restore 602 42 pd weather_monitor;
#X obj 466 64 loadbang;
#X obj 465 84 0;
#X obj 49 82 t b b;
#X obj 70 28 loadbang;
#X connect 0 0 17 0;
#X connect 1 0 18 0;
#X connect 2 0 19 0;
#X connect 3 0 20 0;
#X connect 4 0 21 0;
#X connect 5 0 16 0;
#X connect 6 0 16 1;
#X connect 7 0 17 1;
#X connect 8 0 18 1;
#X connect 9 0 19 1;
#X connect 10 0 20 1;
#X connect 11 0 21 1;
#X connect 12 0 83 0;
#X connect 13 0 12 0;
#X connect 15 0 14 0;
#X connect 15 0 22 0;
#X connect 15 0 54 0;
#X connect 15 0 58 0;
#X connect 16 0 62 0;
#X connect 17 0 65 0;
#X connect 18 0 63 0;
#X connect 19 0 64 0;
#X connect 20 0 66 0;
#X connect 21 0 61 0;
#X connect 23 0 51 1;
#X connect 24 0 67 0;
#X connect 25 0 68 0;
#X connect 26 0 69 0;
#X connect 27 0 70 0;
#X connect 28 0 71 0;
#X connect 29 0 72 0;
#X connect 30 0 73 0;
#X connect 31 0 74 0;
#X connect 32 0 75 0;
#X connect 33 0 24 0;
#X connect 34 0 24 1;
#X connect 35 0 25 1;
#X connect 36 0 25 0;
#X connect 37 0 26 1;
#X connect 38 0 26 0;
#X connect 39 0 27 1;
#X connect 40 0 27 0;
#X connect 41 0 28 0;
#X connect 42 0 29 0;
#X connect 43 0 30 0;
#X connect 44 0 31 0;
#X connect 45 0 32 0;
#X connect 46 0 28 1;
#X connect 47 0 29 1;
#X connect 48 0 30 1;
#X connect 49 0 31 1;
#X connect 50 0 32 1;
#X connect 51 0 14 1;
#X connect 51 0 22 1;
#X connect 51 0 54 1;
#X connect 51 0 58 1;
#X connect 51 1 22 1;
#X connect 51 1 14 1;
#X connect 51 1 54 1;
#X connect 51 1 58 1;
#X connect 52 0 51 0;
#X connect 52 0 80 0;
#X connect 53 0 51 2;
#X connect 55 0 56 0;
#X connect 59 0 58 0;
#X connect 60 0 54 0;
#X connect 78 0 14 0;
#X connect 79 0 22 0;
#X connect 81 0 82 0;
#X connect 82 0 53 0;
#X connect 83 0 55 0;
#X connect 83 1 15 0;
#X connect 84 0 12 0;
