#N canvas 187 86 1081 740 10;
#X obj 148 397 catch~ c2;
#X obj 214 397 catch~ c3;
#X obj 289 397 catch~ c4;
#X obj 357 397 catch~ c5;
#X obj 427 397 catch~ c6;
#X obj 357 423 *~ 0.1;
#X obj 427 423 *~ 0.1;
#X obj 1686 493 vsl 15 128 0 127 0 0 empty empty empty 0 -9 0 10 -262144
-1 -1 8000 1;
#X obj 1735 493 vsl 15 128 0 127 0 0 empty empty empty 0 -9 0 10 -262144
-1 -1 8000 1;
#X obj 1777 492 vsl 15 128 0 127 0 0 empty empty empty 0 -9 0 10 -262144
-1 -1 8000 1;
#X obj 1817 493 vsl 15 128 0 127 0 0 empty empty empty 0 -9 0 10 -262144
-1 -1 8000 1;
#X obj 1850 493 vsl 15 128 0 127 0 0 empty empty empty 0 -9 0 10 -262144
-1 -1 8000 1;
#X obj 1883 493 vsl 15 128 0 127 0 0 empty empty empty 0 -9 0 10 -262144
-1 -1 8000 1;
#X obj 289 425 *~ 0.1;
#X obj 214 426 *~ 0.1;
#X obj 1587 668 jrange 0 127 0 0.5;
#X obj 1705 667 jrange 0 127 0 0.5;
#X obj 1826 666 jrange 0 127 0 0.5;
#X obj 1944 665 jrange 0 127 0 0.5;
#X obj 2062 665 jrange 0 127 0 0.5;
#X obj 1470 670 jrange 0 127 0 0.5;
#X obj 2010 539 hsl 128 15 0 127 0 0 empty empty empty -2 -8 0 10 -262144
-1 -1 10000 1;
#X obj 2007 562 jrange 0 127 0 1;
#X obj 2007 586 t b f;
#X obj 2007 630 s \$0-rescale;
#X obj 1739 448 r \$0-rescale;
#X floatatom 1686 637 5 0 0 0 - - -, f 5;
#X floatatom 1735 636 5 0 0 0 - - -, f 5;
#X floatatom 1774 636 5 0 0 0 - - -, f 5;
#X floatatom 1823 635 5 0 0 0 - - -, f 5;
#X floatatom 1864 635 5 0 0 0 - - -, f 5;
#X floatatom 1913 634 5 0 0 0 - - -, f 5;
#X floatatom 2118 562 5 0 0 0 - - -, f 5;
#X obj 366 68 audio_tables_loader;
#X obj 368 41 bng 15 250 50 0 empty empty empty 17 7 0 10 -262144 -1
-1;
#X obj 45 397 catch~ c1;
#X obj 111 368 r cc1;
#X obj 181 369 r cc2;
#X obj 247 368 r cc3;
#X obj 322 368 r cc4;
#X obj 390 366 r cc5;
#X obj 460 366 r cc6;
#X obj 1688 705 s cc1;
#X obj 1730 705 s cc2;
#X obj 1770 706 s cc3;
#X obj 1811 706 s cc4;
#X obj 1851 704 s cc5;
#X obj 1900 705 s cc6;
#X obj 21 249 throw~ c1;
#X obj 84 249 throw~ c2;
#X obj 78 427 *~ 0.1;
#X obj 148 426 *~ 0.1;
#X obj 2006 473 loadbang;
#X msg 2005 500 100;
#X obj 1699 354 loadbang;
#X msg 1705 381 80;
#X obj 148 249 throw~ c3;
#X obj 142 297 throw~ c4;
#X obj 207 299 throw~ c5;
#X obj 274 298 throw~ c6;
#X obj 99 501 output~ 1 2;
#X obj 89 5 rain;
#X obj 83 -52 bng 15 250 50 0 empty empty empty 17 7 0 10 -262144 -1
-1;
#X obj 120 -58 hsl 500 15 0.001 0.3 0 0 empty empty empty -2 -8 0 10
-204800 -1 -1 49900 1;
#X floatatom 134 -35 5 0 0 0 - - -, f 5;
#X obj 117 -79 line, f 5;
#X msg 117 -106 0 \, 0.3 120000;
#X text 209 -106 simulated rain build;
#X obj 209 502 output~ 3 4;
#X obj 314 504 output~ 5 6;
#X connect 0 0 51 0;
#X connect 1 0 14 0;
#X connect 2 0 13 0;
#X connect 3 0 5 0;
#X connect 4 0 6 0;
#X connect 5 0 60 0;
#X connect 5 0 69 0;
#X connect 6 0 60 1;
#X connect 6 0 69 1;
#X connect 7 0 20 0;
#X connect 7 0 26 0;
#X connect 8 0 15 0;
#X connect 8 0 27 0;
#X connect 9 0 16 0;
#X connect 9 0 28 0;
#X connect 10 0 17 0;
#X connect 10 0 29 0;
#X connect 11 0 18 0;
#X connect 11 0 30 0;
#X connect 12 0 19 0;
#X connect 12 0 31 0;
#X connect 13 0 60 1;
#X connect 13 0 68 1;
#X connect 14 0 60 0;
#X connect 14 0 68 0;
#X connect 15 0 43 0;
#X connect 16 0 44 0;
#X connect 17 0 45 0;
#X connect 18 0 46 0;
#X connect 19 0 47 0;
#X connect 20 0 42 0;
#X connect 21 0 22 0;
#X connect 21 0 32 0;
#X connect 22 0 23 0;
#X connect 23 0 24 0;
#X connect 23 1 19 4;
#X connect 23 1 18 4;
#X connect 23 1 17 4;
#X connect 23 1 16 4;
#X connect 23 1 15 4;
#X connect 23 1 20 4;
#X connect 25 0 7 0;
#X connect 25 0 8 0;
#X connect 25 0 9 0;
#X connect 25 0 10 0;
#X connect 25 0 11 0;
#X connect 25 0 12 0;
#X connect 34 0 33 0;
#X connect 35 0 50 0;
#X connect 36 0 50 1;
#X connect 37 0 51 1;
#X connect 38 0 14 1;
#X connect 39 0 13 1;
#X connect 40 0 5 1;
#X connect 41 0 6 1;
#X connect 50 0 60 0;
#X connect 51 0 60 1;
#X connect 52 0 53 0;
#X connect 53 0 21 0;
#X connect 54 0 55 0;
#X connect 55 0 7 0;
#X connect 55 0 8 0;
#X connect 55 0 9 0;
#X connect 55 0 10 0;
#X connect 55 0 11 0;
#X connect 55 0 12 0;
#X connect 61 0 48 0;
#X connect 61 1 49 0;
#X connect 61 2 56 0;
#X connect 61 3 57 0;
#X connect 61 4 58 0;
#X connect 61 5 59 0;
#X connect 62 0 61 0;
#X connect 63 0 64 0;
#X connect 64 0 61 1;
#X connect 65 0 63 0;
#X connect 66 0 65 0;
