#N canvas -78 22 1322 864 10;
#X obj 175 606 catch~ c2;
#X obj 241 606 catch~ c3;
#X obj 316 606 catch~ c4;
#X obj 384 606 catch~ c5;
#X obj 454 606 catch~ c6;
#X obj 384 632 *~ 0.1;
#X obj 454 632 *~ 0.1;
#X obj 1686 493 vsl 15 128 0 127 0 0 empty empty empty 0 -9 0 10 -262144
-1 -1 12700 1;
#X obj 1735 493 vsl 15 128 0 127 0 0 empty empty empty 0 -9 0 10 -262144
-1 -1 12700 1;
#X obj 1777 492 vsl 15 128 0 127 0 0 empty empty empty 0 -9 0 10 -262144
-1 -1 0 1;
#X obj 1817 493 vsl 15 128 0 127 0 0 empty empty empty 0 -9 0 10 -262144
-1 -1 0 1;
#X obj 1850 493 vsl 15 128 0 127 0 0 empty empty empty 0 -9 0 10 -262144
-1 -1 0 1;
#X obj 1883 493 vsl 15 128 0 127 0 0 empty empty empty 0 -9 0 10 -262144
-1 -1 0 1;
#X obj 316 634 *~ 0.1;
#X obj 241 635 *~ 0.1;
#X obj 1587 668 jrange 0 127 0 0.5;
#X obj 1705 667 jrange 0 127 0 0.5;
#X obj 1826 666 jrange 0 127 0 0.5;
#X obj 1944 665 jrange 0 127 0 0.5;
#X obj 2062 665 jrange 0 127 0 0.5;
#X obj 1470 670 jrange 0 127 0 0.5;
#X obj 2010 539 hsl 128 15 0 127 0 0 empty empty empty -2 -8 0 10 -262144
-1 -1 10000 1;
#X obj 2007 562 jrange 0 127 0 1;
#X obj 2007 586 t b f;
#X obj 2007 630 s \$0-rescale;
#X obj 1739 448 r \$0-rescale;
#X floatatom 1686 637 5 0 0 0 - - -;
#X floatatom 1735 636 5 0 0 0 - - -;
#X floatatom 1774 636 5 0 0 0 - - -;
#X floatatom 1823 635 5 0 0 0 - - -;
#X floatatom 1864 635 5 0 0 0 - - -;
#X floatatom 1913 634 5 0 0 0 - - -;
#X floatatom 2118 562 5 0 0 0 - - -;
#X obj 593 -25 audio_tables_loader;
#X obj 595 -52 bng 15 250 50 0 empty empty empty 17 7 0 10 -262144
-1 -1;
#X obj 72 606 catch~ c1;
#X obj 132 560 r cc1;
#X obj 208 561 r cc2;
#X obj 274 560 r cc3;
#X obj 349 560 r cc4;
#X obj 417 558 r cc5;
#X obj 487 558 r cc6;
#X obj 1688 705 s cc1;
#X obj 1730 705 s cc2;
#X obj 1770 706 s cc3;
#X obj 1811 706 s cc4;
#X obj 1851 704 s cc5;
#X obj 1900 705 s cc6;
#X obj 435 730 dac~ 7 8 3 4 5 6 7 8 9 10 11 12 13 14 15;
#X obj 802 632 *~ 0.1;
#X obj 872 632 *~ 0.1;
#X obj 734 634 *~ 0.1;
#X obj 659 635 *~ 0.1;
#X obj 593 635 *~ 0.1;
#X obj 523 636 *~ 0.1;
#X obj 1007 632 *~ 0.1;
#X obj 1077 632 *~ 0.1;
#X obj 939 634 *~ 0.1;
#X obj 523 606 catch~ c7;
#X obj 593 606 catch~ c8;
#X obj 659 606 catch~ c9;
#X obj 734 606 catch~ c10;
#X obj 802 606 catch~ c11;
#X obj 872 606 catch~ c12;
#X obj 939 606 catch~ c13;
#X obj 1007 606 catch~ c14;
#X obj 1077 606 catch~ c15;
#X obj 550 560 r cc7;
#X obj 626 561 r cc8;
#X obj 692 560 r cc9;
#X obj 767 560 r cc10;
#X obj 835 558 r cc11;
#X obj 905 558 r cc12;
#X obj 972 560 r cc13;
#X obj 1040 558 r cc14;
#X obj 1110 558 r cc15;
#X obj 94 129 rain_players;
#X obj 54 204 throw~ c1;
#X obj 162 200 throw~ c2;
#X obj 105 636 *~ 0.1;
#X obj 175 635 *~ 0.1;
#X obj 2006 473 loadbang;
#X msg 2005 500 100;
#X obj 1699 354 loadbang;
#X msg 1705 381 80;
#X connect 0 0 80 0;
#X connect 1 0 14 0;
#X connect 2 0 13 0;
#X connect 3 0 5 0;
#X connect 4 0 6 0;
#X connect 5 0 48 4;
#X connect 6 0 48 5;
#X connect 7 0 20 0;
#X connect 7 0 26 0;
#X connect 8 0 15 0;
#X connect 8 0 27 0;
#X connect 9 0 16 0;
#X connect 9 0 28 0;
#X connect 10 0 17 0;
#X connect 10 0 29 0;
#X connect 11 0 18 0;
#X connect 11 0 30 0;
#X connect 12 0 19 0;
#X connect 12 0 31 0;
#X connect 13 0 48 3;
#X connect 14 0 48 2;
#X connect 15 0 43 0;
#X connect 16 0 44 0;
#X connect 17 0 45 0;
#X connect 18 0 46 0;
#X connect 19 0 47 0;
#X connect 20 0 42 0;
#X connect 21 0 22 0;
#X connect 21 0 32 0;
#X connect 22 0 23 0;
#X connect 23 0 24 0;
#X connect 23 1 19 4;
#X connect 23 1 18 4;
#X connect 23 1 17 4;
#X connect 23 1 16 4;
#X connect 23 1 15 4;
#X connect 23 1 20 4;
#X connect 25 0 7 0;
#X connect 25 0 8 0;
#X connect 25 0 9 0;
#X connect 25 0 10 0;
#X connect 25 0 11 0;
#X connect 25 0 12 0;
#X connect 34 0 33 0;
#X connect 35 0 79 0;
#X connect 36 0 79 1;
#X connect 37 0 80 1;
#X connect 38 0 14 1;
#X connect 39 0 13 1;
#X connect 40 0 5 1;
#X connect 41 0 6 1;
#X connect 49 0 48 10;
#X connect 50 0 48 11;
#X connect 51 0 48 9;
#X connect 52 0 48 8;
#X connect 53 0 48 7;
#X connect 54 0 48 6;
#X connect 55 0 48 13;
#X connect 56 0 48 14;
#X connect 57 0 48 12;
#X connect 58 0 54 0;
#X connect 59 0 53 0;
#X connect 60 0 52 0;
#X connect 61 0 51 0;
#X connect 62 0 49 0;
#X connect 63 0 50 0;
#X connect 64 0 57 0;
#X connect 65 0 55 0;
#X connect 66 0 56 0;
#X connect 67 0 54 1;
#X connect 68 0 53 1;
#X connect 69 0 52 1;
#X connect 70 0 51 1;
#X connect 71 0 49 1;
#X connect 72 0 50 1;
#X connect 73 0 57 1;
#X connect 74 0 55 1;
#X connect 75 0 56 1;
#X connect 76 0 77 0;
#X connect 76 1 78 0;
#X connect 76 2 77 0;
#X connect 76 3 78 0;
#X connect 76 4 77 0;
#X connect 76 5 78 0;
#X connect 79 0 48 0;
#X connect 80 0 48 1;
#X connect 81 0 82 0;
#X connect 82 0 21 0;
#X connect 83 0 84 0;
#X connect 84 0 7 0;
#X connect 84 0 8 0;
#X connect 84 0 9 0;
#X connect 84 0 10 0;
#X connect 84 0 11 0;
#X connect 84 0 12 0;
