#N canvas 546 169 731 494 10;
#X obj 346 95 rain_tables;
#X obj 347 128 list split 1;
#X obj 388 154 list;
#X obj 347 241 soundfiler;
#X msg 347 218 read -resize -maxsize 4e+07 \$1.wav \$1;
#X obj 376 188 print LOADING SOUND;
#X msg 346 68 bang;
#X connect 0 0 1 0;
#X connect 1 0 4 0;
#X connect 1 0 5 0;
#X connect 1 1 2 0;
#X connect 2 0 1 0;
#X connect 4 0 3 0;
#X connect 6 0 0 0;
