#N canvas 272 78 1322 864 10;
#X obj 925 -94 clouds --------------------;
#X obj 768 210 hsl 128 15 0 1 0 0 empty empty empty -2 -8 0 10 -262144
-1 -1 3818 1;
#X obj 914 211 hsl 128 15 0 1 0 0 empty empty empty -2 -8 0 10 -262144
-1 -1 0 1;
#X obj 175 606 catch~ c2;
#X obj 241 606 catch~ c3;
#X obj 316 606 catch~ c4;
#X obj 384 606 catch~ c5;
#X obj 454 606 catch~ c6;
#X obj 712 299 throw~ c1;
#X obj 775 299 throw~ c2;
#X obj 725 324 throw~ c3;
#X obj 788 324 throw~ c4;
#X obj 743 349 throw~ c5;
#X obj 806 349 throw~ c6;
#X obj 1136 211 hsl 128 15 0 1 0 0 empty empty empty -2 -8 0 10 -262144
-1 -1 3818 1;
#X obj 1282 212 hsl 128 15 0 1 0 0 empty empty empty -2 -8 0 10 -262144
-1 -1 0 1;
#X obj 1080 300 throw~ c1;
#X obj 1143 300 throw~ c2;
#X obj 1093 325 throw~ c3;
#X obj 1156 325 throw~ c4;
#X obj 1111 350 throw~ c5;
#X obj 1174 350 throw~ c6;
#X obj 858 -8 throw~ clouds1;
#X obj 957 -9 throw~ clouds2;
#X obj 712 230 catch~ clouds1;
#X obj 1080 233 catch~ clouds2;
#X obj 957 55 throw~ clouds1;
#X obj 1053 55 throw~ clouds2;
#X obj 984 23 throw~ clouds1;
#X obj 1080 23 throw~ clouds2;
#X obj 1061 -10 throw~ clouds1;
#X obj 1157 -10 throw~ clouds2;
#X obj 1186 182 lfo_tri 0.6;
#X obj 1189 135 hsl 128 15 0 1 0 0 empty empty empty -2 -8 0 10 -262144
-1 -1 0 1;
#X obj 825 181 lfo_tri 0.6;
#X obj 828 134 hsl 128 15 0 1 0 0 empty empty empty -2 -8 0 10 -262144
-1 -1 0 1;
#X obj 384 632 *~ 0.1;
#X obj 454 632 *~ 0.1;
#X obj 1686 493 vsl 15 128 0 127 0 0 empty empty empty 0 -9 0 10 -262144
-1 -1 12700 1;
#X obj 1735 493 vsl 15 128 0 127 0 0 empty empty empty 0 -9 0 10 -262144
-1 -1 12700 1;
#X obj 1777 492 vsl 15 128 0 127 0 0 empty empty empty 0 -9 0 10 -262144
-1 -1 0 1;
#X obj 1817 493 vsl 15 128 0 127 0 0 empty empty empty 0 -9 0 10 -262144
-1 -1 0 1;
#X obj 1850 493 vsl 15 128 0 127 0 0 empty empty empty 0 -9 0 10 -262144
-1 -1 0 1;
#X obj 1883 493 vsl 15 128 0 127 0 0 empty empty empty 0 -9 0 10 -262144
-1 -1 0 1;
#X obj 316 634 *~ 0.1;
#X obj 241 635 *~ 0.1;
#X obj 1587 668 jrange 0 127 0 0.5;
#X obj 1705 667 jrange 0 127 0 0.5;
#X obj 1826 666 jrange 0 127 0 0.5;
#X obj 1944 665 jrange 0 127 0 0.5;
#X obj 2062 665 jrange 0 127 0 0.5;
#X obj 1470 670 jrange 0 127 0 0.5;
#X obj 2010 539 hsl 128 15 0 127 0 0 empty empty empty -2 -8 0 10 -262144
-1 -1 12700 1;
#X obj 2007 562 jrange 0 127 0 1;
#X obj 2007 586 t b f;
#X obj 2007 630 s \$0-rescale;
#X obj 1739 448 r \$0-rescale;
#X floatatom 1686 637 5 0 0 0 - - -;
#X floatatom 1735 636 5 0 0 0 - - -;
#X floatatom 1774 636 5 0 0 0 - - -;
#X floatatom 1823 635 5 0 0 0 - - -;
#X floatatom 1864 635 5 0 0 0 - - -;
#X floatatom 1913 634 5 0 0 0 - - -;
#X floatatom 2118 562 5 0 0 0 - - -;
#X obj 234 359 linear_panner_6ch~;
#X obj 297 400 throw~ c2;
#X obj 247 425 throw~ c3;
#X obj 310 425 throw~ c4;
#X obj 265 450 throw~ c5;
#X obj 328 450 throw~ c6;
#X obj 378 370 hsl 128 15 0 1 0 0 empty empty empty -2 -8 0 10 -262144
-1 -1 0 1;
#X obj 522 373 hsl 128 15 0 1 0 0 empty empty empty -2 -8 0 10 -262144
-1 -1 0 1;
#X obj 436 296 hsl 128 15 0 1 0 0 empty empty empty -2 -8 0 10 -262144
-1 -1 0 1;
#X obj 283 203 *~;
#X obj 298 169 vline~;
#X obj 338 292 snapshot~;
#X obj 402 248 metro 20;
#X obj 419 229 tgl 15 0 empty empty empty 17 7 0 10 -262144 -1 -1 0
1;
#X obj 361 224 vline~;
#X obj 372 110 bng 15 250 50 0 empty empty empty 17 7 0 10 -262144
-1 -1;
#X msg 301 141 1 8000 \, 0 6000 8000;
#X msg 361 196 0 0 \, 1 11000 3000;
#X obj 552 161 bng 15 250 50 0 empty empty empty 17 7 0 10 -262144
-1 -1;
#X obj 559 111 random_bangs 25000;
#X obj 593 -25 audio_tables_loader;
#X obj 595 -52 bng 15 250 50 0 empty empty empty 17 7 0 10 -262144
-1 -1;
#X obj 146 -80 bng 15 250 50 0 empty empty empty 17 7 0 10 -262144
-1 -1;
#X msg 313 -78 Wind_60-65_02_R;
#X msg 199 -79 Wind_60-65_01;
#X obj 234 400 throw~ c1;
#X obj 72 606 catch~ c1;
#X obj 132 560 r cc1;
#X obj 208 561 r cc2;
#X obj 274 560 r cc3;
#X obj 349 560 r cc4;
#X obj 417 558 r cc5;
#X obj 487 558 r cc6;
#X obj 1688 705 s cc1;
#X obj 1730 705 s cc2;
#X obj 1770 706 s cc3;
#X obj 1811 706 s cc4;
#X obj 1851 704 s cc5;
#X obj 1900 705 s cc6;
#X obj 435 730 dac~ 7 8 3 4 5 6 7 8 9 10 11 12 13 14 15;
#X obj 802 632 *~ 0.1;
#X obj 872 632 *~ 0.1;
#X obj 734 634 *~ 0.1;
#X obj 659 635 *~ 0.1;
#X obj 593 635 *~ 0.1;
#X obj 523 636 *~ 0.1;
#X obj 1007 632 *~ 0.1;
#X obj 1077 632 *~ 0.1;
#X obj 939 634 *~ 0.1;
#X obj 523 606 catch~ c7;
#X obj 593 606 catch~ c8;
#X obj 659 606 catch~ c9;
#X obj 734 606 catch~ c10;
#X obj 802 606 catch~ c11;
#X obj 872 606 catch~ c12;
#X obj 939 606 catch~ c13;
#X obj 1007 606 catch~ c14;
#X obj 1077 606 catch~ c15;
#X obj 550 560 r cc7;
#X obj 626 561 r cc8;
#X obj 692 560 r cc9;
#X obj 767 560 r cc10;
#X obj 835 558 r cc11;
#X obj 905 558 r cc12;
#X obj 972 560 r cc13;
#X obj 1040 558 r cc14;
#X obj 1110 558 r cc15;
#X obj 712 258 linear_panner_6ch~;
#X obj 1080 259 linear_panner_6ch~;
#X obj 407 482 wind_breeze_panner;
#X obj 240 -35 rain_players;
#X obj 198 33 throw~ c1;
#X obj 308 36 throw~ c2;
#X obj 105 636 *~ 0.1;
#X obj 175 635 *~ 0.1;
#X connect 1 0 131 1;
#X connect 2 0 131 2;
#X connect 3 0 138 0;
#X connect 4 0 45 0;
#X connect 5 0 44 0;
#X connect 6 0 36 0;
#X connect 7 0 37 0;
#X connect 14 0 132 1;
#X connect 15 0 132 2;
#X connect 24 0 131 0;
#X connect 25 0 132 0;
#X connect 32 0 14 0;
#X connect 33 0 32 0;
#X connect 34 0 1 0;
#X connect 35 0 34 0;
#X connect 36 0 103 4;
#X connect 37 0 103 5;
#X connect 38 0 51 0;
#X connect 38 0 57 0;
#X connect 39 0 46 0;
#X connect 39 0 58 0;
#X connect 40 0 47 0;
#X connect 40 0 59 0;
#X connect 41 0 48 0;
#X connect 41 0 60 0;
#X connect 42 0 49 0;
#X connect 42 0 61 0;
#X connect 43 0 50 0;
#X connect 43 0 62 0;
#X connect 44 0 103 3;
#X connect 45 0 103 2;
#X connect 46 0 98 0;
#X connect 47 0 99 0;
#X connect 48 0 100 0;
#X connect 49 0 101 0;
#X connect 50 0 102 0;
#X connect 51 0 97 0;
#X connect 52 0 53 0;
#X connect 52 0 63 0;
#X connect 53 0 54 0;
#X connect 54 0 55 0;
#X connect 54 1 50 4;
#X connect 54 1 49 4;
#X connect 54 1 48 4;
#X connect 54 1 47 4;
#X connect 54 1 46 4;
#X connect 54 1 51 4;
#X connect 56 0 38 0;
#X connect 56 0 39 0;
#X connect 56 0 40 0;
#X connect 56 0 41 0;
#X connect 56 0 42 0;
#X connect 56 0 43 0;
#X connect 64 0 89 0;
#X connect 64 1 65 0;
#X connect 64 2 66 0;
#X connect 64 3 67 0;
#X connect 64 4 68 0;
#X connect 64 5 69 0;
#X connect 70 0 64 1;
#X connect 71 0 64 2;
#X connect 72 0 70 0;
#X connect 73 0 64 0;
#X connect 74 0 73 1;
#X connect 75 0 72 0;
#X connect 76 0 75 0;
#X connect 77 0 76 0;
#X connect 78 0 75 0;
#X connect 79 0 80 0;
#X connect 79 0 81 0;
#X connect 80 0 74 0;
#X connect 81 0 78 0;
#X connect 83 0 82 0;
#X connect 84 0 87 0;
#X connect 84 0 88 0;
#X connect 85 0 84 0;
#X connect 90 0 137 0;
#X connect 91 0 137 1;
#X connect 92 0 138 1;
#X connect 93 0 45 1;
#X connect 94 0 44 1;
#X connect 95 0 36 1;
#X connect 96 0 37 1;
#X connect 104 0 103 10;
#X connect 105 0 103 11;
#X connect 106 0 103 9;
#X connect 107 0 103 8;
#X connect 108 0 103 7;
#X connect 109 0 103 6;
#X connect 110 0 103 13;
#X connect 111 0 103 14;
#X connect 112 0 103 12;
#X connect 113 0 109 0;
#X connect 114 0 108 0;
#X connect 115 0 107 0;
#X connect 116 0 106 0;
#X connect 117 0 104 0;
#X connect 118 0 105 0;
#X connect 119 0 112 0;
#X connect 120 0 110 0;
#X connect 121 0 111 0;
#X connect 122 0 109 1;
#X connect 123 0 108 1;
#X connect 124 0 107 1;
#X connect 125 0 106 1;
#X connect 126 0 104 1;
#X connect 127 0 105 1;
#X connect 128 0 112 1;
#X connect 129 0 110 1;
#X connect 130 0 111 1;
#X connect 131 0 8 0;
#X connect 131 1 9 0;
#X connect 131 2 10 0;
#X connect 131 3 11 0;
#X connect 131 4 12 0;
#X connect 131 5 13 0;
#X connect 132 0 16 0;
#X connect 132 1 17 0;
#X connect 132 2 18 0;
#X connect 132 3 19 0;
#X connect 132 4 20 0;
#X connect 132 5 21 0;
#X connect 134 0 135 0;
#X connect 134 1 136 0;
#X connect 134 2 135 0;
#X connect 134 3 136 0;
#X connect 134 4 135 0;
#X connect 134 5 136 0;
#X connect 137 0 103 0;
#X connect 138 0 103 1;
