#N canvas 558 129 716 580 10;
#X obj 211 552 outlet~;
#X obj 84 19 inlet;
#X obj 71 122 f;
#X obj 103 122 + 1;
#X floatatom 80 173 5 0 0 0 - - -, f 5;
#X obj 85 53 unpack s f f;
#X obj 153 204 pack f s f f;
#X obj 41 359 unpack s f f;
#X obj 84 77 t b s;
#X obj 145 358 unpack s f f;
#X obj 251 360 unpack s f f;
#X obj 355 359 unpack s f f;
#X obj 336 31 inlet;
#X text 384 32 control (temp);
#X text 137 13 creation arg is xf time (ms);
#X obj 37 389 elooprange~ \$1;
#X obj 152 233 route 0 1 2 3 4 5;
#X obj 70 148 % 6;
#X obj 467 361 unpack s f f;
#X obj 571 360 unpack s f f;
#X obj 144 390 elooprange~ \$1;
#X obj 251 389 elooprange~ \$1;
#X obj 356 389 elooprange~ \$1;
#X obj 467 390 elooprange~ \$1;
#X obj 572 390 elooprange~ \$1;
#X connect 1 0 5 0;
#X connect 2 0 3 0;
#X connect 2 0 17 0;
#X connect 3 0 2 1;
#X connect 5 0 8 0;
#X connect 5 1 6 2;
#X connect 5 2 6 3;
#X connect 6 0 16 0;
#X connect 7 0 15 0;
#X connect 7 1 15 1;
#X connect 7 2 15 2;
#X connect 8 0 2 0;
#X connect 8 1 6 1;
#X connect 9 0 20 0;
#X connect 9 1 20 1;
#X connect 9 2 20 2;
#X connect 10 0 21 0;
#X connect 10 1 21 1;
#X connect 10 2 21 2;
#X connect 11 0 22 0;
#X connect 11 1 22 1;
#X connect 11 2 22 2;
#X connect 12 0 15 3;
#X connect 12 0 20 3;
#X connect 12 0 21 3;
#X connect 12 0 22 3;
#X connect 12 0 23 3;
#X connect 12 0 24 3;
#X connect 15 0 0 0;
#X connect 16 0 7 0;
#X connect 16 1 9 0;
#X connect 16 2 10 0;
#X connect 16 3 11 0;
#X connect 16 4 18 0;
#X connect 16 5 19 0;
#X connect 17 0 4 0;
#X connect 17 0 6 0;
#X connect 18 0 23 0;
#X connect 18 1 23 1;
#X connect 18 2 23 2;
#X connect 19 0 24 0;
#X connect 19 1 24 1;
#X connect 19 2 24 2;
#X connect 20 0 0 0;
#X connect 21 0 0 0;
#X connect 22 0 0 0;
#X connect 23 0 0 0;
#X connect 24 0 0 0;
