#N canvas 568 139 539 586 10;
#X obj 181 511 outlet~;
#X obj 84 19 inlet;
#X obj 71 122 f;
#X obj 103 122 + 1;
#X floatatom 80 173 5 0 0 0 - - -, f 5;
#X obj 85 53 unpack s f f;
#X obj 153 204 pack f s f f;
#X obj 41 359 unpack s f f;
#X obj 84 77 t b s;
#X obj 145 358 unpack s f f;
#X obj 251 360 unpack s f f;
#X obj 336 31 inlet;
#X text 384 32 control (temp);
#X obj 153 233 route 0 1 2;
#X obj 70 148 % 3;
#X text 143 12 creation arg is xf time (ms);
#X obj 53 388 eloopxf~ \$1;
#X obj 146 388 eloopxf~ \$1;
#X obj 244 389 eloopxf~ \$1;
#X connect 1 0 5 0;
#X connect 2 0 3 0;
#X connect 2 0 14 0;
#X connect 3 0 2 1;
#X connect 5 0 8 0;
#X connect 5 1 6 2;
#X connect 5 2 6 3;
#X connect 6 0 13 0;
#X connect 7 0 16 0;
#X connect 7 1 16 1;
#X connect 7 2 16 2;
#X connect 8 0 2 0;
#X connect 8 1 6 1;
#X connect 9 0 17 0;
#X connect 9 1 17 1;
#X connect 9 2 17 2;
#X connect 10 0 18 0;
#X connect 10 1 18 1;
#X connect 10 2 18 2;
#X connect 11 0 16 3;
#X connect 11 0 17 3;
#X connect 11 0 18 3;
#X connect 13 0 7 0;
#X connect 13 1 9 0;
#X connect 13 2 10 0;
#X connect 14 0 4 0;
#X connect 14 0 6 0;
#X connect 16 0 0 0;
#X connect 17 0 0 0;
#X connect 18 0 0 0;
