#N canvas 51 96 812 637 10;
#X obj 202 379 *~ 1;
#X obj 598 330 hsl 128 15 0 127 0 0 empty empty empty -2 -8 0 10 -262144
-1 -1 0 1;
#X obj 595 350 jrange 0 127 0 1;
#X obj 236 379 *~ 1;
#X obj 270 379 *~ 1;
#X obj 305 379 *~ 1;
#X obj 340 379 *~ 1;
#X obj 375 379 *~ 1;
#X obj 14 14 hsl 600 15 0 115 0 0 empty empty empty -2 -8 0 10 -204800
-1 -1 0 1;
#X floatatom 11 54 5 0 0 0 - - -, f 5;
#X text 51 55 temp;
#X obj 162 71 line;
#X obj 164 418 output~ 1 2;
#X text 453 426 TODO: change these to 6 channel;
#X floatatom 614 379 5 0 0 0 - - -, f 5;
#X msg 212 72 stop;
#X obj 472 68 audio_tables_loader;
#X obj 471 43 bng 15 250 50 0 empty empty empty 17 7 0 10 -262144 -1
-1;
#X obj 257 418 output~ 3 4;
#X obj 350 418 output~ 5 6;
#X msg 272 62 55 \, 96 60000;
#X msg 161 47 10 \, 105 600000;
#X obj 161 99 bng 25 250 50 0 empty empty empty 17 7 0 10 -125416 -1
-1;
#X text 191 103 <- enable sunshine happiness component;
#X obj 157 139 vsun~;
#X connect 0 0 12 0;
#X connect 1 0 2 0;
#X connect 2 0 0 1;
#X connect 2 0 3 1;
#X connect 2 0 4 1;
#X connect 2 0 5 1;
#X connect 2 0 6 1;
#X connect 2 0 7 1;
#X connect 2 0 14 0;
#X connect 3 0 12 1;
#X connect 4 0 18 0;
#X connect 5 0 18 1;
#X connect 6 0 19 0;
#X connect 7 0 19 1;
#X connect 8 0 9 0;
#X connect 8 0 24 1;
#X connect 11 0 8 0;
#X connect 15 0 11 0;
#X connect 17 0 16 0;
#X connect 20 0 11 0;
#X connect 21 0 11 0;
#X connect 22 0 24 0;
#X connect 24 0 0 0;
#X connect 24 0 4 0;
#X connect 24 0 6 0;
#X connect 24 1 3 0;
#X connect 24 1 5 0;
#X connect 24 1 7 0;
