#N canvas 86 192 812 637 10;
#X obj 202 367 *~ 1;
#X obj 415 307 hsl 128 15 0 127 0 0 empty empty empty -2 -8 0 10 -262144
-1 -1 4200 1;
#X obj 412 327 jrange 0 127 0 1;
#X obj 236 367 *~ 1;
#X obj 270 367 *~ 1;
#X obj 305 367 *~ 1;
#X obj 340 367 *~ 1;
#X obj 375 367 *~ 1;
#X obj 162 130 sun~ ----------;
#X obj 14 14 hsl 600 15 0 115 0 0 empty empty empty -2 -8 0 10 -204800
-1 -1 5844 1;
#X floatatom 36 39 5 0 0 0 - - -, f 5;
#X text 80 37 temp;
#X obj 19 70 s temperature;
#X obj 162 71 line;
#X obj 164 418 output~ 1 2;
#X text 453 426 TODO: change these to 6 channel;
#X floatatom 431 356 5 0 0 0 - - -, f 5;
#X msg 212 72 stop;
#X obj 472 68 audio_tables_loader;
#X obj 471 43 bng 15 250 50 0 empty empty empty 17 7 0 10 -262144 -1
-1;
#X obj 257 418 output~ 3 4;
#X obj 350 418 output~ 5 6;
#X msg 272 62 55 \, 96 60000;
#X msg 161 47 10 \, 105 600000;
#X obj 161 99 bng 25 250 50 0 empty empty empty 17 7 0 10 -125416 -1
-1;
#X text 191 103 <- enable sunshine happiness component;
#X connect 0 0 14 0;
#X connect 1 0 2 0;
#X connect 2 0 0 1;
#X connect 2 0 3 1;
#X connect 2 0 4 1;
#X connect 2 0 5 1;
#X connect 2 0 6 1;
#X connect 2 0 7 1;
#X connect 2 0 16 0;
#X connect 3 0 14 1;
#X connect 4 0 14 0;
#X connect 5 0 14 1;
#X connect 6 0 14 0;
#X connect 7 0 14 1;
#X connect 8 0 0 0;
#X connect 8 1 3 0;
#X connect 8 2 4 0;
#X connect 8 3 5 0;
#X connect 8 4 6 0;
#X connect 8 5 7 0;
#X connect 9 0 10 0;
#X connect 9 0 12 0;
#X connect 13 0 9 0;
#X connect 17 0 13 0;
#X connect 19 0 18 0;
#X connect 22 0 13 0;
#X connect 23 0 13 0;
#X connect 24 0 8 0;
