#N canvas 244 71 812 637 10;
#X obj 202 367 *~ 1;
#X obj 413 285 hsl 128 15 0 127 0 0 empty empty empty -2 -8 0 10 -262144
-1 -1 11500 1;
#X obj 410 305 jrange 0 127 0 1;
#X obj 236 367 *~ 1;
#X obj 270 367 *~ 1;
#X obj 305 367 *~ 1;
#X obj 340 367 *~ 1;
#X obj 375 367 *~ 1;
#X obj 222 202 sun~ ----------;
#X obj 14 14 hsl 600 15 0 115 0 0 empty empty empty -2 -8 0 10 -204800
-1 -1 23500 1;
#X floatatom 36 39 5 0 0 0 - - -, f 5;
#X text 80 37 temp;
#X obj 19 70 s temperature;
#X obj 162 71 line;
#X msg 161 47 10 \, 85 120000;
#X obj 164 418 output~ 1 2;
#X text 453 426 TODO: change these to 6 channel;
#X floatatom 429 334 5 0 0 0 - - -, f 5;
#X msg 212 72 stop;
#X obj 434 109 audio_tables_loader;
#X obj 436 84 bng 15 250 50 0 empty empty empty 17 7 0 10 -262144 -1
-1;
#X obj 257 418 output~ 3 4;
#X obj 350 418 output~ 5 6;
#X msg 272 62 55 \, 96 60000;
#X connect 0 0 15 0;
#X connect 1 0 2 0;
#X connect 2 0 0 1;
#X connect 2 0 3 1;
#X connect 2 0 4 1;
#X connect 2 0 5 1;
#X connect 2 0 6 1;
#X connect 2 0 7 1;
#X connect 2 0 17 0;
#X connect 3 0 15 1;
#X connect 4 0 15 0;
#X connect 5 0 15 1;
#X connect 6 0 15 0;
#X connect 7 0 15 1;
#X connect 8 0 0 0;
#X connect 8 1 3 0;
#X connect 8 2 4 0;
#X connect 8 3 5 0;
#X connect 8 4 6 0;
#X connect 8 5 7 0;
#X connect 9 0 10 0;
#X connect 9 0 12 0;
#X connect 13 0 9 0;
#X connect 14 0 13 0;
#X connect 18 0 13 0;
#X connect 20 0 19 0;
#X connect 23 0 13 0;
