#N canvas 660 325 1136 602 10;
#X obj 368 501 outlet~;
#X obj 425 501 outlet~;
#X obj 482 501 outlet~;
#X obj 539 501 outlet~;
#X obj 596 501 outlet~;
#X obj 653 501 outlet~;
#X text 386 521 A;
#X text 440 520 B;
#X text 500 518 C;
#X text 557 518 D;
#X text 615 519 E;
#X text 674 519 F;
#X obj 143 66 r temperature;
#X obj 411 445 *~ 1;
#X obj 621 445 *~ 1;
#N canvas 390 327 327 300 sun-shimmer 0;
#X obj 43 199 outlet~;
#X obj 184 202 outlet~;
#X text 44 223 ACE;
#N canvas 153 160 584 570 ACE 0;
#X obj 184 492 outlet~;
#X obj 29 180 eloopxf~ 1000;
#X obj 288 180 eloopxf~ 1000;
#X obj 269 24 inlet;
#X text 290 49 temp;
#X msg 29 128 Sun_80-150_shimmer1_ACE;
#X msg 40 154 80;
#X msg 75 155 150;
#X msg 336 154 150;
#X msg 290 131 Sun_85-150_shimmer2_ACE;
#X msg 304 153 85;
#X obj 269 67 s \$0-shimtemp;
#X obj 111 156 r \$0-shimtemp;
#X obj 374 153 r \$0-shimtemp;
#X obj 26 285 eloopxf~ 1000;
#X msg 72 260 150;
#X obj 108 261 r \$0-shimtemp;
#X msg 37 259 88;
#X obj 295 289 eloopxf~ 1000;
#X msg 341 264 150;
#X obj 377 265 r \$0-shimtemp;
#X msg 296 236 Sun_91-150_shimmer4_ACE;
#X msg 306 263 91;
#X obj 29 405 eloopxf~ 1000;
#X msg 75 380 150;
#X obj 111 381 r \$0-shimtemp;
#X msg 40 379 94;
#X obj 293 409 eloopxf~ 1000;
#X msg 339 384 150;
#X obj 375 385 r \$0-shimtemp;
#X msg 295 355 Sun_96-150_shimmer6_ACE;
#X msg 30 351 Sun_94-150_shimmer5_ACE;
#X msg 304 383 96;
#X msg 27 232 Sun_88-150_shimmer3_ACE;
#X obj 70 25 inlet;
#X text 116 22 bang to set players;
#X obj 71 51 s \$0_shimmerbang_ACE;
#X obj 29 107 r \$0_shimmerbang_ACE;
#X obj 291 108 r \$0_shimmerbang_ACE;
#X obj 26 212 r \$0_shimmerbang_ACE;
#X obj 295 216 r \$0_shimmerbang_ACE;
#X obj 29 332 r \$0_shimmerbang_ACE;
#X obj 293 336 r \$0_shimmerbang_ACE;
#X connect 1 0 0 0;
#X connect 2 0 0 0;
#X connect 3 0 11 0;
#X connect 5 0 1 0;
#X connect 6 0 1 1;
#X connect 7 0 1 2;
#X connect 8 0 2 2;
#X connect 9 0 2 0;
#X connect 10 0 2 1;
#X connect 12 0 1 3;
#X connect 13 0 2 3;
#X connect 14 0 0 0;
#X connect 15 0 14 2;
#X connect 16 0 14 3;
#X connect 17 0 14 1;
#X connect 18 0 0 0;
#X connect 19 0 18 2;
#X connect 20 0 18 3;
#X connect 21 0 18 0;
#X connect 22 0 18 1;
#X connect 23 0 0 0;
#X connect 24 0 23 2;
#X connect 25 0 23 3;
#X connect 26 0 23 1;
#X connect 27 0 0 0;
#X connect 28 0 27 2;
#X connect 29 0 27 3;
#X connect 30 0 27 0;
#X connect 31 0 23 0;
#X connect 32 0 27 1;
#X connect 33 0 14 0;
#X connect 34 0 36 0;
#X connect 37 0 5 0;
#X connect 37 0 6 0;
#X connect 37 0 7 0;
#X connect 38 0 9 0;
#X connect 38 0 10 0;
#X connect 38 0 8 0;
#X connect 39 0 33 0;
#X connect 39 0 17 0;
#X connect 39 0 15 0;
#X connect 40 0 21 0;
#X connect 40 0 22 0;
#X connect 40 0 19 0;
#X connect 41 0 31 0;
#X connect 41 0 26 0;
#X connect 41 0 24 0;
#X connect 42 0 30 0;
#X connect 42 0 32 0;
#X connect 42 0 28 0;
#X restore 44 104 pd ACE;
#N canvas 765 156 584 570 BDF 0;
#X obj 184 492 outlet~;
#X obj 29 180 eloopxf~ 1000;
#X obj 288 180 eloopxf~ 1000;
#X obj 269 24 inlet;
#X text 290 49 temp;
#X msg 40 154 80;
#X msg 75 155 150;
#X msg 336 154 150;
#X msg 304 153 85;
#X obj 269 67 s \$0-shimtemp;
#X obj 111 156 r \$0-shimtemp;
#X obj 374 153 r \$0-shimtemp;
#X obj 26 285 eloopxf~ 1000;
#X msg 72 260 150;
#X obj 108 261 r \$0-shimtemp;
#X msg 37 259 88;
#X obj 295 289 eloopxf~ 1000;
#X msg 341 264 150;
#X obj 377 265 r \$0-shimtemp;
#X msg 306 263 91;
#X obj 29 405 eloopxf~ 1000;
#X msg 75 380 150;
#X obj 111 381 r \$0-shimtemp;
#X msg 40 379 94;
#X obj 293 409 eloopxf~ 1000;
#X msg 339 384 150;
#X obj 375 385 r \$0-shimtemp;
#X msg 304 383 96;
#X msg 29 128 Sun_80-150_shimmer1_BDF;
#X msg 290 131 Sun_85-150_shimmer2_BDF;
#X msg 28 232 Sun_88-150_shimmer3_BDF;
#X msg 296 236 Sun_91-150_shimmer4_BDF;
#X msg 30 351 Sun_94-150_shimmer5_BDF;
#X msg 295 355 Sun_96-150_shimmer6_BDF;
#X obj 66 26 inlet;
#X text 109 26 bang to set players;
#X obj 66 54 s \$0_shimmerbang_BDF;
#X obj 27 102 r \$0_shimmerbang_BDF;
#X obj 291 108 r \$0_shimmerbang_BDF;
#X obj 295 216 r \$0_shimmerbang_BDF;
#X obj 26 212 r \$0_shimmerbang_BDF;
#X obj 30 331 r \$0_shimmerbang_BDF;
#X obj 293 336 r \$0_shimmerbang_BDF;
#X connect 1 0 0 0;
#X connect 2 0 0 0;
#X connect 3 0 9 0;
#X connect 5 0 1 1;
#X connect 6 0 1 2;
#X connect 7 0 2 2;
#X connect 8 0 2 1;
#X connect 10 0 1 3;
#X connect 11 0 2 3;
#X connect 12 0 0 0;
#X connect 13 0 12 2;
#X connect 14 0 12 3;
#X connect 15 0 12 1;
#X connect 16 0 0 0;
#X connect 17 0 16 2;
#X connect 18 0 16 3;
#X connect 19 0 16 1;
#X connect 20 0 0 0;
#X connect 21 0 20 2;
#X connect 22 0 20 3;
#X connect 23 0 20 1;
#X connect 24 0 0 0;
#X connect 25 0 24 2;
#X connect 26 0 24 3;
#X connect 27 0 24 1;
#X connect 28 0 1 0;
#X connect 29 0 2 0;
#X connect 30 0 12 0;
#X connect 31 0 16 0;
#X connect 32 0 20 0;
#X connect 33 0 24 0;
#X connect 34 0 36 0;
#X connect 37 0 28 0;
#X connect 37 0 5 0;
#X connect 37 0 6 0;
#X connect 38 0 29 0;
#X connect 38 0 8 0;
#X connect 38 0 7 0;
#X connect 39 0 31 0;
#X connect 39 0 19 0;
#X connect 39 0 17 0;
#X connect 40 0 30 0;
#X connect 40 0 15 0;
#X connect 40 0 13 0;
#X connect 41 0 32 0;
#X connect 41 0 23 0;
#X connect 41 0 21 0;
#X connect 42 0 33 0;
#X connect 42 0 27 0;
#X connect 42 0 25 0;
#X restore 185 106 pd BDF;
#X obj 129 22 inlet;
#X obj 36 21 inlet;
#X text 188 223 BDF;
#X connect 3 0 0 0;
#X connect 4 0 1 0;
#X connect 5 0 3 1;
#X connect 5 0 4 1;
#X connect 6 0 3 0;
#X connect 6 0 4 0;
#X restore 264 115 pd sun-shimmer;
#N canvas 134 444 581 552 spot 0;
#X obj 74 10 inlet;
#X text 119 11 temp;
#X obj 63 489 outlet~;
#X obj 93 231 bng 15 250 50 0 empty empty empty 17 7 0 10 -262144 -1
-1;
#X obj 159 232 bng 15 250 50 0 empty empty empty 17 7 0 10 -262144
-1 -1;
#X obj 222 233 bng 15 250 50 0 empty empty empty 17 7 0 10 -262144
-1 -1;
#X obj 25 180 f;
#X floatatom 54 181 5 0 0 0 - - -, f 5;
#X obj 25 9 inlet;
#X text 30 27 play;
#X obj 123 128 bng 15 250 50 0 empty empty empty 17 7 0 10 -262144
-1 -1;
#X text 123 63 if out of range \, check every sec;
#X obj 62 457 playtable~;
#X obj 9 237 bng 15 250 50 0 empty empty empty 17 7 0 10 -262144 -1
-1;
#X obj 285 234 bng 15 250 50 0 empty empty empty 17 7 0 10 -262144
-1 -1;
#X obj 122 104 delay;
#X msg 123 81 1000;
#X obj 351 233 bng 15 250 50 0 empty empty empty 17 7 0 10 -262144
-1 -1;
#X msg 152 395 Sun_\$1_spot_ABCDEF;
#X obj 152 421 print spot;
#X obj 24 207 moses 32;
#X obj 92 207 moses 38;
#X obj 158 207 moses 44;
#X obj 221 207 moses 56;
#X obj 287 206 moses 62;
#X msg 93 256 symbol 32-38;
#X msg 159 279 symbol 38-44;
#X msg 222 301 symbol 44-56;
#X msg 285 324 symbol 56-62;
#X connect 0 0 6 1;
#X connect 3 0 25 0;
#X connect 4 0 26 0;
#X connect 5 0 27 0;
#X connect 6 0 7 0;
#X connect 6 0 20 0;
#X connect 8 0 6 0;
#X connect 10 0 6 0;
#X connect 12 0 2 0;
#X connect 12 1 6 0;
#X connect 14 0 28 0;
#X connect 15 0 10 0;
#X connect 16 0 15 0;
#X connect 18 0 12 0;
#X connect 18 0 19 0;
#X connect 20 0 13 0;
#X connect 20 0 16 0;
#X connect 20 1 21 0;
#X connect 21 0 3 0;
#X connect 21 1 22 0;
#X connect 22 0 4 0;
#X connect 22 1 23 0;
#X connect 23 0 5 0;
#X connect 23 1 24 0;
#X connect 24 0 14 0;
#X connect 24 1 17 0;
#X connect 24 1 16 0;
#X connect 25 0 18 0;
#X connect 26 0 18 0;
#X connect 27 0 18 0;
#X connect 28 0 18 0;
#X restore 452 106 pd spot;
#X obj 268 67 bng 15 250 50 0 empty empty empty 17 7 0 10 -262144 -1
-1;
#X obj 337 89 r temperature;
#X obj 498 81 r temperature;
#X obj 452 61 bng 15 250 50 0 empty empty empty 17 7 0 10 -262144 -1
-1;
#X obj 452 145 *~ 0.177828;
#X text 466 164 -15dB;
#X text 374 161 -8dB;
#X obj 354 145 *~ 0.398107;
#X text 281 160 -8dB;
#X obj 261 144 *~ 0.398107;
#X text 141 138 -6dB;
#X text 54 139 -6dB;
#X obj 34 123 *~ 0.501187;
#X obj 121 122 *~ 0.501187;
#X obj 640 83 r temperature;
#X obj 594 63 bng 15 250 50 0 empty empty empty 17 7 0 10 -262144 -1
-1;
#N canvas 71 93 730 707 shine 0;
#X obj 133 631 outlet~;
#X obj 289 628 outlet~;
#X text 133 656 ACE;
#X text 289 652 BDF;
#X obj 141 21 inlet;
#X obj 51 199 eloopxf~;
#X obj 378 17 inlet;
#X obj 376 41 s \$0_temp;
#X obj 129 167 r \$0_temp;
#X obj 304 201 eloopxf~;
#X obj 382 169 r \$0_temp;
#X obj 46 560 eloopxf~;
#X obj 124 528 r \$0_temp;
#X obj 366 520 eloopxf~;
#X obj 444 488 r \$0_temp;
#X msg 51 141 Sun_2-32_shine1_ACE;
#X msg 60 167 2;
#X msg 94 167 32;
#X msg 46 502 Sun_negative50-29_shine3_ACE;
#X msg 55 528 -50;
#X msg 89 528 29;
#X obj 39 386 eloopxf~;
#X obj 117 354 r \$0_temp;
#X msg 48 354 -50;
#X msg 39 328 Sun_negative50-32_shine2_ACE;
#X msg 82 354 32;
#X msg 304 143 Sun_2-32_shine1_BDF;
#X msg 313 169 2;
#X msg 347 169 32;
#X obj 334 373 eloopxf~;
#X obj 412 341 r \$0_temp;
#X msg 334 315 Sun_negative50-29_shine3_BDF;
#X msg 377 341 29;
#X msg 366 462 Sun_negative50-32_shine2_BDF;
#X msg 409 488 32;
#X obj 141 44 s \$0_shinebang;
#X obj 50 115 r \$0_shinebang;
#X obj 303 117 r \$0_shinebang;
#X obj 333 289 r \$0_shinebang;
#X obj 38 302 r \$0_shinebang;
#X obj 45 476 r \$0_shinebang;
#X obj 364 436 r \$0_shinebang;
#X msg 343 341 -50;
#X msg 375 488 -50;
#X connect 4 0 35 0;
#X connect 5 0 0 0;
#X connect 6 0 7 0;
#X connect 8 0 5 3;
#X connect 9 0 1 0;
#X connect 10 0 9 3;
#X connect 11 0 0 0;
#X connect 12 0 11 3;
#X connect 13 0 1 0;
#X connect 14 0 13 3;
#X connect 15 0 5 0;
#X connect 16 0 5 1;
#X connect 17 0 5 2;
#X connect 18 0 11 0;
#X connect 19 0 11 1;
#X connect 20 0 11 2;
#X connect 21 0 0 0;
#X connect 22 0 21 3;
#X connect 23 0 21 1;
#X connect 24 0 21 0;
#X connect 25 0 21 2;
#X connect 26 0 9 0;
#X connect 27 0 9 1;
#X connect 28 0 9 2;
#X connect 29 0 1 0;
#X connect 30 0 29 3;
#X connect 31 0 29 0;
#X connect 32 0 29 2;
#X connect 33 0 13 0;
#X connect 34 0 13 2;
#X connect 36 0 15 0;
#X connect 36 0 16 0;
#X connect 36 0 17 0;
#X connect 37 0 26 0;
#X connect 37 0 27 0;
#X connect 37 0 28 0;
#X connect 38 0 31 0;
#X connect 38 0 42 0;
#X connect 38 0 32 0;
#X connect 39 0 24 0;
#X connect 39 0 23 0;
#X connect 39 0 25 0;
#X connect 40 0 18 0;
#X connect 40 0 19 0;
#X connect 40 0 20 0;
#X connect 41 0 33 0;
#X connect 41 0 43 0;
#X connect 41 0 34 0;
#X connect 42 0 29 1;
#X connect 43 0 13 1;
#X restore 594 108 pd shine;
#X obj 594 147 *~ 0.354813;
#X text 608 166 -9dB;
#X obj 647 170 *~ 0.354813;
#X text 661 189 -9dB;
#X obj 793 82 r temperature;
#X obj 747 62 bng 15 250 50 0 empty empty empty 17 7 0 10 -262144 -1
-1;
#N canvas 551 166 646 457 flare 0;
#X obj 225 361 outlet~;
#X obj 141 21 inlet;
#X obj 378 17 inlet;
#X obj 376 41 s \$0_temp;
#X obj 129 167 r \$0_temp;
#X obj 308 173 r \$0_temp;
#X obj 482 170 r \$0_temp;
#X msg 94 167 32;
#X msg 273 173 32;
#X text 225 386 ABCDEF;
#X msg 51 141 Sun_14-32_flare1_ABCDEF;
#X msg 230 147 Sun_20-32_flare2_ABCDEF;
#X msg 404 144 Sun_26-38_flare1_ABCDEF;
#X obj 142 44 s \$0_flarebang;
#X obj 50 115 r \$0_flarebang;
#X obj 229 121 r \$0_flarebang;
#X obj 404 118 r \$0_flarebang;
#X msg 60 167 14;
#X msg 239 173 20;
#X msg 414 169 26;
#X msg 447 170 38;
#X obj 51 199 elooprange~;
#X obj 230 205 elooprange~;
#X obj 404 202 elooprange~;
#X connect 1 0 13 0;
#X connect 2 0 3 0;
#X connect 4 0 21 3;
#X connect 5 0 22 3;
#X connect 6 0 23 3;
#X connect 7 0 21 2;
#X connect 8 0 22 2;
#X connect 10 0 21 0;
#X connect 11 0 22 0;
#X connect 12 0 23 0;
#X connect 14 0 10 0;
#X connect 14 0 17 0;
#X connect 14 0 7 0;
#X connect 15 0 11 0;
#X connect 15 0 18 0;
#X connect 15 0 8 0;
#X connect 16 0 12 0;
#X connect 16 0 19 0;
#X connect 16 0 20 0;
#X connect 17 0 21 1;
#X connect 18 0 22 1;
#X connect 19 0 23 1;
#X connect 20 0 23 2;
#X connect 21 0 0 0;
#X connect 22 0 0 0;
#X connect 23 0 0 0;
#X restore 747 107 pd flare;
#X obj 747 169 *~ 0.398107;
#X text 761 188 -8dB;
#X obj 954 73 r temperature;
#X obj 908 52 bng 15 250 50 0 empty empty empty 17 7 0 10 -262144 -1
-1;
#N canvas 598 244 669 454 warm 0;
#X obj 284 391 outlet~;
#X obj 355 391 outlet~;
#X text 292 412 ACE;
#X text 362 410 BDF;
#X obj 141 21 inlet;
#X obj 25 250 eloopxf~;
#X obj 378 17 inlet;
#X obj 376 41 s \$0_temp;
#X obj 104 214 r \$0_temp;
#X obj 141 44 s \$0_warmbang;
#X obj 22 103 r \$0_warmbang;
#X msg 35 214 62;
#X msg 69 214 68;
#X obj 103 250 eloopxf~;
#X msg 25 183 \$1_ACE;
#X msg 108 181 \$1_BDF;
#X obj 56 150 symbol;
#X msg 24 124 Sun_62-68_warm;
#X obj 182 250 eloopxf~;
#X obj 261 214 r \$0_temp;
#X obj 179 103 r \$0_warmbang;
#X obj 260 250 eloopxf~;
#X msg 182 183 \$1_ACE;
#X msg 265 181 \$1_BDF;
#X obj 213 150 symbol;
#X msg 181 124 Sun_68-74_warm;
#X msg 192 214 68;
#X msg 226 214 74;
#X obj 338 249 eloopxf~;
#X obj 417 213 r \$0_temp;
#X obj 335 102 r \$0_warmbang;
#X obj 416 249 eloopxf~;
#X msg 338 182 \$1_ACE;
#X msg 421 180 \$1_BDF;
#X obj 369 149 symbol;
#X msg 337 123 Sun_74-80_warm;
#X msg 348 213 74;
#X msg 382 213 80;
#X obj 488 250 eloopxf~;
#X obj 567 214 r \$0_temp;
#X obj 485 103 r \$0_warmbang;
#X obj 566 250 eloopxf~;
#X msg 488 183 \$1_ACE;
#X msg 571 181 \$1_BDF;
#X obj 519 150 symbol;
#X msg 487 124 Sun_80-95_warm;
#X msg 498 214 80;
#X msg 532 214 95;
#X connect 4 0 9 0;
#X connect 5 0 0 0;
#X connect 6 0 7 0;
#X connect 8 0 5 3;
#X connect 8 0 13 3;
#X connect 10 0 17 0;
#X connect 10 0 11 0;
#X connect 10 0 12 0;
#X connect 11 0 5 1;
#X connect 11 0 13 1;
#X connect 12 0 5 2;
#X connect 12 0 13 2;
#X connect 13 0 1 0;
#X connect 14 0 5 0;
#X connect 15 0 13 0;
#X connect 16 0 14 0;
#X connect 16 0 15 0;
#X connect 17 0 16 0;
#X connect 18 0 0 0;
#X connect 19 0 18 3;
#X connect 19 0 21 3;
#X connect 20 0 25 0;
#X connect 20 0 26 0;
#X connect 20 0 27 0;
#X connect 21 0 1 0;
#X connect 22 0 18 0;
#X connect 23 0 21 0;
#X connect 24 0 22 0;
#X connect 24 0 23 0;
#X connect 25 0 24 0;
#X connect 26 0 18 1;
#X connect 26 0 21 1;
#X connect 27 0 18 2;
#X connect 27 0 21 2;
#X connect 28 0 0 0;
#X connect 29 0 28 3;
#X connect 29 0 31 3;
#X connect 30 0 35 0;
#X connect 30 0 36 0;
#X connect 30 0 37 0;
#X connect 31 0 1 0;
#X connect 32 0 28 0;
#X connect 33 0 31 0;
#X connect 34 0 32 0;
#X connect 34 0 33 0;
#X connect 35 0 34 0;
#X connect 36 0 28 1;
#X connect 36 0 31 1;
#X connect 37 0 28 2;
#X connect 37 0 31 2;
#X connect 38 0 0 0;
#X connect 39 0 38 3;
#X connect 39 0 41 3;
#X connect 40 0 45 0;
#X connect 40 0 46 0;
#X connect 40 0 47 0;
#X connect 41 0 1 0;
#X connect 42 0 38 0;
#X connect 43 0 41 0;
#X connect 44 0 42 0;
#X connect 44 0 43 0;
#X connect 45 0 44 0;
#X connect 46 0 38 1;
#X connect 46 0 41 1;
#X connect 47 0 38 2;
#X connect 47 0 41 2;
#X restore 908 98 pd warm;
#X obj 908 137 *~ 0.794328;
#X obj 955 160 *~ 0.794328;
#X text 1007 178 -2dB;
#X text 910 155 -2dB;
#X obj 49 428 vu 15 120 empty empty -1 -8 0 10 -66577 -262144 1 0;
#X obj 40 379 env~;
#X obj 40 402 - 100;
#X obj 70 428 vu 15 120 empty empty -1 -8 0 10 -66577 -262144 1 0;
#X obj 85 378 env~;
#X obj 85 401 - 100;
#X obj 91 427 vu 15 120 empty empty -1 -8 0 10 -66577 -262144 1 0;
#X obj 127 377 env~;
#X obj 127 400 - 100;
#X obj 112 427 vu 15 120 empty empty -1 -8 0 10 -66577 -262144 1 0
;
#X obj 169 377 env~;
#X obj 169 400 - 100;
#X obj 858 438 vu 15 120 empty empty -1 -8 0 10 -66577 -1 1 0;
#X obj 857 390 env~;
#X obj 857 413 - 100;
#X text 848 564 wave;
#X obj 816 438 vu 15 120 empty empty -1 -8 0 10 -66577 -1 1 0;
#X obj 815 390 env~;
#X obj 815 413 - 100;
#X obj 773 437 vu 15 120 empty empty -1 -8 0 10 -66577 -262144 1 0
;
#X obj 772 389 env~;
#X obj 772 412 - 100;
#N canvas 1066 168 444 432 sun-beating 0;
#X text 124 319 ACE;
#X text 227 319 BDF;
#X obj 223 61 inlet;
#X text 211 78 temperature;
#X obj 119 301 outlet~;
#X obj 219 300 outlet~;
#X text 102 49 start;
#X obj 103 65 inlet;
#N canvas 713 237 549 571 ABCDEF---- 0;
#X obj 74 11 inlet;
#X text 119 12 temp;
#X obj 63 490 outlet~;
#X obj 93 232 bng 15 250 50 0 empty empty empty 17 7 0 10 -262144 -1
-1;
#X obj 159 233 bng 15 250 50 0 empty empty empty 17 7 0 10 -262144
-1 -1;
#X obj 222 234 bng 15 250 50 0 empty empty empty 17 7 0 10 -262144
-1 -1;
#X obj 25 181 f;
#X floatatom 54 182 5 0 0 0 - - -, f 5;
#X obj 25 10 inlet;
#X text 30 28 play;
#X obj 123 129 bng 15 250 50 0 empty empty empty 17 7 0 10 -262144
-1 -1;
#X text 123 64 if out of range \, check every sec;
#X obj 62 458 playtable~;
#X obj 9 238 bng 15 250 50 0 empty empty empty 17 7 0 10 -262144 -1
-1;
#X obj 285 235 bng 15 250 50 0 empty empty empty 17 7 0 10 -262144
-1 -1;
#X obj 122 105 delay;
#X msg 123 82 1000;
#X msg 152 396 Sun_\$1_beating_ABCDEF;
#X obj 24 208 moses 62;
#X obj 92 208 moses 68;
#X obj 158 208 moses 74;
#X obj 221 208 moses 80;
#X obj 351 234 bng 15 250 50 0 empty empty empty 17 7 0 10 -262144
-1 -1;
#X obj 287 207 moses 92;
#X msg 93 257 symbol 62-68;
#X msg 159 280 symbol 68-74;
#X msg 222 302 symbol 74-80;
#X msg 285 325 symbol 80-92;
#X obj 152 422 print high beating;
#X connect 0 0 6 1;
#X connect 3 0 24 0;
#X connect 4 0 25 0;
#X connect 5 0 26 0;
#X connect 6 0 7 0;
#X connect 6 0 18 0;
#X connect 8 0 6 0;
#X connect 10 0 6 0;
#X connect 12 0 2 0;
#X connect 12 1 6 0;
#X connect 14 0 27 0;
#X connect 15 0 10 0;
#X connect 16 0 15 0;
#X connect 17 0 12 0;
#X connect 17 0 28 0;
#X connect 18 0 13 0;
#X connect 18 0 16 0;
#X connect 18 1 19 0;
#X connect 19 0 3 0;
#X connect 19 1 20 0;
#X connect 20 0 4 0;
#X connect 20 1 21 0;
#X connect 21 0 5 0;
#X connect 21 1 23 0;
#X connect 23 0 14 0;
#X connect 23 1 22 0;
#X connect 23 1 16 0;
#X connect 24 0 17 0;
#X connect 25 0 17 0;
#X connect 26 0 17 0;
#X connect 27 0 17 0;
#X restore 227 188 pd ABCDEF----;
#N canvas 200 301 549 571 ACE 0;
#X obj 74 11 inlet;
#X text 119 12 temp;
#X obj 63 490 outlet~;
#X obj 24 208 moses 44;
#X obj 92 208 moses 50;
#X obj 158 208 moses 56;
#X obj 221 208 moses 62;
#X obj 93 232 bng 15 250 50 0 empty empty empty 17 7 0 10 -262144 -1
-1;
#X obj 159 233 bng 15 250 50 0 empty empty empty 17 7 0 10 -262144
-1 -1;
#X obj 222 234 bng 15 250 50 0 empty empty empty 17 7 0 10 -262144
-1 -1;
#X obj 25 181 f;
#X floatatom 54 182 5 0 0 0 - - -, f 5;
#X obj 157 400 print lefty;
#X msg 93 267 symbol 44-50;
#X msg 158 292 symbol 50-56;
#X msg 222 315 symbol 56-62;
#X obj 25 10 inlet;
#X text 30 28 play;
#X obj 123 129 bng 15 250 50 0 empty empty empty 17 7 0 10 -262144
-1 -1;
#X text 123 64 if out of range \, check every sec;
#X obj 62 458 playtable~;
#X msg 152 377 Sun_\$1_beating_ACE;
#X obj 9 238 bng 15 250 50 0 empty empty empty 17 7 0 10 -262144 -1
-1;
#X obj 285 235 bng 15 250 50 0 empty empty empty 17 7 0 10 -262144
-1 -1;
#X obj 122 105 delay;
#X msg 123 82 1000;
#X obj 304 484 outlet~;
#X obj 303 452 playtable~;
#X msg 303 377 Sun_\$1_beating_BDF;
#X obj 308 400 print righty;
#X text 301 340 assume ACE and BDF same length;
#X text 302 352 for each range;
#X connect 0 0 10 1;
#X connect 3 0 22 0;
#X connect 3 0 25 0;
#X connect 3 1 4 0;
#X connect 4 0 7 0;
#X connect 4 1 5 0;
#X connect 5 0 8 0;
#X connect 5 1 6 0;
#X connect 6 0 9 0;
#X connect 6 1 23 0;
#X connect 6 1 25 0;
#X connect 7 0 13 0;
#X connect 8 0 14 0;
#X connect 9 0 15 0;
#X connect 10 0 3 0;
#X connect 10 0 11 0;
#X connect 13 0 21 0;
#X connect 13 0 28 0;
#X connect 14 0 21 0;
#X connect 14 0 28 0;
#X connect 15 0 21 0;
#X connect 15 0 28 0;
#X connect 16 0 10 0;
#X connect 18 0 10 0;
#X connect 20 0 2 0;
#X connect 20 1 10 0;
#X connect 21 0 12 0;
#X connect 21 0 20 0;
#X connect 24 0 18 0;
#X connect 25 0 24 0;
#X connect 27 0 26 0;
#X connect 28 0 27 0;
#X connect 28 0 29 0;
#X restore 77 188 pd ACE and DEF----;
#X connect 2 0 9 1;
#X connect 2 0 8 1;
#X connect 7 0 9 0;
#X connect 7 0 8 0;
#X connect 8 0 4 0;
#X connect 8 0 5 0;
#X connect 9 0 4 0;
#X connect 9 1 5 0;
#X restore 48 91 pd sun-beating;
#X obj 47 64 bng 15 250 50 0 empty empty empty 17 7 0 10 -262144 -1
-1;
#X text 51 551 b;
#X text 89 550 sp;
#X text 65 550 shm;
#X text 108 550 shn;
#N canvas 423 280 626 673 wave1 1;
#X obj 74 11 inlet;
#X text 119 12 temp;
#X obj 59 616 outlet~;
#X obj 93 232 bng 15 250 50 0 empty empty empty 17 7 0 10 -262144 -1
-1;
#X obj 159 233 bng 15 250 50 0 empty empty empty 17 7 0 10 -262144
-1 -1;
#X obj 222 234 bng 15 250 50 0 empty empty empty 17 7 0 10 -262144
-1 -1;
#X obj 25 181 f;
#X floatatom 54 182 5 0 0 0 - - -, f 5;
#X obj 25 10 inlet;
#X text 30 28 play;
#X obj 123 129 bng 15 250 50 0 empty empty empty 17 7 0 10 -262144
-1 -1;
#X text 123 64 if out of range \, check every sec;
#X obj 58 584 playtable~;
#X obj 9 238 bng 15 250 50 0 empty empty empty 17 7 0 10 -262144 -1
-1;
#X obj 122 105 delay;
#X msg 123 82 1000;
#X obj 300 610 outlet~;
#X obj 299 578 playtable~;
#X text 346 462 assume ACE and BDF same length;
#X text 343 474 for each range;
#X msg 148 503 Sun_\$1_wave1_ACE;
#X msg 299 503 Sun_\$1_wave1_BDF;
#X obj 153 526 print wave1_left;
#X obj 304 526 print wave1_right;
#X obj 287 234 bng 15 250 50 0 empty empty empty 17 7 0 10 -262144
-1 -1;
#X obj 24 208 moses 32;
#X obj 92 208 moses 38;
#X obj 158 208 moses 50;
#X obj 221 208 moses 56;
#X obj 286 208 moses 68;
#X obj 351 234 bng 15 250 50 0 empty empty empty 17 7 0 10 -262144
-1 -1;
#X obj 415 234 bng 15 250 50 0 empty empty empty 17 7 0 10 -262144
-1 -1;
#X obj 478 235 bng 15 250 50 0 empty empty empty 17 7 0 10 -262144
-1 -1;
#X obj 350 208 moses 74;
#X obj 414 208 moses 89;
#X msg 93 267 symbol 32-38;
#X msg 158 292 symbol 38-50;
#X msg 222 315 symbol 50-56;
#X msg 287 338 symbol 56-68;
#X msg 351 365 symbol 68-74;
#X msg 415 389 symbol 74-89;
#X connect 0 0 6 1;
#X connect 3 0 35 0;
#X connect 4 0 36 0;
#X connect 5 0 37 0;
#X connect 6 0 7 0;
#X connect 6 0 25 0;
#X connect 8 0 6 0;
#X connect 10 0 6 0;
#X connect 12 0 2 0;
#X connect 12 1 6 0;
#X connect 14 0 10 0;
#X connect 15 0 14 0;
#X connect 17 0 16 0;
#X connect 20 0 12 0;
#X connect 20 0 22 0;
#X connect 21 0 17 0;
#X connect 21 0 23 0;
#X connect 24 0 38 0;
#X connect 25 0 13 0;
#X connect 25 0 15 0;
#X connect 25 1 26 0;
#X connect 26 0 3 0;
#X connect 26 1 27 0;
#X connect 27 0 4 0;
#X connect 27 1 28 0;
#X connect 28 0 5 0;
#X connect 28 1 29 0;
#X connect 29 0 24 0;
#X connect 29 1 33 0;
#X connect 30 0 39 0;
#X connect 31 0 40 0;
#X connect 33 0 30 0;
#X connect 33 1 34 0;
#X connect 34 0 31 0;
#X connect 34 1 32 0;
#X connect 35 0 20 0;
#X connect 35 0 21 0;
#X connect 36 0 20 0;
#X connect 36 0 21 0;
#X connect 37 0 20 0;
#X connect 37 0 21 0;
#X connect 38 0 20 0;
#X connect 38 0 21 0;
#X connect 39 0 20 0;
#X connect 39 0 21 0;
#X connect 40 0 20 0;
#X connect 40 0 21 0;
#X restore 909 319 pd wave1;
#X text 767 564 flr;
#X text 810 565 wrm;
#X obj 962 295 r temperature;
#X obj 914 221 bng 15 250 50 0 empty empty empty 17 7 0 10 -262144
-1 -1;
#X obj 910 354 *~ 1;
#X text 924 373 0dB;
#X obj 946 353 *~ 1;
#X text 960 372 0dB;
#X obj 920 398 throw~ sunACE;
#X obj 959 422 throw~ sunBDF;
#X obj 395 377 catch~ sunACE;
#X obj 504 378 catch~ sunBDF;
#X obj 51 160 throw~ sunACE;
#X obj 122 183 throw~ sunBDF;
#X obj 264 195 throw~ sunACE;
#X obj 335 218 throw~ sunBDF;
#X obj 443 196 throw~ sunACE;
#X obj 466 216 throw~ sunBDF;
#X obj 581 202 throw~ sunACE;
#X obj 652 225 throw~ sunBDF;
#X obj 756 209 throw~ sunACE;
#X obj 772 231 throw~ sunBDF;
#X obj 909 184 throw~ sunACE;
#X obj 980 207 throw~ sunBDF;
#X connect 12 0 72 1;
#X connect 13 0 0 0;
#X connect 13 0 2 0;
#X connect 13 0 4 0;
#X connect 14 0 1 0;
#X connect 14 0 3 0;
#X connect 14 0 5 0;
#X connect 15 0 26 0;
#X connect 15 1 24 0;
#X connect 16 0 21 0;
#X connect 17 0 15 0;
#X connect 18 0 15 1;
#X connect 19 0 16 1;
#X connect 20 0 16 0;
#X connect 21 0 57 0;
#X connect 21 0 95 0;
#X connect 21 0 96 0;
#X connect 24 0 94 0;
#X connect 26 0 54 0;
#X connect 26 0 93 0;
#X connect 29 0 51 0;
#X connect 29 0 91 0;
#X connect 30 0 92 0;
#X connect 31 0 33 1;
#X connect 32 0 33 0;
#X connect 33 0 34 0;
#X connect 33 1 36 0;
#X connect 34 0 60 0;
#X connect 34 0 97 0;
#X connect 36 0 98 0;
#X connect 38 0 40 1;
#X connect 39 0 40 0;
#X connect 40 0 41 0;
#X connect 41 0 70 0;
#X connect 41 0 99 0;
#X connect 41 0 100 0;
#X connect 43 0 45 1;
#X connect 44 0 45 0;
#X connect 45 0 46 0;
#X connect 45 1 47 0;
#X connect 46 0 67 0;
#X connect 46 0 101 0;
#X connect 47 0 102 0;
#X connect 51 0 52 0;
#X connect 52 0 50 0;
#X connect 54 0 55 0;
#X connect 55 0 53 0;
#X connect 57 0 58 0;
#X connect 58 0 56 0;
#X connect 60 0 61 0;
#X connect 61 0 59 0;
#X connect 63 0 64 0;
#X connect 64 0 62 0;
#X connect 67 0 68 0;
#X connect 68 0 66 0;
#X connect 70 0 71 0;
#X connect 71 0 69 0;
#X connect 72 0 29 0;
#X connect 72 1 30 0;
#X connect 73 0 72 0;
#X connect 78 0 63 0;
#X connect 78 0 83 0;
#X connect 78 1 85 0;
#X connect 81 0 78 1;
#X connect 82 0 78 0;
#X connect 83 0 87 0;
#X connect 85 0 88 0;
#X connect 89 0 13 0;
#X connect 90 0 14 0;
