#N canvas 2 52 1012 606 10;
#X obj 36 560 outlet~;
#X obj 134 559 outlet~;
#N canvas 390 327 327 300 sun-shimmer 0;
#X obj 43 199 outlet~;
#X obj 184 202 outlet~;
#X text 44 223 ACE;
#N canvas 153 160 584 570 ACE 0;
#X obj 184 492 outlet~;
#X obj 29 180 eloopxf~ 1000;
#X obj 288 180 eloopxf~ 1000;
#X obj 269 24 inlet;
#X text 290 49 temp;
#X msg 29 128 Sun_80-150_shimmer1_ACE;
#X msg 40 154 80;
#X msg 75 155 150;
#X msg 336 154 150;
#X msg 290 131 Sun_85-150_shimmer2_ACE;
#X msg 304 153 85;
#X obj 269 67 s \$0-shimtemp;
#X obj 111 156 r \$0-shimtemp;
#X obj 374 153 r \$0-shimtemp;
#X obj 26 285 eloopxf~ 1000;
#X msg 72 260 150;
#X obj 108 261 r \$0-shimtemp;
#X msg 37 259 88;
#X obj 295 289 eloopxf~ 1000;
#X msg 341 264 150;
#X obj 377 265 r \$0-shimtemp;
#X msg 296 236 Sun_91-150_shimmer4_ACE;
#X msg 306 263 91;
#X obj 29 405 eloopxf~ 1000;
#X msg 75 380 150;
#X obj 111 381 r \$0-shimtemp;
#X msg 40 379 94;
#X obj 293 409 eloopxf~ 1000;
#X msg 339 384 150;
#X obj 375 385 r \$0-shimtemp;
#X msg 295 355 Sun_96-150_shimmer6_ACE;
#X msg 30 351 Sun_94-150_shimmer5_ACE;
#X msg 304 383 96;
#X msg 27 232 Sun_88-150_shimmer3_ACE;
#X obj 70 25 inlet;
#X text 116 22 bang to set players;
#X obj 71 51 s \$0_shimmerbang_ACE;
#X obj 29 107 r \$0_shimmerbang_ACE;
#X obj 291 108 r \$0_shimmerbang_ACE;
#X obj 26 212 r \$0_shimmerbang_ACE;
#X obj 295 216 r \$0_shimmerbang_ACE;
#X obj 29 332 r \$0_shimmerbang_ACE;
#X obj 293 336 r \$0_shimmerbang_ACE;
#X connect 1 0 0 0;
#X connect 2 0 0 0;
#X connect 3 0 11 0;
#X connect 5 0 1 0;
#X connect 6 0 1 1;
#X connect 7 0 1 2;
#X connect 8 0 2 2;
#X connect 9 0 2 0;
#X connect 10 0 2 1;
#X connect 12 0 1 3;
#X connect 13 0 2 3;
#X connect 14 0 0 0;
#X connect 15 0 14 2;
#X connect 16 0 14 3;
#X connect 17 0 14 1;
#X connect 18 0 0 0;
#X connect 19 0 18 2;
#X connect 20 0 18 3;
#X connect 21 0 18 0;
#X connect 22 0 18 1;
#X connect 23 0 0 0;
#X connect 24 0 23 2;
#X connect 25 0 23 3;
#X connect 26 0 23 1;
#X connect 27 0 0 0;
#X connect 28 0 27 2;
#X connect 29 0 27 3;
#X connect 30 0 27 0;
#X connect 31 0 23 0;
#X connect 32 0 27 1;
#X connect 33 0 14 0;
#X connect 34 0 36 0;
#X connect 37 0 5 0;
#X connect 37 0 6 0;
#X connect 37 0 7 0;
#X connect 38 0 9 0;
#X connect 38 0 10 0;
#X connect 38 0 8 0;
#X connect 39 0 33 0;
#X connect 39 0 17 0;
#X connect 39 0 15 0;
#X connect 40 0 21 0;
#X connect 40 0 22 0;
#X connect 40 0 19 0;
#X connect 41 0 31 0;
#X connect 41 0 26 0;
#X connect 41 0 24 0;
#X connect 42 0 30 0;
#X connect 42 0 32 0;
#X connect 42 0 28 0;
#X restore 44 104 pd ACE;
#N canvas 765 156 584 570 BDF 0;
#X obj 184 492 outlet~;
#X obj 29 180 eloopxf~ 1000;
#X obj 288 180 eloopxf~ 1000;
#X obj 269 24 inlet;
#X text 290 49 temp;
#X msg 40 154 80;
#X msg 75 155 150;
#X msg 336 154 150;
#X msg 304 153 85;
#X obj 269 67 s \$0-shimtemp;
#X obj 111 156 r \$0-shimtemp;
#X obj 374 153 r \$0-shimtemp;
#X obj 26 285 eloopxf~ 1000;
#X msg 72 260 150;
#X obj 108 261 r \$0-shimtemp;
#X msg 37 259 88;
#X obj 295 289 eloopxf~ 1000;
#X msg 341 264 150;
#X obj 377 265 r \$0-shimtemp;
#X msg 306 263 91;
#X obj 29 405 eloopxf~ 1000;
#X msg 75 380 150;
#X obj 111 381 r \$0-shimtemp;
#X msg 40 379 94;
#X obj 293 409 eloopxf~ 1000;
#X msg 339 384 150;
#X obj 375 385 r \$0-shimtemp;
#X msg 304 383 96;
#X msg 29 128 Sun_80-150_shimmer1_BDF;
#X msg 290 131 Sun_85-150_shimmer2_BDF;
#X msg 28 232 Sun_88-150_shimmer3_BDF;
#X msg 296 236 Sun_91-150_shimmer4_BDF;
#X msg 30 351 Sun_94-150_shimmer5_BDF;
#X msg 295 355 Sun_96-150_shimmer6_BDF;
#X obj 66 26 inlet;
#X text 109 26 bang to set players;
#X obj 66 54 s \$0_shimmerbang_BDF;
#X obj 27 102 r \$0_shimmerbang_BDF;
#X obj 291 108 r \$0_shimmerbang_BDF;
#X obj 295 216 r \$0_shimmerbang_BDF;
#X obj 26 212 r \$0_shimmerbang_BDF;
#X obj 30 331 r \$0_shimmerbang_BDF;
#X obj 293 336 r \$0_shimmerbang_BDF;
#X connect 1 0 0 0;
#X connect 2 0 0 0;
#X connect 3 0 9 0;
#X connect 5 0 1 1;
#X connect 6 0 1 2;
#X connect 7 0 2 2;
#X connect 8 0 2 1;
#X connect 10 0 1 3;
#X connect 11 0 2 3;
#X connect 12 0 0 0;
#X connect 13 0 12 2;
#X connect 14 0 12 3;
#X connect 15 0 12 1;
#X connect 16 0 0 0;
#X connect 17 0 16 2;
#X connect 18 0 16 3;
#X connect 19 0 16 1;
#X connect 20 0 0 0;
#X connect 21 0 20 2;
#X connect 22 0 20 3;
#X connect 23 0 20 1;
#X connect 24 0 0 0;
#X connect 25 0 24 2;
#X connect 26 0 24 3;
#X connect 27 0 24 1;
#X connect 28 0 1 0;
#X connect 29 0 2 0;
#X connect 30 0 12 0;
#X connect 31 0 16 0;
#X connect 32 0 20 0;
#X connect 33 0 24 0;
#X connect 34 0 36 0;
#X connect 37 0 28 0;
#X connect 37 0 5 0;
#X connect 37 0 6 0;
#X connect 38 0 29 0;
#X connect 38 0 8 0;
#X connect 38 0 7 0;
#X connect 39 0 31 0;
#X connect 39 0 19 0;
#X connect 39 0 17 0;
#X connect 40 0 30 0;
#X connect 40 0 15 0;
#X connect 40 0 13 0;
#X connect 41 0 32 0;
#X connect 41 0 23 0;
#X connect 41 0 21 0;
#X connect 42 0 33 0;
#X connect 42 0 27 0;
#X connect 42 0 25 0;
#X restore 185 106 pd BDF;
#X obj 129 22 inlet;
#X obj 36 21 inlet;
#X text 188 223 BDF;
#X connect 3 0 0 0;
#X connect 4 0 1 0;
#X connect 5 0 3 1;
#X connect 5 0 4 1;
#X connect 6 0 3 0;
#X connect 6 0 4 0;
#X restore 249 186 pd sun-shimmer;
#N canvas 191 84 581 552 spot 0;
#X obj 74 10 inlet;
#X text 119 11 temp;
#X obj 63 489 outlet~;
#X obj 93 231 bng 15 250 50 0 empty empty empty 17 7 0 10 -262144 -1
-1;
#X obj 159 232 bng 15 250 50 0 empty empty empty 17 7 0 10 -262144
-1 -1;
#X obj 222 233 bng 15 250 50 0 empty empty empty 17 7 0 10 -262144
-1 -1;
#X obj 25 180 f;
#X floatatom 54 181 5 0 0 0 - - -;
#X obj 25 9 inlet;
#X text 30 27 play;
#X obj 123 128 bng 15 250 50 0 empty empty empty 17 7 0 10 -262144
-1 -1;
#X text 123 63 if out of range \, check every sec;
#X obj 62 457 playtable~;
#X obj 9 237 bng 15 250 50 0 empty empty empty 17 7 0 10 -262144 -1
-1;
#X obj 285 234 bng 15 250 50 0 empty empty empty 17 7 0 10 -262144
-1 -1;
#X obj 122 104 delay;
#X msg 123 81 1000;
#X obj 351 233 bng 15 250 50 0 empty empty empty 17 7 0 10 -262144
-1 -1;
#X msg 152 395 Sun_\$1_spot_ABCDEF;
#X obj 152 421 print spot;
#X obj 24 207 moses 32;
#X obj 92 207 moses 38;
#X obj 158 207 moses 44;
#X obj 221 207 moses 56;
#X obj 287 206 moses 62;
#X msg 93 256 symbol 32-38;
#X msg 159 279 symbol 38-44;
#X msg 222 301 symbol 44-56;
#X msg 285 324 symbol 56-62;
#X connect 0 0 6 1;
#X connect 3 0 25 0;
#X connect 4 0 26 0;
#X connect 5 0 27 0;
#X connect 6 0 7 0;
#X connect 6 0 20 0;
#X connect 8 0 6 0;
#X connect 10 0 6 0;
#X connect 12 0 2 0;
#X connect 12 1 6 0;
#X connect 14 0 28 0;
#X connect 15 0 10 0;
#X connect 16 0 15 0;
#X connect 18 0 12 0;
#X connect 18 0 19 0;
#X connect 20 0 13 0;
#X connect 20 0 16 0;
#X connect 20 1 21 0;
#X connect 21 0 3 0;
#X connect 21 1 22 0;
#X connect 22 0 4 0;
#X connect 22 1 23 0;
#X connect 23 0 5 0;
#X connect 23 1 24 0;
#X connect 24 0 14 0;
#X connect 24 1 17 0;
#X connect 24 1 16 0;
#X connect 25 0 18 0;
#X connect 26 0 18 0;
#X connect 27 0 18 0;
#X connect 28 0 18 0;
#X restore 438 186 pd spot;
#X obj 253 138 bng 15 250 50 0 empty sun-startall empty 17 7 0 10 -262144
-1 -1;
#X obj 438 141 bng 15 250 50 0 empty sun-startall empty 17 7 0 10 -262144
-1 -1;
#X obj 594 143 bng 15 250 50 0 empty sun-startall empty 17 7 0 10 -262144
-1 -1;
#N canvas 229 1 730 707 shine 0;
#X obj 133 631 outlet~;
#X obj 289 628 outlet~;
#X text 133 656 ACE;
#X text 289 652 BDF;
#X obj 141 21 inlet;
#X obj 378 17 inlet;
#X obj 376 41 s \$0_temp;
#X obj 129 167 r \$0_temp;
#X obj 382 169 r \$0_temp;
#X obj 124 528 r \$0_temp;
#X obj 444 488 r \$0_temp;
#X msg 51 141 Sun_2-32_shine1_ACE;
#X msg 60 167 2;
#X msg 94 167 32;
#X msg 46 502 Sun_negative50-29_shine3_ACE;
#X msg 55 528 -50;
#X msg 89 528 29;
#X obj 117 354 r \$0_temp;
#X msg 48 354 -50;
#X msg 39 328 Sun_negative50-32_shine2_ACE;
#X msg 82 354 32;
#X msg 304 143 Sun_2-32_shine1_BDF;
#X msg 313 169 2;
#X msg 347 169 32;
#X obj 412 341 r \$0_temp;
#X msg 334 315 Sun_negative50-29_shine3_BDF;
#X msg 377 341 29;
#X msg 366 462 Sun_negative50-32_shine2_BDF;
#X msg 409 488 32;
#X obj 141 44 s \$0_shinebang;
#X obj 50 115 r \$0_shinebang;
#X obj 303 117 r \$0_shinebang;
#X obj 333 289 r \$0_shinebang;
#X obj 38 302 r \$0_shinebang;
#X obj 45 476 r \$0_shinebang;
#X obj 364 436 r \$0_shinebang;
#X msg 343 341 -50;
#X msg 375 488 -50;
#X obj 51 199 eloopxf~ 1000;
#X obj 304 201 eloopxf~ 1000;
#X obj 334 373 eloopxf~ 1000;
#X obj 366 520 eloopxf~ 1000;
#X obj 39 386 eloopxf~ 1000;
#X obj 46 560 eloopxf~ 1000;
#X connect 4 0 29 0;
#X connect 5 0 6 0;
#X connect 7 0 38 3;
#X connect 8 0 39 3;
#X connect 9 0 43 3;
#X connect 10 0 41 3;
#X connect 11 0 38 0;
#X connect 12 0 38 1;
#X connect 13 0 38 2;
#X connect 14 0 43 0;
#X connect 15 0 43 1;
#X connect 16 0 43 2;
#X connect 17 0 42 3;
#X connect 18 0 42 1;
#X connect 19 0 42 0;
#X connect 20 0 42 2;
#X connect 21 0 39 0;
#X connect 22 0 39 1;
#X connect 23 0 39 2;
#X connect 24 0 40 3;
#X connect 25 0 40 0;
#X connect 26 0 40 2;
#X connect 27 0 41 0;
#X connect 28 0 41 2;
#X connect 30 0 11 0;
#X connect 30 0 12 0;
#X connect 30 0 13 0;
#X connect 31 0 21 0;
#X connect 31 0 22 0;
#X connect 31 0 23 0;
#X connect 32 0 25 0;
#X connect 32 0 36 0;
#X connect 32 0 26 0;
#X connect 33 0 19 0;
#X connect 33 0 18 0;
#X connect 33 0 20 0;
#X connect 34 0 14 0;
#X connect 34 0 15 0;
#X connect 34 0 16 0;
#X connect 35 0 27 0;
#X connect 35 0 37 0;
#X connect 35 0 28 0;
#X connect 36 0 40 1;
#X connect 37 0 41 1;
#X connect 38 0 0 0;
#X connect 39 0 1 0;
#X connect 40 0 1 0;
#X connect 41 0 1 0;
#X connect 42 0 0 0;
#X connect 43 0 0 0;
#X restore 594 188 pd shine;
#X obj 747 142 bng 15 250 50 0 empty sun-startall empty 17 7 0 10 -262144
-1 -1;
#N canvas 144 84 646 457 flare 0;
#X obj 225 361 outlet~;
#X obj 141 21 inlet;
#X obj 378 17 inlet;
#X obj 376 41 s \$0_temp;
#X obj 129 167 r \$0_temp;
#X obj 308 173 r \$0_temp;
#X obj 482 170 r \$0_temp;
#X msg 94 167 32;
#X msg 273 173 32;
#X text 225 386 ABCDEF;
#X msg 51 141 Sun_14-32_flare1_ABCDEF;
#X msg 230 147 Sun_20-32_flare2_ABCDEF;
#X msg 404 144 Sun_26-38_flare1_ABCDEF;
#X obj 142 44 s \$0_flarebang;
#X obj 50 115 r \$0_flarebang;
#X obj 229 121 r \$0_flarebang;
#X obj 404 118 r \$0_flarebang;
#X msg 60 167 14;
#X msg 239 173 20;
#X msg 414 169 26;
#X msg 447 170 38;
#X obj 51 199 elooprange~;
#X obj 230 205 elooprange~;
#X obj 404 202 elooprange~;
#X connect 1 0 13 0;
#X connect 2 0 3 0;
#X connect 4 0 21 3;
#X connect 5 0 22 3;
#X connect 6 0 23 3;
#X connect 7 0 21 2;
#X connect 8 0 22 2;
#X connect 10 0 21 0;
#X connect 11 0 22 0;
#X connect 12 0 23 0;
#X connect 14 0 10 0;
#X connect 14 0 17 0;
#X connect 14 0 7 0;
#X connect 15 0 11 0;
#X connect 15 0 18 0;
#X connect 15 0 8 0;
#X connect 16 0 12 0;
#X connect 16 0 19 0;
#X connect 16 0 20 0;
#X connect 17 0 21 1;
#X connect 18 0 22 1;
#X connect 19 0 23 1;
#X connect 20 0 23 2;
#X connect 21 0 0 0;
#X connect 22 0 0 0;
#X connect 23 0 0 0;
#X restore 747 187 pd flare;
#X obj 896 143 bng 15 250 50 0 empty sun-startall empty 17 7 0 10 -262144
-1 -1;
#N canvas 106 124 669 454 warm 0;
#X obj 284 391 outlet~;
#X obj 355 391 outlet~;
#X text 292 412 ACE;
#X text 362 410 BDF;
#X obj 141 21 inlet;
#X obj 378 17 inlet;
#X obj 376 41 s \$0_temp;
#X obj 104 214 r \$0_temp;
#X obj 141 44 s \$0_warmbang;
#X obj 22 103 r \$0_warmbang;
#X msg 35 214 62;
#X msg 69 214 68;
#X msg 25 183 \$1_ACE;
#X msg 108 181 \$1_BDF;
#X obj 56 150 symbol;
#X msg 24 124 Sun_62-68_warm;
#X obj 261 214 r \$0_temp;
#X obj 179 103 r \$0_warmbang;
#X msg 182 183 \$1_ACE;
#X msg 265 181 \$1_BDF;
#X obj 213 150 symbol;
#X msg 181 124 Sun_68-74_warm;
#X msg 192 214 68;
#X msg 226 214 74;
#X obj 417 213 r \$0_temp;
#X obj 335 102 r \$0_warmbang;
#X msg 338 182 \$1_ACE;
#X msg 421 180 \$1_BDF;
#X obj 369 149 symbol;
#X msg 337 123 Sun_74-80_warm;
#X msg 348 213 74;
#X msg 382 213 80;
#X obj 567 214 r \$0_temp;
#X obj 485 103 r \$0_warmbang;
#X msg 488 183 \$1_ACE;
#X msg 571 181 \$1_BDF;
#X obj 519 150 symbol;
#X msg 487 124 Sun_80-95_warm;
#X msg 498 214 80;
#X msg 532 214 95;
#X obj 21 274 eloopxf~ 1000;
#X obj 104 250 eloopxf~ 1000;
#X obj 182 281 eloopxf~ 1000;
#X obj 239 250 eloopxf~ 1000;
#X obj 330 265 eloopxf~ 1000;
#X obj 416 249 eloopxf~ 1000;
#X obj 485 274 eloopxf~ 1000;
#X obj 570 274 eloopxf~ 1000;
#X connect 4 0 8 0;
#X connect 5 0 6 0;
#X connect 7 0 40 3;
#X connect 7 0 41 3;
#X connect 9 0 15 0;
#X connect 9 0 10 0;
#X connect 9 0 11 0;
#X connect 10 0 40 1;
#X connect 10 0 41 1;
#X connect 11 0 40 2;
#X connect 11 0 41 2;
#X connect 12 0 40 0;
#X connect 13 0 41 0;
#X connect 14 0 12 0;
#X connect 14 0 13 0;
#X connect 15 0 14 0;
#X connect 16 0 42 3;
#X connect 16 0 43 3;
#X connect 17 0 21 0;
#X connect 17 0 22 0;
#X connect 17 0 23 0;
#X connect 18 0 42 0;
#X connect 19 0 43 0;
#X connect 20 0 18 0;
#X connect 20 0 19 0;
#X connect 21 0 20 0;
#X connect 22 0 42 1;
#X connect 22 0 43 1;
#X connect 23 0 42 2;
#X connect 23 0 43 2;
#X connect 24 0 44 3;
#X connect 24 0 45 3;
#X connect 25 0 29 0;
#X connect 25 0 30 0;
#X connect 25 0 31 0;
#X connect 26 0 44 0;
#X connect 27 0 45 0;
#X connect 28 0 26 0;
#X connect 28 0 27 0;
#X connect 29 0 28 0;
#X connect 30 0 44 1;
#X connect 30 0 45 1;
#X connect 31 0 44 2;
#X connect 31 0 45 2;
#X connect 32 0 46 3;
#X connect 32 0 47 3;
#X connect 33 0 37 0;
#X connect 33 0 38 0;
#X connect 33 0 39 0;
#X connect 34 0 46 0;
#X connect 35 0 47 0;
#X connect 36 0 34 0;
#X connect 36 0 35 0;
#X connect 37 0 36 0;
#X connect 38 0 46 1;
#X connect 38 0 47 1;
#X connect 39 0 46 2;
#X connect 39 0 47 2;
#X connect 40 0 0 0;
#X connect 41 0 1 0;
#X connect 42 0 0 0;
#X connect 43 0 1 0;
#X connect 44 0 0 0;
#X connect 45 0 1 0;
#X connect 46 0 0 0;
#X connect 47 0 1 0;
#X restore 896 189 pd warm;
#N canvas 1066 168 444 432 sun-beating 0;
#X text 124 319 ACE;
#X text 227 319 BDF;
#X obj 223 61 inlet;
#X text 211 78 temperature;
#X obj 119 301 outlet~;
#X obj 219 300 outlet~;
#X text 102 49 start;
#X obj 103 65 inlet;
#N canvas 713 237 549 571 ABCDEF---- 0;
#X obj 74 11 inlet;
#X text 119 12 temp;
#X obj 63 490 outlet~;
#X obj 93 232 bng 15 250 50 0 empty empty empty 17 7 0 10 -262144 -1
-1;
#X obj 159 233 bng 15 250 50 0 empty empty empty 17 7 0 10 -262144
-1 -1;
#X obj 222 234 bng 15 250 50 0 empty empty empty 17 7 0 10 -262144
-1 -1;
#X obj 25 181 f;
#X floatatom 54 182 5 0 0 0 - - -;
#X obj 25 10 inlet;
#X text 30 28 play;
#X obj 123 129 bng 15 250 50 0 empty empty empty 17 7 0 10 -262144
-1 -1;
#X text 123 64 if out of range \, check every sec;
#X obj 62 458 playtable~;
#X obj 9 238 bng 15 250 50 0 empty empty empty 17 7 0 10 -262144 -1
-1;
#X obj 285 235 bng 15 250 50 0 empty empty empty 17 7 0 10 -262144
-1 -1;
#X obj 122 105 delay;
#X msg 123 82 1000;
#X msg 152 396 Sun_\$1_beating_ABCDEF;
#X obj 24 208 moses 62;
#X obj 92 208 moses 68;
#X obj 158 208 moses 74;
#X obj 221 208 moses 80;
#X obj 351 234 bng 15 250 50 0 empty empty empty 17 7 0 10 -262144
-1 -1;
#X obj 287 207 moses 92;
#X msg 93 257 symbol 62-68;
#X msg 159 280 symbol 68-74;
#X msg 222 302 symbol 74-80;
#X msg 285 325 symbol 80-92;
#X obj 152 422 print high beating;
#X connect 0 0 6 1;
#X connect 3 0 24 0;
#X connect 4 0 25 0;
#X connect 5 0 26 0;
#X connect 6 0 7 0;
#X connect 6 0 18 0;
#X connect 8 0 6 0;
#X connect 10 0 6 0;
#X connect 12 0 2 0;
#X connect 12 1 6 0;
#X connect 14 0 27 0;
#X connect 15 0 10 0;
#X connect 16 0 15 0;
#X connect 17 0 12 0;
#X connect 17 0 28 0;
#X connect 18 0 13 0;
#X connect 18 0 16 0;
#X connect 18 1 19 0;
#X connect 19 0 3 0;
#X connect 19 1 20 0;
#X connect 20 0 4 0;
#X connect 20 1 21 0;
#X connect 21 0 5 0;
#X connect 21 1 23 0;
#X connect 23 0 14 0;
#X connect 23 1 22 0;
#X connect 23 1 16 0;
#X connect 24 0 17 0;
#X connect 25 0 17 0;
#X connect 26 0 17 0;
#X connect 27 0 17 0;
#X restore 227 188 pd ABCDEF----;
#N canvas 200 301 549 571 ACE 0;
#X obj 74 11 inlet;
#X text 119 12 temp;
#X obj 63 490 outlet~;
#X obj 24 208 moses 44;
#X obj 92 208 moses 50;
#X obj 158 208 moses 56;
#X obj 221 208 moses 62;
#X obj 93 232 bng 15 250 50 0 empty empty empty 17 7 0 10 -262144 -1
-1;
#X obj 159 233 bng 15 250 50 0 empty empty empty 17 7 0 10 -262144
-1 -1;
#X obj 222 234 bng 15 250 50 0 empty empty empty 17 7 0 10 -262144
-1 -1;
#X obj 25 181 f;
#X floatatom 54 182 5 0 0 0 - - -;
#X obj 157 400 print lefty;
#X msg 93 267 symbol 44-50;
#X msg 158 292 symbol 50-56;
#X msg 222 315 symbol 56-62;
#X obj 25 10 inlet;
#X text 30 28 play;
#X obj 123 129 bng 15 250 50 0 empty empty empty 17 7 0 10 -262144
-1 -1;
#X text 123 64 if out of range \, check every sec;
#X obj 62 458 playtable~;
#X msg 152 377 Sun_\$1_beating_ACE;
#X obj 9 238 bng 15 250 50 0 empty empty empty 17 7 0 10 -262144 -1
-1;
#X obj 285 235 bng 15 250 50 0 empty empty empty 17 7 0 10 -262144
-1 -1;
#X obj 122 105 delay;
#X msg 123 82 1000;
#X obj 304 484 outlet~;
#X obj 303 452 playtable~;
#X msg 303 377 Sun_\$1_beating_BDF;
#X obj 308 400 print righty;
#X text 301 340 assume ACE and BDF same length;
#X text 302 352 for each range;
#X connect 0 0 10 1;
#X connect 3 0 22 0;
#X connect 3 0 25 0;
#X connect 3 1 4 0;
#X connect 4 0 7 0;
#X connect 4 1 5 0;
#X connect 5 0 8 0;
#X connect 5 1 6 0;
#X connect 6 0 9 0;
#X connect 6 1 23 0;
#X connect 6 1 25 0;
#X connect 7 0 13 0;
#X connect 8 0 14 0;
#X connect 9 0 15 0;
#X connect 10 0 3 0;
#X connect 10 0 11 0;
#X connect 13 0 21 0;
#X connect 13 0 28 0;
#X connect 14 0 21 0;
#X connect 14 0 28 0;
#X connect 15 0 21 0;
#X connect 15 0 28 0;
#X connect 16 0 10 0;
#X connect 18 0 10 0;
#X connect 20 0 2 0;
#X connect 20 1 10 0;
#X connect 21 0 12 0;
#X connect 21 0 20 0;
#X connect 24 0 18 0;
#X connect 25 0 24 0;
#X connect 27 0 26 0;
#X connect 28 0 27 0;
#X connect 28 0 29 0;
#X restore 77 188 pd ACE and DEF----;
#X connect 2 0 9 1;
#X connect 2 0 8 1;
#X connect 7 0 9 0;
#X connect 7 0 8 0;
#X connect 8 0 4 0;
#X connect 8 0 5 0;
#X connect 9 0 4 0;
#X connect 9 1 5 0;
#X restore 33 174 pd sun-beating;
#X obj 32 147 bng 15 250 50 0 empty sun-startall empty 17 7 0 10 -262144
-1 -1;
#X obj 470 340 bng 15 250 50 0 empty sun-startall empty 17 7 0 10 -262144
-1 -1;
#X obj 34 439 catch~ sunACE;
#X obj 134 439 catch~ sunBDF;
#X obj 33 236 throw~ sunACE;
#X obj 129 263 throw~ sunBDF;
#X obj 249 266 throw~ sunACE;
#X obj 320 289 throw~ sunBDF;
#X obj 431 268 throw~ sunACE;
#X obj 454 288 throw~ sunBDF;
#X obj 580 271 throw~ sunACE;
#X obj 651 294 throw~ sunBDF;
#X obj 760 272 throw~ sunACE;
#X obj 776 294 throw~ sunBDF;
#X obj 897 275 throw~ sunACE;
#X obj 949 296 throw~ sunBDF;
#X obj 510 339 bng 15 250 50 0 empty sun-startall empty 17 7 0 10 -262144
-1 -1;
#X obj 551 341 bng 15 250 50 0 empty sun-startall empty 17 7 0 10 -262144
-1 -1;
#X obj 585 340 bng 15 250 50 0 empty sun-startall empty 17 7 0 10 -262144
-1 -1;
#N canvas 111 193 793 364 wave1 0;
#X obj 70 25 inlet;
#X text 55 5 wave1 start;
#X obj 157 23 inlet;
#X obj 241 23 inlet;
#X obj 327 22 inlet;
#X text 142 3 wave2 start;
#X text 226 3 wave3 start;
#X text 312 2 wave4 start;
#X obj 411 24 inlet;
#X text 396 4 waver start;
#X obj 538 20 inlet;
#X text 583 19 temp;
#X obj 36 299 outlet~;
#N canvas 419 276 626 673 wave1 0;
#X obj 74 11 inlet;
#X text 119 12 temp;
#X obj 59 616 outlet~;
#X obj 93 232 bng 15 250 50 0 empty empty empty 17 7 0 10 -262144 -1
-1;
#X obj 159 233 bng 15 250 50 0 empty empty empty 17 7 0 10 -262144
-1 -1;
#X obj 222 234 bng 15 250 50 0 empty empty empty 17 7 0 10 -262144
-1 -1;
#X obj 25 181 f;
#X floatatom 54 182 5 0 0 0 - - -;
#X obj 25 10 inlet;
#X text 30 28 play;
#X obj 123 129 bng 15 250 50 0 empty empty empty 17 7 0 10 -262144
-1 -1;
#X text 123 64 if out of range \, check every sec;
#X obj 58 584 playtable~;
#X obj 9 238 bng 15 250 50 0 empty empty empty 17 7 0 10 -262144 -1
-1;
#X obj 122 105 delay;
#X msg 123 82 1000;
#X obj 300 610 outlet~;
#X obj 299 578 playtable~;
#X text 346 462 assume ACE and BDF same length;
#X text 343 474 for each range;
#X msg 148 503 Sun_\$1_wave1_ACE;
#X msg 299 503 Sun_\$1_wave1_BDF;
#X obj 153 526 print wave1_left;
#X obj 304 526 print wave1_right;
#X obj 287 234 bng 15 250 50 0 empty empty empty 17 7 0 10 -262144
-1 -1;
#X obj 24 208 moses 32;
#X obj 92 208 moses 38;
#X obj 158 208 moses 50;
#X obj 221 208 moses 56;
#X obj 286 208 moses 68;
#X obj 351 234 bng 15 250 50 0 empty empty empty 17 7 0 10 -262144
-1 -1;
#X obj 415 234 bng 15 250 50 0 empty empty empty 17 7 0 10 -262144
-1 -1;
#X obj 478 235 bng 15 250 50 0 empty empty empty 17 7 0 10 -262144
-1 -1;
#X obj 350 208 moses 74;
#X obj 414 208 moses 89;
#X msg 93 267 symbol 32-38;
#X msg 158 292 symbol 38-50;
#X msg 222 315 symbol 50-56;
#X msg 287 338 symbol 56-68;
#X msg 351 365 symbol 68-74;
#X msg 415 389 symbol 74-89;
#X connect 0 0 6 1;
#X connect 3 0 35 0;
#X connect 4 0 36 0;
#X connect 5 0 37 0;
#X connect 6 0 7 0;
#X connect 6 0 25 0;
#X connect 8 0 6 0;
#X connect 10 0 6 0;
#X connect 12 0 2 0;
#X connect 12 1 6 0;
#X connect 14 0 10 0;
#X connect 15 0 14 0;
#X connect 17 0 16 0;
#X connect 20 0 12 0;
#X connect 20 0 22 0;
#X connect 21 0 17 0;
#X connect 21 0 23 0;
#X connect 24 0 38 0;
#X connect 25 0 13 0;
#X connect 25 0 15 0;
#X connect 25 1 26 0;
#X connect 26 0 3 0;
#X connect 26 1 27 0;
#X connect 27 0 4 0;
#X connect 27 1 28 0;
#X connect 28 0 5 0;
#X connect 28 1 29 0;
#X connect 29 0 24 0;
#X connect 29 1 33 0;
#X connect 30 0 39 0;
#X connect 31 0 40 0;
#X connect 33 0 30 0;
#X connect 33 1 34 0;
#X connect 34 0 31 0;
#X connect 34 1 32 0;
#X connect 34 1 15 0;
#X connect 35 0 20 0;
#X connect 35 0 21 0;
#X connect 36 0 20 0;
#X connect 36 0 21 0;
#X connect 37 0 20 0;
#X connect 37 0 21 0;
#X connect 38 0 20 0;
#X connect 38 0 21 0;
#X connect 39 0 20 0;
#X connect 39 0 21 0;
#X connect 40 0 20 0;
#X connect 40 0 21 0;
#X restore 34 143 pd wave1;
#X obj 35 113 bng 15 250 50 0 empty empty empty 17 7 0 10 -262144 -1
-1;
#X obj 171 108 bng 15 250 50 0 empty empty empty 17 7 0 10 -262144
-1 -1;
#X obj 171 208 throw~ sunACE;
#X obj 206 231 throw~ sunBDF;
#N canvas 431 400 626 673 wave2 0;
#X obj 74 11 inlet;
#X text 119 12 temp;
#X obj 59 616 outlet~;
#X obj 213 230 bng 15 250 50 0 empty empty empty 17 7 0 10 -262144
-1 -1;
#X obj 279 231 bng 15 250 50 0 empty empty empty 17 7 0 10 -262144
-1 -1;
#X obj 342 232 bng 15 250 50 0 empty empty empty 17 7 0 10 -262144
-1 -1;
#X obj 25 181 f;
#X floatatom 54 182 5 0 0 0 - - -;
#X obj 25 10 inlet;
#X text 30 28 play;
#X obj 123 129 bng 15 250 50 0 empty empty empty 17 7 0 10 -262144
-1 -1;
#X text 123 64 if out of range \, check every sec;
#X obj 58 584 playtable~;
#X obj 9 238 bng 15 250 50 0 empty empty empty 17 7 0 10 -262144 -1
-1;
#X obj 122 105 delay;
#X msg 123 82 1000;
#X obj 300 610 outlet~;
#X obj 299 578 playtable~;
#X text 346 462 assume ACE and BDF same length;
#X text 343 474 for each range;
#X obj 24 208 moses 8;
#X obj 212 206 moses 56;
#X obj 278 206 moses 62;
#X obj 341 206 moses 80;
#X obj 405 206 moses 97;
#X obj 405 231 bng 15 250 50 0 empty empty empty 17 7 0 10 -262144
-1 -1;
#X msg 279 332 symbol 56-62;
#X msg 342 355 symbol 62-80;
#X text 378 338 MISSING;
#X msg 405 379 symbol 80-97;
#X obj 153 526 print wave2_left;
#X obj 304 526 print wave2_right;
#X obj 125 612 bng 15 250 50 0 empty empty empty 17 7 0 10 -262144
-1 -1;
#X msg 148 503 Sun_\$1_wave2_ACE;
#X msg 299 503 Sun_\$1_wave2_BDF;
#X obj 86 231 bng 15 250 50 0 empty empty empty 17 7 0 10 -262144 -1
-1;
#X obj 149 230 bng 15 250 50 0 empty empty empty 17 7 0 10 -262144
-1 -1;
#X obj 85 207 moses 38;
#X obj 148 206 moses 44;
#X msg 213 307 symbol 44-56;
#X msg 149 281 symbol 38-44;
#X msg 86 258 symbol 8-38;
#X connect 0 0 6 1;
#X connect 3 0 39 0;
#X connect 4 0 26 0;
#X connect 5 0 27 0;
#X connect 6 0 7 0;
#X connect 6 0 20 0;
#X connect 8 0 6 0;
#X connect 10 0 6 0;
#X connect 12 0 2 0;
#X connect 12 1 32 0;
#X connect 12 1 6 0;
#X connect 14 0 10 0;
#X connect 15 0 14 0;
#X connect 17 0 16 0;
#X connect 20 0 13 0;
#X connect 20 0 15 0;
#X connect 20 1 37 0;
#X connect 21 0 3 0;
#X connect 21 1 22 0;
#X connect 22 0 4 0;
#X connect 22 1 23 0;
#X connect 23 0 5 0;
#X connect 23 1 24 0;
#X connect 24 0 25 0;
#X connect 24 1 15 0;
#X connect 25 0 29 0;
#X connect 26 0 33 0;
#X connect 26 0 34 0;
#X connect 27 0 15 0;
#X connect 29 0 33 0;
#X connect 29 0 34 0;
#X connect 33 0 12 0;
#X connect 33 0 30 0;
#X connect 34 0 17 0;
#X connect 34 0 31 0;
#X connect 35 0 41 0;
#X connect 36 0 40 0;
#X connect 37 0 35 0;
#X connect 37 1 38 0;
#X connect 38 0 36 0;
#X connect 38 1 21 0;
#X connect 39 0 33 0;
#X connect 39 0 34 0;
#X connect 40 0 33 0;
#X connect 40 0 34 0;
#X connect 41 0 33 0;
#X connect 41 0 34 0;
#X restore 170 137 pd wave2;
#X obj 313 103 bng 15 250 50 0 empty empty empty 17 7 0 10 -262144
-1 -1;
#X obj 311 212 throw~ sunACE;
#X obj 346 232 throw~ sunBDF;
#N canvas 523 379 626 673 wave3 0;
#X obj 74 11 inlet;
#X text 119 12 temp;
#X obj 59 616 outlet~;
#X obj 93 232 bng 15 250 50 0 empty empty empty 17 7 0 10 -262144 -1
-1;
#X obj 159 233 bng 15 250 50 0 empty empty empty 17 7 0 10 -262144
-1 -1;
#X obj 222 234 bng 15 250 50 0 empty empty empty 17 7 0 10 -262144
-1 -1;
#X obj 25 181 f;
#X floatatom 54 182 5 0 0 0 - - -;
#X obj 25 10 inlet;
#X text 30 28 play;
#X obj 123 129 bng 15 250 50 0 empty empty empty 17 7 0 10 -262144
-1 -1;
#X text 123 64 if out of range \, check every sec;
#X obj 58 584 playtable~;
#X obj 9 238 bng 15 250 50 0 empty empty empty 17 7 0 10 -262144 -1
-1;
#X obj 122 105 delay;
#X msg 123 82 1000;
#X obj 300 610 outlet~;
#X obj 299 578 playtable~;
#X text 346 462 assume ACE and BDF same length;
#X text 343 474 for each range;
#X obj 285 233 bng 15 250 50 0 empty empty empty 17 7 0 10 -262144
-1 -1;
#X obj 125 612 bng 15 250 50 0 empty empty empty 17 7 0 10 -262144
-1 -1;
#X msg 148 503 Sun_\$1_wave3_ACE;
#X msg 299 503 Sun_\$1_wave3_BDF;
#X obj 24 208 moses 32;
#X obj 92 208 moses 38;
#X obj 158 208 moses 44;
#X obj 221 208 moses 56;
#X obj 285 208 moses 62;
#X obj 351 233 bng 15 250 50 0 empty empty empty 17 7 0 10 -262144
-1 -1;
#X obj 415 232 bng 15 250 50 0 empty empty empty 17 7 0 10 -262144
-1 -1;
#X obj 480 231 bng 15 250 50 0 empty empty empty 17 7 0 10 -262144
-1 -1;
#X obj 350 207 moses 74;
#X obj 414 206 moses 80;
#X obj 479 205 moses 89;
#X msg 93 267 symbol 32-38;
#X msg 158 292 symbol 38-44;
#X msg 222 315 symbol 44-56;
#X msg 285 339 symbol 56-62;
#X msg 351 367 symbol 62-74;
#X msg 415 390 symbol 74-80;
#X msg 480 415 symbol 80-89;
#X obj 304 526 print wave3_right;
#X obj 153 526 print wave3_left;
#X connect 0 0 6 1;
#X connect 3 0 35 0;
#X connect 4 0 36 0;
#X connect 5 0 37 0;
#X connect 6 0 7 0;
#X connect 6 0 24 0;
#X connect 8 0 6 0;
#X connect 10 0 6 0;
#X connect 12 0 2 0;
#X connect 12 1 21 0;
#X connect 12 1 6 0;
#X connect 14 0 10 0;
#X connect 15 0 14 0;
#X connect 17 0 16 0;
#X connect 20 0 38 0;
#X connect 22 0 12 0;
#X connect 22 0 43 0;
#X connect 23 0 17 0;
#X connect 23 0 42 0;
#X connect 24 0 13 0;
#X connect 24 0 15 0;
#X connect 24 1 25 0;
#X connect 25 0 3 0;
#X connect 25 1 26 0;
#X connect 26 0 4 0;
#X connect 26 1 27 0;
#X connect 27 0 5 0;
#X connect 27 1 28 0;
#X connect 28 0 20 0;
#X connect 28 1 32 0;
#X connect 29 0 39 0;
#X connect 30 0 40 0;
#X connect 31 0 41 0;
#X connect 32 0 29 0;
#X connect 32 1 33 0;
#X connect 33 0 30 0;
#X connect 33 1 34 0;
#X connect 34 0 31 0;
#X connect 34 1 15 0;
#X connect 35 0 22 0;
#X connect 35 0 23 0;
#X connect 36 0 22 0;
#X connect 36 0 23 0;
#X connect 37 0 22 0;
#X connect 37 0 23 0;
#X connect 38 0 22 0;
#X connect 38 0 23 0;
#X connect 39 0 22 0;
#X connect 39 0 23 0;
#X connect 40 0 22 0;
#X connect 40 0 23 0;
#X connect 41 0 23 0;
#X connect 41 0 22 0;
#X restore 312 132 pd wave3;
#X obj 472 110 bng 15 250 50 0 empty empty empty 17 7 0 10 -262144
-1 -1;
#X obj 470 219 throw~ sunACE;
#X obj 505 239 throw~ sunBDF;
#N canvas 524 380 578 541 wave4 0;
#X obj 74 11 inlet;
#X text 119 12 temp;
#X obj 56 501 outlet~;
#X obj 93 232 bng 15 250 50 0 empty empty empty 17 7 0 10 -262144 -1
-1;
#X obj 159 233 bng 15 250 50 0 empty empty empty 17 7 0 10 -262144
-1 -1;
#X obj 222 234 bng 15 250 50 0 empty empty empty 17 7 0 10 -262144
-1 -1;
#X obj 25 181 f;
#X floatatom 54 182 5 0 0 0 - - -;
#X obj 25 10 inlet;
#X text 30 28 play;
#X obj 123 129 bng 15 250 50 0 empty empty empty 17 7 0 10 -262144
-1 -1;
#X text 123 64 if out of range \, check every sec;
#X obj 55 469 playtable~;
#X obj 9 238 bng 15 250 50 0 empty empty empty 17 7 0 10 -262144 -1
-1;
#X obj 122 105 delay;
#X msg 123 82 1000;
#X obj 297 495 outlet~;
#X obj 296 463 playtable~;
#X text 297 347 assume ACE and BDF same length;
#X text 307 361 for each range;
#X obj 122 497 bng 15 250 50 0 empty empty empty 17 7 0 10 -262144
-1 -1;
#X obj 24 208 moses 62;
#X obj 92 208 moses 68;
#X obj 158 208 moses 74;
#X obj 221 208 moses 80;
#X msg 93 267 symbol 62-68;
#X msg 158 292 symbol 68-74;
#X msg 222 315 symbol 74-80;
#X msg 145 388 Sun_\$1_wave4_ACE;
#X msg 296 388 Sun_\$1_wave4_BDF;
#X obj 301 411 print wave4_right;
#X obj 150 411 print wave4_left;
#X connect 0 0 6 1;
#X connect 3 0 25 0;
#X connect 4 0 26 0;
#X connect 5 0 27 0;
#X connect 6 0 7 0;
#X connect 6 0 21 0;
#X connect 8 0 6 0;
#X connect 10 0 6 0;
#X connect 12 0 2 0;
#X connect 12 1 20 0;
#X connect 12 1 6 0;
#X connect 14 0 10 0;
#X connect 15 0 14 0;
#X connect 17 0 16 0;
#X connect 21 0 13 0;
#X connect 21 0 15 0;
#X connect 21 1 22 0;
#X connect 22 0 3 0;
#X connect 22 1 23 0;
#X connect 23 0 4 0;
#X connect 23 1 24 0;
#X connect 24 0 5 0;
#X connect 24 1 15 0;
#X connect 25 0 28 0;
#X connect 25 0 29 0;
#X connect 26 0 28 0;
#X connect 26 0 29 0;
#X connect 27 0 28 0;
#X connect 27 0 29 0;
#X connect 28 0 12 0;
#X connect 28 0 31 0;
#X connect 29 0 17 0;
#X connect 29 0 30 0;
#X restore 471 139 pd wave4;
#X obj 609 108 bng 15 250 50 0 empty empty empty 17 7 0 10 -262144
-1 -1;
#X obj 607 217 throw~ sunACE;
#X obj 642 237 throw~ sunBDF;
#X obj 172 302 outlet~;
#X obj 311 305 outlet~;
#X obj 470 304 outlet~;
#X obj 605 302 outlet~;
#N canvas 57 115 455 395 waver 0;
#X obj 74 11 inlet;
#X text 119 12 temp;
#X obj 30 245 outlet~;
#X obj 25 10 inlet;
#X text 30 28 play;
#X obj 197 242 outlet~;
#X msg 29 144 Sun_68-150_waver_ACE;
#X msg 38 170 68;
#X msg 72 170 150;
#X msg 204 172 68;
#X msg 238 172 150;
#X msg 195 146 Sun_68-150_waver_BDF;
#X obj 26 73 s \$0_waverbang;
#X obj 28 118 r \$0_waverbang;
#X obj 194 120 r \$0_waverbang;
#X obj 29 202 eloopxf~ 1000;
#X obj 196 204 eloopxf~ 1000;
#X text 33 263 ACE;
#X text 203 258 BDF;
#X obj 107 170 r \$0_wavertemp;
#X obj 273 172 r \$0_wavertemp;
#X obj 72 40 s \$0_wavertemp;
#X connect 0 0 21 0;
#X connect 3 0 12 0;
#X connect 6 0 15 0;
#X connect 7 0 15 1;
#X connect 8 0 15 2;
#X connect 9 0 16 1;
#X connect 10 0 16 2;
#X connect 11 0 16 0;
#X connect 13 0 6 0;
#X connect 13 0 7 0;
#X connect 13 0 8 0;
#X connect 14 0 11 0;
#X connect 14 0 9 0;
#X connect 14 0 10 0;
#X connect 15 0 2 0;
#X connect 16 0 5 0;
#X connect 19 0 15 3;
#X connect 20 0 16 3;
#X restore 608 137 pd waver;
#X floatatom 110 152 5 0 0 0 - #0-wv1-db -;
#X obj 71 177 *~;
#X obj 35 178 *~;
#X obj 171 173 *~;
#X obj 207 172 *~;
#X obj 369 174 *~;
#X obj 310 173 *~;
#X floatatom 240 146 5 0 0 0 - #0-wv2-db -;
#X floatatom 392 145 5 0 0 0 - #0-wv3-db -;
#X obj 529 181 *~;
#X obj 469 179 *~;
#X obj 665 179 *~;
#X obj 606 173 *~;
#X floatatom 538 157 5 0 0 0 - #0-wv4-db -;
#X floatatom 639 157 5 0 0 0 - #0-wvr-db -;
#X obj 36 213 throw~ \$0-wave1ACE;
#X obj 76 237 throw~ \$0-wave1BDF;
#X connect 0 0 14 0;
#X connect 2 0 15 0;
#X connect 3 0 19 0;
#X connect 4 0 23 0;
#X connect 8 0 27 0;
#X connect 10 0 13 1;
#X connect 10 0 18 1;
#X connect 10 0 22 1;
#X connect 10 0 26 1;
#X connect 10 0 34 1;
#X connect 13 0 37 0;
#X connect 13 1 36 0;
#X connect 14 0 13 0;
#X connect 15 0 18 0;
#X connect 18 0 38 0;
#X connect 18 1 39 0;
#X connect 19 0 22 0;
#X connect 22 0 41 0;
#X connect 22 1 40 0;
#X connect 23 0 26 0;
#X connect 26 0 45 0;
#X connect 26 1 44 0;
#X connect 27 0 34 0;
#X connect 34 0 47 0;
#X connect 34 1 46 0;
#X connect 35 0 36 1;
#X connect 35 0 37 1;
#X connect 36 0 51 0;
#X connect 37 0 12 0;
#X connect 37 0 50 0;
#X connect 38 0 16 0;
#X connect 38 0 30 0;
#X connect 39 0 17 0;
#X connect 40 0 21 0;
#X connect 41 0 20 0;
#X connect 41 0 31 0;
#X connect 42 0 39 1;
#X connect 42 0 38 1;
#X connect 43 0 40 1;
#X connect 43 0 41 1;
#X connect 44 0 25 0;
#X connect 45 0 24 0;
#X connect 45 0 32 0;
#X connect 46 0 29 0;
#X connect 47 0 28 0;
#X connect 47 0 33 0;
#X connect 48 0 44 1;
#X connect 48 0 45 1;
#X connect 49 0 47 1;
#X connect 49 0 46 1;
#X restore 453 391 pd wave1 wave2 wave3 wave4 waver;
#X obj 624 340 bng 15 250 50 0 empty sun-startall empty 17 7 0 10 -262144
-1 -1;
#X obj 57 89 inlet;
#X obj 57 111 s sun-startall;
#X obj 240 519 outlet~;
#X text 54 580 ACE;
#X text 155 577 BDF;
#X obj 298 520 outlet~;
#X obj 356 520 outlet~;
#X obj 414 521 outlet~;
#X obj 470 520 outlet~;
#X obj 528 521 outlet~;
#X obj 586 521 outlet~;
#X obj 644 522 outlet~;
#X obj 704 521 outlet~;
#X obj 760 520 outlet~;
#X obj 818 521 outlet~;
#N canvas 766 352 581 484 db 0;
#X obj 22 33 loadbang;
#X obj 24 219 s \$0-b-db;
#X obj 24 172 db_calc;
#X msg 24 147 -6;
#X floatatom 42 197 5 0 0 0 - - -;
#X obj 96 172 db_calc;
#X floatatom 114 197 5 0 0 0 - - -;
#X msg 96 147 -8;
#X obj 175 172 db_calc;
#X floatatom 193 197 5 0 0 0 - - -;
#X obj 252 172 db_calc;
#X floatatom 270 197 5 0 0 0 - - -;
#X msg 175 147 -15;
#X obj 175 219 s \$0-sp-db;
#X obj 96 219 s \$0-shm-db;
#X obj 252 219 s \$0-shn-db;
#X msg 252 147 -9;
#X obj 337 171 db_calc;
#X floatatom 355 196 5 0 0 0 - - -;
#X msg 337 146 -8;
#X obj 337 218 s \$0-flr-db;
#X obj 421 170 db_calc;
#X floatatom 439 195 5 0 0 0 - - -;
#X obj 421 217 s \$0-wrm-db;
#X msg 421 145 -2;
#X obj 37 296 db_calc;
#X floatatom 55 321 5 0 0 0 - - -;
#X obj 123 296 db_calc;
#X floatatom 141 321 5 0 0 0 - - -;
#X obj 209 296 db_calc;
#X floatatom 227 321 5 0 0 0 - - -;
#X obj 37 343 s \$0-wv1-db;
#X obj 123 343 s \$0-wv2-db;
#X obj 209 342 s \$0-wv3-db;
#X msg 37 271 0;
#X msg 123 270 0;
#X msg 209 271 -8;
#X obj 297 295 db_calc;
#X floatatom 315 320 5 0 0 0 - - -;
#X obj 297 341 s \$0-wv4-db;
#X msg 297 270 0;
#X obj 382 294 db_calc;
#X floatatom 400 319 5 0 0 0 - - -;
#X msg 382 269 -3;
#X obj 382 340 s \$0-wvr-db;
#X connect 0 0 3 0;
#X connect 0 0 7 0;
#X connect 0 0 12 0;
#X connect 0 0 16 0;
#X connect 0 0 19 0;
#X connect 0 0 24 0;
#X connect 0 0 34 0;
#X connect 0 0 35 0;
#X connect 0 0 36 0;
#X connect 0 0 40 0;
#X connect 0 0 43 0;
#X connect 2 0 4 0;
#X connect 2 0 1 0;
#X connect 3 0 2 0;
#X connect 5 0 6 0;
#X connect 5 0 14 0;
#X connect 7 0 5 0;
#X connect 8 0 9 0;
#X connect 8 0 13 0;
#X connect 10 0 11 0;
#X connect 10 0 15 0;
#X connect 12 0 8 0;
#X connect 16 0 10 0;
#X connect 17 0 18 0;
#X connect 17 0 20 0;
#X connect 19 0 17 0;
#X connect 21 0 22 0;
#X connect 21 0 23 0;
#X connect 24 0 21 0;
#X connect 25 0 26 0;
#X connect 25 0 31 0;
#X connect 27 0 28 0;
#X connect 27 0 32 0;
#X connect 29 0 30 0;
#X connect 29 0 33 0;
#X connect 34 0 25 0;
#X connect 35 0 27 0;
#X connect 36 0 29 0;
#X connect 37 0 38 0;
#X connect 37 0 39 0;
#X connect 40 0 37 0;
#X connect 41 0 42 0;
#X connect 41 0 44 0;
#X connect 43 0 41 0;
#X restore 866 442 pd db defaults;
#X obj 32 203 *~;
#X obj 127 202 *~;
#X floatatom 63 202 5 0 0 0 - #0-b-db -;
#X obj 246 215 *~;
#X obj 339 216 *~;
#X floatatom 286 216 5 0 0 0 - #0-shm-db -;
#X obj 440 217 *~;
#X floatatom 477 209 5 0 0 0 - #0-sp-db -;
#X obj 593 216 *~;
#X obj 646 239 *~;
#X floatatom 656 214 5 0 0 0 - #0-shn-db -;
#X obj 751 232 *~;
#X floatatom 777 213 5 0 0 0 - #0-flr-db -;
#X obj 896 228 *~;
#X obj 943 251 *~;
#X floatatom 951 217 5 0 0 0 - #0-wrm-db -;
#X obj 331 87 inlet;
#X obj 332 111 s \$0-temperature;
#X obj 128 149 r \$0-temperature;
#X obj 322 160 r \$0-temperature;
#X obj 484 161 r \$0-temperature;
#X obj 640 163 r \$0-temperature;
#X obj 793 162 r \$0-temperature;
#X obj 942 164 r \$0-temperature;
#X obj 661 342 r \$0-temperature;
#X obj 788 81 inlet;
#N canvas 469 81 594 296 levels 0;
#X obj 83 25 inlet;
#X obj 83 62 route b-db shm-db sp-db shn-db flr-db wrm-db;
#X obj 91 148 route wv1-db wv2-db wv3-db wv4-db wvr-db;
#X obj 47 98 s \$0-b-db;
#X obj 198 98 s \$0-sp-db;
#X obj 119 98 s \$0-shm-db;
#X obj 275 98 s \$0-shn-db;
#X obj 360 97 s \$0-flr-db;
#X obj 444 96 s \$0-wrm-db;
#X obj 43 191 s \$0-wv1-db;
#X obj 129 191 s \$0-wv2-db;
#X obj 215 190 s \$0-wv3-db;
#X obj 303 189 s \$0-wv4-db;
#X obj 388 188 s \$0-wvr-db;
#X connect 0 0 1 0;
#X connect 1 0 3 0;
#X connect 1 1 5 0;
#X connect 1 2 4 0;
#X connect 1 3 6 0;
#X connect 1 4 7 0;
#X connect 1 5 8 0;
#X connect 1 6 2 0;
#X connect 2 0 9 0;
#X connect 2 1 10 0;
#X connect 2 2 11 0;
#X connect 2 3 12 0;
#X connect 2 4 13 0;
#X restore 788 104 pd levels;
#X obj 36 477 *~ 1;
#X obj 134 475 *~ 1;
#X obj 959 75 inlet;
#X obj 959 126 s \$0-wind_ducking;
#X obj 959 100 jrange 8 12 1 0;
#X obj 98 411 r \$0-wind_ducking;
#X obj 227 363 catch~ \$0-wave1ACE;
#X obj 345 363 catch~ \$0-wave1BDF;
#X floatatom 1063 160 5 0 0 0 - - -;
#X obj 1235 80 inlet;
#X floatatom 1339 165 5 0 0 0 - - -;
#X obj 1235 131 s \$0-rain_ducking;
#X obj 1354 130 s \$0-rain_ducking_sun_1;
#X obj 1235 105 jrange 0.02 0.05 1 0;
#X obj 77 385 r \$0-rain_ducking;
#X obj 36 512 *~ 1;
#X obj 134 511 *~ 1;
#X obj 229 429 *~ 1;
#X obj 345 427 *~ 1;
#X obj 147 336 r \$0-rain_ducking_sun_1;
#X connect 2 0 53 0;
#X connect 2 1 54 0;
#X connect 3 0 56 0;
#X connect 4 0 2 0;
#X connect 5 0 3 0;
#X connect 6 0 7 0;
#X connect 7 0 58 0;
#X connect 7 1 59 0;
#X connect 8 0 9 0;
#X connect 9 0 61 0;
#X connect 10 0 11 0;
#X connect 11 0 63 0;
#X connect 11 1 64 0;
#X connect 12 0 50 0;
#X connect 12 1 51 0;
#X connect 13 0 12 0;
#X connect 14 0 32 0;
#X connect 15 0 77 0;
#X connect 16 0 78 0;
#X connect 29 0 32 1;
#X connect 30 0 32 2;
#X connect 31 0 32 3;
#X connect 32 1 45 0;
#X connect 32 2 46 0;
#X connect 32 3 47 0;
#X connect 32 4 48 0;
#X connect 33 0 32 4;
#X connect 34 0 35 0;
#X connect 50 0 17 0;
#X connect 50 0 36 0;
#X connect 51 0 18 0;
#X connect 52 0 50 1;
#X connect 52 0 51 1;
#X connect 53 0 19 0;
#X connect 53 0 39 0;
#X connect 54 0 20 0;
#X connect 55 0 53 1;
#X connect 55 0 54 1;
#X connect 56 0 21 0;
#X connect 56 0 22 0;
#X connect 56 0 40 0;
#X connect 57 0 56 1;
#X connect 58 0 23 0;
#X connect 58 0 41 0;
#X connect 59 0 24 0;
#X connect 60 0 59 1;
#X connect 60 0 58 1;
#X connect 61 0 25 0;
#X connect 61 0 26 0;
#X connect 61 0 42 0;
#X connect 62 0 61 1;
#X connect 63 0 27 0;
#X connect 63 0 43 0;
#X connect 64 0 28 0;
#X connect 65 0 63 1;
#X connect 65 0 64 1;
#X connect 66 0 67 0;
#X connect 68 0 12 1;
#X connect 69 0 2 1;
#X connect 70 0 3 1;
#X connect 71 0 7 1;
#X connect 72 0 9 1;
#X connect 73 0 11 1;
#X connect 74 0 32 5;
#X connect 75 0 76 0;
#X connect 77 0 92 0;
#X connect 78 0 93 0;
#X connect 79 0 81 0;
#X connect 81 0 80 0;
#X connect 81 0 85 0;
#X connect 82 0 78 1;
#X connect 82 0 77 1;
#X connect 83 0 94 0;
#X connect 84 0 95 0;
#X connect 86 0 90 0;
#X connect 90 0 87 0;
#X connect 90 0 88 0;
#X connect 90 0 89 0;
#X connect 91 0 93 1;
#X connect 91 0 92 1;
#X connect 92 0 0 0;
#X connect 93 0 1 0;
#X connect 94 0 0 0;
#X connect 94 0 44 0;
#X connect 95 0 1 0;
#X connect 96 0 94 1;
#X connect 96 0 95 1;
#X coords 0 606 1 605 277 159 0;
