#N canvas 24 27 1012 602 10;
#X obj 578 536 outlet~;
#X obj 635 536 outlet~;
#X obj 692 536 outlet~;
#X obj 749 536 outlet~;
#X obj 806 536 outlet~;
#X obj 863 536 outlet~;
#X text 596 556 A;
#X text 650 555 B;
#X text 710 553 C;
#X text 767 553 D;
#X text 825 554 E;
#X text 884 554 F;
#X obj 143 66 r temperature;
#X obj 621 480 *~ 1;
#X obj 831 480 *~ 1;
#N canvas 390 327 327 300 sun-shimmer 0;
#X obj 43 199 outlet~;
#X obj 184 202 outlet~;
#X text 44 223 ACE;
#N canvas 153 160 584 570 ACE 0;
#X obj 184 492 outlet~;
#X obj 29 180 eloopxf~ 1000;
#X obj 288 180 eloopxf~ 1000;
#X obj 269 24 inlet;
#X text 290 49 temp;
#X msg 29 128 Sun_80-150_shimmer1_ACE;
#X msg 40 154 80;
#X msg 75 155 150;
#X msg 336 154 150;
#X msg 290 131 Sun_85-150_shimmer2_ACE;
#X msg 304 153 85;
#X obj 269 67 s \$0-shimtemp;
#X obj 111 156 r \$0-shimtemp;
#X obj 374 153 r \$0-shimtemp;
#X obj 26 285 eloopxf~ 1000;
#X msg 72 260 150;
#X obj 108 261 r \$0-shimtemp;
#X msg 37 259 88;
#X obj 295 289 eloopxf~ 1000;
#X msg 341 264 150;
#X obj 377 265 r \$0-shimtemp;
#X msg 296 236 Sun_91-150_shimmer4_ACE;
#X msg 306 263 91;
#X obj 29 405 eloopxf~ 1000;
#X msg 75 380 150;
#X obj 111 381 r \$0-shimtemp;
#X msg 40 379 94;
#X obj 293 409 eloopxf~ 1000;
#X msg 339 384 150;
#X obj 375 385 r \$0-shimtemp;
#X msg 295 355 Sun_96-150_shimmer6_ACE;
#X msg 30 351 Sun_94-150_shimmer5_ACE;
#X msg 304 383 96;
#X msg 27 232 Sun_88-150_shimmer3_ACE;
#X obj 70 25 inlet;
#X text 116 22 bang to set players;
#X obj 71 51 s \$0_shimmerbang_ACE;
#X obj 29 107 r \$0_shimmerbang_ACE;
#X obj 291 108 r \$0_shimmerbang_ACE;
#X obj 26 212 r \$0_shimmerbang_ACE;
#X obj 295 216 r \$0_shimmerbang_ACE;
#X obj 29 332 r \$0_shimmerbang_ACE;
#X obj 293 336 r \$0_shimmerbang_ACE;
#X connect 1 0 0 0;
#X connect 2 0 0 0;
#X connect 3 0 11 0;
#X connect 5 0 1 0;
#X connect 6 0 1 1;
#X connect 7 0 1 2;
#X connect 8 0 2 2;
#X connect 9 0 2 0;
#X connect 10 0 2 1;
#X connect 12 0 1 3;
#X connect 13 0 2 3;
#X connect 14 0 0 0;
#X connect 15 0 14 2;
#X connect 16 0 14 3;
#X connect 17 0 14 1;
#X connect 18 0 0 0;
#X connect 19 0 18 2;
#X connect 20 0 18 3;
#X connect 21 0 18 0;
#X connect 22 0 18 1;
#X connect 23 0 0 0;
#X connect 24 0 23 2;
#X connect 25 0 23 3;
#X connect 26 0 23 1;
#X connect 27 0 0 0;
#X connect 28 0 27 2;
#X connect 29 0 27 3;
#X connect 30 0 27 0;
#X connect 31 0 23 0;
#X connect 32 0 27 1;
#X connect 33 0 14 0;
#X connect 34 0 36 0;
#X connect 37 0 5 0;
#X connect 37 0 6 0;
#X connect 37 0 7 0;
#X connect 38 0 9 0;
#X connect 38 0 10 0;
#X connect 38 0 8 0;
#X connect 39 0 33 0;
#X connect 39 0 17 0;
#X connect 39 0 15 0;
#X connect 40 0 21 0;
#X connect 40 0 22 0;
#X connect 40 0 19 0;
#X connect 41 0 31 0;
#X connect 41 0 26 0;
#X connect 41 0 24 0;
#X connect 42 0 30 0;
#X connect 42 0 32 0;
#X connect 42 0 28 0;
#X restore 44 104 pd ACE;
#N canvas 765 156 584 570 BDF 0;
#X obj 184 492 outlet~;
#X obj 29 180 eloopxf~ 1000;
#X obj 288 180 eloopxf~ 1000;
#X obj 269 24 inlet;
#X text 290 49 temp;
#X msg 40 154 80;
#X msg 75 155 150;
#X msg 336 154 150;
#X msg 304 153 85;
#X obj 269 67 s \$0-shimtemp;
#X obj 111 156 r \$0-shimtemp;
#X obj 374 153 r \$0-shimtemp;
#X obj 26 285 eloopxf~ 1000;
#X msg 72 260 150;
#X obj 108 261 r \$0-shimtemp;
#X msg 37 259 88;
#X obj 295 289 eloopxf~ 1000;
#X msg 341 264 150;
#X obj 377 265 r \$0-shimtemp;
#X msg 306 263 91;
#X obj 29 405 eloopxf~ 1000;
#X msg 75 380 150;
#X obj 111 381 r \$0-shimtemp;
#X msg 40 379 94;
#X obj 293 409 eloopxf~ 1000;
#X msg 339 384 150;
#X obj 375 385 r \$0-shimtemp;
#X msg 304 383 96;
#X msg 29 128 Sun_80-150_shimmer1_BDF;
#X msg 290 131 Sun_85-150_shimmer2_BDF;
#X msg 28 232 Sun_88-150_shimmer3_BDF;
#X msg 296 236 Sun_91-150_shimmer4_BDF;
#X msg 30 351 Sun_94-150_shimmer5_BDF;
#X msg 295 355 Sun_96-150_shimmer6_BDF;
#X obj 66 26 inlet;
#X text 109 26 bang to set players;
#X obj 66 54 s \$0_shimmerbang_BDF;
#X obj 27 102 r \$0_shimmerbang_BDF;
#X obj 291 108 r \$0_shimmerbang_BDF;
#X obj 295 216 r \$0_shimmerbang_BDF;
#X obj 26 212 r \$0_shimmerbang_BDF;
#X obj 30 331 r \$0_shimmerbang_BDF;
#X obj 293 336 r \$0_shimmerbang_BDF;
#X connect 1 0 0 0;
#X connect 2 0 0 0;
#X connect 3 0 9 0;
#X connect 5 0 1 1;
#X connect 6 0 1 2;
#X connect 7 0 2 2;
#X connect 8 0 2 1;
#X connect 10 0 1 3;
#X connect 11 0 2 3;
#X connect 12 0 0 0;
#X connect 13 0 12 2;
#X connect 14 0 12 3;
#X connect 15 0 12 1;
#X connect 16 0 0 0;
#X connect 17 0 16 2;
#X connect 18 0 16 3;
#X connect 19 0 16 1;
#X connect 20 0 0 0;
#X connect 21 0 20 2;
#X connect 22 0 20 3;
#X connect 23 0 20 1;
#X connect 24 0 0 0;
#X connect 25 0 24 2;
#X connect 26 0 24 3;
#X connect 27 0 24 1;
#X connect 28 0 1 0;
#X connect 29 0 2 0;
#X connect 30 0 12 0;
#X connect 31 0 16 0;
#X connect 32 0 20 0;
#X connect 33 0 24 0;
#X connect 34 0 36 0;
#X connect 37 0 28 0;
#X connect 37 0 5 0;
#X connect 37 0 6 0;
#X connect 38 0 29 0;
#X connect 38 0 8 0;
#X connect 38 0 7 0;
#X connect 39 0 31 0;
#X connect 39 0 19 0;
#X connect 39 0 17 0;
#X connect 40 0 30 0;
#X connect 40 0 15 0;
#X connect 40 0 13 0;
#X connect 41 0 32 0;
#X connect 41 0 23 0;
#X connect 41 0 21 0;
#X connect 42 0 33 0;
#X connect 42 0 27 0;
#X connect 42 0 25 0;
#X restore 185 106 pd BDF;
#X obj 129 22 inlet;
#X obj 36 21 inlet;
#X text 188 223 BDF;
#X connect 3 0 0 0;
#X connect 4 0 1 0;
#X connect 5 0 3 1;
#X connect 5 0 4 1;
#X connect 6 0 3 0;
#X connect 6 0 4 0;
#X restore 249 106 pd sun-shimmer;
#N canvas 134 444 581 552 spot 0;
#X obj 74 10 inlet;
#X text 119 11 temp;
#X obj 63 489 outlet~;
#X obj 93 231 bng 15 250 50 0 empty empty empty 17 7 0 10 -262144 -1
-1;
#X obj 159 232 bng 15 250 50 0 empty empty empty 17 7 0 10 -262144
-1 -1;
#X obj 222 233 bng 15 250 50 0 empty empty empty 17 7 0 10 -262144
-1 -1;
#X obj 25 180 f;
#X floatatom 54 181 5 0 0 0 - - -;
#X obj 25 9 inlet;
#X text 30 27 play;
#X obj 123 128 bng 15 250 50 0 empty empty empty 17 7 0 10 -262144
-1 -1;
#X text 123 63 if out of range \, check every sec;
#X obj 62 457 playtable~;
#X obj 9 237 bng 15 250 50 0 empty empty empty 17 7 0 10 -262144 -1
-1;
#X obj 285 234 bng 15 250 50 0 empty empty empty 17 7 0 10 -262144
-1 -1;
#X obj 122 104 delay;
#X msg 123 81 1000;
#X obj 351 233 bng 15 250 50 0 empty empty empty 17 7 0 10 -262144
-1 -1;
#X msg 152 395 Sun_\$1_spot_ABCDEF;
#X obj 152 421 print spot;
#X obj 24 207 moses 32;
#X obj 92 207 moses 38;
#X obj 158 207 moses 44;
#X obj 221 207 moses 56;
#X obj 287 206 moses 62;
#X msg 93 256 symbol 32-38;
#X msg 159 279 symbol 38-44;
#X msg 222 301 symbol 44-56;
#X msg 285 324 symbol 56-62;
#X connect 0 0 6 1;
#X connect 3 0 25 0;
#X connect 4 0 26 0;
#X connect 5 0 27 0;
#X connect 6 0 7 0;
#X connect 6 0 20 0;
#X connect 8 0 6 0;
#X connect 10 0 6 0;
#X connect 12 0 2 0;
#X connect 12 1 6 0;
#X connect 14 0 28 0;
#X connect 15 0 10 0;
#X connect 16 0 15 0;
#X connect 18 0 12 0;
#X connect 18 0 19 0;
#X connect 20 0 13 0;
#X connect 20 0 16 0;
#X connect 20 1 21 0;
#X connect 21 0 3 0;
#X connect 21 1 22 0;
#X connect 22 0 4 0;
#X connect 22 1 23 0;
#X connect 23 0 5 0;
#X connect 23 1 24 0;
#X connect 24 0 14 0;
#X connect 24 1 17 0;
#X connect 24 1 16 0;
#X connect 25 0 18 0;
#X connect 26 0 18 0;
#X connect 27 0 18 0;
#X connect 28 0 18 0;
#X restore 438 106 pd spot;
#X obj 253 58 bng 15 250 50 0 empty sun-startall empty 17 7 0 10 -262144
-1 -1;
#X obj 322 80 r temperature;
#X obj 484 81 r temperature;
#X obj 438 61 bng 15 250 50 0 empty sun-startall empty 17 7 0 10 -262144
-1 -1;
#X obj 440 137 *~ 0.177828;
#X text 454 156 -15dB;
#X text 359 152 -8dB;
#X obj 339 136 *~ 0.398107;
#X text 266 151 -8dB;
#X obj 246 135 *~ 0.398107;
#X text 141 138 -6dB;
#X text 54 139 -6dB;
#X obj 34 123 *~ 0.501187;
#X obj 121 122 *~ 0.501187;
#X obj 640 83 r temperature;
#X obj 594 63 bng 15 250 50 0 empty sun-startall empty 17 7 0 10 -262144
-1 -1;
#N canvas 71 93 730 707 shine 0;
#X obj 133 631 outlet~;
#X obj 289 628 outlet~;
#X text 133 656 ACE;
#X text 289 652 BDF;
#X obj 141 21 inlet;
#X obj 51 199 eloopxf~;
#X obj 378 17 inlet;
#X obj 376 41 s \$0_temp;
#X obj 129 167 r \$0_temp;
#X obj 304 201 eloopxf~;
#X obj 382 169 r \$0_temp;
#X obj 46 560 eloopxf~;
#X obj 124 528 r \$0_temp;
#X obj 366 520 eloopxf~;
#X obj 444 488 r \$0_temp;
#X msg 51 141 Sun_2-32_shine1_ACE;
#X msg 60 167 2;
#X msg 94 167 32;
#X msg 46 502 Sun_negative50-29_shine3_ACE;
#X msg 55 528 -50;
#X msg 89 528 29;
#X obj 39 386 eloopxf~;
#X obj 117 354 r \$0_temp;
#X msg 48 354 -50;
#X msg 39 328 Sun_negative50-32_shine2_ACE;
#X msg 82 354 32;
#X msg 304 143 Sun_2-32_shine1_BDF;
#X msg 313 169 2;
#X msg 347 169 32;
#X obj 334 373 eloopxf~;
#X obj 412 341 r \$0_temp;
#X msg 334 315 Sun_negative50-29_shine3_BDF;
#X msg 377 341 29;
#X msg 366 462 Sun_negative50-32_shine2_BDF;
#X msg 409 488 32;
#X obj 141 44 s \$0_shinebang;
#X obj 50 115 r \$0_shinebang;
#X obj 303 117 r \$0_shinebang;
#X obj 333 289 r \$0_shinebang;
#X obj 38 302 r \$0_shinebang;
#X obj 45 476 r \$0_shinebang;
#X obj 364 436 r \$0_shinebang;
#X msg 343 341 -50;
#X msg 375 488 -50;
#X connect 4 0 35 0;
#X connect 5 0 0 0;
#X connect 6 0 7 0;
#X connect 8 0 5 3;
#X connect 9 0 1 0;
#X connect 10 0 9 3;
#X connect 11 0 0 0;
#X connect 12 0 11 3;
#X connect 13 0 1 0;
#X connect 14 0 13 3;
#X connect 15 0 5 0;
#X connect 16 0 5 1;
#X connect 17 0 5 2;
#X connect 18 0 11 0;
#X connect 19 0 11 1;
#X connect 20 0 11 2;
#X connect 21 0 0 0;
#X connect 22 0 21 3;
#X connect 23 0 21 1;
#X connect 24 0 21 0;
#X connect 25 0 21 2;
#X connect 26 0 9 0;
#X connect 27 0 9 1;
#X connect 28 0 9 2;
#X connect 29 0 1 0;
#X connect 30 0 29 3;
#X connect 31 0 29 0;
#X connect 32 0 29 2;
#X connect 33 0 13 0;
#X connect 34 0 13 2;
#X connect 36 0 15 0;
#X connect 36 0 16 0;
#X connect 36 0 17 0;
#X connect 37 0 26 0;
#X connect 37 0 27 0;
#X connect 37 0 28 0;
#X connect 38 0 31 0;
#X connect 38 0 42 0;
#X connect 38 0 32 0;
#X connect 39 0 24 0;
#X connect 39 0 23 0;
#X connect 39 0 25 0;
#X connect 40 0 18 0;
#X connect 40 0 19 0;
#X connect 40 0 20 0;
#X connect 41 0 33 0;
#X connect 41 0 43 0;
#X connect 41 0 34 0;
#X connect 42 0 29 1;
#X connect 43 0 13 1;
#X restore 594 108 pd shine;
#X obj 593 136 *~ 0.354813;
#X text 607 155 -9dB;
#X obj 646 159 *~ 0.354813;
#X text 660 178 -9dB;
#X obj 793 82 r temperature;
#X obj 747 62 bng 15 250 50 0 empty sun-startall empty 17 7 0 10 -262144
-1 -1;
#N canvas 551 166 646 457 flare 0;
#X obj 225 361 outlet~;
#X obj 141 21 inlet;
#X obj 378 17 inlet;
#X obj 376 41 s \$0_temp;
#X obj 129 167 r \$0_temp;
#X obj 308 173 r \$0_temp;
#X obj 482 170 r \$0_temp;
#X msg 94 167 32;
#X msg 273 173 32;
#X text 225 386 ABCDEF;
#X msg 51 141 Sun_14-32_flare1_ABCDEF;
#X msg 230 147 Sun_20-32_flare2_ABCDEF;
#X msg 404 144 Sun_26-38_flare1_ABCDEF;
#X obj 142 44 s \$0_flarebang;
#X obj 50 115 r \$0_flarebang;
#X obj 229 121 r \$0_flarebang;
#X obj 404 118 r \$0_flarebang;
#X msg 60 167 14;
#X msg 239 173 20;
#X msg 414 169 26;
#X msg 447 170 38;
#X obj 51 199 elooprange~;
#X obj 230 205 elooprange~;
#X obj 404 202 elooprange~;
#X connect 1 0 13 0;
#X connect 2 0 3 0;
#X connect 4 0 21 3;
#X connect 5 0 22 3;
#X connect 6 0 23 3;
#X connect 7 0 21 2;
#X connect 8 0 22 2;
#X connect 10 0 21 0;
#X connect 11 0 22 0;
#X connect 12 0 23 0;
#X connect 14 0 10 0;
#X connect 14 0 17 0;
#X connect 14 0 7 0;
#X connect 15 0 11 0;
#X connect 15 0 18 0;
#X connect 15 0 8 0;
#X connect 16 0 12 0;
#X connect 16 0 19 0;
#X connect 16 0 20 0;
#X connect 17 0 21 1;
#X connect 18 0 22 1;
#X connect 19 0 23 1;
#X connect 20 0 23 2;
#X connect 21 0 0 0;
#X connect 22 0 0 0;
#X connect 23 0 0 0;
#X restore 747 107 pd flare;
#X obj 751 152 *~ 0.398107;
#X text 765 171 -8dB;
#X obj 942 84 r temperature;
#X obj 896 63 bng 15 250 50 0 empty sun-startall empty 17 7 0 10 -262144
-1 -1;
#N canvas 598 244 669 454 warm 0;
#X obj 284 391 outlet~;
#X obj 355 391 outlet~;
#X text 292 412 ACE;
#X text 362 410 BDF;
#X obj 141 21 inlet;
#X obj 25 250 eloopxf~;
#X obj 378 17 inlet;
#X obj 376 41 s \$0_temp;
#X obj 104 214 r \$0_temp;
#X obj 141 44 s \$0_warmbang;
#X obj 22 103 r \$0_warmbang;
#X msg 35 214 62;
#X msg 69 214 68;
#X obj 103 250 eloopxf~;
#X msg 25 183 \$1_ACE;
#X msg 108 181 \$1_BDF;
#X obj 56 150 symbol;
#X msg 24 124 Sun_62-68_warm;
#X obj 182 250 eloopxf~;
#X obj 261 214 r \$0_temp;
#X obj 179 103 r \$0_warmbang;
#X obj 260 250 eloopxf~;
#X msg 182 183 \$1_ACE;
#X msg 265 181 \$1_BDF;
#X obj 213 150 symbol;
#X msg 181 124 Sun_68-74_warm;
#X msg 192 214 68;
#X msg 226 214 74;
#X obj 338 249 eloopxf~;
#X obj 417 213 r \$0_temp;
#X obj 335 102 r \$0_warmbang;
#X obj 416 249 eloopxf~;
#X msg 338 182 \$1_ACE;
#X msg 421 180 \$1_BDF;
#X obj 369 149 symbol;
#X msg 337 123 Sun_74-80_warm;
#X msg 348 213 74;
#X msg 382 213 80;
#X obj 488 250 eloopxf~;
#X obj 567 214 r \$0_temp;
#X obj 485 103 r \$0_warmbang;
#X obj 566 250 eloopxf~;
#X msg 488 183 \$1_ACE;
#X msg 571 181 \$1_BDF;
#X obj 519 150 symbol;
#X msg 487 124 Sun_80-95_warm;
#X msg 498 214 80;
#X msg 532 214 95;
#X connect 4 0 9 0;
#X connect 5 0 0 0;
#X connect 6 0 7 0;
#X connect 8 0 5 3;
#X connect 8 0 13 3;
#X connect 10 0 17 0;
#X connect 10 0 11 0;
#X connect 10 0 12 0;
#X connect 11 0 5 1;
#X connect 11 0 13 1;
#X connect 12 0 5 2;
#X connect 12 0 13 2;
#X connect 13 0 1 0;
#X connect 14 0 5 0;
#X connect 15 0 13 0;
#X connect 16 0 14 0;
#X connect 16 0 15 0;
#X connect 17 0 16 0;
#X connect 18 0 0 0;
#X connect 19 0 18 3;
#X connect 19 0 21 3;
#X connect 20 0 25 0;
#X connect 20 0 26 0;
#X connect 20 0 27 0;
#X connect 21 0 1 0;
#X connect 22 0 18 0;
#X connect 23 0 21 0;
#X connect 24 0 22 0;
#X connect 24 0 23 0;
#X connect 25 0 24 0;
#X connect 26 0 18 1;
#X connect 26 0 21 1;
#X connect 27 0 18 2;
#X connect 27 0 21 2;
#X connect 28 0 0 0;
#X connect 29 0 28 3;
#X connect 29 0 31 3;
#X connect 30 0 35 0;
#X connect 30 0 36 0;
#X connect 30 0 37 0;
#X connect 31 0 1 0;
#X connect 32 0 28 0;
#X connect 33 0 31 0;
#X connect 34 0 32 0;
#X connect 34 0 33 0;
#X connect 35 0 34 0;
#X connect 36 0 28 1;
#X connect 36 0 31 1;
#X connect 37 0 28 2;
#X connect 37 0 31 2;
#X connect 38 0 0 0;
#X connect 39 0 38 3;
#X connect 39 0 41 3;
#X connect 40 0 45 0;
#X connect 40 0 46 0;
#X connect 40 0 47 0;
#X connect 41 0 1 0;
#X connect 42 0 38 0;
#X connect 43 0 41 0;
#X connect 44 0 42 0;
#X connect 44 0 43 0;
#X connect 45 0 44 0;
#X connect 46 0 38 1;
#X connect 46 0 41 1;
#X connect 47 0 38 2;
#X connect 47 0 41 2;
#X restore 896 109 pd warm;
#X obj 896 148 *~ 0.794328;
#X obj 943 171 *~ 0.794328;
#X text 995 189 -2dB;
#X text 898 166 -2dB;
#X obj 45 318 - 100;
#X obj 90 317 - 100;
#X obj 132 316 - 100;
#X obj 174 316 - 100;
#X obj 204 388 - 100;
#X obj 162 388 - 100;
#X obj 218 315 - 100;
#N canvas 1066 168 444 432 sun-beating 0;
#X text 124 319 ACE;
#X text 227 319 BDF;
#X obj 223 61 inlet;
#X text 211 78 temperature;
#X obj 119 301 outlet~;
#X obj 219 300 outlet~;
#X text 102 49 start;
#X obj 103 65 inlet;
#N canvas 713 237 549 571 ABCDEF---- 0;
#X obj 74 11 inlet;
#X text 119 12 temp;
#X obj 63 490 outlet~;
#X obj 93 232 bng 15 250 50 0 empty empty empty 17 7 0 10 -262144 -1
-1;
#X obj 159 233 bng 15 250 50 0 empty empty empty 17 7 0 10 -262144
-1 -1;
#X obj 222 234 bng 15 250 50 0 empty empty empty 17 7 0 10 -262144
-1 -1;
#X obj 25 181 f;
#X floatatom 54 182 5 0 0 0 - - -;
#X obj 25 10 inlet;
#X text 30 28 play;
#X obj 123 129 bng 15 250 50 0 empty empty empty 17 7 0 10 -262144
-1 -1;
#X text 123 64 if out of range \, check every sec;
#X obj 62 458 playtable~;
#X obj 9 238 bng 15 250 50 0 empty empty empty 17 7 0 10 -262144 -1
-1;
#X obj 285 235 bng 15 250 50 0 empty empty empty 17 7 0 10 -262144
-1 -1;
#X obj 122 105 delay;
#X msg 123 82 1000;
#X msg 152 396 Sun_\$1_beating_ABCDEF;
#X obj 24 208 moses 62;
#X obj 92 208 moses 68;
#X obj 158 208 moses 74;
#X obj 221 208 moses 80;
#X obj 351 234 bng 15 250 50 0 empty empty empty 17 7 0 10 -262144
-1 -1;
#X obj 287 207 moses 92;
#X msg 93 257 symbol 62-68;
#X msg 159 280 symbol 68-74;
#X msg 222 302 symbol 74-80;
#X msg 285 325 symbol 80-92;
#X obj 152 422 print high beating;
#X connect 0 0 6 1;
#X connect 3 0 24 0;
#X connect 4 0 25 0;
#X connect 5 0 26 0;
#X connect 6 0 7 0;
#X connect 6 0 18 0;
#X connect 8 0 6 0;
#X connect 10 0 6 0;
#X connect 12 0 2 0;
#X connect 12 1 6 0;
#X connect 14 0 27 0;
#X connect 15 0 10 0;
#X connect 16 0 15 0;
#X connect 17 0 12 0;
#X connect 17 0 28 0;
#X connect 18 0 13 0;
#X connect 18 0 16 0;
#X connect 18 1 19 0;
#X connect 19 0 3 0;
#X connect 19 1 20 0;
#X connect 20 0 4 0;
#X connect 20 1 21 0;
#X connect 21 0 5 0;
#X connect 21 1 23 0;
#X connect 23 0 14 0;
#X connect 23 1 22 0;
#X connect 23 1 16 0;
#X connect 24 0 17 0;
#X connect 25 0 17 0;
#X connect 26 0 17 0;
#X connect 27 0 17 0;
#X restore 227 188 pd ABCDEF----;
#N canvas 200 301 549 571 ACE 0;
#X obj 74 11 inlet;
#X text 119 12 temp;
#X obj 63 490 outlet~;
#X obj 24 208 moses 44;
#X obj 92 208 moses 50;
#X obj 158 208 moses 56;
#X obj 221 208 moses 62;
#X obj 93 232 bng 15 250 50 0 empty empty empty 17 7 0 10 -262144 -1
-1;
#X obj 159 233 bng 15 250 50 0 empty empty empty 17 7 0 10 -262144
-1 -1;
#X obj 222 234 bng 15 250 50 0 empty empty empty 17 7 0 10 -262144
-1 -1;
#X obj 25 181 f;
#X floatatom 54 182 5 0 0 0 - - -;
#X obj 157 400 print lefty;
#X msg 93 267 symbol 44-50;
#X msg 158 292 symbol 50-56;
#X msg 222 315 symbol 56-62;
#X obj 25 10 inlet;
#X text 30 28 play;
#X obj 123 129 bng 15 250 50 0 empty empty empty 17 7 0 10 -262144
-1 -1;
#X text 123 64 if out of range \, check every sec;
#X obj 62 458 playtable~;
#X msg 152 377 Sun_\$1_beating_ACE;
#X obj 9 238 bng 15 250 50 0 empty empty empty 17 7 0 10 -262144 -1
-1;
#X obj 285 235 bng 15 250 50 0 empty empty empty 17 7 0 10 -262144
-1 -1;
#X obj 122 105 delay;
#X msg 123 82 1000;
#X obj 304 484 outlet~;
#X obj 303 452 playtable~;
#X msg 303 377 Sun_\$1_beating_BDF;
#X obj 308 400 print righty;
#X text 301 340 assume ACE and BDF same length;
#X text 302 352 for each range;
#X connect 0 0 10 1;
#X connect 3 0 22 0;
#X connect 3 0 25 0;
#X connect 3 1 4 0;
#X connect 4 0 7 0;
#X connect 4 1 5 0;
#X connect 5 0 8 0;
#X connect 5 1 6 0;
#X connect 6 0 9 0;
#X connect 6 1 23 0;
#X connect 6 1 25 0;
#X connect 7 0 13 0;
#X connect 8 0 14 0;
#X connect 9 0 15 0;
#X connect 10 0 3 0;
#X connect 10 0 11 0;
#X connect 13 0 21 0;
#X connect 13 0 28 0;
#X connect 14 0 21 0;
#X connect 14 0 28 0;
#X connect 15 0 21 0;
#X connect 15 0 28 0;
#X connect 16 0 10 0;
#X connect 18 0 10 0;
#X connect 20 0 2 0;
#X connect 20 1 10 0;
#X connect 21 0 12 0;
#X connect 21 0 20 0;
#X connect 24 0 18 0;
#X connect 25 0 24 0;
#X connect 27 0 26 0;
#X connect 28 0 27 0;
#X connect 28 0 29 0;
#X restore 77 188 pd ACE and DEF----;
#X connect 2 0 9 1;
#X connect 2 0 8 1;
#X connect 7 0 9 0;
#X connect 7 0 8 0;
#X connect 8 0 4 0;
#X connect 8 0 5 0;
#X connect 9 0 4 0;
#X connect 9 1 5 0;
#X restore 48 91 pd sun-beating;
#X obj 47 64 bng 15 250 50 0 empty sun-startall empty 17 7 0 10 -262144
-1 -1;
#X obj 470 260 bng 15 250 50 0 empty sun-startall empty 17 7 0 10 -262144
-1 -1;
#X obj 619 442 catch~ sunACE;
#X obj 822 444 catch~ sunBDF;
#X obj 51 160 throw~ sunACE;
#X obj 122 183 throw~ sunBDF;
#X obj 249 186 throw~ sunACE;
#X obj 320 209 throw~ sunBDF;
#X obj 431 188 throw~ sunACE;
#X obj 454 208 throw~ sunBDF;
#X obj 580 191 throw~ sunACE;
#X obj 651 214 throw~ sunBDF;
#X obj 760 192 throw~ sunACE;
#X obj 776 214 throw~ sunBDF;
#X obj 897 195 throw~ sunACE;
#X obj 949 216 throw~ sunBDF;
#X obj 510 259 bng 15 250 50 0 empty sun-startall empty 17 7 0 10 -262144
-1 -1;
#X obj 246 388 - 100;
#X obj 551 261 bng 15 250 50 0 empty sun-startall empty 17 7 0 10 -262144
-1 -1;
#X obj 288 388 - 100;
#X obj 330 388 - 100;
#X obj 661 261 r temperature;
#X obj 585 260 bng 15 250 50 0 empty sun-startall empty 17 7 0 10 -262144
-1 -1;
#N canvas 994 539 793 364 wave1 0;
#X obj 70 25 inlet;
#X text 55 5 wave1 start;
#X obj 157 23 inlet;
#X obj 241 23 inlet;
#X obj 327 22 inlet;
#X text 142 3 wave2 start;
#X text 226 3 wave3 start;
#X text 312 2 wave4 start;
#X obj 411 24 inlet;
#X text 396 4 waver start;
#X obj 538 20 inlet;
#X text 583 19 temp;
#X obj 36 299 outlet~;
#N canvas 423 280 626 673 wave1 0;
#X obj 74 11 inlet;
#X text 119 12 temp;
#X obj 59 616 outlet~;
#X obj 93 232 bng 15 250 50 0 empty empty empty 17 7 0 10 -262144 -1
-1;
#X obj 159 233 bng 15 250 50 0 empty empty empty 17 7 0 10 -262144
-1 -1;
#X obj 222 234 bng 15 250 50 0 empty empty empty 17 7 0 10 -262144
-1 -1;
#X obj 25 181 f;
#X floatatom 54 182 5 0 0 0 - - -;
#X obj 25 10 inlet;
#X text 30 28 play;
#X obj 123 129 bng 15 250 50 0 empty empty empty 17 7 0 10 -262144
-1 -1;
#X text 123 64 if out of range \, check every sec;
#X obj 58 584 playtable~;
#X obj 9 238 bng 15 250 50 0 empty empty empty 17 7 0 10 -262144 -1
-1;
#X obj 122 105 delay;
#X msg 123 82 1000;
#X obj 300 610 outlet~;
#X obj 299 578 playtable~;
#X text 346 462 assume ACE and BDF same length;
#X text 343 474 for each range;
#X msg 148 503 Sun_\$1_wave1_ACE;
#X msg 299 503 Sun_\$1_wave1_BDF;
#X obj 153 526 print wave1_left;
#X obj 304 526 print wave1_right;
#X obj 287 234 bng 15 250 50 0 empty empty empty 17 7 0 10 -262144
-1 -1;
#X obj 24 208 moses 32;
#X obj 92 208 moses 38;
#X obj 158 208 moses 50;
#X obj 221 208 moses 56;
#X obj 286 208 moses 68;
#X obj 351 234 bng 15 250 50 0 empty empty empty 17 7 0 10 -262144
-1 -1;
#X obj 415 234 bng 15 250 50 0 empty empty empty 17 7 0 10 -262144
-1 -1;
#X obj 478 235 bng 15 250 50 0 empty empty empty 17 7 0 10 -262144
-1 -1;
#X obj 350 208 moses 74;
#X obj 414 208 moses 89;
#X msg 93 267 symbol 32-38;
#X msg 158 292 symbol 38-50;
#X msg 222 315 symbol 50-56;
#X msg 287 338 symbol 56-68;
#X msg 351 365 symbol 68-74;
#X msg 415 389 symbol 74-89;
#X connect 0 0 6 1;
#X connect 3 0 35 0;
#X connect 4 0 36 0;
#X connect 5 0 37 0;
#X connect 6 0 7 0;
#X connect 6 0 25 0;
#X connect 8 0 6 0;
#X connect 10 0 6 0;
#X connect 12 0 2 0;
#X connect 12 1 6 0;
#X connect 14 0 10 0;
#X connect 15 0 14 0;
#X connect 17 0 16 0;
#X connect 20 0 12 0;
#X connect 20 0 22 0;
#X connect 21 0 17 0;
#X connect 21 0 23 0;
#X connect 24 0 38 0;
#X connect 25 0 13 0;
#X connect 25 0 15 0;
#X connect 25 1 26 0;
#X connect 26 0 3 0;
#X connect 26 1 27 0;
#X connect 27 0 4 0;
#X connect 27 1 28 0;
#X connect 28 0 5 0;
#X connect 28 1 29 0;
#X connect 29 0 24 0;
#X connect 29 1 33 0;
#X connect 30 0 39 0;
#X connect 31 0 40 0;
#X connect 33 0 30 0;
#X connect 33 1 34 0;
#X connect 34 0 31 0;
#X connect 34 1 32 0;
#X connect 35 0 20 0;
#X connect 35 0 21 0;
#X connect 36 0 20 0;
#X connect 36 0 21 0;
#X connect 37 0 20 0;
#X connect 37 0 21 0;
#X connect 38 0 20 0;
#X connect 38 0 21 0;
#X connect 39 0 20 0;
#X connect 39 0 21 0;
#X connect 40 0 20 0;
#X connect 40 0 21 0;
#X restore 34 143 pd wave1;
#X obj 35 113 bng 15 250 50 0 empty empty empty 17 7 0 10 -262144 -1
-1;
#X obj 35 178 *~ 1;
#X text 49 197 0dB;
#X obj 71 177 *~ 1;
#X text 85 196 0dB;
#X obj 36 213 throw~ sunACE;
#X obj 76 237 throw~ sunBDF;
#X obj 171 108 bng 15 250 50 0 empty empty empty 17 7 0 10 -262144
-1 -1;
#X obj 171 173 *~ 1;
#X text 185 192 0dB;
#X obj 207 172 *~ 1;
#X text 221 191 0dB;
#X obj 171 208 throw~ sunACE;
#X obj 206 231 throw~ sunBDF;
#N canvas 434 403 626 673 wave2 0;
#X obj 74 11 inlet;
#X text 119 12 temp;
#X obj 59 616 outlet~;
#X obj 213 230 bng 15 250 50 0 empty empty empty 17 7 0 10 -262144
-1 -1;
#X obj 279 231 bng 15 250 50 0 empty empty empty 17 7 0 10 -262144
-1 -1;
#X obj 342 232 bng 15 250 50 0 empty empty empty 17 7 0 10 -262144
-1 -1;
#X obj 25 181 f;
#X floatatom 54 182 5 0 0 0 - - -;
#X obj 25 10 inlet;
#X text 30 28 play;
#X obj 123 129 bng 15 250 50 0 empty empty empty 17 7 0 10 -262144
-1 -1;
#X text 123 64 if out of range \, check every sec;
#X obj 58 584 playtable~;
#X obj 9 238 bng 15 250 50 0 empty empty empty 17 7 0 10 -262144 -1
-1;
#X obj 122 105 delay;
#X msg 123 82 1000;
#X obj 300 610 outlet~;
#X obj 299 578 playtable~;
#X text 346 462 assume ACE and BDF same length;
#X text 343 474 for each range;
#X obj 24 208 moses 8;
#X obj 212 206 moses 56;
#X obj 278 206 moses 62;
#X obj 341 206 moses 80;
#X obj 405 206 moses 97;
#X obj 405 231 bng 15 250 50 0 empty empty empty 17 7 0 10 -262144
-1 -1;
#X msg 279 332 symbol 56-62;
#X msg 342 355 symbol 62-80;
#X text 378 338 MISSING;
#X msg 405 379 symbol 80-97;
#X obj 153 526 print wave2_left;
#X obj 304 526 print wave2_right;
#X obj 125 612 bng 15 250 50 0 empty empty empty 17 7 0 10 -262144
-1 -1;
#X msg 148 503 Sun_\$1_wave2_ACE;
#X msg 299 503 Sun_\$1_wave2_BDF;
#X obj 86 231 bng 15 250 50 0 empty empty empty 17 7 0 10 -262144 -1
-1;
#X obj 149 230 bng 15 250 50 0 empty empty empty 17 7 0 10 -262144
-1 -1;
#X obj 85 207 moses 38;
#X obj 148 206 moses 44;
#X msg 213 307 symbol 44-56;
#X msg 149 281 symbol 38-44;
#X msg 86 258 symbol 8-38;
#X connect 0 0 6 1;
#X connect 3 0 39 0;
#X connect 4 0 26 0;
#X connect 5 0 27 0;
#X connect 6 0 7 0;
#X connect 6 0 20 0;
#X connect 8 0 6 0;
#X connect 10 0 6 0;
#X connect 12 0 2 0;
#X connect 12 1 32 0;
#X connect 12 1 6 0;
#X connect 14 0 10 0;
#X connect 15 0 14 0;
#X connect 17 0 16 0;
#X connect 20 0 13 0;
#X connect 20 0 15 0;
#X connect 20 1 37 0;
#X connect 21 0 3 0;
#X connect 21 1 22 0;
#X connect 22 0 4 0;
#X connect 22 1 23 0;
#X connect 23 0 5 0;
#X connect 23 1 24 0;
#X connect 24 0 25 0;
#X connect 24 1 15 0;
#X connect 25 0 29 0;
#X connect 26 0 33 0;
#X connect 26 0 34 0;
#X connect 27 0 15 0;
#X connect 29 0 33 0;
#X connect 29 0 34 0;
#X connect 33 0 12 0;
#X connect 33 0 30 0;
#X connect 34 0 17 0;
#X connect 34 0 31 0;
#X connect 35 0 41 0;
#X connect 36 0 40 0;
#X connect 37 0 35 0;
#X connect 37 1 38 0;
#X connect 38 0 36 0;
#X connect 38 1 21 0;
#X connect 39 0 33 0;
#X connect 39 0 34 0;
#X connect 40 0 33 0;
#X connect 40 0 34 0;
#X connect 41 0 33 0;
#X connect 41 0 34 0;
#X restore 170 137 pd wave2;
#X obj 313 103 bng 15 250 50 0 empty empty empty 17 7 0 10 -262144
-1 -1;
#X obj 311 212 throw~ sunACE;
#X obj 346 232 throw~ sunBDF;
#N canvas 525 381 626 673 wave3 0;
#X obj 74 11 inlet;
#X text 119 12 temp;
#X obj 59 616 outlet~;
#X obj 93 232 bng 15 250 50 0 empty empty empty 17 7 0 10 -262144 -1
-1;
#X obj 159 233 bng 15 250 50 0 empty empty empty 17 7 0 10 -262144
-1 -1;
#X obj 222 234 bng 15 250 50 0 empty empty empty 17 7 0 10 -262144
-1 -1;
#X obj 25 181 f;
#X floatatom 54 182 5 0 0 0 - - -;
#X obj 25 10 inlet;
#X text 30 28 play;
#X obj 123 129 bng 15 250 50 0 empty empty empty 17 7 0 10 -262144
-1 -1;
#X text 123 64 if out of range \, check every sec;
#X obj 58 584 playtable~;
#X obj 9 238 bng 15 250 50 0 empty empty empty 17 7 0 10 -262144 -1
-1;
#X obj 122 105 delay;
#X msg 123 82 1000;
#X obj 300 610 outlet~;
#X obj 299 578 playtable~;
#X text 346 462 assume ACE and BDF same length;
#X text 343 474 for each range;
#X obj 285 233 bng 15 250 50 0 empty empty empty 17 7 0 10 -262144
-1 -1;
#X obj 125 612 bng 15 250 50 0 empty empty empty 17 7 0 10 -262144
-1 -1;
#X msg 148 503 Sun_\$1_wave3_ACE;
#X msg 299 503 Sun_\$1_wave3_BDF;
#X obj 24 208 moses 32;
#X obj 92 208 moses 38;
#X obj 158 208 moses 44;
#X obj 221 208 moses 56;
#X obj 285 208 moses 62;
#X obj 351 233 bng 15 250 50 0 empty empty empty 17 7 0 10 -262144
-1 -1;
#X obj 415 232 bng 15 250 50 0 empty empty empty 17 7 0 10 -262144
-1 -1;
#X obj 480 231 bng 15 250 50 0 empty empty empty 17 7 0 10 -262144
-1 -1;
#X obj 350 207 moses 74;
#X obj 414 206 moses 80;
#X obj 479 205 moses 89;
#X msg 93 267 symbol 32-38;
#X msg 158 292 symbol 38-44;
#X msg 222 315 symbol 44-56;
#X msg 285 339 symbol 56-62;
#X msg 351 367 symbol 62-74;
#X msg 415 390 symbol 74-80;
#X msg 480 415 symbol 80-89;
#X obj 304 526 print wave3_right;
#X obj 153 526 print wave3_left;
#X connect 0 0 6 1;
#X connect 3 0 35 0;
#X connect 4 0 36 0;
#X connect 5 0 37 0;
#X connect 6 0 7 0;
#X connect 6 0 24 0;
#X connect 8 0 6 0;
#X connect 10 0 6 0;
#X connect 12 0 2 0;
#X connect 12 1 21 0;
#X connect 12 1 6 0;
#X connect 14 0 10 0;
#X connect 15 0 14 0;
#X connect 17 0 16 0;
#X connect 20 0 38 0;
#X connect 22 0 12 0;
#X connect 22 0 43 0;
#X connect 23 0 17 0;
#X connect 23 0 42 0;
#X connect 24 0 13 0;
#X connect 24 0 15 0;
#X connect 24 1 25 0;
#X connect 25 0 3 0;
#X connect 25 1 26 0;
#X connect 26 0 4 0;
#X connect 26 1 27 0;
#X connect 27 0 5 0;
#X connect 27 1 28 0;
#X connect 28 0 20 0;
#X connect 28 1 32 0;
#X connect 29 0 39 0;
#X connect 30 0 40 0;
#X connect 31 0 41 0;
#X connect 32 0 29 0;
#X connect 32 1 33 0;
#X connect 33 0 30 0;
#X connect 33 1 34 0;
#X connect 34 0 31 0;
#X connect 34 1 15 0;
#X connect 35 0 22 0;
#X connect 35 0 23 0;
#X connect 36 0 22 0;
#X connect 36 0 23 0;
#X connect 37 0 22 0;
#X connect 37 0 23 0;
#X connect 38 0 22 0;
#X connect 38 0 23 0;
#X connect 39 0 22 0;
#X connect 39 0 23 0;
#X connect 40 0 22 0;
#X connect 40 0 23 0;
#X connect 41 0 23 0;
#X connect 41 0 22 0;
#X restore 312 132 pd wave3;
#X text 324 195 -8dB;
#X text 360 194 -8dB;
#X obj 310 155 *~ 0.398107;
#X obj 369 174 *~ 0.398107;
#X obj 472 110 bng 15 250 50 0 empty empty empty 17 7 0 10 -262144
-1 -1;
#X obj 470 219 throw~ sunACE;
#X obj 505 239 throw~ sunBDF;
#N canvas 524 380 578 541 wave4 0;
#X obj 74 11 inlet;
#X text 119 12 temp;
#X obj 56 501 outlet~;
#X obj 93 232 bng 15 250 50 0 empty empty empty 17 7 0 10 -262144 -1
-1;
#X obj 159 233 bng 15 250 50 0 empty empty empty 17 7 0 10 -262144
-1 -1;
#X obj 222 234 bng 15 250 50 0 empty empty empty 17 7 0 10 -262144
-1 -1;
#X obj 25 181 f;
#X floatatom 54 182 5 0 0 0 - - -;
#X obj 25 10 inlet;
#X text 30 28 play;
#X obj 123 129 bng 15 250 50 0 empty empty empty 17 7 0 10 -262144
-1 -1;
#X text 123 64 if out of range \, check every sec;
#X obj 55 469 playtable~;
#X obj 9 238 bng 15 250 50 0 empty empty empty 17 7 0 10 -262144 -1
-1;
#X obj 122 105 delay;
#X msg 123 82 1000;
#X obj 297 495 outlet~;
#X obj 296 463 playtable~;
#X text 297 347 assume ACE and BDF same length;
#X text 307 361 for each range;
#X obj 122 497 bng 15 250 50 0 empty empty empty 17 7 0 10 -262144
-1 -1;
#X obj 24 208 moses 62;
#X obj 92 208 moses 68;
#X obj 158 208 moses 74;
#X obj 221 208 moses 80;
#X msg 93 267 symbol 62-68;
#X msg 158 292 symbol 68-74;
#X msg 222 315 symbol 74-80;
#X msg 145 388 Sun_\$1_wave4_ACE;
#X msg 296 388 Sun_\$1_wave4_BDF;
#X obj 301 411 print wave4_right;
#X obj 150 411 print wave4_left;
#X connect 0 0 6 1;
#X connect 3 0 25 0;
#X connect 4 0 26 0;
#X connect 5 0 27 0;
#X connect 6 0 7 0;
#X connect 6 0 21 0;
#X connect 8 0 6 0;
#X connect 10 0 6 0;
#X connect 12 0 2 0;
#X connect 12 1 20 0;
#X connect 12 1 6 0;
#X connect 14 0 10 0;
#X connect 15 0 14 0;
#X connect 17 0 16 0;
#X connect 21 0 13 0;
#X connect 21 0 15 0;
#X connect 21 1 22 0;
#X connect 22 0 3 0;
#X connect 22 1 23 0;
#X connect 23 0 4 0;
#X connect 23 1 24 0;
#X connect 24 0 5 0;
#X connect 24 1 15 0;
#X connect 25 0 28 0;
#X connect 25 0 29 0;
#X connect 26 0 28 0;
#X connect 26 0 29 0;
#X connect 27 0 28 0;
#X connect 27 0 29 0;
#X connect 28 0 12 0;
#X connect 28 0 31 0;
#X connect 29 0 17 0;
#X connect 29 0 30 0;
#X restore 471 139 pd wave4;
#X obj 469 162 *~ 1;
#X obj 528 181 *~ 1;
#X text 530 199 0dB;
#X obj 609 108 bng 15 250 50 0 empty empty empty 17 7 0 10 -262144
-1 -1;
#X obj 607 217 throw~ sunACE;
#X obj 642 237 throw~ sunBDF;
#X text 666 197 -3dB;
#X text 474 181 0dB;
#X text 611 179 -3dB;
#X obj 172 302 outlet~;
#X obj 311 305 outlet~;
#X obj 470 304 outlet~;
#X obj 605 302 outlet~;
#N canvas 524 380 578 541 waver 0;
#X obj 74 11 inlet;
#X text 119 12 temp;
#X obj 56 501 outlet~;
#X obj 93 232 bng 15 250 50 0 empty empty empty 17 7 0 10 -262144 -1
-1;
#X obj 25 181 f;
#X floatatom 54 182 5 0 0 0 - - -;
#X obj 25 10 inlet;
#X text 30 28 play;
#X obj 123 129 bng 15 250 50 0 empty empty empty 17 7 0 10 -262144
-1 -1;
#X text 123 64 if out of range \, check every sec;
#X obj 55 469 playtable~;
#X obj 13 232 bng 15 250 50 0 empty empty empty 17 7 0 10 -262144 -1
-1;
#X obj 122 105 delay;
#X msg 123 82 1000;
#X obj 297 495 outlet~;
#X obj 296 463 playtable~;
#X text 297 347 assume ACE and BDF same length;
#X text 307 361 for each range;
#X obj 122 497 bng 15 250 50 0 empty empty empty 17 7 0 10 -262144
-1 -1;
#X msg 145 388 Sun_\$1_waver_ACE;
#X obj 150 411 print waver_left;
#X msg 297 388 Sun_\$1_waver_BDF;
#X obj 301 411 print waver_right;
#X obj 24 207 moses 68;
#X obj 92 208 moses 150;
#X msg 93 267 symbol 68-150;
#X connect 0 0 4 1;
#X connect 3 0 25 0;
#X connect 4 0 5 0;
#X connect 4 0 23 0;
#X connect 6 0 4 0;
#X connect 8 0 4 0;
#X connect 10 0 2 0;
#X connect 10 1 18 0;
#X connect 10 1 4 0;
#X connect 12 0 8 0;
#X connect 13 0 12 0;
#X connect 15 0 14 0;
#X connect 19 0 10 0;
#X connect 19 0 20 0;
#X connect 21 0 15 0;
#X connect 21 0 22 0;
#X connect 23 0 11 0;
#X connect 23 0 13 0;
#X connect 23 1 24 0;
#X connect 24 0 3 0;
#X connect 24 1 13 0;
#X connect 25 0 19 0;
#X connect 25 0 21 0;
#X restore 608 137 pd waver;
#X obj 606 160 *~ 0.707946;
#X obj 665 179 *~ 0.707946;
#X connect 0 0 14 0;
#X connect 2 0 21 0;
#X connect 3 0 29 0;
#X connect 4 0 37 0;
#X connect 8 0 44 0;
#X connect 10 0 13 1;
#X connect 10 0 28 1;
#X connect 10 0 32 1;
#X connect 10 0 40 1;
#X connect 10 0 54 1;
#X connect 13 0 15 0;
#X connect 13 1 17 0;
#X connect 14 0 13 0;
#X connect 15 0 19 0;
#X connect 15 0 12 0;
#X connect 17 0 20 0;
#X connect 21 0 28 0;
#X connect 22 0 26 0;
#X connect 22 0 50 0;
#X connect 24 0 27 0;
#X connect 28 0 22 0;
#X connect 28 1 24 0;
#X connect 29 0 32 0;
#X connect 32 0 35 0;
#X connect 32 1 36 0;
#X connect 35 0 30 0;
#X connect 35 0 51 0;
#X connect 36 0 31 0;
#X connect 37 0 40 0;
#X connect 40 0 41 0;
#X connect 40 1 42 0;
#X connect 41 0 38 0;
#X connect 41 0 52 0;
#X connect 42 0 39 0;
#X connect 44 0 54 0;
#X connect 54 0 55 0;
#X connect 54 1 56 0;
#X connect 55 0 45 0;
#X connect 55 0 53 0;
#X connect 56 0 46 0;
#X restore 453 311 pd wave1 wave2 wave3 wave4 waver;
#X obj 372 388 - 100;
#X obj 624 260 bng 15 250 50 0 empty sun-startall empty 17 7 0 10 -262144
-1 -1;
#X obj 41 411 cnv 15 275 155 empty empty empty 20 12 0 14 -233017 -66577
0;
#X obj 49 427 vu 15 120 empty empty -1 -8 0 10 -66577 -262144 1 0;
#X obj 70 427 vu 15 120 empty empty -1 -8 0 10 -66577 -262144 1 0;
#X obj 91 427 vu 15 120 empty empty -1 -8 0 10 -66577 -262144 1 0;
#X obj 112 427 vu 15 120 empty empty -1 -8 0 10 -66577 -262144 1 0
;
#X obj 134 427 vu 15 120 empty empty -1 -8 0 10 -66577 -262144 1 0
;
#X text 51 551 b;
#X text 89 550 sp;
#X text 65 550 shm;
#X text 108 550 shn;
#X text 129 550 flr;
#X text 151 550 wrm;
#X obj 156 427 vu 15 120 empty empty -1 -8 0 10 -66577 -262144 1 0
;
#X obj 178 427 vu 15 120 empty empty -1 -8 0 10 -66577 -262144 1 0
;
#X text 175 550 wv1;
#X obj 200 427 vu 15 120 empty empty -1 -8 0 10 -66577 -262144 1 0
;
#X text 197 550 wv2;
#X obj 222 427 vu 15 120 empty empty -1 -8 0 10 -66577 -262144 1 0
;
#X text 219 550 wv3;
#X obj 244 427 vu 15 120 empty empty -1 -8 0 10 -66577 -262144 1 0
;
#X text 241 550 wv4;
#X obj 266 427 vu 15 120 empty empty -1 -8 0 10 -66577 -159808 1 0
;
#X text 263 550 wvr;
#X obj 57 9 inlet;
#X obj 57 31 s sun-startall;
#X obj 27 281 env~ 16384;
#X obj 94 280 env~ 16384;
#X obj 126 257 env~ 16384;
#X obj 164 280 env~ 16384;
#X obj 215 258 env~ 16384;
#X obj 161 364 env~ 16384;
#X obj 201 342 env~ 16384;
#X obj 245 364 env~ 16384;
#X obj 286 342 env~ 16384;
#X obj 330 364 env~ 16384;
#X obj 370 340 env~ 16384;
#X connect 12 0 57 1;
#X connect 13 0 0 0;
#X connect 13 0 2 0;
#X connect 13 0 4 0;
#X connect 14 0 1 0;
#X connect 14 0 3 0;
#X connect 14 0 5 0;
#X connect 15 0 26 0;
#X connect 15 1 24 0;
#X connect 16 0 21 0;
#X connect 17 0 15 0;
#X connect 18 0 15 1;
#X connect 19 0 16 1;
#X connect 20 0 16 0;
#X connect 21 0 66 0;
#X connect 21 0 67 0;
#X connect 21 0 111 0;
#X connect 24 0 65 0;
#X connect 26 0 64 0;
#X connect 26 0 110 0;
#X connect 29 0 62 0;
#X connect 29 0 109 0;
#X connect 30 0 63 0;
#X connect 31 0 33 1;
#X connect 32 0 33 0;
#X connect 33 0 34 0;
#X connect 33 1 36 0;
#X connect 34 0 68 0;
#X connect 34 0 112 0;
#X connect 36 0 69 0;
#X connect 38 0 40 1;
#X connect 39 0 40 0;
#X connect 40 0 41 0;
#X connect 41 0 70 0;
#X connect 41 0 71 0;
#X connect 41 0 113 0;
#X connect 43 0 45 1;
#X connect 44 0 45 0;
#X connect 45 0 46 0;
#X connect 45 1 47 0;
#X connect 46 0 72 0;
#X connect 46 0 114 0;
#X connect 47 0 73 0;
#X connect 50 0 85 0;
#X connect 51 0 86 0;
#X connect 52 0 87 0;
#X connect 53 0 88 0;
#X connect 54 0 97 0;
#X connect 55 0 96 0;
#X connect 56 0 89 0;
#X connect 57 0 29 0;
#X connect 57 1 30 0;
#X connect 58 0 57 0;
#X connect 59 0 81 0;
#X connect 60 0 13 0;
#X connect 61 0 14 0;
#X connect 74 0 81 1;
#X connect 75 0 99 0;
#X connect 76 0 81 2;
#X connect 77 0 101 0;
#X connect 78 0 103 0;
#X connect 79 0 81 5;
#X connect 80 0 81 3;
#X connect 81 0 115 0;
#X connect 81 1 116 0;
#X connect 81 2 117 0;
#X connect 81 3 118 0;
#X connect 81 4 119 0;
#X connect 82 0 105 0;
#X connect 83 0 81 4;
#X connect 107 0 108 0;
#X connect 109 0 50 0;
#X connect 110 0 51 0;
#X connect 111 0 52 0;
#X connect 112 0 53 0;
#X connect 113 0 56 0;
#X connect 114 0 55 0;
#X connect 115 0 54 0;
#X connect 116 0 75 0;
#X connect 117 0 77 0;
#X connect 118 0 78 0;
#X connect 119 0 82 0;
#X coords 0 -1 1 1 277 159 1 40 410;
