#N canvas 645 295 1137 565 10;
#X obj 370 481 outlet~;
#X obj 427 481 outlet~;
#X obj 484 481 outlet~;
#X obj 541 481 outlet~;
#X obj 598 481 outlet~;
#X obj 655 481 outlet~;
#X text 388 501 A;
#X text 442 500 B;
#X text 502 498 C;
#X text 559 498 D;
#X text 617 499 E;
#X text 676 499 F;
#X msg 61 67 44 50 56 62;
#X obj 156 117 r temperature;
#X obj 422 378 *~ 1;
#X obj 625 376 *~ 1;
#X msg 108 93 62 68 74 80 92;
#N canvas 863 121 788 321 sun-beating 0;
#X obj 76 26 inlet;
#X obj 442 36 inlet;
#X obj 35 98 magic_namer Sun beating ACE;
#X obj 240 97 magic_namer Sun beating BDF;
#X obj 442 97 magic_namer Sun beating ABCDEF;
#X obj 447 217 sun-cell4~;
#X obj 51 127 print sun;
#X obj 262 135 print sun;
#X obj 458 135 print sun;
#X text 37 48 ACE and BDF temps;
#X text 456 55 ABCDEF temps;
#X obj 47 267 outlet~;
#X obj 241 268 outlet~;
#X text 37 284 ACE OUTPUT;
#X text 233 289 BDF OUTPUT;
#X obj 685 36 inlet;
#X text 689 58 control (temp);
#X obj 51 209 sun-cell3~;
#X obj 240 213 sun-cell3~;
#X connect 0 0 2 0;
#X connect 0 0 3 0;
#X connect 1 0 4 0;
#X connect 2 0 6 0;
#X connect 2 0 17 0;
#X connect 3 0 7 0;
#X connect 3 0 18 0;
#X connect 4 0 5 0;
#X connect 4 0 8 0;
#X connect 5 0 12 0;
#X connect 5 0 11 0;
#X connect 15 0 5 1;
#X connect 15 0 17 1;
#X connect 15 0 18 1;
#X connect 17 0 11 0;
#X connect 18 0 12 0;
#X restore 61 146 pd sun-beating;
#N canvas 392 329 327 300 sun-shimmer 0;
#X obj 43 199 outlet~;
#X obj 184 202 outlet~;
#X text 44 223 ACE;
#N canvas 155 162 584 570 ACE 0;
#X obj 184 492 outlet~;
#X obj 29 180 eloopxf~ 1000;
#X obj 288 180 eloopxf~ 1000;
#X obj 269 24 inlet;
#X text 290 49 temp;
#X msg 29 128 Sun_80-150_shimmer1_ACE;
#X msg 40 154 80;
#X msg 75 155 150;
#X msg 336 154 150;
#X msg 290 131 Sun_85-150_shimmer2_ACE;
#X msg 304 153 85;
#X obj 269 67 s \$0-shimtemp;
#X obj 111 156 r \$0-shimtemp;
#X obj 374 153 r \$0-shimtemp;
#X obj 26 285 eloopxf~ 1000;
#X msg 72 260 150;
#X obj 108 261 r \$0-shimtemp;
#X msg 37 259 88;
#X obj 295 289 eloopxf~ 1000;
#X msg 341 264 150;
#X obj 377 265 r \$0-shimtemp;
#X msg 296 236 Sun_91-150_shimmer4_ACE;
#X msg 306 263 91;
#X obj 29 405 eloopxf~ 1000;
#X msg 75 380 150;
#X obj 111 381 r \$0-shimtemp;
#X msg 40 379 94;
#X obj 293 409 eloopxf~ 1000;
#X msg 339 384 150;
#X obj 375 385 r \$0-shimtemp;
#X msg 295 355 Sun_96-150_shimmer6_ACE;
#X msg 30 351 Sun_94-150_shimmer5_ACE;
#X msg 304 383 96;
#X msg 27 232 Sun_88-150_shimmer3_ACE;
#X obj 70 25 inlet;
#X text 116 22 bang to set players;
#X obj 71 51 s \$0_shimmerbang_ACE;
#X obj 29 107 r \$0_shimmerbang_ACE;
#X obj 291 108 r \$0_shimmerbang_ACE;
#X obj 26 212 r \$0_shimmerbang_ACE;
#X obj 295 216 r \$0_shimmerbang_ACE;
#X obj 29 332 r \$0_shimmerbang_ACE;
#X obj 293 336 r \$0_shimmerbang_ACE;
#X connect 1 0 0 0;
#X connect 2 0 0 0;
#X connect 3 0 11 0;
#X connect 5 0 1 0;
#X connect 6 0 1 1;
#X connect 7 0 1 2;
#X connect 8 0 2 2;
#X connect 9 0 2 0;
#X connect 10 0 2 1;
#X connect 12 0 1 3;
#X connect 13 0 2 3;
#X connect 14 0 0 0;
#X connect 15 0 14 2;
#X connect 16 0 14 3;
#X connect 17 0 14 1;
#X connect 18 0 0 0;
#X connect 19 0 18 2;
#X connect 20 0 18 3;
#X connect 21 0 18 0;
#X connect 22 0 18 1;
#X connect 23 0 0 0;
#X connect 24 0 23 2;
#X connect 25 0 23 3;
#X connect 26 0 23 1;
#X connect 27 0 0 0;
#X connect 28 0 27 2;
#X connect 29 0 27 3;
#X connect 30 0 27 0;
#X connect 31 0 23 0;
#X connect 32 0 27 1;
#X connect 33 0 14 0;
#X connect 34 0 36 0;
#X connect 37 0 5 0;
#X connect 37 0 6 0;
#X connect 37 0 7 0;
#X connect 38 0 9 0;
#X connect 38 0 10 0;
#X connect 38 0 8 0;
#X connect 39 0 33 0;
#X connect 39 0 17 0;
#X connect 39 0 15 0;
#X connect 40 0 21 0;
#X connect 40 0 22 0;
#X connect 40 0 19 0;
#X connect 41 0 31 0;
#X connect 41 0 26 0;
#X connect 41 0 24 0;
#X connect 42 0 30 0;
#X connect 42 0 32 0;
#X connect 42 0 28 0;
#X restore 44 104 pd ACE;
#N canvas 765 156 584 570 BDF 0;
#X obj 184 492 outlet~;
#X obj 29 180 eloopxf~ 1000;
#X obj 288 180 eloopxf~ 1000;
#X obj 269 24 inlet;
#X text 290 49 temp;
#X msg 40 154 80;
#X msg 75 155 150;
#X msg 336 154 150;
#X msg 304 153 85;
#X obj 269 67 s \$0-shimtemp;
#X obj 111 156 r \$0-shimtemp;
#X obj 374 153 r \$0-shimtemp;
#X obj 26 285 eloopxf~ 1000;
#X msg 72 260 150;
#X obj 108 261 r \$0-shimtemp;
#X msg 37 259 88;
#X obj 295 289 eloopxf~ 1000;
#X msg 341 264 150;
#X obj 377 265 r \$0-shimtemp;
#X msg 306 263 91;
#X obj 29 405 eloopxf~ 1000;
#X msg 75 380 150;
#X obj 111 381 r \$0-shimtemp;
#X msg 40 379 94;
#X obj 293 409 eloopxf~ 1000;
#X msg 339 384 150;
#X obj 375 385 r \$0-shimtemp;
#X msg 304 383 96;
#X msg 29 128 Sun_80-150_shimmer1_BDF;
#X msg 290 131 Sun_85-150_shimmer2_BDF;
#X msg 28 232 Sun_88-150_shimmer3_BDF;
#X msg 296 236 Sun_91-150_shimmer4_BDF;
#X msg 30 351 Sun_94-150_shimmer5_BDF;
#X msg 295 355 Sun_96-150_shimmer6_BDF;
#X obj 66 26 inlet;
#X text 109 26 bang to set players;
#X obj 66 54 s \$0_shimmerbang_BDF;
#X obj 27 102 r \$0_shimmerbang_BDF;
#X obj 291 108 r \$0_shimmerbang_BDF;
#X obj 295 216 r \$0_shimmerbang_BDF;
#X obj 26 212 r \$0_shimmerbang_BDF;
#X obj 30 331 r \$0_shimmerbang_BDF;
#X obj 293 336 r \$0_shimmerbang_BDF;
#X connect 1 0 0 0;
#X connect 2 0 0 0;
#X connect 3 0 9 0;
#X connect 5 0 1 1;
#X connect 6 0 1 2;
#X connect 7 0 2 2;
#X connect 8 0 2 1;
#X connect 10 0 1 3;
#X connect 11 0 2 3;
#X connect 12 0 0 0;
#X connect 13 0 12 2;
#X connect 14 0 12 3;
#X connect 15 0 12 1;
#X connect 16 0 0 0;
#X connect 17 0 16 2;
#X connect 18 0 16 3;
#X connect 19 0 16 1;
#X connect 20 0 0 0;
#X connect 21 0 20 2;
#X connect 22 0 20 3;
#X connect 23 0 20 1;
#X connect 24 0 0 0;
#X connect 25 0 24 2;
#X connect 26 0 24 3;
#X connect 27 0 24 1;
#X connect 28 0 1 0;
#X connect 29 0 2 0;
#X connect 30 0 12 0;
#X connect 31 0 16 0;
#X connect 32 0 20 0;
#X connect 33 0 24 0;
#X connect 34 0 36 0;
#X connect 37 0 28 0;
#X connect 37 0 5 0;
#X connect 37 0 6 0;
#X connect 38 0 29 0;
#X connect 38 0 8 0;
#X connect 38 0 7 0;
#X connect 39 0 31 0;
#X connect 39 0 19 0;
#X connect 39 0 17 0;
#X connect 40 0 30 0;
#X connect 40 0 15 0;
#X connect 40 0 13 0;
#X connect 41 0 32 0;
#X connect 41 0 23 0;
#X connect 41 0 21 0;
#X connect 42 0 33 0;
#X connect 42 0 27 0;
#X connect 42 0 25 0;
#X restore 185 106 pd BDF;
#X obj 129 22 inlet;
#X obj 36 21 inlet;
#X text 188 223 BDF;
#X connect 3 0 0 0;
#X connect 4 0 1 0;
#X connect 5 0 3 1;
#X connect 5 0 4 1;
#X connect 6 0 3 0;
#X connect 6 0 4 0;
#X restore 268 148 pd sun-shimmer;
#N canvas 167 139 543 499 spot 0;
#X obj 215 426 outlet~;
#X obj 141 21 inlet;
#X msg 51 141 Sun_32-38_spot_ABCDEF;
#X msg 60 167 32;
#X msg 94 167 38;
#X obj 376 17 inlet;
#X obj 376 41 s \$0_temp;
#X obj 129 167 r \$0_temp;
#X obj 382 169 r \$0_temp;
#X obj 131 309 r \$0_temp;
#X obj 411 303 r \$0_temp;
#X msg 304 143 Sun_38-44_spot_ABCDEF;
#X msg 313 169 38;
#X msg 347 169 44;
#X msg 53 283 Sun_44-56_spot_ABCDEF;
#X msg 62 309 44;
#X msg 96 309 56;
#X msg 333 277 Sun_56-62_spot_ABCDEF;
#X msg 342 303 56;
#X msg 376 303 62;
#X obj 141 44 s \$0_spotbang;
#X obj 50 115 r \$0_spotbang;
#X obj 303 117 r \$0_spotbang;
#X obj 52 257 r \$0_spotbang;
#X obj 332 251 r \$0_spotbang;
#X text 215 451 ABCDEF;
#X obj 51 199 elooprange~;
#X obj 304 201 elooprange~;
#X obj 333 335 elooprange~;
#X obj 53 341 elooprange~;
#X connect 1 0 20 0;
#X connect 2 0 26 0;
#X connect 3 0 26 1;
#X connect 4 0 26 2;
#X connect 5 0 6 0;
#X connect 7 0 26 3;
#X connect 8 0 27 3;
#X connect 9 0 29 3;
#X connect 10 0 28 3;
#X connect 11 0 27 0;
#X connect 12 0 27 1;
#X connect 13 0 27 2;
#X connect 14 0 29 0;
#X connect 15 0 29 1;
#X connect 16 0 29 2;
#X connect 17 0 28 0;
#X connect 18 0 28 1;
#X connect 19 0 28 2;
#X connect 21 0 2 0;
#X connect 21 0 3 0;
#X connect 21 0 4 0;
#X connect 22 0 11 0;
#X connect 22 0 12 0;
#X connect 22 0 13 0;
#X connect 23 0 14 0;
#X connect 23 0 15 0;
#X connect 23 0 16 0;
#X connect 24 0 17 0;
#X connect 24 0 18 0;
#X connect 24 0 19 0;
#X connect 26 0 0 0;
#X connect 27 0 0 0;
#X connect 28 0 0 0;
#X connect 29 0 0 0;
#X restore 456 139 pd spot;
#X obj 272 100 bng 15 250 50 0 empty empty empty 17 7 0 10 -262144
-1 -1;
#X obj 341 122 r temperature;
#X obj 502 114 r temperature;
#X obj 456 94 bng 15 250 50 0 empty empty empty 17 7 0 10 -262144 -1
-1;
#X obj 456 178 *~ 0.177828;
#X text 470 197 -15dB;
#X text 378 194 -8dB;
#X obj 358 178 *~ 0.398107;
#X text 285 193 -8dB;
#X obj 265 177 *~ 0.398107;
#X text 181 190 -6dB;
#X text 68 196 -6dB;
#X obj 48 180 *~ 0.501187;
#X obj 161 174 *~ 0.501187;
#X obj 644 116 r temperature;
#X obj 598 96 bng 15 250 50 0 empty empty empty 17 7 0 10 -262144 -1
-1;
#N canvas 73 95 730 707 shine 0;
#X obj 133 631 outlet~;
#X obj 289 628 outlet~;
#X text 133 656 ACE;
#X text 289 652 BDF;
#X obj 141 21 inlet;
#X obj 51 199 eloopxf~;
#X obj 378 17 inlet;
#X obj 376 41 s \$0_temp;
#X obj 129 167 r \$0_temp;
#X obj 304 201 eloopxf~;
#X obj 382 169 r \$0_temp;
#X obj 46 560 eloopxf~;
#X obj 124 528 r \$0_temp;
#X obj 366 520 eloopxf~;
#X obj 444 488 r \$0_temp;
#X msg 51 141 Sun_2-32_shine1_ACE;
#X msg 60 167 2;
#X msg 94 167 32;
#X msg 46 502 Sun_negative50-29_shine3_ACE;
#X msg 55 528 -50;
#X msg 89 528 29;
#X obj 39 386 eloopxf~;
#X obj 117 354 r \$0_temp;
#X msg 48 354 -50;
#X msg 39 328 Sun_negative50-32_shine2_ACE;
#X msg 82 354 32;
#X msg 304 143 Sun_2-32_shine1_BDF;
#X msg 313 169 2;
#X msg 347 169 32;
#X obj 334 373 eloopxf~;
#X obj 412 341 r \$0_temp;
#X msg 334 315 Sun_negative50-29_shine3_BDF;
#X msg 377 341 29;
#X msg 366 462 Sun_negative50-32_shine2_BDF;
#X msg 409 488 32;
#X obj 141 44 s \$0_shinebang;
#X obj 50 115 r \$0_shinebang;
#X obj 303 117 r \$0_shinebang;
#X obj 333 289 r \$0_shinebang;
#X obj 38 302 r \$0_shinebang;
#X obj 45 476 r \$0_shinebang;
#X obj 364 436 r \$0_shinebang;
#X msg 343 341 -50;
#X msg 375 488 -50;
#X connect 4 0 35 0;
#X connect 5 0 0 0;
#X connect 6 0 7 0;
#X connect 8 0 5 3;
#X connect 9 0 1 0;
#X connect 10 0 9 3;
#X connect 11 0 0 0;
#X connect 12 0 11 3;
#X connect 13 0 1 0;
#X connect 14 0 13 3;
#X connect 15 0 5 0;
#X connect 16 0 5 1;
#X connect 17 0 5 2;
#X connect 18 0 11 0;
#X connect 19 0 11 1;
#X connect 20 0 11 2;
#X connect 21 0 0 0;
#X connect 22 0 21 3;
#X connect 23 0 21 1;
#X connect 24 0 21 0;
#X connect 25 0 21 2;
#X connect 26 0 9 0;
#X connect 27 0 9 1;
#X connect 28 0 9 2;
#X connect 29 0 1 0;
#X connect 30 0 29 3;
#X connect 31 0 29 0;
#X connect 32 0 29 2;
#X connect 33 0 13 0;
#X connect 34 0 13 2;
#X connect 36 0 15 0;
#X connect 36 0 16 0;
#X connect 36 0 17 0;
#X connect 37 0 26 0;
#X connect 37 0 27 0;
#X connect 37 0 28 0;
#X connect 38 0 31 0;
#X connect 38 0 42 0;
#X connect 38 0 32 0;
#X connect 39 0 24 0;
#X connect 39 0 23 0;
#X connect 39 0 25 0;
#X connect 40 0 18 0;
#X connect 40 0 19 0;
#X connect 40 0 20 0;
#X connect 41 0 33 0;
#X connect 41 0 43 0;
#X connect 41 0 34 0;
#X connect 42 0 29 1;
#X connect 43 0 13 1;
#X restore 598 141 pd shine;
#X obj 598 180 *~ 0.354813;
#X text 612 199 -9dB;
#X obj 651 203 *~ 0.354813;
#X text 665 222 -9dB;
#X obj 797 115 r temperature;
#X obj 751 95 bng 15 250 50 0 empty empty empty 17 7 0 10 -262144 -1
-1;
#N canvas 74 125 646 457 flare 0;
#X obj 225 361 outlet~;
#X obj 141 21 inlet;
#X obj 378 17 inlet;
#X obj 376 41 s \$0_temp;
#X obj 129 167 r \$0_temp;
#X obj 308 173 r \$0_temp;
#X obj 482 170 r \$0_temp;
#X msg 94 167 32;
#X msg 273 173 32;
#X text 225 386 ABCDEF;
#X msg 51 141 Sun_14-32_flare1_ABCDEF;
#X msg 230 147 Sun_20-32_flare2_ABCDEF;
#X msg 404 144 Sun_26-38_flare1_ABCDEF;
#X obj 142 44 s \$0_flarebang;
#X obj 50 115 r \$0_flarebang;
#X obj 229 121 r \$0_flarebang;
#X obj 404 118 r \$0_flarebang;
#X msg 60 167 14;
#X msg 239 173 20;
#X msg 414 169 26;
#X msg 447 170 38;
#X obj 230 205 elooprange~;
#X obj 404 202 elooprange~;
#X obj 51 199 elooprange~;
#X connect 1 0 13 0;
#X connect 2 0 3 0;
#X connect 4 0 23 3;
#X connect 5 0 21 3;
#X connect 6 0 22 3;
#X connect 7 0 23 2;
#X connect 8 0 21 2;
#X connect 10 0 23 0;
#X connect 11 0 21 0;
#X connect 12 0 22 0;
#X connect 14 0 10 0;
#X connect 14 0 17 0;
#X connect 14 0 7 0;
#X connect 15 0 11 0;
#X connect 15 0 18 0;
#X connect 15 0 8 0;
#X connect 16 0 12 0;
#X connect 16 0 19 0;
#X connect 16 0 20 0;
#X connect 17 0 23 1;
#X connect 18 0 21 1;
#X connect 19 0 22 1;
#X connect 20 0 22 2;
#X connect 21 0 0 0;
#X connect 22 0 0 0;
#X connect 23 0 0 0;
#X restore 751 140 pd flare;
#X obj 751 202 *~ 0.398107;
#X text 765 221 -8dB;
#X obj 944 119 r temperature;
#X obj 898 98 bng 15 250 50 0 empty empty empty 17 7 0 10 -262144 -1
-1;
#N canvas 600 246 669 454 warm 0;
#X obj 284 391 outlet~;
#X obj 355 391 outlet~;
#X text 292 412 ACE;
#X text 362 410 BDF;
#X obj 141 21 inlet;
#X obj 25 250 eloopxf~;
#X obj 378 17 inlet;
#X obj 376 41 s \$0_temp;
#X obj 104 214 r \$0_temp;
#X obj 141 44 s \$0_warmbang;
#X obj 22 103 r \$0_warmbang;
#X msg 35 214 62;
#X msg 69 214 68;
#X obj 103 250 eloopxf~;
#X msg 25 183 \$1_ACE;
#X msg 108 181 \$1_BDF;
#X obj 56 150 symbol;
#X msg 24 124 Sun_62-68_warm;
#X obj 182 250 eloopxf~;
#X obj 261 214 r \$0_temp;
#X obj 179 103 r \$0_warmbang;
#X obj 260 250 eloopxf~;
#X msg 182 183 \$1_ACE;
#X msg 265 181 \$1_BDF;
#X obj 213 150 symbol;
#X msg 181 124 Sun_68-74_warm;
#X msg 192 214 68;
#X msg 226 214 74;
#X obj 338 249 eloopxf~;
#X obj 417 213 r \$0_temp;
#X obj 335 102 r \$0_warmbang;
#X obj 416 249 eloopxf~;
#X msg 338 182 \$1_ACE;
#X msg 421 180 \$1_BDF;
#X obj 369 149 symbol;
#X msg 337 123 Sun_74-80_warm;
#X msg 348 213 74;
#X msg 382 213 80;
#X obj 488 250 eloopxf~;
#X obj 567 214 r \$0_temp;
#X obj 485 103 r \$0_warmbang;
#X obj 566 250 eloopxf~;
#X msg 488 183 \$1_ACE;
#X msg 571 181 \$1_BDF;
#X obj 519 150 symbol;
#X msg 487 124 Sun_80-95_warm;
#X msg 498 214 80;
#X msg 532 214 95;
#X connect 4 0 9 0;
#X connect 5 0 0 0;
#X connect 6 0 7 0;
#X connect 8 0 5 3;
#X connect 8 0 13 3;
#X connect 10 0 17 0;
#X connect 10 0 11 0;
#X connect 10 0 12 0;
#X connect 11 0 5 1;
#X connect 11 0 13 1;
#X connect 12 0 5 2;
#X connect 12 0 13 2;
#X connect 13 0 1 0;
#X connect 14 0 5 0;
#X connect 15 0 13 0;
#X connect 16 0 14 0;
#X connect 16 0 15 0;
#X connect 17 0 16 0;
#X connect 18 0 0 0;
#X connect 19 0 18 3;
#X connect 19 0 21 3;
#X connect 20 0 25 0;
#X connect 20 0 26 0;
#X connect 20 0 27 0;
#X connect 21 0 1 0;
#X connect 22 0 18 0;
#X connect 23 0 21 0;
#X connect 24 0 22 0;
#X connect 24 0 23 0;
#X connect 25 0 24 0;
#X connect 26 0 18 1;
#X connect 26 0 21 1;
#X connect 27 0 18 2;
#X connect 27 0 21 2;
#X connect 28 0 0 0;
#X connect 29 0 28 3;
#X connect 29 0 31 3;
#X connect 30 0 35 0;
#X connect 30 0 36 0;
#X connect 30 0 37 0;
#X connect 31 0 1 0;
#X connect 32 0 28 0;
#X connect 33 0 31 0;
#X connect 34 0 32 0;
#X connect 34 0 33 0;
#X connect 35 0 34 0;
#X connect 36 0 28 1;
#X connect 36 0 31 1;
#X connect 37 0 28 2;
#X connect 37 0 31 2;
#X connect 38 0 0 0;
#X connect 39 0 38 3;
#X connect 39 0 41 3;
#X connect 40 0 45 0;
#X connect 40 0 46 0;
#X connect 40 0 47 0;
#X connect 41 0 1 0;
#X connect 42 0 38 0;
#X connect 43 0 41 0;
#X connect 44 0 42 0;
#X connect 44 0 43 0;
#X connect 45 0 44 0;
#X connect 46 0 38 1;
#X connect 46 0 41 1;
#X connect 47 0 38 2;
#X connect 47 0 41 2;
#X restore 898 144 pd warm;
#X obj 898 183 *~ 0.794328;
#X obj 945 206 *~ 0.794328;
#X text 959 225 -2dB;
#X text 893 201 -2dB;
#N canvas 1119 676 748 467 waves 0;
#N canvas 1056 276 536 356 wave1 0;
#X obj 76 26 inlet;
#X obj 51 127 print sun;
#X obj 262 135 print sun;
#X text 37 48 ACE and BDF temps;
#X obj 47 267 outlet~;
#X obj 241 268 outlet~;
#X text 37 284 ACE OUTPUT;
#X text 233 289 BDF OUTPUT;
#X obj 35 98 magic_namer Sun wave1 ACE;
#X obj 240 97 magic_namer Sun wave1 BDF;
#X obj 256 21 inlet;
#X obj 51 209 sun-cell6~;
#X obj 240 213 sun-cell6~;
#X connect 0 0 8 0;
#X connect 0 0 9 0;
#X connect 8 0 1 0;
#X connect 8 0 11 0;
#X connect 9 0 2 0;
#X connect 9 0 12 0;
#X connect 10 0 11 1;
#X connect 10 0 12 1;
#X connect 11 0 4 0;
#X connect 12 0 5 0;
#X restore 102 115 pd wave1;
#X text 121 400 ACE;
#X text 285 399 BDF;
#X obj 115 382 outlet~;
#X obj 278 381 outlet~;
#X obj 103 140 *~ 1;
#X text 112 159 0 dB;
#X obj 152 140 *~ 1;
#X text 161 159 0 dB;
#X obj 99 18 inlet;
#X obj 309 13 inlet;
#X connect 0 0 5 0;
#X connect 0 1 7 0;
#X connect 5 0 3 0;
#X connect 7 0 4 0;
#X connect 9 0 0 0;
#X connect 10 0 0 1;
#X restore 843 337 pd waves;
#X msg 874 282 32 38 50 56 68 74 89;
#X obj 907 310 r temperature;
#X obj 43 407 vu 15 120 empty empty -1 -8 0 10 -66577 -1 1 0;
#X obj 42 359 env~;
#X obj 42 382 - 100;
#X obj 88 406 vu 15 120 empty empty -1 -8 0 10 -66577 -1 1 0;
#X obj 87 358 env~;
#X obj 87 381 - 100;
#X obj 130 405 vu 15 120 empty empty -1 -8 0 10 -66577 -1 1 0;
#X obj 129 357 env~;
#X obj 129 380 - 100;
#X obj 172 405 vu 15 120 empty empty -1 -8 0 10 -66577 -1 1 0;
#X obj 171 357 env~;
#X obj 171 380 - 100;
#X text 22 533 beat;
#X text 76 532 shim;
#X text 122 531 spot;
#X text 166 532 shine;
#X obj 856 417 vu 15 120 empty empty -1 -8 0 10 -66577 -1 1 0;
#X obj 855 369 env~;
#X obj 855 392 - 100;
#X text 850 544 wave;
#X obj 818 418 vu 15 120 empty empty -1 -8 0 10 -66577 -1 1 0;
#X obj 817 370 env~;
#X obj 817 393 - 100;
#X text 812 545 warm;
#X obj 775 417 vu 15 120 empty empty -1 -8 0 10 -66577 -1 1 0;
#X obj 774 369 env~;
#X obj 774 392 - 100;
#X text 769 544 flare;
#X connect 12 0 17 0;
#X connect 13 0 17 2;
#X connect 14 0 0 0;
#X connect 14 0 2 0;
#X connect 14 0 4 0;
#X connect 15 0 1 0;
#X connect 15 0 3 0;
#X connect 15 0 5 0;
#X connect 16 0 17 1;
#X connect 17 0 32 0;
#X connect 17 1 33 0;
#X connect 18 0 29 0;
#X connect 18 1 27 0;
#X connect 19 0 24 0;
#X connect 20 0 18 0;
#X connect 21 0 18 1;
#X connect 22 0 19 1;
#X connect 23 0 19 0;
#X connect 24 0 14 0;
#X connect 24 0 15 0;
#X connect 24 0 63 0;
#X connect 27 0 15 0;
#X connect 29 0 14 0;
#X connect 29 0 60 0;
#X connect 32 0 14 0;
#X connect 32 0 57 0;
#X connect 33 0 15 0;
#X connect 34 0 36 1;
#X connect 35 0 36 0;
#X connect 36 0 37 0;
#X connect 36 1 39 0;
#X connect 37 0 14 0;
#X connect 37 0 66 0;
#X connect 39 0 15 0;
#X connect 41 0 43 1;
#X connect 42 0 43 0;
#X connect 43 0 44 0;
#X connect 44 0 14 0;
#X connect 44 0 15 0;
#X connect 44 0 81 0;
#X connect 46 0 48 1;
#X connect 47 0 48 0;
#X connect 48 0 49 0;
#X connect 48 1 50 0;
#X connect 49 0 14 0;
#X connect 49 0 77 0;
#X connect 50 0 15 0;
#X connect 53 0 14 0;
#X connect 53 0 73 0;
#X connect 53 1 15 0;
#X connect 54 0 53 0;
#X connect 55 0 53 1;
#X connect 57 0 58 0;
#X connect 58 0 56 0;
#X connect 60 0 61 0;
#X connect 61 0 59 0;
#X connect 63 0 64 0;
#X connect 64 0 62 0;
#X connect 66 0 67 0;
#X connect 67 0 65 0;
#X connect 73 0 74 0;
#X connect 74 0 72 0;
#X connect 77 0 78 0;
#X connect 78 0 76 0;
#X connect 81 0 82 0;
#X connect 82 0 80 0;
