#N canvas 523 211 824 565 10;
#X obj 176 482 outlet~;
#X obj 233 482 outlet~;
#X obj 290 482 outlet~;
#X obj 347 482 outlet~;
#X obj 404 482 outlet~;
#X obj 461 482 outlet~;
#X text 194 502 A;
#X text 248 501 B;
#X text 308 499 C;
#X text 365 499 D;
#X text 423 500 E;
#X text 482 500 F;
#X msg 132 64 44 50 56 62;
#X obj 227 114 r temperature;
#X obj 252 381 *~ 1;
#X obj 381 383 *~ 1;
#X msg 179 90 62 68 74 80 92;
#N canvas 260 198 788 321 sun-beating 0;
#X obj 76 26 inlet;
#X obj 442 36 inlet;
#X obj 35 98 magic_namer Sun beating ACE;
#X obj 240 97 magic_namer Sun beating BDF;
#X obj 442 97 magic_namer Sun beating ABCDEF;
#X obj 447 217 sun-cell4~;
#X obj 51 127 print sun;
#X obj 262 135 print sun;
#X obj 458 135 print sun;
#X text 37 48 ACE and BDF temps;
#X text 456 55 ABCDEF temps;
#X obj 47 267 outlet~;
#X obj 241 268 outlet~;
#X text 37 284 ACE OUTPUT;
#X text 233 289 BDF OUTPUT;
#X obj 685 36 inlet;
#X text 689 58 control (temp);
#X obj 51 209 sun-cell3~;
#X obj 240 213 sun-cell3~;
#X connect 0 0 2 0;
#X connect 0 0 3 0;
#X connect 1 0 4 0;
#X connect 2 0 6 0;
#X connect 2 0 17 0;
#X connect 3 0 7 0;
#X connect 3 0 18 0;
#X connect 4 0 5 0;
#X connect 4 0 8 0;
#X connect 5 0 12 0;
#X connect 5 0 11 0;
#X connect 15 0 5 1;
#X connect 15 0 17 1;
#X connect 15 0 18 1;
#X connect 17 0 11 0;
#X connect 18 0 12 0;
#X restore 132 143 pd sun-beating;
#N canvas 393 330 327 300 sun-shimmer 1;
#X obj 43 199 outlet~;
#X obj 184 202 outlet~;
#X text 44 223 ACE;
#X text 188 223 DEF;
#N canvas 156 163 584 570 ACE 0;
#X obj 184 492 outlet~;
#X obj 29 180 eloopxf~ 1000;
#X obj 288 180 eloopxf~ 1000;
#X obj 269 24 inlet;
#X text 290 49 temp;
#X msg 29 128 Sun_80-150_shimmer1_ACE;
#X msg 40 154 80;
#X msg 75 155 150;
#X msg 336 154 150;
#X msg 290 131 Sun_85-150_shimmer2_ACE;
#X msg 304 153 85;
#X obj 269 67 s \$0-shimtemp;
#X obj 111 156 r \$0-shimtemp;
#X obj 374 153 r \$0-shimtemp;
#X obj 26 285 eloopxf~ 1000;
#X msg 72 260 150;
#X obj 108 261 r \$0-shimtemp;
#X msg 37 259 88;
#X obj 295 289 eloopxf~ 1000;
#X msg 341 264 150;
#X obj 377 265 r \$0-shimtemp;
#X msg 296 236 Sun_91-150_shimmer4_ACE;
#X msg 306 263 91;
#X obj 29 405 eloopxf~ 1000;
#X msg 75 380 150;
#X obj 111 381 r \$0-shimtemp;
#X msg 40 379 94;
#X obj 293 409 eloopxf~ 1000;
#X msg 339 384 150;
#X obj 375 385 r \$0-shimtemp;
#X msg 295 355 Sun_96-150_shimmer6_ACE;
#X msg 30 351 Sun_94-150_shimmer5_ACE;
#X msg 304 383 96;
#X msg 27 232 Sun_88-150_shimmer3_ACE;
#X obj 70 25 inlet;
#X text 116 22 bang to set players;
#X obj 71 51 s \$0_setter;
#X obj 29 107 r \$0_setter;
#X obj 291 108 r \$0_setter;
#X obj 26 212 r \$0_setter;
#X obj 295 216 r \$0_setter;
#X obj 293 336 r \$0_setter;
#X obj 29 332 r \$0_setter;
#X connect 1 0 0 0;
#X connect 2 0 0 0;
#X connect 3 0 11 0;
#X connect 5 0 1 0;
#X connect 6 0 1 1;
#X connect 7 0 1 2;
#X connect 8 0 2 2;
#X connect 9 0 2 0;
#X connect 10 0 2 1;
#X connect 12 0 1 3;
#X connect 13 0 2 3;
#X connect 14 0 0 0;
#X connect 15 0 14 2;
#X connect 16 0 14 3;
#X connect 17 0 14 1;
#X connect 18 0 0 0;
#X connect 19 0 18 2;
#X connect 20 0 18 3;
#X connect 21 0 18 0;
#X connect 22 0 18 1;
#X connect 23 0 0 0;
#X connect 24 0 23 2;
#X connect 25 0 23 3;
#X connect 26 0 23 1;
#X connect 27 0 0 0;
#X connect 28 0 27 2;
#X connect 29 0 27 3;
#X connect 30 0 27 0;
#X connect 31 0 23 0;
#X connect 32 0 27 1;
#X connect 33 0 14 0;
#X connect 34 0 36 0;
#X connect 37 0 5 0;
#X connect 37 0 6 0;
#X connect 37 0 7 0;
#X connect 38 0 9 0;
#X connect 38 0 10 0;
#X connect 38 0 8 0;
#X connect 39 0 33 0;
#X connect 39 0 17 0;
#X connect 39 0 15 0;
#X connect 40 0 21 0;
#X connect 40 0 22 0;
#X connect 40 0 19 0;
#X connect 41 0 30 0;
#X connect 41 0 32 0;
#X connect 41 0 28 0;
#X connect 42 0 31 0;
#X connect 42 0 26 0;
#X connect 42 0 24 0;
#X restore 44 104 pd ACE;
#N canvas 767 158 584 570 BDF 0;
#X obj 184 492 outlet~;
#X obj 29 180 eloopxf~ 1000;
#X obj 288 180 eloopxf~ 1000;
#X obj 269 24 inlet;
#X text 290 49 temp;
#X msg 40 154 80;
#X msg 75 155 150;
#X msg 336 154 150;
#X msg 304 153 85;
#X obj 269 67 s \$0-shimtemp;
#X obj 111 156 r \$0-shimtemp;
#X obj 374 153 r \$0-shimtemp;
#X obj 26 285 eloopxf~ 1000;
#X msg 72 260 150;
#X obj 108 261 r \$0-shimtemp;
#X msg 37 259 88;
#X obj 295 289 eloopxf~ 1000;
#X msg 341 264 150;
#X obj 377 265 r \$0-shimtemp;
#X msg 306 263 91;
#X obj 29 405 eloopxf~ 1000;
#X msg 75 380 150;
#X obj 111 381 r \$0-shimtemp;
#X msg 40 379 94;
#X obj 293 409 eloopxf~ 1000;
#X msg 339 384 150;
#X obj 375 385 r \$0-shimtemp;
#X msg 304 383 96;
#X msg 29 128 Sun_80-150_shimmer1_BDF;
#X msg 290 131 Sun_85-150_shimmer2_BDF;
#X msg 28 232 Sun_88-150_shimmer3_BDF;
#X msg 296 236 Sun_91-150_shimmer4_BDF;
#X msg 30 351 Sun_94-150_shimmer5_BDF;
#X msg 295 355 Sun_96-150_shimmer6_BDF;
#X obj 66 26 inlet;
#X text 109 26 bang to set players;
#X obj 66 55 s \$0_setter;
#X obj 27 102 r \$0_setter;
#X obj 291 108 r \$0_setter;
#X obj 295 216 r \$0_setter;
#X obj 26 212 r \$0_setter;
#X obj 29 331 r \$0_setter;
#X obj 293 336 r \$0_setter;
#X connect 1 0 0 0;
#X connect 2 0 0 0;
#X connect 3 0 9 0;
#X connect 5 0 1 1;
#X connect 6 0 1 2;
#X connect 7 0 2 2;
#X connect 8 0 2 1;
#X connect 10 0 1 3;
#X connect 11 0 2 3;
#X connect 12 0 0 0;
#X connect 13 0 12 2;
#X connect 14 0 12 3;
#X connect 15 0 12 1;
#X connect 16 0 0 0;
#X connect 17 0 16 2;
#X connect 18 0 16 3;
#X connect 19 0 16 1;
#X connect 20 0 0 0;
#X connect 21 0 20 2;
#X connect 22 0 20 3;
#X connect 23 0 20 1;
#X connect 24 0 0 0;
#X connect 25 0 24 2;
#X connect 26 0 24 3;
#X connect 27 0 24 1;
#X connect 28 0 1 0;
#X connect 29 0 2 0;
#X connect 30 0 12 0;
#X connect 31 0 16 0;
#X connect 32 0 20 0;
#X connect 33 0 24 0;
#X connect 34 0 36 0;
#X connect 37 0 28 0;
#X connect 37 0 5 0;
#X connect 37 0 6 0;
#X connect 38 0 29 0;
#X connect 38 0 8 0;
#X connect 38 0 7 0;
#X connect 39 0 31 0;
#X connect 39 0 19 0;
#X connect 39 0 17 0;
#X connect 40 0 30 0;
#X connect 40 0 15 0;
#X connect 40 0 13 0;
#X connect 41 0 32 0;
#X connect 41 0 23 0;
#X connect 41 0 21 0;
#X connect 42 0 33 0;
#X connect 42 0 27 0;
#X connect 42 0 25 0;
#X restore 185 106 pd BDF;
#X obj 129 22 inlet;
#X obj 36 21 inlet;
#X connect 4 0 0 0;
#X connect 5 0 1 0;
#X connect 6 0 4 1;
#X connect 6 0 5 1;
#X connect 7 0 4 0;
#X connect 7 0 5 0;
#X restore 331 154 pd sun-shimmer;
#N canvas 173 145 578 503 spot 1;
#X obj 130 433 outlet~;
#X obj 286 430 outlet~;
#X text 130 458 ACE;
#X text 286 454 BDF;
#X obj 141 21 inlet;
#X obj 51 199 eloopxf~;
#X msg 51 141 Sun_32-38_spot_ABCDEF;
#X msg 60 167 32;
#X msg 94 167 38;
#X obj 141 44 s \$0_bango;
#X obj 50 115 r \$0_bango;
#X obj 378 17 inlet;
#X obj 376 41 s \$0_temp;
#X obj 129 167 r \$0_temp;
#X obj 304 201 eloopxf~;
#X obj 303 117 r \$0_bango;
#X obj 382 169 r \$0_temp;
#X obj 53 341 eloopxf~;
#X obj 52 257 r \$0_bango;
#X obj 131 309 r \$0_temp;
#X obj 333 335 eloopxf~;
#X obj 332 251 r \$0_bango;
#X obj 411 303 r \$0_temp;
#X msg 304 143 Sun_38-44_spot_ABCDEF;
#X msg 313 169 38;
#X msg 347 169 44;
#X msg 53 283 Sun_44-56_spot_ABCDEF;
#X msg 62 309 44;
#X msg 96 309 56;
#X msg 333 277 Sun_56-62_spot_ABCDEF;
#X msg 342 303 56;
#X msg 376 303 62;
#X connect 4 0 9 0;
#X connect 5 0 0 0;
#X connect 5 0 1 0;
#X connect 6 0 5 0;
#X connect 7 0 5 1;
#X connect 8 0 5 2;
#X connect 10 0 6 0;
#X connect 10 0 7 0;
#X connect 10 0 8 0;
#X connect 11 0 12 0;
#X connect 13 0 5 3;
#X connect 14 0 0 0;
#X connect 14 0 1 0;
#X connect 15 0 23 0;
#X connect 15 0 24 0;
#X connect 15 0 25 0;
#X connect 16 0 14 3;
#X connect 17 0 0 0;
#X connect 17 0 1 0;
#X connect 18 0 26 0;
#X connect 18 0 27 0;
#X connect 18 0 28 0;
#X connect 19 0 17 3;
#X connect 20 0 0 0;
#X connect 20 0 1 0;
#X connect 21 0 29 0;
#X connect 21 0 30 0;
#X connect 21 0 31 0;
#X connect 22 0 20 3;
#X connect 23 0 14 0;
#X connect 24 0 14 1;
#X connect 25 0 14 2;
#X connect 26 0 17 0;
#X connect 27 0 17 1;
#X connect 28 0 17 2;
#X connect 29 0 20 0;
#X connect 30 0 20 1;
#X connect 31 0 20 2;
#X restore 521 148 pd spot;
#X obj 335 106 bng 15 250 50 0 empty empty empty 17 7 0 10 -262144
-1 -1;
#X obj 404 128 r temperature;
#X obj 567 123 r temperature;
#X obj 522 103 bng 15 250 50 0 empty empty empty 17 7 0 10 -262144
-1 -1;
#X connect 12 0 17 0;
#X connect 13 0 17 2;
#X connect 14 0 0 0;
#X connect 14 0 2 0;
#X connect 14 0 4 0;
#X connect 15 0 1 0;
#X connect 15 0 3 0;
#X connect 15 0 5 0;
#X connect 16 0 17 1;
#X connect 17 0 14 0;
#X connect 17 1 15 0;
#X connect 18 0 14 0;
#X connect 18 1 15 0;
#X connect 19 0 14 0;
#X connect 19 0 15 0;
#X connect 20 0 18 0;
#X connect 21 0 18 1;
#X connect 22 0 19 1;
#X connect 23 0 19 0;
