#N canvas 382 164 824 565 10;
#X obj 176 482 outlet~;
#X obj 233 482 outlet~;
#X obj 290 482 outlet~;
#X obj 347 482 outlet~;
#X obj 404 482 outlet~;
#X obj 461 482 outlet~;
#X text 194 502 A;
#X text 248 501 B;
#X text 308 499 C;
#X text 365 499 D;
#X text 423 500 E;
#X text 482 500 F;
#X msg 161 61 44 50 56 62;
#X obj 256 111 r temperature;
#X obj 252 381 *~ 1;
#X obj 381 383 *~ 1;
#X msg 208 87 62 68 74 80 92;
#N canvas 442 259 788 321 sun-beating 0;
#X obj 76 26 inlet;
#X obj 442 36 inlet;
#X obj 35 98 magic_namer Sun beating ACE;
#X obj 240 97 magic_namer Sun beating BDF;
#X obj 442 97 magic_namer Sun beating ABCDEF;
#X obj 447 217 sun-cell4~;
#X obj 51 209 sun-cell3~;
#X obj 240 213 sun-cell3~;
#X obj 51 127 print sun;
#X obj 262 135 print sun;
#X obj 458 135 print sun;
#X text 37 48 ACE and BDF temps;
#X text 456 55 ABCDEF temps;
#X obj 47 267 outlet~;
#X obj 241 268 outlet~;
#X text 37 284 ACE OUTPUT;
#X text 233 289 BDF OUTPUT;
#X obj 685 36 inlet;
#X text 689 58 control (temp);
#X connect 0 0 2 0;
#X connect 0 0 3 0;
#X connect 1 0 4 0;
#X connect 2 0 6 0;
#X connect 2 0 8 0;
#X connect 3 0 7 0;
#X connect 3 0 9 0;
#X connect 4 0 5 0;
#X connect 4 0 10 0;
#X connect 5 0 14 0;
#X connect 5 0 13 0;
#X connect 6 0 13 0;
#X connect 7 0 14 0;
#X connect 17 0 5 1;
#X connect 17 0 7 1;
#X connect 17 0 6 1;
#X restore 161 140 pd sun-beating;
#X connect 12 0 17 0;
#X connect 13 0 17 2;
#X connect 14 0 0 0;
#X connect 14 0 2 0;
#X connect 14 0 4 0;
#X connect 15 0 1 0;
#X connect 15 0 3 0;
#X connect 15 0 5 0;
#X connect 16 0 17 1;
#X connect 17 0 14 0;
#X connect 17 1 15 0;
