#N canvas 728 276 501 434 10;
#X obj 188 205 clouds~ --------------;
#X obj 183 14 inlet;
#X text 230 13 activate;
#X obj 344 11 inlet;
#X obj 344 40 route /mtTemp1;
#X text 386 12 weather;
#X obj 73 72 cnv 15 72 175 empty empty empty 20 12 0 14 -261234 -66577
0;
#X obj 76 86 vsl 15 120 0 2 0 0 empty empty empty 0 -9 0 10 -204800
-1 -1 6685 1;
#X obj 73 213 nbx 5 30 -1e+37 1e+37 0 0 empty empty empty 0 -8 0 10
-204800 -1 -1 1.01169 256;
#X obj 96 86 vu 15 120 empty empty -1 -8 0 10 -66577 -1 1 0;
#X obj 10 194 rmstodb;
#X obj 10 216 - 100;
#X floatatom 13 239 5 0 0 0 - - -, f 5;
#X obj 78 43 r \$0-vu;
#X obj 41 18 loadbang;
#X msg 41 42 0.3;
#N canvas 1095 715 573 376 output-stage 0;
#X obj 26 16 inlet~;
#X obj 82 15 inlet~;
#X obj 139 15 inlet~;
#X obj 195 14 inlet~;
#X obj 249 13 inlet~;
#X obj 305 12 inlet~;
#X text 45 34 A;
#X text 94 35 B;
#X text 148 32 C;
#X text 202 31 D;
#X text 260 30 E;
#X text 313 29 F;
#X obj 144 253 *~ 1;
#X obj 87 253 *~ 1;
#N canvas 2 52 380 438 outputs 0;
#X obj 84 141 throw~ c1;
#X obj 63 163 throw~ c3;
#X obj 42 186 throw~ c5;
#X obj 171 139 throw~ c2;
#X obj 190 161 throw~ c4;
#X obj 207 183 throw~ c6;
#X obj 84 30 inlet~;
#X obj 155 29 inlet~;
#X obj 81 242 throw~ c7;
#X obj 65 265 throw~ c9;
#X obj 172 243 throw~ c8;
#X obj 183 267 throw~ c10;
#X obj 81 304 throw~ c11;
#X obj 57 326 throw~ c13;
#X obj 34 350 throw~ c15;
#X obj 172 305 throw~ c12;
#X obj 189 330 throw~ c14;
#X connect 6 0 0 0;
#X connect 6 0 1 0;
#X connect 6 0 2 0;
#X connect 6 0 8 0;
#X connect 6 0 9 0;
#X connect 6 0 12 0;
#X connect 6 0 13 0;
#X connect 6 0 14 0;
#X connect 7 0 3 0;
#X connect 7 0 4 0;
#X connect 7 0 5 0;
#X connect 7 0 10 0;
#X connect 7 0 11 0;
#X connect 7 0 15 0;
#X connect 7 0 16 0;
#X restore 87 282 pd outputs;
#X obj 37 276 env~;
#X obj 37 298 - 100;
#X obj 36 321 s \$0-vu;
#X connect 0 0 13 0;
#X connect 1 0 12 0;
#X connect 2 0 13 0;
#X connect 3 0 12 0;
#X connect 4 0 13 0;
#X connect 5 0 12 0;
#X connect 12 0 14 1;
#X connect 13 0 14 0;
#X connect 13 0 15 0;
#X connect 15 0 16 0;
#X connect 16 0 17 0;
#X restore 183 316 pd output-stage ------;
#X obj 174 282 *~ 1;
#X obj 208 282 *~ 1;
#X obj 242 282 *~ 1;
#X obj 276 282 *~ 1;
#X obj 310 282 *~ 1;
#X obj 344 282 *~ 1;
#X obj 73 321 env~;
#X obj 73 343 - 100;
#X obj 72 366 s \$0-vu;
#X floatatom 359 73 5 0 0 0 - - -, f 5;
#X connect 0 0 17 0;
#X connect 0 1 18 0;
#X connect 0 2 19 0;
#X connect 0 3 20 0;
#X connect 0 4 21 0;
#X connect 0 5 22 0;
#X connect 1 0 0 0;
#X connect 3 0 4 0;
#X connect 4 0 0 1;
#X connect 4 0 26 0;
#X connect 7 0 10 0;
#X connect 7 0 12 0;
#X connect 7 0 17 1;
#X connect 7 0 18 1;
#X connect 7 0 19 1;
#X connect 7 0 20 1;
#X connect 7 0 21 1;
#X connect 7 0 22 1;
#X connect 10 0 11 0;
#X connect 11 0 8 0;
#X connect 13 0 9 0;
#X connect 14 0 15 0;
#X connect 15 0 7 0;
#X connect 17 0 16 0;
#X connect 17 0 23 0;
#X connect 18 0 16 1;
#X connect 19 0 16 2;
#X connect 20 0 16 3;
#X connect 21 0 16 4;
#X connect 22 0 16 5;
#X connect 23 0 24 0;
#X connect 24 0 25 0;
#X coords 0 -1 1 1 74 178 1 72 70;
