#N canvas 203 121 823 660 10;
#X obj 192 332 cnv 15 271 173 empty empty empty 20 12 0 14 -233017
-66577 0;
#X obj 199 351 vu 15 120 empty empty -1 -8 0 10 -66577 -262144 1 0
;
#X obj 220 351 vu 15 120 empty empty -1 -8 0 10 -66577 -262144 1 0
;
#X obj 241 351 vu 15 120 empty empty -1 -8 0 10 -66577 -262144 1 0
;
#X obj 262 351 vu 15 120 empty empty -1 -8 0 10 -66577 -262144 1 0
;
#X obj 283 351 vu 15 120 empty empty -1 -8 0 10 -66577 -262144 1 0
;
#X text 202 476 b;
#X text 239 474 sp;
#X text 215 474 shm;
#X text 258 474 shn;
#X text 279 474 flr;
#X text 301 474 wrm;
#X obj 304 351 vu 15 120 empty empty -1 -8 0 10 -66577 -262144 1 0
;
#X obj 325 351 vu 15 120 empty empty -1 -8 0 10 -66577 -262144 1 0
;
#X text 325 474 wv1;
#X obj 346 351 vu 15 120 empty empty -1 -8 0 10 -66577 -262144 1 0
;
#X text 347 474 wv2;
#X obj 367 351 vu 15 120 empty empty -1 -8 0 10 -66577 -262144 1 0
;
#X text 369 474 wv3;
#X obj 388 351 vu 15 120 empty empty -1 -8 0 10 -66577 -262144 1 0
;
#X text 391 474 wv4;
#X obj 409 351 vu 15 120 empty empty -1 -8 0 10 -66577 -159808 1 0
;
#X text 413 474 wvr;
#X obj 145 38 inlet;
#X text 115 20 bang to enable;
#X obj 465 332 cnv 15 188 173 empty empty empty 20 12 0 14 -216633
-66577 0;
#X obj 257 29 inlet;
#X obj 474 338 hsl 100 12 -30 0 0 0 empty empty empty -2 -8 0 10 -262144
-1 -1 0 1;
#X floatatom 579 336 5 0 0 0 - - -, f 5;
#X text 620 335 b;
#X msg 649 258 b-db \$1;
#X obj 659 513 s \$0-db;
#X obj 477 21 r \$0-db;
#X obj 474 353 hsl 100 12 -30 0 0 0 empty empty empty -2 -8 0 10 -262144
-1 -1 0 1;
#X floatatom 579 351 5 0 0 0 - - -, f 5;
#X text 620 351 shm;
#X obj 474 368 hsl 100 12 -30 0 0 0 empty empty empty -2 -8 0 10 -262144
-1 -1 0 1;
#X floatatom 579 366 5 0 0 0 - - -, f 5;
#X text 620 366 sp;
#X obj 474 383 hsl 100 12 -30 0 0 0 empty empty empty -2 -8 0 10 -262144
-1 -1 0 1;
#X floatatom 579 381 5 0 0 0 - - -, f 5;
#X text 620 381 shn;
#X obj 474 398 hsl 100 12 -30 0 0 0 empty empty empty -2 -8 0 10 -262144
-1 -1 0 1;
#X floatatom 579 396 5 0 0 0 - - -, f 5;
#X text 620 396 flr;
#X obj 474 413 hsl 100 12 -30 0 0 0 empty empty empty -2 -8 0 10 -262144
-1 -1 0 1;
#X floatatom 579 411 5 0 0 0 - - -, f 5;
#X text 620 411 wrm;
#X msg 657 280 shm-db \$1;
#X msg 667 301 sp-db \$1;
#X msg 677 323 shn-db \$1;
#X msg 684 344 flr-db \$1;
#X msg 685 365 wrm-db \$1;
#X obj 474 428 hsl 100 12 -30 0 0 0 empty empty empty -2 -8 0 10 -262144
-1 -1 0 1;
#X floatatom 579 426 5 0 0 0 - - -, f 5;
#X obj 474 443 hsl 100 12 -30 0 0 0 empty empty empty -2 -8 0 10 -262144
-1 -1 0 1;
#X floatatom 579 441 5 0 0 0 - - -, f 5;
#X obj 474 458 hsl 100 12 -30 0 0 0 empty empty empty -2 -8 0 10 -262144
-1 -1 0 1;
#X floatatom 579 456 5 0 0 0 - - -, f 5;
#X obj 474 473 hsl 100 12 -30 0 0 0 empty empty empty -2 -8 0 10 -262144
-1 -1 0 1;
#X floatatom 579 471 5 0 0 0 - - -, f 5;
#X obj 474 488 hsl 100 12 -30 0 0 0 empty empty empty -2 -8 0 10 -262144
-1 -1 0 1;
#X floatatom 579 486 5 0 0 0 - - -, f 5;
#X text 620 425 wv1;
#X text 620 441 wv2;
#X text 620 456 wv3;
#X text 620 471 wv4;
#X text 620 486 wvr;
#X msg 695 387 wv1-db \$1;
#X msg 703 409 wv2-db \$1;
#X msg 713 430 wv3-db \$1;
#X msg 723 452 wv4-db \$1;
#X msg 730 473 wvr-db \$1;
#X obj 477 42 unpack s f;
#X obj 544 66 db_calc;
#X msg 476 127 \$1 \$2;
#X obj 477 90 pack s f;
#X obj 477 151 print slap;
#X obj 145 178 sun~ -----------------------;
#X obj 257 58 route /mtTemp1;
#X obj 157 553 *~ 1;
#X obj 100 553 *~ 1;
#X obj 121 331 cnv 15 69 175 empty empty empty 20 12 0 14 -261234 -66577
0;
#X obj 124 345 vsl 15 120 0 2 0 0 empty empty empty 0 -9 0 10 -204800
-1 -1 1785 1;
#X obj 121 472 nbx 5 30 -1e+37 1e+37 0 0 empty empty empty 0 -8 0 10
-204800 -1 -1 -10.4576 256;
#X obj 144 345 vu 15 120 empty empty -1 -8 0 10 -66577 -1 1 0;
#X obj 53 448 rmstodb;
#X obj 53 470 - 100;
#X floatatom 56 493 5 0 0 0 - - -, f 5;
#N canvas 0 50 1149 529 vu_scaling 0;
#X obj 82 93 inlet~;
#X obj 126 93 inlet~;
#X obj 170 93 inlet~;
#X obj 214 93 inlet~;
#X obj 257 93 inlet~;
#X obj 301 93 inlet~;
#X obj 345 93 inlet~;
#X obj 389 93 inlet~;
#X obj 433 93 inlet~;
#X obj 477 93 inlet~;
#X obj 521 93 inlet~;
#X obj 72 266 - 100;
#X obj 117 265 - 100;
#X obj 159 264 - 100;
#X obj 202 264 - 100;
#X obj 332 262 - 100;
#X obj 289 263 - 100;
#X obj 246 263 - 100;
#X obj 374 262 - 100;
#X obj 416 262 - 100;
#X obj 458 262 - 100;
#X obj 500 262 - 100;
#X obj 72 233 env~ 16384;
#X obj 118 208 env~ 16384;
#X obj 161 184 env~ 16384;
#X obj 202 237 env~ 16384;
#X obj 246 211 env~ 16384;
#X obj 289 185 env~ 16384;
#X obj 332 240 env~ 16384;
#X obj 373 208 env~ 16384;
#X obj 415 185 env~ 16384;
#X obj 458 238 env~ 16384;
#X obj 498 214 env~ 16384;
#X obj 60 333 outlet;
#X obj 109 333 outlet;
#X obj 159 333 outlet;
#X obj 208 333 outlet;
#X obj 258 333 outlet;
#X obj 307 333 outlet;
#X obj 357 333 outlet;
#X obj 406 333 outlet;
#X obj 455 333 outlet;
#X obj 505 333 outlet;
#X obj 554 333 outlet, f 34;
#X connect 0 0 22 0;
#X connect 1 0 23 0;
#X connect 2 0 24 0;
#X connect 3 0 25 0;
#X connect 4 0 26 0;
#X connect 5 0 27 0;
#X connect 6 0 28 0;
#X connect 7 0 29 0;
#X connect 8 0 30 0;
#X connect 9 0 31 0;
#X connect 10 0 32 0;
#X connect 11 0 33 0;
#X connect 12 0 34 0;
#X connect 13 0 35 0;
#X connect 14 0 36 0;
#X connect 15 0 39 0;
#X connect 16 0 38 0;
#X connect 17 0 37 0;
#X connect 18 0 40 0;
#X connect 19 0 41 0;
#X connect 20 0 42 0;
#X connect 21 0 43 0;
#X connect 22 0 11 0;
#X connect 23 0 12 0;
#X connect 24 0 13 0;
#X connect 25 0 14 0;
#X connect 26 0 17 0;
#X connect 27 0 16 0;
#X connect 28 0 15 0;
#X connect 29 0 18 0;
#X connect 30 0 19 0;
#X connect 31 0 20 0;
#X connect 32 0 21 0;
#X restore 163 243 pd vu_scaling;
#X obj 47 218 throw~ \$0-ACE;
#X obj 46 242 throw~ \$0-BDF;
#N canvas 2 52 380 438 outputs 0;
#X obj 84 141 throw~ c1;
#X obj 63 163 throw~ c3;
#X obj 42 186 throw~ c5;
#X obj 171 139 throw~ c2;
#X obj 190 161 throw~ c4;
#X obj 207 183 throw~ c6;
#X obj 84 30 inlet~;
#X obj 155 29 inlet~;
#X obj 81 242 throw~ c7;
#X obj 65 265 throw~ c9;
#X obj 172 243 throw~ c8;
#X obj 183 267 throw~ c10;
#X obj 81 304 throw~ c11;
#X obj 57 326 throw~ c13;
#X obj 34 350 throw~ c15;
#X obj 172 305 throw~ c12;
#X obj 189 330 throw~ c14;
#X connect 6 0 0 0;
#X connect 6 0 1 0;
#X connect 6 0 2 0;
#X connect 6 0 8 0;
#X connect 6 0 9 0;
#X connect 6 0 12 0;
#X connect 6 0 13 0;
#X connect 6 0 14 0;
#X connect 7 0 3 0;
#X connect 7 0 4 0;
#X connect 7 0 5 0;
#X connect 7 0 10 0;
#X connect 7 0 11 0;
#X connect 7 0 15 0;
#X connect 7 0 16 0;
#X restore 100 582 pd outputs;
#X obj 58 525 catch~ \$0-ACE;
#X obj 162 525 catch~ \$0-BDF;
#X obj 19 600 - 100;
#X obj 19 621 s \$0-vu;
#X obj 126 302 r \$0-vu;
#X obj 89 277 loadbang;
#X msg 89 301 0.3;
#X text 299 30 weather;
#X obj 263 88 route /mt2MinRollAvgWindSpeed;
#X obj 278 113 route /mtRainRate;
#X obj 18 576 env~ 16384;
#X connect 23 0 78 0;
#X connect 26 0 79 0;
#X connect 26 0 101 0;
#X connect 26 0 102 0;
#X connect 27 0 28 0;
#X connect 28 0 30 0;
#X connect 30 0 31 0;
#X connect 32 0 73 0;
#X connect 33 0 34 0;
#X connect 34 0 48 0;
#X connect 36 0 37 0;
#X connect 37 0 49 0;
#X connect 39 0 40 0;
#X connect 40 0 50 0;
#X connect 42 0 43 0;
#X connect 43 0 51 0;
#X connect 45 0 46 0;
#X connect 46 0 52 0;
#X connect 48 0 31 0;
#X connect 49 0 31 0;
#X connect 50 0 31 0;
#X connect 51 0 31 0;
#X connect 52 0 31 0;
#X connect 53 0 54 0;
#X connect 54 0 68 0;
#X connect 55 0 56 0;
#X connect 56 0 69 0;
#X connect 57 0 58 0;
#X connect 58 0 70 0;
#X connect 59 0 60 0;
#X connect 60 0 71 0;
#X connect 61 0 62 0;
#X connect 62 0 72 0;
#X connect 68 0 31 0;
#X connect 69 0 31 0;
#X connect 70 0 31 0;
#X connect 71 0 31 0;
#X connect 72 0 31 0;
#X connect 73 0 76 0;
#X connect 73 1 74 0;
#X connect 74 0 76 1;
#X connect 75 0 77 0;
#X connect 75 0 78 2;
#X connect 76 0 75 0;
#X connect 78 0 90 0;
#X connect 78 1 91 0;
#X connect 78 2 89 0;
#X connect 78 3 89 1;
#X connect 78 4 89 2;
#X connect 78 5 89 3;
#X connect 78 6 89 4;
#X connect 78 7 89 5;
#X connect 78 8 89 6;
#X connect 78 9 89 7;
#X connect 78 10 89 8;
#X connect 78 11 89 9;
#X connect 78 12 89 10;
#X connect 79 0 78 1;
#X connect 80 0 92 1;
#X connect 81 0 92 0;
#X connect 81 0 103 0;
#X connect 83 0 86 0;
#X connect 83 0 81 1;
#X connect 83 0 80 1;
#X connect 83 0 88 0;
#X connect 86 0 87 0;
#X connect 87 0 84 0;
#X connect 89 0 1 0;
#X connect 89 1 2 0;
#X connect 89 2 3 0;
#X connect 89 3 4 0;
#X connect 89 4 5 0;
#X connect 89 5 12 0;
#X connect 89 6 13 0;
#X connect 89 7 15 0;
#X connect 89 8 17 0;
#X connect 89 9 19 0;
#X connect 89 10 21 0;
#X connect 93 0 81 0;
#X connect 94 0 80 0;
#X connect 95 0 96 0;
#X connect 97 0 85 0;
#X connect 98 0 99 0;
#X connect 99 0 83 0;
#X connect 101 0 78 3;
#X connect 102 0 78 4;
#X connect 103 0 95 0;
#X coords 0 -1 1 1 534 177 1 120 330;
