#N canvas 358 84 993 609 10;
#X obj 925 -94 clouds --------------------;
#X obj 240 -35 wind ---------------;
#X obj 768 210 hsl 128 15 0 1 0 0 empty empty empty -2 -8 0 10 -262144
-1 -1 8082 1;
#X obj 914 211 hsl 128 15 0 1 0 0 empty empty empty -2 -8 0 10 -262144
-1 -1 0 1;
#X obj 712 258 linear_panner_6ch~;
#X obj 175 606 catch~ c2;
#X obj 241 606 catch~ c3;
#X obj 316 606 catch~ c4;
#X obj 384 606 catch~ c5;
#X obj 454 606 catch~ c6;
#X obj 712 299 throw~ c1;
#X obj 775 299 throw~ c2;
#X obj 725 324 throw~ c3;
#X obj 788 324 throw~ c4;
#X obj 743 349 throw~ c5;
#X obj 806 349 throw~ c6;
#X obj 1136 211 hsl 128 15 0 1 0 0 empty empty empty -2 -8 0 10 -262144
-1 -1 8082 1;
#X obj 1282 212 hsl 128 15 0 1 0 0 empty empty empty -2 -8 0 10 -262144
-1 -1 0 1;
#X obj 1080 259 linear_panner_6ch~;
#X obj 1080 300 throw~ c1;
#X obj 1143 300 throw~ c2;
#X obj 1093 325 throw~ c3;
#X obj 1156 325 throw~ c4;
#X obj 1111 350 throw~ c5;
#X obj 1174 350 throw~ c6;
#X obj 858 -8 throw~ clouds1;
#X obj 957 -9 throw~ clouds2;
#X obj 712 230 catch~ clouds1;
#X obj 1080 233 catch~ clouds2;
#X obj 957 55 throw~ clouds1;
#X obj 1053 55 throw~ clouds2;
#X obj 984 23 throw~ clouds1;
#X obj 1080 23 throw~ clouds2;
#X obj 1061 -10 throw~ clouds1;
#X obj 1157 -10 throw~ clouds2;
#X obj 1186 182 lfo_tri 0.6;
#X obj 1189 135 hsl 128 15 0 1 0 0 empty empty empty -2 -8 0 10 -262144
-1 -1 0 1;
#X obj 825 181 lfo_tri 0.6;
#X obj 828 134 hsl 128 15 0 1 0 0 empty empty empty -2 -8 0 10 -262144
-1 -1 0 1;
#X obj 384 632 *~ 0.1;
#X obj 454 632 *~ 0.1;
#X obj 810 479 vsl 15 128 0 127 0 0 empty empty empty 0 -9 0 10 -262144
-1 -1 12700 1;
#X obj 859 479 vsl 15 128 0 127 0 0 empty empty empty 0 -9 0 10 -262144
-1 -1 12700 1;
#X obj 901 478 vsl 15 128 0 127 0 0 empty empty empty 0 -9 0 10 -262144
-1 -1 12700 1;
#X obj 941 479 vsl 15 128 0 127 0 0 empty empty empty 0 -9 0 10 -262144
-1 -1 12700 1;
#X obj 974 479 vsl 15 128 0 127 0 0 empty empty empty 0 -9 0 10 -262144
-1 -1 12700 1;
#X obj 1007 479 vsl 15 128 0 127 0 0 empty empty empty 0 -9 0 10 -262144
-1 -1 12700 1;
#X obj 829 692 s c1;
#X obj 894 692 s c3;
#X obj 862 692 s c2;
#X obj 927 692 s c4;
#X obj 960 692 s c5;
#X obj 993 692 s c6;
#X obj 132 560 r c1;
#X obj 208 561 r c2;
#X obj 274 560 r c3;
#X obj 349 560 r c4;
#X obj 417 558 r c5;
#X obj 487 558 r c6;
#X obj 316 634 *~ 0.1;
#X obj 241 635 *~ 0.1;
#X obj 175 635 *~ 0.1;
#X obj 711 654 jrange 0 127 0 0.5;
#X obj 829 653 jrange 0 127 0 0.5;
#X obj 950 652 jrange 0 127 0 0.5;
#X obj 1068 651 jrange 0 127 0 0.5;
#X obj 1186 651 jrange 0 127 0 0.5;
#X obj 594 656 jrange 0 127 0 0.5;
#X obj 1134 525 hsl 128 15 0 127 0 0 empty empty empty -2 -8 0 10 -262144
-1 -1 11700 1;
#X obj 1131 548 jrange 0 127 0 1;
#X obj 1131 572 t b f;
#X obj 1131 616 s \$0-rescale;
#X obj 863 434 r \$0-rescale;
#X floatatom 810 623 5 0 0 0 - - -;
#X floatatom 859 622 5 0 0 0 - - -;
#X floatatom 898 622 5 0 0 0 - - -;
#X floatatom 947 621 5 0 0 0 - - -;
#X floatatom 988 621 5 0 0 0 - - -;
#X floatatom 1037 620 5 0 0 0 - - -;
#X floatatom 1242 548 5 0 0 0 - - -;
#X obj 122 99 panner~;
#X obj 199 71 lfo_tri 0.6;
#X obj 202 44 hsl 128 15 0 1 0 0 empty empty empty -2 -8 0 10 -262144
-1 -1 400 1;
#X obj 105 636 *~ 0.1;
#X obj 78 152 throw~ c3;
#X obj 199 148 throw~ c4;
#X obj 234 359 linear_panner_6ch~;
#X obj 297 400 throw~ c2;
#X obj 247 425 throw~ c3;
#X obj 310 425 throw~ c4;
#X obj 265 450 throw~ c5;
#X obj 328 450 throw~ c6;
#X obj 378 370 hsl 128 15 0 1 0 0 empty empty empty -2 -8 0 10 -262144
-1 -1 6900 1;
#X obj 522 373 hsl 128 15 0 1 0 0 empty empty empty -2 -8 0 10 -262144
-1 -1 10000 1;
#X obj 436 296 hsl 128 15 0 1 0 0 empty empty empty -2 -8 0 10 -262144
-1 -1 6900 1;
#X obj 238 675 dac~ 7 8 3 4 5 6;
#X obj 283 203 *~;
#X obj 298 169 vline~;
#X obj 338 292 snapshot~;
#X obj 402 248 metro 20;
#X obj 419 229 tgl 15 0 empty empty empty 17 7 0 10 -262144 -1 -1 0
1;
#X obj 361 224 vline~;
#X obj 372 110 bng 15 250 50 0 empty empty empty 17 7 0 10 -262144
-1 -1;
#X msg 301 141 1 8000 \, 0 6000 8000;
#X msg 361 196 0 0 \, 1 11000 3000;
#X obj 134 66 *~;
#X floatatom 223 116 5 0 0 0 - - -;
#X obj 131 2 * 0.2;
#X obj 130 31 + 0.6;
#X obj 85 210 throw~ c5;
#X obj 178 181 throw~ c2;
#X obj 185 211 throw~ c6;
#X obj 231 5 *~ 7;
#X obj 552 161 bng 15 250 50 0 empty empty empty 17 7 0 10 -262144
-1 -1;
#X obj 559 111 random_bangs 25000;
#X obj 593 -25 audio_tables_loader;
#X obj 595 -52 bng 15 250 50 0 empty empty empty 17 7 0 10 -262144
-1 -1;
#X obj 146 -80 bng 15 250 50 0 empty empty empty 17 7 0 10 -262144
-1 -1;
#X msg 313 -78 Wind_60-65_02_R;
#X msg 199 -79 Wind_60-65_01;
#X obj 74 178 throw~ c1;
#X obj 234 400 throw~ c1;
#X obj 72 606 catch~ c1;
#X connect 1 0 112 0;
#X connect 1 1 96 0;
#X connect 2 0 4 1;
#X connect 3 0 4 2;
#X connect 4 0 10 0;
#X connect 4 1 11 0;
#X connect 4 2 12 0;
#X connect 4 3 13 0;
#X connect 4 4 14 0;
#X connect 4 5 15 0;
#X connect 5 0 61 0;
#X connect 6 0 60 0;
#X connect 7 0 59 0;
#X connect 8 0 39 0;
#X connect 9 0 40 0;
#X connect 16 0 18 1;
#X connect 17 0 18 2;
#X connect 18 0 19 0;
#X connect 18 1 20 0;
#X connect 18 2 21 0;
#X connect 18 3 22 0;
#X connect 18 4 23 0;
#X connect 18 5 24 0;
#X connect 27 0 4 0;
#X connect 28 0 18 0;
#X connect 35 0 16 0;
#X connect 36 0 35 0;
#X connect 37 0 2 0;
#X connect 38 0 37 0;
#X connect 39 0 95 4;
#X connect 40 0 95 5;
#X connect 41 0 67 0;
#X connect 41 0 73 0;
#X connect 42 0 62 0;
#X connect 42 0 74 0;
#X connect 43 0 63 0;
#X connect 43 0 75 0;
#X connect 44 0 64 0;
#X connect 44 0 76 0;
#X connect 45 0 65 0;
#X connect 45 0 77 0;
#X connect 46 0 66 0;
#X connect 46 0 78 0;
#X connect 53 0 83 1;
#X connect 54 0 61 1;
#X connect 55 0 60 1;
#X connect 56 0 59 1;
#X connect 57 0 39 1;
#X connect 58 0 40 1;
#X connect 59 0 95 3;
#X connect 60 0 95 2;
#X connect 61 0 95 1;
#X connect 62 0 49 0;
#X connect 63 0 48 0;
#X connect 64 0 50 0;
#X connect 65 0 51 0;
#X connect 66 0 52 0;
#X connect 67 0 47 0;
#X connect 68 0 69 0;
#X connect 68 0 79 0;
#X connect 69 0 70 0;
#X connect 70 0 71 0;
#X connect 70 1 66 4;
#X connect 70 1 65 4;
#X connect 70 1 64 4;
#X connect 70 1 63 4;
#X connect 70 1 62 4;
#X connect 70 1 67 4;
#X connect 72 0 41 0;
#X connect 72 0 42 0;
#X connect 72 0 43 0;
#X connect 72 0 44 0;
#X connect 72 0 45 0;
#X connect 72 0 46 0;
#X connect 80 0 84 0;
#X connect 80 0 109 0;
#X connect 80 0 120 0;
#X connect 80 1 85 0;
#X connect 80 1 110 0;
#X connect 80 1 111 0;
#X connect 81 0 80 1;
#X connect 81 0 107 0;
#X connect 82 0 81 0;
#X connect 83 0 95 0;
#X connect 86 0 121 0;
#X connect 86 1 87 0;
#X connect 86 2 88 0;
#X connect 86 3 89 0;
#X connect 86 4 90 0;
#X connect 86 5 91 0;
#X connect 92 0 86 1;
#X connect 93 0 86 2;
#X connect 94 0 92 0;
#X connect 96 0 86 0;
#X connect 97 0 96 1;
#X connect 98 0 94 0;
#X connect 99 0 98 0;
#X connect 100 0 99 0;
#X connect 101 0 98 0;
#X connect 102 0 103 0;
#X connect 102 0 104 0;
#X connect 103 0 97 0;
#X connect 104 0 101 0;
#X connect 105 0 80 0;
#X connect 107 0 108 0;
#X connect 108 0 105 1;
#X connect 108 0 106 0;
#X connect 112 0 105 0;
#X connect 114 0 113 0;
#X connect 115 0 118 0;
#X connect 115 0 119 0;
#X connect 116 0 115 0;
#X connect 117 0 1 0;
#X connect 118 0 1 2;
#X connect 119 0 1 1;
#X connect 122 0 83 0;
