#N canvas 189 22 819 464 10;
#X obj 175 606 catch~ c2;
#X obj 241 606 catch~ c3;
#X obj 316 606 catch~ c4;
#X obj 384 606 catch~ c5;
#X obj 454 606 catch~ c6;
#X obj 384 632 *~ 0.1;
#X obj 454 632 *~ 0.1;
#X obj 1686 493 vsl 15 128 0 127 0 0 empty empty empty 0 -9 0 10 -262144
-1 -1 0 1;
#X obj 1735 493 vsl 15 128 0 127 0 0 empty empty empty 0 -9 0 10 -262144
-1 -1 0 1;
#X obj 1777 492 vsl 15 128 0 127 0 0 empty empty empty 0 -9 0 10 -262144
-1 -1 0 1;
#X obj 1817 493 vsl 15 128 0 127 0 0 empty empty empty 0 -9 0 10 -262144
-1 -1 0 1;
#X obj 1850 493 vsl 15 128 0 127 0 0 empty empty empty 0 -9 0 10 -262144
-1 -1 0 1;
#X obj 1883 493 vsl 15 128 0 127 0 0 empty empty empty 0 -9 0 10 -262144
-1 -1 0 1;
#X obj 316 634 *~ 0.1;
#X obj 241 635 *~ 0.1;
#X obj 175 635 *~ 0.1;
#X obj 1587 668 jrange 0 127 0 0.5;
#X obj 1705 667 jrange 0 127 0 0.5;
#X obj 1826 666 jrange 0 127 0 0.5;
#X obj 1944 665 jrange 0 127 0 0.5;
#X obj 2062 665 jrange 0 127 0 0.5;
#X obj 1470 670 jrange 0 127 0 0.5;
#X obj 2010 539 hsl 128 15 0 127 0 0 empty empty empty -2 -8 0 10 -262144
-1 -1 0 1;
#X obj 2007 562 jrange 0 127 0 1;
#X obj 2007 586 t b f;
#X obj 2007 630 s \$0-rescale;
#X obj 1739 448 r \$0-rescale;
#X floatatom 1686 637 5 0 0 0 - - -, f 5;
#X floatatom 1735 636 5 0 0 0 - - -, f 5;
#X floatatom 1774 636 5 0 0 0 - - -, f 5;
#X floatatom 1823 635 5 0 0 0 - - -, f 5;
#X floatatom 1864 635 5 0 0 0 - - -, f 5;
#X floatatom 1913 634 5 0 0 0 - - -, f 5;
#X floatatom 2118 562 5 0 0 0 - - -, f 5;
#X obj 105 636 *~ 0.1;
#X obj 234 359 linear_panner_6ch~;
#X obj 297 400 throw~ c2;
#X obj 247 425 throw~ c3;
#X obj 310 425 throw~ c4;
#X obj 265 450 throw~ c5;
#X obj 328 450 throw~ c6;
#X obj 378 370 hsl 128 15 0 1 0 0 empty empty empty -2 -8 0 10 -262144
-1 -1 0 1;
#X obj 522 373 hsl 128 15 0 1 0 0 empty empty empty -2 -8 0 10 -262144
-1 -1 0 1;
#X obj 436 296 hsl 128 15 0 1 0 0 empty empty empty -2 -8 0 10 -262144
-1 -1 0 1;
#X obj 283 203 *~;
#X obj 298 169 vline~;
#X obj 338 292 snapshot~;
#X obj 402 248 metro 20;
#X obj 419 229 tgl 15 0 empty empty empty 17 7 0 10 -262144 -1 -1 0
1;
#X obj 361 224 vline~;
#X obj 372 110 bng 15 250 50 0 empty empty empty 17 7 0 10 -262144
-1 -1;
#X msg 301 141 1 8000 \, 0 6000 8000;
#X msg 361 196 0 0 \, 1 11000 3000;
#X obj 595 -27 audio_tables_loader;
#X obj 595 -52 bng 15 250 50 0 empty empty empty 17 7 0 10 -262144
-1 -1;
#X obj 123 -43 bng 15 250 50 0 empty empty empty 17 7 0 10 -262144
-1 -1;
#X obj 234 400 throw~ c1;
#X obj 72 606 catch~ c1;
#X obj 132 560 r cc1;
#X obj 208 561 r cc2;
#X obj 274 560 r cc3;
#X obj 349 560 r cc4;
#X obj 417 558 r cc5;
#X obj 487 558 r cc6;
#X obj 1688 705 s cc1;
#X obj 1730 705 s cc2;
#X obj 1770 706 s cc3;
#X obj 1811 706 s cc4;
#X obj 1851 704 s cc5;
#X obj 1900 705 s cc6;
#X obj 435 730 dac~ 7 8 3 4 5 6 7 8 9 10 11 12 13 14 15;
#X obj 802 632 *~ 0.1;
#X obj 872 632 *~ 0.1;
#X obj 734 634 *~ 0.1;
#X obj 659 635 *~ 0.1;
#X obj 593 635 *~ 0.1;
#X obj 523 636 *~ 0.1;
#X obj 1007 632 *~ 0.1;
#X obj 1077 632 *~ 0.1;
#X obj 939 634 *~ 0.1;
#X obj 523 606 catch~ c7;
#X obj 593 606 catch~ c8;
#X obj 659 606 catch~ c9;
#X obj 734 606 catch~ c10;
#X obj 802 606 catch~ c11;
#X obj 872 606 catch~ c12;
#X obj 939 606 catch~ c13;
#X obj 1007 606 catch~ c14;
#X obj 1077 606 catch~ c15;
#X obj 550 560 r cc7;
#X obj 626 561 r cc8;
#X obj 692 560 r cc9;
#X obj 767 560 r cc10;
#X obj 835 558 r cc11;
#X obj 905 558 r cc12;
#X obj 972 560 r cc13;
#X obj 1040 558 r cc14;
#X obj 1110 558 r cc15;
#X obj 69 88 wind_ear_panner;
#X obj 407 482 wind_breeze_panner;
#X obj 124 25 wind_ear_players;
#X obj 44 -154 hsl 600 15 0 115 0 0 empty empty empty -2 -8 0 10 -204800
-1 -1 9000 1;
#X floatatom 66 -129 5 0 0 0 - - -, f 5;
#X text 110 -131 temp;
#X obj 49 -98 s temperature;
#X obj 192 -97 line;
#X msg 191 -121 10 \, 85 120000;
#X msg 242 -96 stop;
#X msg 302 -106 55 \, 96 60000;
#X obj 209 -14 r temperature;
#X connect 0 0 15 0;
#X connect 1 0 14 0;
#X connect 2 0 13 0;
#X connect 3 0 5 0;
#X connect 4 0 6 0;
#X connect 5 0 70 4;
#X connect 6 0 70 5;
#X connect 7 0 21 0;
#X connect 7 0 27 0;
#X connect 8 0 16 0;
#X connect 8 0 28 0;
#X connect 9 0 17 0;
#X connect 9 0 29 0;
#X connect 10 0 18 0;
#X connect 10 0 30 0;
#X connect 11 0 19 0;
#X connect 11 0 31 0;
#X connect 12 0 20 0;
#X connect 12 0 32 0;
#X connect 13 0 70 3;
#X connect 14 0 70 2;
#X connect 15 0 70 1;
#X connect 16 0 65 0;
#X connect 17 0 66 0;
#X connect 18 0 67 0;
#X connect 19 0 68 0;
#X connect 20 0 69 0;
#X connect 21 0 64 0;
#X connect 22 0 23 0;
#X connect 22 0 33 0;
#X connect 23 0 24 0;
#X connect 24 0 25 0;
#X connect 24 1 20 4;
#X connect 24 1 19 4;
#X connect 24 1 18 4;
#X connect 24 1 17 4;
#X connect 24 1 16 4;
#X connect 24 1 21 4;
#X connect 26 0 7 0;
#X connect 26 0 8 0;
#X connect 26 0 9 0;
#X connect 26 0 10 0;
#X connect 26 0 11 0;
#X connect 26 0 12 0;
#X connect 34 0 70 0;
#X connect 35 0 56 0;
#X connect 35 1 36 0;
#X connect 35 2 37 0;
#X connect 35 3 38 0;
#X connect 35 4 39 0;
#X connect 35 5 40 0;
#X connect 41 0 35 1;
#X connect 42 0 35 2;
#X connect 43 0 41 0;
#X connect 44 0 35 0;
#X connect 45 0 44 1;
#X connect 46 0 43 0;
#X connect 47 0 46 0;
#X connect 48 0 47 0;
#X connect 49 0 46 0;
#X connect 50 0 51 0;
#X connect 50 0 52 0;
#X connect 51 0 45 0;
#X connect 52 0 49 0;
#X connect 54 0 53 0;
#X connect 55 0 100 0;
#X connect 57 0 34 0;
#X connect 58 0 34 1;
#X connect 59 0 15 1;
#X connect 60 0 14 1;
#X connect 61 0 13 1;
#X connect 62 0 5 1;
#X connect 63 0 6 1;
#X connect 71 0 70 10;
#X connect 72 0 70 11;
#X connect 73 0 70 9;
#X connect 74 0 70 8;
#X connect 75 0 70 7;
#X connect 76 0 70 6;
#X connect 77 0 70 13;
#X connect 78 0 70 14;
#X connect 79 0 70 12;
#X connect 80 0 76 0;
#X connect 81 0 75 0;
#X connect 82 0 74 0;
#X connect 83 0 73 0;
#X connect 84 0 71 0;
#X connect 85 0 72 0;
#X connect 86 0 79 0;
#X connect 87 0 77 0;
#X connect 88 0 78 0;
#X connect 89 0 76 1;
#X connect 90 0 75 1;
#X connect 91 0 74 1;
#X connect 92 0 73 1;
#X connect 93 0 71 1;
#X connect 94 0 72 1;
#X connect 95 0 79 1;
#X connect 96 0 77 1;
#X connect 97 0 78 1;
#X connect 100 0 98 0;
#X connect 101 0 102 0;
#X connect 101 0 104 0;
#X connect 105 0 101 0;
#X connect 106 0 105 0;
#X connect 107 0 105 0;
#X connect 108 0 105 0;
#X connect 109 0 100 1;
