#N canvas 28 364 1012 685 10;
#X obj 70 -26 bng 15 250 50 0 empty empty empty 17 7 0 10 -262144 -1
-1;
#X obj 1007 632 *~ 0.1;
#X obj 1077 632 *~ 0.1;
#X obj 1007 606 catch~ c14;
#X obj 1077 606 catch~ c15;
#X obj 1040 558 r cc14;
#X obj 1110 558 r cc15;
#X obj 69 88 wind_ear_panner;
#X obj 70 39 wind_ear_players;
#X floatatom 64 -121 5 0 0 0 - - -, f 5;
#X text 282 -166 temp;
#X obj 39 -93 s temperature;
#X obj 143 -8 r temperature;
#X obj 447 -67 hsl 600 15 0.1 20 0 0 empty empty empty -2 -8 0 10 -204800
-1 -1 20800 1;
#X floatatom 493 12 5 0 0 0 - - -, f 5;
#X obj 588 -1 line;
#X msg 638 0 stop;
#X obj 444 31 s wind_speed;
#X msg 587 -25 0 \, 12 120000;
#X msg 698 -10 6 \, 12 60000;
#X obj 180 14 r wind_speed;
#X obj 444 -16 line;
#X obj 444 -39 \$1 80;
#X text 495 -44 wind speed;
#X obj 310 158 wind_breeze_players;
#X obj 421 123 r wind_speed;
#X obj 308 129 bng 15 250 50 0 empty empty empty 17 7 0 10 -262144
-1 -1;
#X obj 448 228 r wind_speed;
#X obj 472 255 r wind_speed;
#X obj 494 282 r wind_speed;
#X obj 518 309 r wind_speed;
#X obj 438 -105 loadbang;
#X obj 343 254 wind_breeze_panner;
#X obj 707 -119 nbx 5 14 -1e+37 1e+37 0 0 empty empty empty 0 -8 0
10 -204800 -1 -1 7.01018 256;
#X obj 650 -91 line;
#X msg 650 -114 \$1 1000;
#X obj 688 -146 route /mt2MinRollAvgWindSpeed;
#X obj 39 -211 route /mtTemp1;
#X obj 39 -167 line;
#X msg 39 -190 \$1 1000;
#X obj 683 -291 inlet microserver;
#X obj 40 -286 inlet load;
#X obj 40 -262 s \$0-load;
#X obj 683 -267 s \$0-microserver;
#X obj 688 -171 r \$0-microserver;
#X obj 39 -232 r \$0-microserver;
#X obj 308 95 r \$0-load;
#X obj 70 -50 r \$0-load;
#X obj 279 -283 inlet gain;
#X obj 279 -257 s \$0-gain;
#X obj 187 45 r \$0-gain;
#X obj 311 188 *~ 1;
#X obj 348 188 *~ 1;
#X obj 384 187 *~ 1;
#X obj 422 187 *~ 1;
#X obj 505 123 r \$0-gain;
#X obj 68 -144 hsl 600 15 0 115 0 0 empty empty empty -2 -8 0 10 -204800
-1 -1 34500 1;
#X obj 141 316 outlet~ monitoring;
#X obj 389 308 wind_breeze_panner;
#X obj 367 281 wind_breeze_panner;
#X obj 413 335 wind_breeze_panner;
#X connect 0 0 8 0;
#X connect 3 0 1 0;
#X connect 4 0 2 0;
#X connect 5 0 1 1;
#X connect 6 0 2 1;
#X connect 7 0 57 0;
#X connect 8 0 7 0;
#X connect 12 0 8 1;
#X connect 15 0 13 0;
#X connect 16 0 15 0;
#X connect 18 0 15 0;
#X connect 19 0 15 0;
#X connect 20 0 8 2;
#X connect 21 0 17 0;
#X connect 21 0 14 0;
#X connect 22 0 21 0;
#X connect 24 0 51 0;
#X connect 24 1 52 0;
#X connect 24 2 53 0;
#X connect 24 3 54 0;
#X connect 25 0 24 1;
#X connect 26 0 24 0;
#X connect 27 0 32 1;
#X connect 28 0 59 1;
#X connect 29 0 58 1;
#X connect 30 0 60 1;
#X connect 31 0 13 0;
#X connect 32 0 57 0;
#X connect 34 0 13 0;
#X connect 34 0 22 0;
#X connect 35 0 34 0;
#X connect 36 0 33 0;
#X connect 36 0 35 0;
#X connect 37 0 39 0;
#X connect 38 0 11 0;
#X connect 38 0 9 0;
#X connect 38 0 56 0;
#X connect 39 0 38 0;
#X connect 40 0 43 0;
#X connect 41 0 42 0;
#X connect 44 0 36 0;
#X connect 45 0 37 0;
#X connect 46 0 26 0;
#X connect 47 0 0 0;
#X connect 48 0 49 0;
#X connect 50 0 7 2;
#X connect 51 0 32 0;
#X connect 52 0 59 0;
#X connect 53 0 58 0;
#X connect 54 0 60 0;
#X connect 55 0 54 1;
#X connect 55 0 53 1;
#X connect 55 0 52 1;
#X connect 55 0 51 1;
