#N canvas 2 52 1012 563 10;
#X obj 177 0 bng 15 250 50 0 empty empty empty 17 7 0 10 -262144 -1
-1;
#X msg 200 0 stop;
#X obj 526 8 bng 15 250 50 0 empty empty empty 17 7 0 10 -262144 -1
-1;
#X msg 547 8 stop;
#X obj 629 2 hsl 128 15 0 127 0 0 empty empty empty -2 -8 0 10 -262144
-1 -1 0 1;
#X obj 282 1 hsl 128 15 0 127 0 0 empty empty empty -2 -8 0 10 -262144
-1 -1 0 1;
#X obj 192 357 outlet~;
#X obj 528 352 outlet~;
#X obj 192 67 *~ 0.3;
#X obj 525 68 *~ 0.3;
#X obj 524 36 player_c~ Wind_60-65_02_L.wav;
#X obj 193 40 player_c~ Wind_60-65_01.wav 50;
#X connect 0 0 11 0;
#X connect 1 0 11 0;
#X connect 2 0 10 0;
#X connect 3 0 10 0;
#X connect 4 0 10 1;
#X connect 5 0 11 1;
#X connect 8 0 6 0;
#X connect 9 0 7 0;
#X connect 10 0 9 0;
#X connect 11 0 8 0;
