#N canvas 276 153 1345 730 10;
#X obj 175 606 catch~ c2;
#X obj 1686 493 vsl 15 128 0 127 0 0 empty empty empty 0 -9 0 10 -262144
-1 -1 0 1;
#X obj 1735 493 vsl 15 128 0 127 0 0 empty empty empty 0 -9 0 10 -262144
-1 -1 0 1;
#X obj 1777 492 vsl 15 128 0 127 0 0 empty empty empty 0 -9 0 10 -262144
-1 -1 0 1;
#X obj 1817 493 vsl 15 128 0 127 0 0 empty empty empty 0 -9 0 10 -262144
-1 -1 0 1;
#X obj 1850 493 vsl 15 128 0 127 0 0 empty empty empty 0 -9 0 10 -262144
-1 -1 0 1;
#X obj 1883 493 vsl 15 128 0 127 0 0 empty empty empty 0 -9 0 10 -262144
-1 -1 0 1;
#X obj 1587 668 jrange 0 127 0 0.5;
#X obj 1705 667 jrange 0 127 0 0.5;
#X obj 1826 666 jrange 0 127 0 0.5;
#X obj 1944 665 jrange 0 127 0 0.5;
#X obj 2062 665 jrange 0 127 0 0.5;
#X obj 1470 670 jrange 0 127 0 0.5;
#X obj 2010 539 hsl 128 15 0 127 0 0 empty empty empty -2 -8 0 10 -262144
-1 -1 0 1;
#X obj 2007 562 jrange 0 127 0 1;
#X obj 2007 586 t b f;
#X obj 2007 630 s \$0-rescale;
#X obj 1739 448 r \$0-rescale;
#X floatatom 1686 637 5 0 0 0 - - -, f 5;
#X floatatom 1735 636 5 0 0 0 - - -, f 5;
#X floatatom 1774 636 5 0 0 0 - - -, f 5;
#X floatatom 1823 635 5 0 0 0 - - -, f 5;
#X floatatom 1864 635 5 0 0 0 - - -, f 5;
#X floatatom 1913 634 5 0 0 0 - - -, f 5;
#X floatatom 2118 562 5 0 0 0 - - -, f 5;
#X obj 918 101 audio_tables_loader;
#X obj 918 76 bng 15 250 50 0 empty empty empty 17 7 0 10 -262144 -1
-1;
#X obj 123 -43 bng 15 250 50 0 empty empty empty 17 7 0 10 -262144
-1 -1;
#X obj 72 606 catch~ c1;
#X obj 132 560 r cc1;
#X obj 208 561 r cc2;
#X obj 1688 705 s cc1;
#X obj 1730 705 s cc2;
#X obj 1770 706 s cc3;
#X obj 1811 706 s cc4;
#X obj 1851 704 s cc5;
#X obj 1900 705 s cc6;
#X obj 1007 632 *~ 0.1;
#X obj 1077 632 *~ 0.1;
#X obj 1007 606 catch~ c14;
#X obj 1077 606 catch~ c15;
#X obj 972 560 r cc13;
#X obj 1040 558 r cc14;
#X obj 1110 558 r cc15;
#X obj 69 88 wind_ear_panner;
#X obj 592 151 wind_breeze_panner;
#X obj 124 25 wind_ear_players;
#X obj 44 -154 hsl 600 15 0 115 0 0 empty empty empty -2 -8 0 10 -204800
-1 -1 4600 1;
#X floatatom 66 -129 5 0 0 0 - - -, f 5;
#X text 110 -131 temp;
#X obj 49 -98 s temperature;
#X obj 192 -97 line;
#X msg 191 -121 10 \, 85 120000;
#X msg 242 -96 stop;
#X msg 302 -106 55 \, 96 60000;
#X obj 197 -22 r temperature;
#X obj 105 636 *~ 1;
#X obj 175 635 *~ 1;
#X obj 241 606 catch~ c3;
#X obj 316 606 catch~ c4;
#X obj 384 606 catch~ c5;
#X obj 454 606 catch~ c6;
#X obj 384 632 *~ 0.1;
#X obj 454 632 *~ 0.1;
#X obj 316 634 *~ 0.1;
#X obj 241 635 *~ 0.1;
#X obj 274 560 r cc3;
#X obj 349 560 r cc4;
#X obj 417 558 r cc5;
#X obj 487 558 r cc6;
#X obj 802 632 *~ 0.1;
#X obj 872 632 *~ 0.1;
#X obj 734 634 *~ 0.1;
#X obj 659 635 *~ 0.1;
#X obj 593 635 *~ 0.1;
#X obj 523 636 *~ 0.1;
#X obj 939 634 *~ 0.1;
#X obj 523 606 catch~ c7;
#X obj 593 606 catch~ c8;
#X obj 659 606 catch~ c9;
#X obj 734 606 catch~ c10;
#X obj 802 606 catch~ c11;
#X obj 872 606 catch~ c12;
#X obj 939 606 catch~ c13;
#X obj 550 560 r cc7;
#X obj 626 561 r cc8;
#X obj 692 560 r cc9;
#X obj 767 560 r cc10;
#X obj 835 558 r cc11;
#X obj 905 558 r cc12;
#X obj 435 730 dac~ 1 2 3 4 5 6 7 8 9 10 11 12 13 14 15;
#X obj 447 -67 hsl 600 15 0.1 20 0 0 empty empty empty -2 -8 0 10 -204800
-1 -1 7300 1;
#X floatatom 493 12 5 0 0 0 - - -, f 5;
#X obj 588 -1 line;
#X msg 638 0 stop;
#X obj 444 31 s wind_speed;
#X msg 587 -25 0 \, 12 120000;
#X msg 698 -10 6 \, 12 60000;
#X obj 234 0 r wind_speed;
#X obj 444 -16 line;
#X obj 444 -39 \$1 80;
#X text 495 -44 wind speed;
#X obj 581 101 wind_breeze_players;
#X obj 630 69 r wind_speed;
#X obj 579 72 bng 15 250 50 0 empty empty empty 17 7 0 10 -262144 -1
-1;
#X obj 697 125 r wind_speed;
#X obj 616 178 wind_breeze_panner;
#X obj 721 152 r wind_speed;
#X obj 638 205 wind_breeze_panner;
#X obj 743 179 r wind_speed;
#X obj 662 232 wind_breeze_panner;
#X obj 767 206 r wind_speed;
#X obj 444 -90 loadbang;
#X connect 0 0 57 0;
#X connect 1 0 12 0;
#X connect 1 0 18 0;
#X connect 2 0 7 0;
#X connect 2 0 19 0;
#X connect 3 0 8 0;
#X connect 3 0 20 0;
#X connect 4 0 9 0;
#X connect 4 0 21 0;
#X connect 5 0 10 0;
#X connect 5 0 22 0;
#X connect 6 0 11 0;
#X connect 6 0 23 0;
#X connect 7 0 32 0;
#X connect 8 0 33 0;
#X connect 9 0 34 0;
#X connect 10 0 35 0;
#X connect 11 0 36 0;
#X connect 12 0 31 0;
#X connect 13 0 14 0;
#X connect 13 0 24 0;
#X connect 14 0 15 0;
#X connect 15 0 16 0;
#X connect 15 1 11 4;
#X connect 15 1 10 4;
#X connect 15 1 9 4;
#X connect 15 1 8 4;
#X connect 15 1 7 4;
#X connect 15 1 12 4;
#X connect 17 0 1 0;
#X connect 17 0 2 0;
#X connect 17 0 3 0;
#X connect 17 0 4 0;
#X connect 17 0 5 0;
#X connect 17 0 6 0;
#X connect 26 0 25 0;
#X connect 27 0 46 0;
#X connect 28 0 56 0;
#X connect 29 0 56 1;
#X connect 30 0 57 1;
#X connect 37 0 90 13;
#X connect 38 0 90 14;
#X connect 39 0 37 0;
#X connect 40 0 38 0;
#X connect 41 0 76 1;
#X connect 42 0 37 1;
#X connect 43 0 38 1;
#X connect 46 0 44 0;
#X connect 47 0 48 0;
#X connect 47 0 50 0;
#X connect 51 0 47 0;
#X connect 52 0 51 0;
#X connect 53 0 51 0;
#X connect 54 0 51 0;
#X connect 55 0 46 1;
#X connect 56 0 90 0;
#X connect 57 0 90 1;
#X connect 58 0 65 0;
#X connect 59 0 64 0;
#X connect 60 0 62 0;
#X connect 61 0 63 0;
#X connect 62 0 90 4;
#X connect 63 0 90 5;
#X connect 64 0 90 3;
#X connect 65 0 90 2;
#X connect 66 0 65 1;
#X connect 67 0 64 1;
#X connect 68 0 62 1;
#X connect 69 0 63 1;
#X connect 70 0 90 10;
#X connect 71 0 90 11;
#X connect 72 0 90 9;
#X connect 73 0 90 8;
#X connect 74 0 90 7;
#X connect 75 0 90 6;
#X connect 76 0 90 12;
#X connect 77 0 75 0;
#X connect 78 0 74 0;
#X connect 79 0 73 0;
#X connect 80 0 72 0;
#X connect 81 0 70 0;
#X connect 82 0 71 0;
#X connect 83 0 76 0;
#X connect 84 0 75 1;
#X connect 85 0 74 1;
#X connect 86 0 73 1;
#X connect 87 0 72 1;
#X connect 88 0 70 1;
#X connect 89 0 71 1;
#X connect 91 0 100 0;
#X connect 93 0 91 0;
#X connect 94 0 93 0;
#X connect 96 0 93 0;
#X connect 97 0 93 0;
#X connect 98 0 46 2;
#X connect 99 0 95 0;
#X connect 99 0 92 0;
#X connect 100 0 99 0;
#X connect 102 0 45 0;
#X connect 102 1 106 0;
#X connect 102 2 108 0;
#X connect 102 3 110 0;
#X connect 103 0 102 1;
#X connect 104 0 102 0;
#X connect 105 0 45 1;
#X connect 107 0 106 1;
#X connect 109 0 108 1;
#X connect 111 0 110 1;
#X connect 112 0 91 0;
