#N canvas 65 94 1509 757 10;
#X obj 925 -94 clouds --------------------;
#X obj 240 -35 wind ---------------;
#X obj 768 210 hsl 128 15 0 1 0 0 empty empty empty -2 -8 0 10 -262144
-1 -1 10432 1;
#X obj 914 211 hsl 128 15 0 1 0 0 empty empty empty -2 -8 0 10 -262144
-1 -1 12700 1;
#X obj 712 258 linear_panner_6ch~;
#X obj 238 675 dac~ 1 2 3 4 5 6;
#X obj 105 606 catch~ c1;
#X obj 175 606 catch~ c2;
#X obj 241 606 catch~ c3;
#X obj 316 606 catch~ c4;
#X obj 384 606 catch~ c5;
#X obj 454 606 catch~ c6;
#X obj 712 299 throw~ c1;
#X obj 775 299 throw~ c2;
#X obj 725 324 throw~ c3;
#X obj 788 324 throw~ c4;
#X obj 743 349 throw~ c5;
#X obj 806 349 throw~ c6;
#X obj 1136 211 hsl 128 15 0 1 0 0 empty empty empty -2 -8 0 10 -262144
-1 -1 1834 1;
#X obj 1282 212 hsl 128 15 0 1 0 0 empty empty empty -2 -8 0 10 -262144
-1 -1 12700 1;
#X obj 1080 259 linear_panner_6ch~;
#X obj 1080 300 throw~ c1;
#X obj 1143 300 throw~ c2;
#X obj 1093 325 throw~ c3;
#X obj 1156 325 throw~ c4;
#X obj 1111 350 throw~ c5;
#X obj 1174 350 throw~ c6;
#X obj 858 -8 throw~ clouds1;
#X obj 957 -9 throw~ clouds2;
#X obj 712 230 catch~ clouds1;
#X obj 1080 233 catch~ clouds2;
#X obj 957 55 throw~ clouds1;
#X obj 1053 55 throw~ clouds2;
#X obj 984 23 throw~ clouds1;
#X obj 1080 23 throw~ clouds2;
#X obj 1061 -10 throw~ clouds1;
#X obj 1157 -10 throw~ clouds2;
#X obj 1186 182 lfo_tri 0.6;
#X obj 1189 135 hsl 128 15 0 1 0 0 empty empty empty -2 -8 0 10 -262144
-1 -1 500 1;
#X obj 825 181 lfo_tri 0.6;
#X obj 828 134 hsl 128 15 0 1 0 0 empty empty empty -2 -8 0 10 -262144
-1 -1 400 1;
#X obj 384 632 *~ 0.1;
#X obj 454 632 *~ 0.1;
#X obj 810 479 vsl 15 128 0 127 0 0 empty empty empty 0 -9 0 10 -262144
-1 -1 8900 1;
#X obj 859 479 vsl 15 128 0 127 0 0 empty empty empty 0 -9 0 10 -262144
-1 -1 9300 1;
#X obj 898 479 vsl 15 128 0 127 0 0 empty empty empty 0 -9 0 10 -262144
-1 -1 3800 1;
#X obj 941 479 vsl 15 128 0 127 0 0 empty empty empty 0 -9 0 10 -262144
-1 -1 2800 1;
#X obj 974 479 vsl 15 128 0 127 0 0 empty empty empty 0 -9 0 10 -262144
-1 -1 5400 1;
#X obj 1007 479 vsl 15 128 0 127 0 0 empty empty empty 0 -9 0 10 -262144
-1 -1 5500 1;
#X obj 829 692 s c1;
#X obj 894 692 s c3;
#X obj 862 692 s c2;
#X obj 927 692 s c4;
#X obj 960 692 s c5;
#X obj 993 692 s c6;
#X obj 132 560 r c1;
#X obj 208 561 r c2;
#X obj 274 560 r c3;
#X obj 349 560 r c4;
#X obj 417 558 r c5;
#X obj 487 558 r c6;
#X obj 316 634 *~ 0.1;
#X obj 241 635 *~ 0.1;
#X obj 175 635 *~ 0.1;
#X obj 105 636 nozip;
#X obj 711 654 jrange 0 127 0 0.5;
#X obj 829 653 jrange 0 127 0 0.5;
#X obj 950 652 jrange 0 127 0 0.5;
#X obj 1068 651 jrange 0 127 0 0.5;
#X obj 1186 651 jrange 0 127 0 0.5;
#X obj 594 656 jrange 0 127 0 0.5;
#X obj 1134 525 hsl 128 15 0 127 0 0 empty empty empty -2 -8 0 10 -262144
-1 -1 6100 1;
#X obj 1131 548 jrange 0 127 0 1;
#X obj 1131 572 t b f;
#X obj 1131 616 s \$0-rescale;
#X obj 863 434 r \$0-rescale;
#X floatatom 810 623 5 0 0 0 - - -;
#X floatatom 859 622 5 0 0 0 - - -;
#X floatatom 898 622 5 0 0 0 - - -;
#X floatatom 947 621 5 0 0 0 - - -;
#X floatatom 988 621 5 0 0 0 - - -;
#X floatatom 1037 620 5 0 0 0 - - -;
#X floatatom 1242 548 5 0 0 0 - - -;
#X obj 122 99 panner~;
#X obj 199 71 lfo_tri 0.6;
#X obj 202 44 hsl 128 15 0 1 0 0 empty empty empty -2 -8 0 10 -262144
-1 -1 0 1;
#X obj 122 147 throw~ c1;
#X obj 199 148 throw~ c2;
#X obj 207 247 panner~;
#X obj 285 220 lfo_tri 0.6;
#X obj 288 193 hsl 128 15 0 1 0 0 empty empty empty -2 -8 0 10 -262144
-1 -1 0 1;
#X obj 208 295 throw~ c3;
#X obj 284 296 throw~ c4;
#X obj 357 5 nozip;
#X obj 420 -90 vsl 15 128 0 127 0 0 empty empty empty 0 -9 0 10 -262144
-1 -1 1100 1;
#X obj 420 52 / 127;
#X obj 437 113 panner~;
#X obj 515 86 lfo_tri 0.6;
#X obj 518 59 hsl 128 15 0 1 0 0 empty empty empty -2 -8 0 10 -262144
-1 -1 9400 1;
#X obj 438 161 throw~ c1;
#X obj 514 162 throw~ c2;
#X connect 0 0 27 0;
#X connect 0 1 28 0;
#X connect 0 2 33 0;
#X connect 0 3 34 0;
#X connect 0 4 31 0;
#X connect 0 5 32 0;
#X connect 0 6 35 0;
#X connect 0 7 36 0;
#X connect 1 0 83 0;
#X connect 1 0 88 0;
#X connect 1 2 93 0;
#X connect 2 0 4 1;
#X connect 3 0 4 2;
#X connect 4 0 12 0;
#X connect 4 1 13 0;
#X connect 4 2 14 0;
#X connect 4 3 15 0;
#X connect 4 4 16 0;
#X connect 4 5 17 0;
#X connect 6 0 64 0;
#X connect 7 0 63 0;
#X connect 8 0 62 0;
#X connect 9 0 61 0;
#X connect 10 0 41 0;
#X connect 11 0 42 0;
#X connect 18 0 20 1;
#X connect 19 0 20 2;
#X connect 20 0 21 0;
#X connect 20 1 22 0;
#X connect 20 2 23 0;
#X connect 20 3 24 0;
#X connect 20 4 25 0;
#X connect 20 5 26 0;
#X connect 29 0 4 0;
#X connect 30 0 20 0;
#X connect 37 0 18 0;
#X connect 38 0 37 0;
#X connect 39 0 2 0;
#X connect 40 0 39 0;
#X connect 41 0 5 4;
#X connect 42 0 5 5;
#X connect 43 0 70 0;
#X connect 43 0 76 0;
#X connect 44 0 65 0;
#X connect 44 0 77 0;
#X connect 45 0 66 0;
#X connect 45 0 78 0;
#X connect 46 0 67 0;
#X connect 46 0 79 0;
#X connect 47 0 68 0;
#X connect 47 0 80 0;
#X connect 48 0 69 0;
#X connect 48 0 81 0;
#X connect 55 0 64 1;
#X connect 56 0 63 1;
#X connect 57 0 62 1;
#X connect 58 0 61 1;
#X connect 59 0 41 1;
#X connect 60 0 42 1;
#X connect 61 0 5 3;
#X connect 62 0 5 2;
#X connect 63 0 5 1;
#X connect 64 0 5 0;
#X connect 65 0 51 0;
#X connect 66 0 50 0;
#X connect 67 0 52 0;
#X connect 68 0 53 0;
#X connect 69 0 54 0;
#X connect 70 0 49 0;
#X connect 71 0 72 0;
#X connect 71 0 82 0;
#X connect 72 0 73 0;
#X connect 73 0 74 0;
#X connect 73 1 69 4;
#X connect 73 1 68 4;
#X connect 73 1 67 4;
#X connect 73 1 66 4;
#X connect 73 1 65 4;
#X connect 73 1 70 4;
#X connect 75 0 43 0;
#X connect 75 0 44 0;
#X connect 75 0 45 0;
#X connect 75 0 46 0;
#X connect 75 0 47 0;
#X connect 75 0 48 0;
#X connect 83 0 86 0;
#X connect 83 1 87 0;
#X connect 84 0 83 1;
#X connect 85 0 84 0;
#X connect 88 0 91 0;
#X connect 88 1 92 0;
#X connect 89 0 88 1;
#X connect 90 0 89 0;
#X connect 93 0 96 0;
#X connect 94 0 95 0;
#X connect 95 0 93 1;
#X connect 96 0 99 0;
#X connect 96 1 100 0;
#X connect 97 0 96 1;
#X connect 98 0 97 0;
