#N canvas 246 22 1292 563 10;
#X obj 177 0 bng 15 250 50 0 empty empty empty 17 7 0 10 -262144 -1
-1;
#X msg 200 0 stop;
#X obj 526 8 bng 15 250 50 0 empty empty empty 17 7 0 10 -262144 -1
-1;
#X msg 547 8 stop;
#X obj 629 2 hsl 128 15 0 127 0 0 empty empty empty -2 -8 0 10 -262144
-1 -1 0 1;
#X obj 282 1 hsl 128 15 0 127 0 0 empty empty empty -2 -8 0 10 -262144
-1 -1 0 1;
#X obj 525 36 player_c~ 06_10/Wind_60-65_02_L.wav;
#X obj 192 40 player_c~ 06_10/Wind_60-65_01.wav 50;
#X obj 833 13 bng 15 250 50 0 empty empty empty 17 7 0 10 -262144 -1
-1;
#X msg 854 13 stop;
#X obj 936 7 hsl 128 15 0 127 0 0 empty empty empty -2 -8 0 10 -262144
-1 -1 0 1;
#X obj 832 41 player_c~ 06_10/Wind_60-65_02_R.wav;
#X obj 192 357 outlet~;
#X obj 528 352 outlet~;
#X obj 192 67 *~ 0.3;
#X obj 525 68 *~ 0.3;
#X obj 832 68 *~ 0.3;
#X obj 838 370 outlet~;
#X connect 0 0 7 0;
#X connect 1 0 7 0;
#X connect 2 0 6 0;
#X connect 3 0 6 0;
#X connect 4 0 6 1;
#X connect 5 0 7 1;
#X connect 6 0 15 0;
#X connect 7 0 14 0;
#X connect 8 0 11 0;
#X connect 9 0 11 0;
#X connect 10 0 11 1;
#X connect 11 0 16 0;
#X connect 14 0 12 0;
#X connect 15 0 13 0;
#X connect 16 0 17 0;
