#N canvas 126 626 434 454 10;
#X obj 40 124 rest;
#X obj 41 152 json-decode;
#X msg 40 102 GET http://localhost:8080;
#X obj 40 42 inlet;
#X msg 40 66 bang;
#X obj 123 179 bng 15 250 50 0 empty empty empty 17 7 0 10 -262144
-1 -1;
#X obj 41 185 list trim;
#X obj 42 208 list split 1;
#X obj 116 237 json-decode;
#X obj 116 258 list trim;
#X obj 116 279 route value;
#X obj 42 303 list append;
#X obj 42 330 list trim;
#X obj 42 371 outlet;
#X text 125 31 microserver abstraction;
#X text 125 49 depends on PuRestJson;
#X text 126 66 https://github.com/residuum/PuRestJson;
#X connect 0 0 1 0;
#X connect 1 0 6 0;
#X connect 1 1 5 0;
#X connect 2 0 0 0;
#X connect 3 0 4 0;
#X connect 4 0 2 0;
#X connect 6 0 7 0;
#X connect 7 0 11 0;
#X connect 7 1 8 0;
#X connect 8 0 9 0;
#X connect 9 0 10 0;
#X connect 10 0 11 1;
#X connect 11 0 12 0;
#X connect 12 0 13 0;
