#N canvas 614 445 933 594 10;
#X text 25 569 todo: only output [change];
#X obj 28 549 change;
#X obj 33 25 bng 25 250 50 0 empty empty empty 17 7 0 10 -204786 -1
-1;
#X obj 33 58 microserver;
#X obj 33 83 s microserver;
#X obj 30 139 r microserver;
#X obj 237 140 r microserver;
#X obj 30 160 route mt10MinRollAvgWindDir;
#X obj 237 161 route mt10MinRollAvgWindSpeed;
#X obj 450 140 r microserver;
#X obj 450 161 route mt10MinWindGustDir;
#X obj 664 137 r microserver;
#X obj 664 158 route mt10MinWindGustSpeed;
#X obj 30 202 r microserver;
#X obj 30 183 nbx 5 14 -1e+37 1e+37 0 0 empty empty empty 0 -8 0 10
-204800 -1 -1 42 256;
#X obj 237 184 nbx 5 14 -1e+37 1e+37 0 0 empty empty empty 0 -8 0 10
-204800 -1 -1 15.5 256;
#X obj 450 184 nbx 5 14 -1e+37 1e+37 0 0 empty empty empty 0 -8 0 10
-204800 -1 -1 62 256;
#X obj 664 182 nbx 5 14 -1e+37 1e+37 0 0 empty empty empty 0 -8 0 10
-204800 -1 -1 30.2 256;
#X obj 30 246 nbx 5 14 -1e+37 1e+37 0 0 empty empty empty 0 -8 0 10
-204800 -1 -1 -14.6 256;
#X obj 237 202 r microserver;
#X obj 237 246 nbx 5 14 -1e+37 1e+37 0 0 empty empty empty 0 -8 0 10
-204800 -1 -1 49 256;
#X obj 237 223 route mt2MinRollAvgWindDir;
#X obj 449 203 r microserver;
#X obj 449 247 nbx 5 14 -1e+37 1e+37 0 0 empty empty empty 0 -8 0 10
-204800 -1 -1 17.7 256;
#X obj 449 224 route mt2MinRollAvgWindSpeed;
#X obj 664 202 r microserver;
#X obj 664 246 nbx 5 14 -1e+37 1e+37 0 0 empty empty empty 0 -8 0 10
-204800 -1 -1 60 256;
#X obj 664 223 route mt3SecRollAvgWindDir;
#X obj 30 265 r microserver;
#X obj 30 310 nbx 5 14 -1e+37 1e+37 0 0 empty empty empty 0 -8 0 10
-204800 -1 -1 28 256;
#X obj 237 266 r microserver;
#X obj 237 310 nbx 5 14 -1e+37 1e+37 0 0 empty empty empty 0 -8 0 10
-204800 -1 -1 43 256;
#X obj 30 287 route mt3SecRollAvgWindSpeed;
#X obj 237 287 route mt60MinRollAvgWindDir;
#X obj 449 268 r microserver;
#X obj 449 312 nbx 5 14 -1e+37 1e+37 0 0 empty empty empty 0 -8 0 10
-204800 -1 -1 15.7 256;
#X obj 449 289 route mt60MinRollAvgWindSpeed;
#X obj 664 268 r microserver;
#X obj 664 312 nbx 5 14 -1e+37 1e+37 0 0 empty empty empty 0 -8 0 10
-204800 -1 -1 62 256;
#X obj 664 289 route mt60MinWindGustDir;
#X obj 30 332 r microserver;
#X obj 30 376 nbx 5 14 -1e+37 1e+37 0 0 empty empty empty 0 -8 0 10
-204800 -1 -1 30.2 256;
#X obj 30 353 route mt60MinWindGustSpeed;
#X obj 237 331 r microserver;
#X obj 237 375 nbx 5 14 -1e+37 1e+37 0 0 empty empty empty 0 -8 0 10
-204800 -1 -1 21.4 256;
#X obj 448 333 r microserver;
#X obj 448 377 nbx 5 14 -1e+37 1e+37 0 0 empty empty empty 0 -8 0 10
-204800 -1 -1 0.0001 256;
#X obj 448 354 route mtAbsoluteHumidity;
#X obj 662 333 r microserver;
#X obj 662 377 nbx 5 14 -1e+37 1e+37 0 0 empty empty empty 0 -8 0 10
-204800 -1 -1 30 256;
#X obj 662 354 route mtAdjBaromPress;
#X obj 29 399 r microserver;
#X obj 29 443 nbx 5 14 -1e+37 1e+37 0 0 empty empty empty 0 -8 0 10
-204800 -1 -1 -2103 256;
#X obj 29 420 route mtAdjustedAltitude;
#X obj 236 399 r microserver;
#X obj 236 443 nbx 5 14 -1e+37 1e+37 0 0 empty empty empty 0 -8 0 10
-204800 -1 -1 62 256;
#X obj 236 420 route mtAdjWindDir;
#X obj 447 399 r microserver;
#X obj 447 443 nbx 5 14 -1e+37 1e+37 0 0 empty empty empty 0 -8 0 10
-204800 -1 -1 1 256;
#X obj 447 420 route mtAirDensityRatio;
#X obj 661 399 r microserver;
#X obj 661 443 nbx 5 14 -1e+37 1e+37 0 0 empty empty empty 0 -8 0 10
-204800 -1 -1 22 256;
#X obj 661 420 route mtAvgTempToday;
#X obj 29 463 r microserver;
#X obj 29 507 nbx 5 14 -1e+37 1e+37 0 0 empty empty empty 0 -8 0 10
-204800 -1 -1 711.4 256;
#X obj 29 484 route mtDegreeDay;
#X obj 235 464 r microserver;
#X obj 235 508 nbx 5 14 -1e+37 1e+37 0 0 empty empty empty 0 -8 0 10
-204800 -1 -1 -2382 256;
#X obj 235 485 route mtDensityAltitude;
#X obj 447 463 r microserver;
#X obj 447 507 nbx 5 14 -1e+37 1e+37 0 0 empty empty empty 0 -8 0 10
-204800 -1 -1 8.5 256;
#X obj 447 484 route mtDewPoint;
#X text 509 501 heh;
#X obj 661 463 r microserver;
#X obj 661 507 nbx 5 14 -1e+37 1e+37 0 0 empty empty empty 0 -8 0 10
-204800 -1 -1 0.0819 256;
#X obj 661 484 route mtDryAirDensity;
#X text 358 539 ...there are more...see the full spec for details...
;
#X text 200 32 Here's how to use data from the [microserver] abstraction.
;
#X obj 237 353 route mtTemp1;
#X obj 30 223 route mtWindChill;
#X connect 2 0 3 0;
#X connect 3 0 4 0;
#X connect 5 0 7 0;
#X connect 6 0 8 0;
#X connect 7 0 14 0;
#X connect 8 0 15 0;
#X connect 9 0 10 0;
#X connect 10 0 16 0;
#X connect 11 0 12 0;
#X connect 12 0 17 0;
#X connect 13 0 79 0;
#X connect 19 0 21 0;
#X connect 21 0 20 0;
#X connect 22 0 24 0;
#X connect 24 0 23 0;
#X connect 25 0 27 0;
#X connect 27 0 26 0;
#X connect 28 0 32 0;
#X connect 30 0 33 0;
#X connect 32 0 29 0;
#X connect 33 0 31 0;
#X connect 34 0 36 0;
#X connect 36 0 35 0;
#X connect 37 0 39 0;
#X connect 39 0 38 0;
#X connect 40 0 42 0;
#X connect 42 0 41 0;
#X connect 43 0 78 0;
#X connect 45 0 47 0;
#X connect 47 0 46 0;
#X connect 48 0 50 0;
#X connect 50 0 49 0;
#X connect 51 0 53 0;
#X connect 53 0 52 0;
#X connect 54 0 56 0;
#X connect 56 0 55 0;
#X connect 57 0 59 0;
#X connect 59 0 58 0;
#X connect 60 0 62 0;
#X connect 62 0 61 0;
#X connect 63 0 65 0;
#X connect 65 0 64 0;
#X connect 66 0 68 0;
#X connect 68 0 67 0;
#X connect 69 0 71 0;
#X connect 71 0 70 0;
#X connect 73 0 75 0;
#X connect 75 0 74 0;
#X connect 78 0 44 0;
#X connect 79 0 18 0;
